G04 PROTEUS GERBER X2 FILE*
%TF.GenerationSoftware,Labcenter,Proteus,8.11-SP1-Build30228*%
%TF.CreationDate,2022-02-22T19:14:10+00:00*%
%TF.FileFunction,NonPlated,1,4,NPTH*%
%TF.FilePolarity,Positive*%
%TF.Part,Single*%
%TF.SameCoordinates,{6c2897ae-c00c-46c9-bae6-367ef81e3b77}*%
%FSLAX45Y45*%
%MOMM*%
G01*
%TA.AperFunction,Slot*%
%ADD124C,0.203200*%
%TA.AperFunction,Profile*%
%ADD47C,0.203200*%
%TD.AperFunction*%
D124*
X-4450000Y-1650000D02*
X+7000000Y-1650000D01*
X+7000000Y+7150000D01*
X-4450000Y+7150000D01*
X-4450000Y-1650000D01*
D47*
X+7000000Y-1650000D01*
X+7000000Y+7150000D01*
X-4450000Y+7150000D01*
X-4450000Y-1650000D01*
X+5641340Y+2554820D02*
X+5663332Y+2550509D01*
X+5681067Y+2538667D01*
X+5692909Y+2520932D01*
X+5697220Y+2498940D01*
X+5641340Y+2554820D02*
X+5619348Y+2550509D01*
X+5601613Y+2538667D01*
X+5589771Y+2520932D01*
X+5585460Y+2498940D01*
X+5641340Y+652360D02*
X+5619348Y+656671D01*
X+5601613Y+668513D01*
X+5589771Y+686248D01*
X+5585460Y+708240D01*
X+5641340Y+652360D02*
X+5663332Y+656671D01*
X+5681067Y+668513D01*
X+5692909Y+686248D01*
X+5697220Y+708240D01*
X+5585460Y+705700D02*
X+5585460Y+2498940D01*
X+5697220Y+2498940D02*
X+5697220Y+708240D01*
D124*
X+5641340Y+2554820D02*
X+5663332Y+2550509D01*
X+5681067Y+2538667D01*
X+5692909Y+2520932D01*
X+5697220Y+2498940D01*
X+5641340Y+2554820D02*
X+5619348Y+2550509D01*
X+5601613Y+2538667D01*
X+5589771Y+2520932D01*
X+5585460Y+2498940D01*
X+5641340Y+652360D02*
X+5619348Y+656671D01*
X+5601613Y+668513D01*
X+5589771Y+686248D01*
X+5585460Y+708240D01*
X+5641340Y+652360D02*
X+5663332Y+656671D01*
X+5681067Y+668513D01*
X+5692909Y+686248D01*
X+5697220Y+708240D01*
X+5585460Y+705700D02*
X+5585460Y+2498940D01*
X+5697220Y+2498940D02*
X+5697220Y+708240D01*
M02*
