G04 PROTEUS GERBER X2 FILE*
%TF.GenerationSoftware,Labcenter,Proteus,8.11-SP1-Build30228*%
%TF.CreationDate,2022-02-22T19:14:10+00:00*%
%TF.FileFunction,AssemblyDrawing,Bot*%
%TF.FilePolarity,Positive*%
%TF.Part,Single*%
%TF.SameCoordinates,{6c2897ae-c00c-46c9-bae6-367ef81e3b77}*%
%FSLAX45Y45*%
%MOMM*%
G01*
%TA.AperFunction,Profile*%
%ADD47C,0.203200*%
%TA.AperFunction,Material*%
%ADD51C,0.203200*%
%ADD161C,0.406400*%
%ADD162C,0.096520*%
%ADD136C,0.050000*%
%ADD163C,0.843280*%
%ADD164C,0.173330*%
%ADD137C,0.396240*%
%ADD138C,0.065780*%
%ADD165C,0.049340*%
%TD.AperFunction*%
D47*
X-4450000Y-1650000D02*
X+7000000Y-1650000D01*
X+7000000Y+7150000D01*
X-4450000Y+7150000D01*
X-4450000Y-1650000D01*
X+5641340Y+2554820D02*
X+5663332Y+2550509D01*
X+5681067Y+2538667D01*
X+5692909Y+2520932D01*
X+5697220Y+2498940D01*
X+5641340Y+2554820D02*
X+5619348Y+2550509D01*
X+5601613Y+2538667D01*
X+5589771Y+2520932D01*
X+5585460Y+2498940D01*
X+5641340Y+652360D02*
X+5619348Y+656671D01*
X+5601613Y+668513D01*
X+5589771Y+686248D01*
X+5585460Y+708240D01*
X+5641340Y+652360D02*
X+5663332Y+656671D01*
X+5681067Y+668513D01*
X+5692909Y+686248D01*
X+5697220Y+708240D01*
X+5585460Y+705700D02*
X+5585460Y+2498940D01*
X+5697220Y+2498940D02*
X+5697220Y+708240D01*
D51*
X+2020060Y+4033700D02*
X+2329940Y+4033700D01*
X+2329940Y+4325800D01*
X+2020060Y+4325800D01*
X+2020060Y+4033700D01*
D161*
X+2175000Y+4275000D02*
X+2175000Y+4275000D01*
D162*
X+2261868Y+4115234D02*
X+2261868Y+4173146D01*
X+2218434Y+4173146D01*
X+2196717Y+4153842D01*
X+2196717Y+4134538D01*
X+2218434Y+4115234D01*
X+2261868Y+4115234D01*
X+2153283Y+4144190D02*
X+2164142Y+4153842D01*
X+2164142Y+4163494D01*
X+2153283Y+4173146D01*
X+2120708Y+4173146D01*
X+2109849Y+4163494D01*
X+2109849Y+4153842D01*
X+2120708Y+4144190D01*
X+2153283Y+4144190D01*
X+2164142Y+4134538D01*
X+2164142Y+4124886D01*
X+2153283Y+4115234D01*
X+2120708Y+4115234D01*
X+2109849Y+4124886D01*
X+2109849Y+4134538D01*
X+2120708Y+4144190D01*
D51*
X+2345060Y+4083700D02*
X+2654940Y+4083700D01*
X+2654940Y+4375800D01*
X+2345060Y+4375800D01*
X+2345060Y+4083700D01*
D161*
X+2500000Y+4325000D02*
X+2500000Y+4325000D01*
D162*
X+2586868Y+4165234D02*
X+2586868Y+4223146D01*
X+2543434Y+4223146D01*
X+2521717Y+4203842D01*
X+2521717Y+4184538D01*
X+2543434Y+4165234D01*
X+2586868Y+4165234D01*
X+2489142Y+4223146D02*
X+2434849Y+4223146D01*
X+2434849Y+4213494D01*
X+2489142Y+4165234D01*
D51*
X+1520060Y+4033700D02*
X+1829940Y+4033700D01*
X+1829940Y+4325800D01*
X+1520060Y+4325800D01*
X+1520060Y+4033700D01*
D161*
X+1675000Y+4275000D02*
X+1675000Y+4275000D01*
D162*
X+1761868Y+4115234D02*
X+1761868Y+4173146D01*
X+1718434Y+4173146D01*
X+1696717Y+4153842D01*
X+1696717Y+4134538D01*
X+1718434Y+4115234D01*
X+1761868Y+4115234D01*
X+1609849Y+4153842D02*
X+1620708Y+4144190D01*
X+1653283Y+4144190D01*
X+1664142Y+4153842D01*
X+1664142Y+4163494D01*
X+1653283Y+4173146D01*
X+1620708Y+4173146D01*
X+1609849Y+4163494D01*
X+1609849Y+4124886D01*
X+1620708Y+4115234D01*
X+1653283Y+4115234D01*
D51*
X+895060Y+4258700D02*
X+1204940Y+4258700D01*
X+1204940Y+4550800D01*
X+895060Y+4550800D01*
X+895060Y+4258700D01*
D161*
X+1050000Y+4500000D02*
X+1050000Y+4500000D01*
D162*
X+1180302Y+4340234D02*
X+1180302Y+4398146D01*
X+1136868Y+4398146D01*
X+1115151Y+4378842D01*
X+1115151Y+4359538D01*
X+1136868Y+4340234D01*
X+1180302Y+4340234D01*
X+1071717Y+4378842D02*
X+1050000Y+4398146D01*
X+1050000Y+4340234D01*
X+1006566Y+4349886D02*
X+1006566Y+4388494D01*
X+995708Y+4398146D01*
X+952274Y+4398146D01*
X+941415Y+4388494D01*
X+941415Y+4349886D01*
X+952274Y+4340234D01*
X+995708Y+4340234D01*
X+1006566Y+4349886D01*
X+1006566Y+4340234D02*
X+941415Y+4398146D01*
D51*
X+945060Y+3783700D02*
X+1254940Y+3783700D01*
X+1254940Y+4075800D01*
X+945060Y+4075800D01*
X+945060Y+3783700D01*
D161*
X+1100000Y+4025000D02*
X+1100000Y+4025000D01*
D162*
X+1230302Y+3865234D02*
X+1230302Y+3923146D01*
X+1186868Y+3923146D01*
X+1165151Y+3903842D01*
X+1165151Y+3884538D01*
X+1186868Y+3865234D01*
X+1230302Y+3865234D01*
X+1121717Y+3903842D02*
X+1100000Y+3923146D01*
X+1100000Y+3865234D01*
X+1034849Y+3903842D02*
X+1013132Y+3923146D01*
X+1013132Y+3865234D01*
D51*
X+574200Y+3670060D02*
X+866300Y+3670060D01*
X+866300Y+3979940D01*
X+574200Y+3979940D01*
X+574200Y+3670060D01*
D161*
X+625000Y+3825000D02*
X+625000Y+3825000D01*
D162*
X+784766Y+3955302D02*
X+726854Y+3955302D01*
X+726854Y+3911868D01*
X+746158Y+3890151D01*
X+765462Y+3890151D01*
X+784766Y+3911868D01*
X+784766Y+3955302D01*
X+746158Y+3846717D02*
X+726854Y+3825000D01*
X+784766Y+3825000D01*
X+736506Y+3770708D02*
X+726854Y+3759849D01*
X+726854Y+3727274D01*
X+736506Y+3716415D01*
X+746158Y+3716415D01*
X+755810Y+3727274D01*
X+755810Y+3759849D01*
X+765462Y+3770708D01*
X+784766Y+3770708D01*
X+784766Y+3716415D01*
D51*
X+99200Y+3020060D02*
X+391300Y+3020060D01*
X+391300Y+3329940D01*
X+99200Y+3329940D01*
X+99200Y+3020060D01*
D161*
X+150000Y+3175000D02*
X+150000Y+3175000D01*
D162*
X+309766Y+3305302D02*
X+251854Y+3305302D01*
X+251854Y+3261868D01*
X+271158Y+3240151D01*
X+290462Y+3240151D01*
X+309766Y+3261868D01*
X+309766Y+3305302D01*
X+271158Y+3196717D02*
X+251854Y+3175000D01*
X+309766Y+3175000D01*
X+261506Y+3120708D02*
X+251854Y+3109849D01*
X+251854Y+3077274D01*
X+261506Y+3066415D01*
X+271158Y+3066415D01*
X+280810Y+3077274D01*
X+290462Y+3066415D01*
X+300114Y+3066415D01*
X+309766Y+3077274D01*
X+309766Y+3109849D01*
X+300114Y+3120708D01*
X+280810Y+3098991D02*
X+280810Y+3077274D01*
D51*
X-300800Y+3270060D02*
X-8700Y+3270060D01*
X-8700Y+3579940D01*
X-300800Y+3579940D01*
X-300800Y+3270060D01*
D161*
X-250000Y+3425000D02*
X-250000Y+3425000D01*
D162*
X-90234Y+3555302D02*
X-148146Y+3555302D01*
X-148146Y+3511868D01*
X-128842Y+3490151D01*
X-109538Y+3490151D01*
X-90234Y+3511868D01*
X-90234Y+3555302D01*
X-128842Y+3446717D02*
X-148146Y+3425000D01*
X-90234Y+3425000D01*
X-109538Y+3316415D02*
X-109538Y+3381566D01*
X-148146Y+3338132D01*
X-90234Y+3338132D01*
D51*
X-125800Y+2545060D02*
X+166300Y+2545060D01*
X+166300Y+2854940D01*
X-125800Y+2854940D01*
X-125800Y+2545060D01*
D161*
X-75000Y+2700000D02*
X-75000Y+2700000D01*
D162*
X+84766Y+2830302D02*
X+26854Y+2830302D01*
X+26854Y+2786868D01*
X+46158Y+2765151D01*
X+65462Y+2765151D01*
X+84766Y+2786868D01*
X+84766Y+2830302D01*
X+46158Y+2721717D02*
X+26854Y+2700000D01*
X+84766Y+2700000D01*
X+26854Y+2591415D02*
X+26854Y+2645708D01*
X+46158Y+2645708D01*
X+46158Y+2602274D01*
X+55810Y+2591415D01*
X+75114Y+2591415D01*
X+84766Y+2602274D01*
X+84766Y+2634849D01*
X+75114Y+2645708D01*
D136*
X+730000Y+4210000D02*
X+20000Y+4210000D01*
X+20000Y+4640000D01*
X+730000Y+4640000D01*
X+730000Y+4210000D01*
X+375000Y+4475000D02*
X+375000Y+4375000D01*
X+325000Y+4425000D02*
X+425000Y+4425000D01*
D163*
X+600000Y+4425000D02*
X+600000Y+4425000D01*
D164*
X+521674Y+4372998D02*
X+521674Y+4477001D01*
X+443672Y+4477001D01*
X+404671Y+4442333D01*
X+404671Y+4407666D01*
X+443672Y+4372998D01*
X+521674Y+4372998D01*
X+326669Y+4442333D02*
X+287668Y+4477001D01*
X+287668Y+4372998D01*
X+92663Y+4459667D02*
X+112164Y+4477001D01*
X+170665Y+4477001D01*
X+190166Y+4459667D01*
X+190166Y+4390332D01*
X+170665Y+4372998D01*
X+112164Y+4372998D01*
X+92663Y+4390332D01*
X+92663Y+4407666D01*
X+112164Y+4425000D01*
X+190166Y+4425000D01*
D136*
X+2560000Y+4875000D02*
X+2250000Y+4875000D01*
X+2250000Y+5025000D01*
X+2560000Y+5025000D01*
X+2560000Y+4875000D01*
X+2405000Y+5000000D02*
X+2405000Y+4900000D01*
X+2355000Y+4950000D02*
X+2455000Y+4950000D01*
D137*
X+2485000Y+4950000D02*
X+2485000Y+4950000D01*
D138*
X+2400752Y+4936842D02*
X+2408153Y+4930263D01*
X+2430357Y+4930263D01*
X+2445159Y+4943421D01*
X+2445159Y+4956579D01*
X+2430357Y+4969737D01*
X+2408153Y+4969737D01*
X+2400752Y+4963158D01*
X+2371147Y+4950000D02*
X+2378548Y+4956579D01*
X+2378548Y+4963158D01*
X+2371147Y+4969737D01*
X+2348943Y+4969737D01*
X+2341542Y+4963158D01*
X+2341542Y+4956579D01*
X+2348943Y+4950000D01*
X+2371147Y+4950000D01*
X+2378548Y+4943421D01*
X+2378548Y+4936842D01*
X+2371147Y+4930263D01*
X+2348943Y+4930263D01*
X+2341542Y+4936842D01*
X+2341542Y+4943421D01*
X+2348943Y+4950000D01*
X+2282332Y+4963158D02*
X+2289733Y+4969737D01*
X+2311937Y+4969737D01*
X+2319338Y+4963158D01*
X+2319338Y+4936842D01*
X+2311937Y+4930263D01*
X+2289733Y+4930263D01*
X+2282332Y+4936842D01*
X+2282332Y+4943421D01*
X+2289733Y+4950000D01*
X+2319338Y+4950000D01*
D136*
X+1750000Y+4875000D02*
X+1440000Y+4875000D01*
X+1440000Y+5025000D01*
X+1750000Y+5025000D01*
X+1750000Y+4875000D01*
X+1595000Y+5000000D02*
X+1595000Y+4900000D01*
X+1545000Y+4950000D02*
X+1645000Y+4950000D01*
D137*
X+1675000Y+4950000D02*
X+1675000Y+4950000D01*
D138*
X+1590752Y+4936842D02*
X+1598153Y+4930263D01*
X+1620357Y+4930263D01*
X+1635159Y+4943421D01*
X+1635159Y+4956579D01*
X+1620357Y+4969737D01*
X+1598153Y+4969737D01*
X+1590752Y+4963158D01*
X+1561147Y+4950000D02*
X+1568548Y+4956579D01*
X+1568548Y+4963158D01*
X+1561147Y+4969737D01*
X+1538943Y+4969737D01*
X+1531542Y+4963158D01*
X+1531542Y+4956579D01*
X+1538943Y+4950000D01*
X+1561147Y+4950000D01*
X+1568548Y+4943421D01*
X+1568548Y+4936842D01*
X+1561147Y+4930263D01*
X+1538943Y+4930263D01*
X+1531542Y+4936842D01*
X+1531542Y+4943421D01*
X+1538943Y+4950000D01*
X+1509338Y+4969737D02*
X+1472332Y+4969737D01*
X+1472332Y+4963158D01*
X+1509338Y+4930263D01*
D136*
X+950000Y+4875000D02*
X+640000Y+4875000D01*
X+640000Y+5025000D01*
X+950000Y+5025000D01*
X+950000Y+4875000D01*
X+795000Y+5000000D02*
X+795000Y+4900000D01*
X+745000Y+4950000D02*
X+845000Y+4950000D01*
D137*
X+875000Y+4950000D02*
X+875000Y+4950000D01*
D138*
X+790752Y+4936842D02*
X+798153Y+4930263D01*
X+820357Y+4930263D01*
X+835159Y+4943421D01*
X+835159Y+4956579D01*
X+820357Y+4969737D01*
X+798153Y+4969737D01*
X+790752Y+4963158D01*
X+761147Y+4950000D02*
X+768548Y+4956579D01*
X+768548Y+4963158D01*
X+761147Y+4969737D01*
X+738943Y+4969737D01*
X+731542Y+4963158D01*
X+731542Y+4956579D01*
X+738943Y+4950000D01*
X+761147Y+4950000D01*
X+768548Y+4943421D01*
X+768548Y+4936842D01*
X+761147Y+4930263D01*
X+738943Y+4930263D01*
X+731542Y+4936842D01*
X+731542Y+4943421D01*
X+738943Y+4950000D01*
X+701937Y+4950000D02*
X+709338Y+4956579D01*
X+709338Y+4963158D01*
X+701937Y+4969737D01*
X+679733Y+4969737D01*
X+672332Y+4963158D01*
X+672332Y+4956579D01*
X+679733Y+4950000D01*
X+701937Y+4950000D01*
X+709338Y+4943421D01*
X+709338Y+4936842D01*
X+701937Y+4930263D01*
X+679733Y+4930263D01*
X+672332Y+4936842D01*
X+672332Y+4943421D01*
X+679733Y+4950000D01*
D136*
X+150000Y+4875000D02*
X-160000Y+4875000D01*
X-160000Y+5025000D01*
X+150000Y+5025000D01*
X+150000Y+4875000D01*
X-5000Y+5000000D02*
X-5000Y+4900000D01*
X-55000Y+4950000D02*
X+45000Y+4950000D01*
D137*
X+75000Y+4950000D02*
X+75000Y+4950000D01*
D138*
X-9248Y+4936842D02*
X-1847Y+4930263D01*
X+20357Y+4930263D01*
X+35159Y+4943421D01*
X+35159Y+4956579D01*
X+20357Y+4969737D01*
X-1847Y+4969737D01*
X-9248Y+4963158D01*
X-38853Y+4950000D02*
X-31452Y+4956579D01*
X-31452Y+4963158D01*
X-38853Y+4969737D01*
X-61057Y+4969737D01*
X-68458Y+4963158D01*
X-68458Y+4956579D01*
X-61057Y+4950000D01*
X-38853Y+4950000D01*
X-31452Y+4943421D01*
X-31452Y+4936842D01*
X-38853Y+4930263D01*
X-61057Y+4930263D01*
X-68458Y+4936842D01*
X-68458Y+4943421D01*
X-61057Y+4950000D01*
X-127668Y+4956579D02*
X-120267Y+4950000D01*
X-98063Y+4950000D01*
X-90662Y+4956579D01*
X-90662Y+4963158D01*
X-98063Y+4969737D01*
X-120267Y+4969737D01*
X-127668Y+4963158D01*
X-127668Y+4936842D01*
X-120267Y+4930263D01*
X-98063Y+4930263D01*
D136*
X-375000Y+4775000D02*
X-375000Y+4465000D01*
X-525000Y+4465000D01*
X-525000Y+4775000D01*
X-375000Y+4775000D01*
X-500000Y+4620000D02*
X-400000Y+4620000D01*
X-450000Y+4570000D02*
X-450000Y+4670000D01*
D137*
X-450000Y+4700000D02*
X-450000Y+4700000D01*
D138*
X-436842Y+4615752D02*
X-430263Y+4623153D01*
X-430263Y+4645357D01*
X-443421Y+4660159D01*
X-456579Y+4660159D01*
X-469737Y+4645357D01*
X-469737Y+4623153D01*
X-463158Y+4615752D01*
X-456579Y+4556542D02*
X-450000Y+4563943D01*
X-450000Y+4586147D01*
X-456579Y+4593548D01*
X-463158Y+4593548D01*
X-469737Y+4586147D01*
X-469737Y+4563943D01*
X-463158Y+4556542D01*
X-436842Y+4556542D01*
X-430263Y+4563943D01*
X-430263Y+4586147D01*
X-436842Y+4541739D02*
X-463158Y+4541739D01*
X-469737Y+4534338D01*
X-469737Y+4504733D01*
X-463158Y+4497332D01*
X-436842Y+4497332D01*
X-430263Y+4504733D01*
X-430263Y+4534338D01*
X-436842Y+4541739D01*
X-430263Y+4541739D02*
X-469737Y+4497332D01*
D136*
X-375000Y+4225000D02*
X-375000Y+3915000D01*
X-525000Y+3915000D01*
X-525000Y+4225000D01*
X-375000Y+4225000D01*
X-500000Y+4070000D02*
X-400000Y+4070000D01*
X-450000Y+4020000D02*
X-450000Y+4120000D01*
D137*
X-450000Y+4150000D02*
X-450000Y+4150000D01*
D138*
X-436842Y+4065752D02*
X-430263Y+4073153D01*
X-430263Y+4095357D01*
X-443421Y+4110159D01*
X-456579Y+4110159D01*
X-469737Y+4095357D01*
X-469737Y+4073153D01*
X-463158Y+4065752D01*
X-456579Y+4006542D02*
X-450000Y+4013943D01*
X-450000Y+4036147D01*
X-456579Y+4043548D01*
X-463158Y+4043548D01*
X-469737Y+4036147D01*
X-469737Y+4013943D01*
X-463158Y+4006542D01*
X-436842Y+4006542D01*
X-430263Y+4013943D01*
X-430263Y+4036147D01*
X-456579Y+3976937D02*
X-469737Y+3962134D01*
X-430263Y+3962134D01*
D136*
X-375000Y+3725000D02*
X-375000Y+3415000D01*
X-525000Y+3415000D01*
X-525000Y+3725000D01*
X-375000Y+3725000D01*
X-500000Y+3570000D02*
X-400000Y+3570000D01*
X-450000Y+3520000D02*
X-450000Y+3620000D01*
D137*
X-450000Y+3650000D02*
X-450000Y+3650000D01*
D138*
X-436842Y+3565752D02*
X-430263Y+3573153D01*
X-430263Y+3595357D01*
X-443421Y+3610159D01*
X-456579Y+3610159D01*
X-469737Y+3595357D01*
X-469737Y+3573153D01*
X-463158Y+3565752D01*
X-456579Y+3506542D02*
X-450000Y+3513943D01*
X-450000Y+3536147D01*
X-456579Y+3543548D01*
X-463158Y+3543548D01*
X-469737Y+3536147D01*
X-469737Y+3513943D01*
X-463158Y+3506542D01*
X-436842Y+3506542D01*
X-430263Y+3513943D01*
X-430263Y+3536147D01*
X-463158Y+3484338D02*
X-469737Y+3476937D01*
X-469737Y+3454733D01*
X-463158Y+3447332D01*
X-456579Y+3447332D01*
X-450000Y+3454733D01*
X-450000Y+3476937D01*
X-443421Y+3484338D01*
X-430263Y+3484338D01*
X-430263Y+3447332D01*
D136*
X-375000Y+3250000D02*
X-375000Y+2940000D01*
X-525000Y+2940000D01*
X-525000Y+3250000D01*
X-375000Y+3250000D01*
X-500000Y+3095000D02*
X-400000Y+3095000D01*
X-450000Y+3045000D02*
X-450000Y+3145000D01*
D137*
X-450000Y+3175000D02*
X-450000Y+3175000D01*
D138*
X-436842Y+3090752D02*
X-430263Y+3098153D01*
X-430263Y+3120357D01*
X-443421Y+3135159D01*
X-456579Y+3135159D01*
X-469737Y+3120357D01*
X-469737Y+3098153D01*
X-463158Y+3090752D01*
X-456579Y+3031542D02*
X-450000Y+3038943D01*
X-450000Y+3061147D01*
X-456579Y+3068548D01*
X-463158Y+3068548D01*
X-469737Y+3061147D01*
X-469737Y+3038943D01*
X-463158Y+3031542D01*
X-436842Y+3031542D01*
X-430263Y+3038943D01*
X-430263Y+3061147D01*
X-463158Y+3009338D02*
X-469737Y+3001937D01*
X-469737Y+2979733D01*
X-463158Y+2972332D01*
X-456579Y+2972332D01*
X-450000Y+2979733D01*
X-443421Y+2972332D01*
X-436842Y+2972332D01*
X-430263Y+2979733D01*
X-430263Y+3001937D01*
X-436842Y+3009338D01*
X-450000Y+2994536D02*
X-450000Y+2979733D01*
D136*
X-375000Y+2700000D02*
X-375000Y+2390000D01*
X-525000Y+2390000D01*
X-525000Y+2700000D01*
X-375000Y+2700000D01*
X-500000Y+2545000D02*
X-400000Y+2545000D01*
X-450000Y+2495000D02*
X-450000Y+2595000D01*
D137*
X-450000Y+2625000D02*
X-450000Y+2625000D01*
D138*
X-436842Y+2540752D02*
X-430263Y+2548153D01*
X-430263Y+2570357D01*
X-443421Y+2585159D01*
X-456579Y+2585159D01*
X-469737Y+2570357D01*
X-469737Y+2548153D01*
X-463158Y+2540752D01*
X-456579Y+2481542D02*
X-450000Y+2488943D01*
X-450000Y+2511147D01*
X-456579Y+2518548D01*
X-463158Y+2518548D01*
X-469737Y+2511147D01*
X-469737Y+2488943D01*
X-463158Y+2481542D01*
X-436842Y+2481542D01*
X-430263Y+2488943D01*
X-430263Y+2511147D01*
X-443421Y+2422332D02*
X-443421Y+2466739D01*
X-469737Y+2437134D01*
X-430263Y+2437134D01*
D136*
X-375000Y+1875000D02*
X-375000Y+1565000D01*
X-525000Y+1565000D01*
X-525000Y+1875000D01*
X-375000Y+1875000D01*
X-500000Y+1720000D02*
X-400000Y+1720000D01*
X-450000Y+1670000D02*
X-450000Y+1770000D01*
D137*
X-450000Y+1800000D02*
X-450000Y+1800000D01*
D138*
X-436842Y+1715752D02*
X-430263Y+1723153D01*
X-430263Y+1745357D01*
X-443421Y+1760159D01*
X-456579Y+1760159D01*
X-469737Y+1745357D01*
X-469737Y+1723153D01*
X-463158Y+1715752D01*
X-456579Y+1656542D02*
X-450000Y+1663943D01*
X-450000Y+1686147D01*
X-456579Y+1693548D01*
X-463158Y+1693548D01*
X-469737Y+1686147D01*
X-469737Y+1663943D01*
X-463158Y+1656542D01*
X-436842Y+1656542D01*
X-430263Y+1663943D01*
X-430263Y+1686147D01*
X-469737Y+1597332D02*
X-469737Y+1634338D01*
X-456579Y+1634338D01*
X-456579Y+1604733D01*
X-450000Y+1597332D01*
X-436842Y+1597332D01*
X-430263Y+1604733D01*
X-430263Y+1626937D01*
X-436842Y+1634338D01*
D136*
X-200000Y+1000000D02*
X+110000Y+1000000D01*
X+110000Y+850000D01*
X-200000Y+850000D01*
X-200000Y+1000000D01*
X-45000Y+875000D02*
X-45000Y+975000D01*
X+5000Y+925000D02*
X-95000Y+925000D01*
D137*
X-125000Y+925000D02*
X-125000Y+925000D01*
D138*
X+48064Y+911842D02*
X+55465Y+905263D01*
X+77669Y+905263D01*
X+92471Y+918421D01*
X+92471Y+931579D01*
X+77669Y+944737D01*
X+55465Y+944737D01*
X+48064Y+938158D01*
X-11146Y+931579D02*
X-3745Y+925000D01*
X+18459Y+925000D01*
X+25860Y+931579D01*
X+25860Y+938158D01*
X+18459Y+944737D01*
X-3745Y+944737D01*
X-11146Y+938158D01*
X-11146Y+911842D01*
X-3745Y+905263D01*
X+18459Y+905263D01*
X-70356Y+938158D02*
X-62955Y+944737D01*
X-40751Y+944737D01*
X-33350Y+938158D01*
X-33350Y+911842D01*
X-40751Y+905263D01*
X-62955Y+905263D01*
X-70356Y+911842D01*
X-70356Y+918421D01*
X-62955Y+925000D01*
X-33350Y+925000D01*
D136*
X+315000Y+1000000D02*
X+625000Y+1000000D01*
X+625000Y+850000D01*
X+315000Y+850000D01*
X+315000Y+1000000D01*
X+470000Y+875000D02*
X+470000Y+975000D01*
X+520000Y+925000D02*
X+420000Y+925000D01*
D137*
X+390000Y+925000D02*
X+390000Y+925000D01*
D138*
X+563064Y+911842D02*
X+570465Y+905263D01*
X+592669Y+905263D01*
X+607471Y+918421D01*
X+607471Y+931579D01*
X+592669Y+944737D01*
X+570465Y+944737D01*
X+563064Y+938158D01*
X+503854Y+931579D02*
X+511255Y+925000D01*
X+533459Y+925000D01*
X+540860Y+931579D01*
X+540860Y+938158D01*
X+533459Y+944737D01*
X+511255Y+944737D01*
X+503854Y+938158D01*
X+503854Y+911842D01*
X+511255Y+905263D01*
X+533459Y+905263D01*
X+481650Y+944737D02*
X+444644Y+944737D01*
X+444644Y+938158D01*
X+481650Y+905263D01*
D136*
X+925000Y+1000000D02*
X+1235000Y+1000000D01*
X+1235000Y+850000D01*
X+925000Y+850000D01*
X+925000Y+1000000D01*
X+1080000Y+875000D02*
X+1080000Y+975000D01*
X+1130000Y+925000D02*
X+1030000Y+925000D01*
D137*
X+1000000Y+925000D02*
X+1000000Y+925000D01*
D138*
X+1173064Y+911842D02*
X+1180465Y+905263D01*
X+1202669Y+905263D01*
X+1217471Y+918421D01*
X+1217471Y+931579D01*
X+1202669Y+944737D01*
X+1180465Y+944737D01*
X+1173064Y+938158D01*
X+1113854Y+931579D02*
X+1121255Y+925000D01*
X+1143459Y+925000D01*
X+1150860Y+931579D01*
X+1150860Y+938158D01*
X+1143459Y+944737D01*
X+1121255Y+944737D01*
X+1113854Y+938158D01*
X+1113854Y+911842D01*
X+1121255Y+905263D01*
X+1143459Y+905263D01*
X+1084249Y+925000D02*
X+1091650Y+931579D01*
X+1091650Y+938158D01*
X+1084249Y+944737D01*
X+1062045Y+944737D01*
X+1054644Y+938158D01*
X+1054644Y+931579D01*
X+1062045Y+925000D01*
X+1084249Y+925000D01*
X+1091650Y+918421D01*
X+1091650Y+911842D01*
X+1084249Y+905263D01*
X+1062045Y+905263D01*
X+1054644Y+911842D01*
X+1054644Y+918421D01*
X+1062045Y+925000D01*
D136*
X+1450000Y+1000000D02*
X+1760000Y+1000000D01*
X+1760000Y+850000D01*
X+1450000Y+850000D01*
X+1450000Y+1000000D01*
X+1605000Y+875000D02*
X+1605000Y+975000D01*
X+1655000Y+925000D02*
X+1555000Y+925000D01*
D137*
X+1525000Y+925000D02*
X+1525000Y+925000D01*
D138*
X+1698064Y+911842D02*
X+1705465Y+905263D01*
X+1727669Y+905263D01*
X+1742471Y+918421D01*
X+1742471Y+931579D01*
X+1727669Y+944737D01*
X+1705465Y+944737D01*
X+1698064Y+938158D01*
X+1638854Y+931579D02*
X+1646255Y+925000D01*
X+1668459Y+925000D01*
X+1675860Y+931579D01*
X+1675860Y+938158D01*
X+1668459Y+944737D01*
X+1646255Y+944737D01*
X+1638854Y+938158D01*
X+1638854Y+911842D01*
X+1646255Y+905263D01*
X+1668459Y+905263D01*
X+1579644Y+931579D02*
X+1587045Y+925000D01*
X+1609249Y+925000D01*
X+1616650Y+931579D01*
X+1616650Y+938158D01*
X+1609249Y+944737D01*
X+1587045Y+944737D01*
X+1579644Y+938158D01*
X+1579644Y+911842D01*
X+1587045Y+905263D01*
X+1609249Y+905263D01*
D136*
X+1825000Y+1000000D02*
X+2135000Y+1000000D01*
X+2135000Y+850000D01*
X+1825000Y+850000D01*
X+1825000Y+1000000D01*
X+1980000Y+875000D02*
X+1980000Y+975000D01*
X+2030000Y+925000D02*
X+1930000Y+925000D01*
D137*
X+1900000Y+925000D02*
X+1900000Y+925000D01*
D165*
X+2084165Y+915131D02*
X+2089716Y+910197D01*
X+2106369Y+910197D01*
X+2117470Y+920065D01*
X+2117470Y+929934D01*
X+2106369Y+939802D01*
X+2089716Y+939802D01*
X+2084165Y+934868D01*
X+2061962Y+929934D02*
X+2050860Y+939802D01*
X+2050860Y+910197D01*
X+2028656Y+915131D02*
X+2028656Y+934868D01*
X+2023106Y+939802D01*
X+2000902Y+939802D01*
X+1995351Y+934868D01*
X+1995351Y+915131D01*
X+2000902Y+910197D01*
X+2023106Y+910197D01*
X+2028656Y+915131D01*
X+2028656Y+910197D02*
X+1995351Y+939802D01*
X+1984249Y+915131D02*
X+1984249Y+934868D01*
X+1978699Y+939802D01*
X+1956495Y+939802D01*
X+1950944Y+934868D01*
X+1950944Y+915131D01*
X+1956495Y+910197D01*
X+1978699Y+910197D01*
X+1984249Y+915131D01*
X+1984249Y+910197D02*
X+1950944Y+939802D01*
D136*
X+2200000Y+1000000D02*
X+2510000Y+1000000D01*
X+2510000Y+850000D01*
X+2200000Y+850000D01*
X+2200000Y+1000000D01*
X+2355000Y+875000D02*
X+2355000Y+975000D01*
X+2405000Y+925000D02*
X+2305000Y+925000D01*
D137*
X+2275000Y+925000D02*
X+2275000Y+925000D01*
D165*
X+2459165Y+915131D02*
X+2464716Y+910197D01*
X+2481369Y+910197D01*
X+2492470Y+920065D01*
X+2492470Y+929934D01*
X+2481369Y+939802D01*
X+2464716Y+939802D01*
X+2459165Y+934868D01*
X+2436962Y+929934D02*
X+2425860Y+939802D01*
X+2425860Y+910197D01*
X+2403656Y+915131D02*
X+2403656Y+934868D01*
X+2398106Y+939802D01*
X+2375902Y+939802D01*
X+2370351Y+934868D01*
X+2370351Y+915131D01*
X+2375902Y+910197D01*
X+2398106Y+910197D01*
X+2403656Y+915131D01*
X+2403656Y+910197D02*
X+2370351Y+939802D01*
X+2348148Y+929934D02*
X+2337046Y+939802D01*
X+2337046Y+910197D01*
M02*
