G04 PROTEUS GERBER X2 FILE*
%TF.GenerationSoftware,Labcenter,Proteus,8.11-SP1-Build30228*%
%TF.CreationDate,2022-02-22T19:14:10+00:00*%
%TF.FileFunction,Copper,L3,Inr*%
%TF.FilePolarity,Positive*%
%TF.Part,Single*%
%TF.SameCoordinates,{6c2897ae-c00c-46c9-bae6-367ef81e3b77}*%
%FSLAX45Y45*%
%MOMM*%
G01*
%TA.AperFunction,Conductor*%
%ADD13C,0.304800*%
%TA.AperFunction,ViaPad*%
%ADD18C,0.508000*%
%ADD19C,0.381000*%
%TA.AperFunction,OtherPad,Unknown*%
%ADD21C,6.350000*%
%TA.AperFunction,ComponentPad*%
%ADD25C,3.048000*%
%TA.AperFunction,ComponentPad*%
%ADD32R,2.032000X2.032000*%
%TA.AperFunction,OtherPad,Unknown*%
%ADD36C,1.270000*%
%TA.AperFunction,ComponentPad*%
%ADD37C,2.540000*%
%TA.AperFunction,NonConductor*%
%ADD46C,0.203200*%
%TA.AperFunction,Profile*%
%ADD47C,0.203200*%
%TD.AperFunction*%
G36*
X+2937015Y+4466039D02*
X+2922646Y+4466039D01*
X+2883961Y+4427354D01*
X+2883961Y+4372646D01*
X+2922646Y+4333961D01*
X+2954937Y+4333961D01*
X+2937015Y+4316039D01*
X+2922646Y+4316039D01*
X+2883961Y+4277354D01*
X+2883961Y+4222646D01*
X+2922646Y+4183961D01*
X+2954937Y+4183961D01*
X+2937015Y+4166039D01*
X+2922646Y+4166039D01*
X+2883961Y+4127354D01*
X+2883961Y+4112985D01*
X+2769121Y+3998145D01*
X+2769121Y+3548145D01*
X+2426295Y+3205319D01*
X+2262559Y+3205834D01*
X+2252354Y+3216039D01*
X+2197646Y+3216039D01*
X+2158961Y+3177354D01*
X+2158961Y+3122646D01*
X+2181607Y+3100000D01*
X+2158961Y+3077354D01*
X+2158961Y+3022646D01*
X+2197646Y+2983961D01*
X+2252354Y+2983961D01*
X+2262360Y+2993967D01*
X+2364681Y+2993705D01*
X+2326854Y+2955878D01*
X+2285383Y+2955878D01*
X+2283595Y+2959825D01*
X+2259721Y+2958672D01*
X+2252354Y+2966039D01*
X+2197646Y+2966039D01*
X+2158961Y+2927354D01*
X+2158961Y+2872646D01*
X+2181607Y+2850000D01*
X+2158961Y+2827354D01*
X+2158961Y+2772646D01*
X+2197646Y+2733961D01*
X+2252354Y+2733961D01*
X+2262388Y+2743995D01*
X+2448092Y+2743608D01*
X+2448605Y+2744121D01*
X+2522623Y+2744121D01*
X+2539041Y+2760792D01*
X+2604929Y+2827697D01*
X+2605699Y+2926675D01*
X+2619121Y+2940097D01*
X+2619121Y+2773145D01*
X+2562015Y+2716039D01*
X+2547646Y+2716039D01*
X+2508961Y+2677354D01*
X+2508961Y+2622646D01*
X+2547646Y+2583961D01*
X+2579937Y+2583961D01*
X+2562015Y+2566039D01*
X+2547646Y+2566039D01*
X+2508961Y+2527354D01*
X+2508961Y+2472646D01*
X+2547646Y+2433961D01*
X+2602354Y+2433961D01*
X+2641039Y+2472646D01*
X+2641039Y+2487015D01*
X+2805879Y+2651855D01*
X+2805879Y+2704608D01*
X+2813427Y+2697060D01*
X+2836573Y+2697060D01*
X+2852940Y+2713427D01*
X+2852940Y+2736573D01*
X+2836573Y+2752940D01*
X+2813427Y+2752940D01*
X+2805879Y+2745392D01*
X+2805879Y+2854608D01*
X+2813427Y+2847060D01*
X+2836573Y+2847060D01*
X+2852940Y+2863427D01*
X+2852940Y+2886573D01*
X+2836573Y+2902940D01*
X+2813427Y+2902940D01*
X+2805879Y+2895392D01*
X+2805879Y+2926855D01*
X+2873146Y+2994122D01*
X+3076854Y+2994122D01*
X+3100000Y+2970976D01*
X+3100000Y+1222275D01*
X+3043136Y+1279139D01*
X+2956864Y+1279139D01*
X+2895861Y+1218136D01*
X+2895861Y+1131864D01*
X+2927725Y+1100000D01*
X+2895861Y+1068136D01*
X+2895861Y+1000000D01*
X-200000Y+1000000D01*
X-200000Y+4550000D01*
X+1640555Y+4550000D01*
X+1647670Y+4542885D01*
X+1702378Y+4542885D01*
X+1709493Y+4550000D01*
X+2569121Y+4550000D01*
X+2569121Y+4116039D01*
X+2522646Y+4116039D01*
X+2512486Y+4105879D01*
X+2501855Y+4105879D01*
X+2482184Y+4086208D01*
X+2452354Y+4116039D01*
X+2397646Y+4116039D01*
X+2358961Y+4077354D01*
X+2358961Y+4062985D01*
X+2262015Y+3966039D01*
X+2222646Y+3966039D01*
X+2183961Y+3927354D01*
X+2183961Y+3891039D01*
X+2147646Y+3891039D01*
X+2108961Y+3852354D01*
X+2108961Y+3797646D01*
X+2147646Y+3758961D01*
X+2202354Y+3758961D01*
X+2212514Y+3769121D01*
X+2323146Y+3769122D01*
X+2508961Y+3954937D01*
X+2508961Y+3922646D01*
X+2547646Y+3883961D01*
X+2602354Y+3883961D01*
X+2641039Y+3922646D01*
X+2641039Y+3937015D01*
X+2680879Y+3976855D01*
X+2680879Y+4550000D01*
X+3020976Y+4550000D01*
X+2937015Y+4466039D01*
G37*
%LPC*%
G36*
X+2854139Y+2118136D02*
X+2854139Y+2031864D01*
X+2793136Y+1970861D01*
X+2706864Y+1970861D01*
X+2702940Y+1974785D01*
X+2702940Y+1963427D01*
X+2686573Y+1947060D01*
X+2663427Y+1947060D01*
X+2647060Y+1963427D01*
X+2647060Y+1986573D01*
X+2663427Y+2002940D01*
X+2674785Y+2002940D01*
X+2662500Y+2015225D01*
X+2618136Y+1970861D01*
X+2531864Y+1970861D01*
X+2487500Y+2015225D01*
X+2443136Y+1970861D01*
X+2356864Y+1970861D01*
X+2310559Y+2017166D01*
X+2302354Y+2008961D01*
X+2247646Y+2008961D01*
X+2208961Y+2047646D01*
X+2208961Y+2102354D01*
X+2247646Y+2141039D01*
X+2302354Y+2141039D01*
X+2310559Y+2132834D01*
X+2356864Y+2179139D01*
X+2443136Y+2179139D01*
X+2487500Y+2134775D01*
X+2531864Y+2179139D01*
X+2618136Y+2179139D01*
X+2662500Y+2134775D01*
X+2706864Y+2179139D01*
X+2793136Y+2179139D01*
X+2854139Y+2118136D01*
G37*
G36*
X+2847060Y+2938427D02*
X+2847060Y+2961573D01*
X+2863427Y+2977940D01*
X+2886573Y+2977940D01*
X+2902940Y+2961573D01*
X+2902940Y+2938427D01*
X+2886573Y+2922060D01*
X+2863427Y+2922060D01*
X+2847060Y+2938427D01*
G37*
G36*
X+2797060Y+2563427D02*
X+2797060Y+2586573D01*
X+2813427Y+2602940D01*
X+2836573Y+2602940D01*
X+2852940Y+2586573D01*
X+2852940Y+2563427D01*
X+2836573Y+2547060D01*
X+2813427Y+2547060D01*
X+2797060Y+2563427D01*
G37*
G36*
X+2847060Y+2788427D02*
X+2847060Y+2811573D01*
X+2863427Y+2827940D01*
X+2886573Y+2827940D01*
X+2902940Y+2811573D01*
X+2902940Y+2788427D01*
X+2886573Y+2772060D01*
X+2863427Y+2772060D01*
X+2847060Y+2788427D01*
G37*
G36*
X+2847060Y+2638427D02*
X+2847060Y+2661573D01*
X+2863427Y+2677940D01*
X+2886573Y+2677940D01*
X+2902940Y+2661573D01*
X+2902940Y+2638427D01*
X+2886573Y+2622060D01*
X+2863427Y+2622060D01*
X+2847060Y+2638427D01*
G37*
G36*
X+2847060Y+2488427D02*
X+2847060Y+2511573D01*
X+2863427Y+2527940D01*
X+2886573Y+2527940D01*
X+2902940Y+2511573D01*
X+2902940Y+2488427D01*
X+2886573Y+2472060D01*
X+2863427Y+2472060D01*
X+2847060Y+2488427D01*
G37*
G36*
X+2377940Y+1830738D02*
X+2377940Y+1807592D01*
X+2370348Y+1800000D01*
X+2377940Y+1792408D01*
X+2377940Y+1769262D01*
X+2361573Y+1752895D01*
X+2338427Y+1752895D01*
X+2322060Y+1769262D01*
X+2322060Y+1792408D01*
X+2329652Y+1800000D01*
X+2322060Y+1807592D01*
X+2322060Y+1830738D01*
X+2338427Y+1847105D01*
X+2361573Y+1847105D01*
X+2377940Y+1830738D01*
G37*
G36*
X+2422060Y+1788427D02*
X+2422060Y+1811573D01*
X+2438427Y+1827940D01*
X+2461573Y+1827940D01*
X+2477940Y+1811573D01*
X+2477940Y+1788427D01*
X+2461573Y+1772060D01*
X+2438427Y+1772060D01*
X+2422060Y+1788427D01*
G37*
G36*
X+2852940Y+2336573D02*
X+2852940Y+2313427D01*
X+2842430Y+2302918D01*
X+2852940Y+2292408D01*
X+2852940Y+2269262D01*
X+2836573Y+2252895D01*
X+2813427Y+2252895D01*
X+2797060Y+2269262D01*
X+2797060Y+2292408D01*
X+2807570Y+2302918D01*
X+2797060Y+2313427D01*
X+2797060Y+2336573D01*
X+2813427Y+2352940D01*
X+2836573Y+2352940D01*
X+2852940Y+2336573D01*
G37*
G36*
X+2897060Y+2288427D02*
X+2897060Y+2311573D01*
X+2913427Y+2327940D01*
X+2936573Y+2327940D01*
X+2952940Y+2311573D01*
X+2952940Y+2288427D01*
X+2936573Y+2272060D01*
X+2913427Y+2272060D01*
X+2897060Y+2288427D01*
G37*
G36*
X+3053613Y+2335900D02*
X+3053613Y+2312754D01*
X+3040186Y+2299327D01*
X+3052940Y+2286573D01*
X+3052940Y+2263427D01*
X+3036573Y+2247060D01*
X+3013427Y+2247060D01*
X+2997060Y+2263427D01*
X+2997060Y+2286573D01*
X+3010487Y+2300000D01*
X+2997733Y+2312754D01*
X+2997733Y+2335900D01*
X+3014100Y+2352267D01*
X+3037246Y+2352267D01*
X+3053613Y+2335900D01*
G37*
G36*
X+2522060Y+1788427D02*
X+2522060Y+1811573D01*
X+2538427Y+1827940D01*
X+2561573Y+1827940D01*
X+2577940Y+1811573D01*
X+2577940Y+1788427D01*
X+2561573Y+1772060D01*
X+2538427Y+1772060D01*
X+2522060Y+1788427D01*
G37*
G36*
X+1291039Y+1977354D02*
X+1291039Y+1922646D01*
X+1252354Y+1883961D01*
X+1216039Y+1883961D01*
X+1216039Y+1847646D01*
X+1177354Y+1808961D01*
X+1162985Y+1808961D01*
X+930878Y+1576854D01*
X+930879Y+1512514D01*
X+941039Y+1502354D01*
X+941039Y+1447646D01*
X+902354Y+1408961D01*
X+847646Y+1408961D01*
X+808961Y+1447646D01*
X+808961Y+1502354D01*
X+819121Y+1512514D01*
X+819122Y+1565098D01*
X+780879Y+1526855D01*
X+780879Y+1512514D01*
X+791039Y+1502354D01*
X+791039Y+1447646D01*
X+752354Y+1408961D01*
X+697646Y+1408961D01*
X+658961Y+1447646D01*
X+658961Y+1502354D01*
X+669121Y+1512514D01*
X+669121Y+1573145D01*
X+1043036Y+1947060D01*
X+1038427Y+1947060D01*
X+1022060Y+1963427D01*
X+1022060Y+1986573D01*
X+1038427Y+2002940D01*
X+1061573Y+2002940D01*
X+1077940Y+1986573D01*
X+1077940Y+1981964D01*
X+1101855Y+2005879D01*
X+1187486Y+2005879D01*
X+1197646Y+2016039D01*
X+1252354Y+2016039D01*
X+1291039Y+1977354D01*
G37*
G36*
X+691039Y+2227354D02*
X+691039Y+2172646D01*
X+680879Y+2162486D01*
X+680879Y+2037514D01*
X+716039Y+2002354D01*
X+716039Y+1947646D01*
X+677354Y+1908961D01*
X+622646Y+1908961D01*
X+587500Y+1944107D01*
X+552354Y+1908961D01*
X+497646Y+1908961D01*
X+458961Y+1947646D01*
X+458961Y+2002354D01*
X+494122Y+2037515D01*
X+494121Y+2087486D01*
X+483961Y+2097646D01*
X+483961Y+2152354D01*
X+522646Y+2191039D01*
X+558961Y+2191039D01*
X+558961Y+2227354D01*
X+597646Y+2266039D01*
X+652354Y+2266039D01*
X+691039Y+2227354D01*
G37*
G36*
X+591039Y+2802354D02*
X+591039Y+2747646D01*
X+580879Y+2737486D01*
X+580879Y+2676855D01*
X+498145Y+2594121D01*
X+237514Y+2594121D01*
X+227354Y+2583961D01*
X+172646Y+2583961D01*
X+133961Y+2622646D01*
X+133961Y+2677354D01*
X+169107Y+2712500D01*
X+133961Y+2747646D01*
X+133961Y+2802354D01*
X+172646Y+2841039D01*
X+227354Y+2841039D01*
X+266039Y+2802354D01*
X+266039Y+2787985D01*
X+273145Y+2780879D01*
X+412486Y+2780879D01*
X+422646Y+2791039D01*
X+458961Y+2791039D01*
X+458961Y+2802354D01*
X+497646Y+2841039D01*
X+552354Y+2841039D01*
X+591039Y+2802354D01*
G37*
G36*
X+516039Y+3427354D02*
X+516039Y+3412986D01*
X+523146Y+3405879D01*
X+623145Y+3405879D01*
X+805879Y+3223146D01*
X+805879Y+3137514D01*
X+816039Y+3127354D01*
X+816039Y+3072646D01*
X+777354Y+3033961D01*
X+722646Y+3033961D01*
X+683961Y+3072646D01*
X+683961Y+3108961D01*
X+647646Y+3108961D01*
X+608961Y+3147646D01*
X+608961Y+3162014D01*
X+551854Y+3219121D01*
X+487514Y+3219121D01*
X+477354Y+3208961D01*
X+422646Y+3208961D01*
X+383961Y+3247646D01*
X+383961Y+3302354D01*
X+419107Y+3337500D01*
X+383961Y+3372646D01*
X+383961Y+3427354D01*
X+422646Y+3466039D01*
X+477354Y+3466039D01*
X+516039Y+3427354D01*
G37*
G36*
X+1241039Y+3952354D02*
X+1241039Y+3897646D01*
X+1230879Y+3887486D01*
X+1230878Y+3823146D01*
X+1262985Y+3791039D01*
X+1277354Y+3791039D01*
X+1316039Y+3752354D01*
X+1316039Y+3716039D01*
X+1352354Y+3716039D01*
X+1391039Y+3677354D01*
X+1391039Y+3622646D01*
X+1352354Y+3583961D01*
X+1297646Y+3583961D01*
X+1287486Y+3594121D01*
X+1201855Y+3594121D01*
X+1180879Y+3615097D01*
X+1180879Y+3537514D01*
X+1191039Y+3527354D01*
X+1191039Y+3472646D01*
X+1152354Y+3433961D01*
X+1097646Y+3433961D01*
X+1058961Y+3472646D01*
X+1058961Y+3527354D01*
X+1069121Y+3537514D01*
X+1069121Y+3558961D01*
X+1022646Y+3558961D01*
X+983961Y+3597646D01*
X+983961Y+3612015D01*
X+966039Y+3629937D01*
X+966039Y+3622646D01*
X+927354Y+3583961D01*
X+872646Y+3583961D01*
X+833961Y+3622646D01*
X+833961Y+3637015D01*
X+676855Y+3794121D01*
X+412514Y+3794121D01*
X+402354Y+3783961D01*
X+347646Y+3783961D01*
X+308961Y+3822646D01*
X+308961Y+3877354D01*
X+347646Y+3916039D01*
X+402354Y+3916039D01*
X+412514Y+3905879D01*
X+723145Y+3905879D01*
X+833961Y+3795063D01*
X+833961Y+3802354D01*
X+856607Y+3825000D01*
X+833961Y+3847646D01*
X+833961Y+3902354D01*
X+872646Y+3941039D01*
X+927354Y+3941039D01*
X+933961Y+3934432D01*
X+933961Y+3952354D01*
X+972646Y+3991039D01*
X+1027354Y+3991039D01*
X+1066039Y+3952354D01*
X+1066039Y+3897646D01*
X+1061208Y+3892816D01*
X+1119122Y+3834902D01*
X+1119121Y+3887486D01*
X+1108961Y+3897646D01*
X+1108961Y+3952354D01*
X+1147646Y+3991039D01*
X+1202354Y+3991039D01*
X+1241039Y+3952354D01*
G37*
G36*
X+1816039Y+4202354D02*
X+1816039Y+4147646D01*
X+1777354Y+4108961D01*
X+1762985Y+4108961D01*
X+1755879Y+4101855D01*
X+1755879Y+3987514D01*
X+1766039Y+3977354D01*
X+1766039Y+3927354D01*
X+1791039Y+3902354D01*
X+1791039Y+3847646D01*
X+1752354Y+3808961D01*
X+1697646Y+3808961D01*
X+1687486Y+3819121D01*
X+1651855Y+3819121D01*
X+1569122Y+3901854D01*
X+1569122Y+3925000D01*
X+1569121Y+4137486D01*
X+1558961Y+4147646D01*
X+1558961Y+4202354D01*
X+1597646Y+4241039D01*
X+1652354Y+4241039D01*
X+1687500Y+4205893D01*
X+1722646Y+4241039D01*
X+1777354Y+4241039D01*
X+1816039Y+4202354D01*
G37*
G36*
X+2372060Y+3338427D02*
X+2372060Y+3361573D01*
X+2388427Y+3377940D01*
X+2411573Y+3377940D01*
X+2427940Y+3361573D01*
X+2427940Y+3338427D01*
X+2411573Y+3322060D01*
X+2388427Y+3322060D01*
X+2372060Y+3338427D01*
G37*
G36*
X+2522060Y+3438427D02*
X+2522060Y+3461573D01*
X+2538427Y+3477940D01*
X+2561573Y+3477940D01*
X+2577940Y+3461573D01*
X+2577940Y+3438427D01*
X+2561573Y+3422060D01*
X+2538427Y+3422060D01*
X+2522060Y+3438427D01*
G37*
G36*
X+2316039Y+4202354D02*
X+2316039Y+4147646D01*
X+2277354Y+4108961D01*
X+2267026Y+4108961D01*
X+2186206Y+4019736D01*
X+2091039Y+3913225D01*
X+2091039Y+3897646D01*
X+2068393Y+3875000D01*
X+2091039Y+3852354D01*
X+2091039Y+3797646D01*
X+2052354Y+3758961D01*
X+1997646Y+3758961D01*
X+1958961Y+3797646D01*
X+1958961Y+3812015D01*
X+1894121Y+3876855D01*
X+1894121Y+3973145D01*
X+2063792Y+4142816D01*
X+2058961Y+4147646D01*
X+2058961Y+4202354D01*
X+2097646Y+4241039D01*
X+2152354Y+4241039D01*
X+2187500Y+4205893D01*
X+2222646Y+4241039D01*
X+2277354Y+4241039D01*
X+2316039Y+4202354D01*
G37*
G36*
X+1616039Y+2252354D02*
X+1616039Y+2197646D01*
X+1605879Y+2187486D01*
X+1605878Y+2123146D01*
X+1705879Y+2023145D01*
X+1705879Y+1926855D01*
X+1605878Y+1826854D01*
X+1605878Y+1701854D01*
X+1505879Y+1601855D01*
X+1505879Y+1512514D01*
X+1516039Y+1502354D01*
X+1516039Y+1447646D01*
X+1477354Y+1408961D01*
X+1422646Y+1408961D01*
X+1400000Y+1431607D01*
X+1377354Y+1408961D01*
X+1322646Y+1408961D01*
X+1305879Y+1425728D01*
X+1305879Y+1287514D01*
X+1316039Y+1277354D01*
X+1316039Y+1222646D01*
X+1277354Y+1183961D01*
X+1222646Y+1183961D01*
X+1183961Y+1222646D01*
X+1183961Y+1277354D01*
X+1194121Y+1287514D01*
X+1194121Y+1425728D01*
X+1177354Y+1408961D01*
X+1122646Y+1408961D01*
X+1100000Y+1431607D01*
X+1077354Y+1408961D01*
X+1022646Y+1408961D01*
X+983961Y+1447646D01*
X+983961Y+1502354D01*
X+1022646Y+1541039D01*
X+1037015Y+1541039D01*
X+1219121Y+1723145D01*
X+1219121Y+1773145D01*
X+1301855Y+1855879D01*
X+1387486Y+1855879D01*
X+1397646Y+1866039D01*
X+1444121Y+1866039D01*
X+1444121Y+1923145D01*
X+1508961Y+1987985D01*
X+1508961Y+2002354D01*
X+1538792Y+2032184D01*
X+1494122Y+2076854D01*
X+1494122Y+2100000D01*
X+1494121Y+2187486D01*
X+1483961Y+2197646D01*
X+1483961Y+2252354D01*
X+1522646Y+2291039D01*
X+1577354Y+2291039D01*
X+1616039Y+2252354D01*
G37*
G36*
X+1966039Y+2252354D02*
X+1966039Y+2197646D01*
X+1955879Y+2187486D01*
X+1955879Y+1823145D01*
X+2242816Y+1536208D01*
X+2247646Y+1541039D01*
X+2302354Y+1541039D01*
X+2341039Y+1502354D01*
X+2341039Y+1447646D01*
X+2302354Y+1408961D01*
X+2247646Y+1408961D01*
X+2237486Y+1419121D01*
X+2201855Y+1419121D01*
X+2166039Y+1454937D01*
X+2166039Y+1447646D01*
X+2127354Y+1408961D01*
X+2072646Y+1408961D01*
X+2033961Y+1447646D01*
X+2033961Y+1487015D01*
X+1912015Y+1608961D01*
X+1905879Y+1608961D01*
X+1905879Y+1598145D01*
X+1962985Y+1541039D01*
X+1977354Y+1541039D01*
X+2016039Y+1502354D01*
X+2016039Y+1447646D01*
X+1977354Y+1408961D01*
X+1922646Y+1408961D01*
X+1883961Y+1447646D01*
X+1883961Y+1462015D01*
X+1830879Y+1515097D01*
X+1830879Y+1512514D01*
X+1841039Y+1502354D01*
X+1841039Y+1447646D01*
X+1802354Y+1408961D01*
X+1747646Y+1408961D01*
X+1708961Y+1447646D01*
X+1708961Y+1502354D01*
X+1719121Y+1512514D01*
X+1719121Y+1637486D01*
X+1708961Y+1647646D01*
X+1708961Y+1702354D01*
X+1747646Y+1741039D01*
X+1794121Y+1741039D01*
X+1794121Y+2101855D01*
X+1737015Y+2158961D01*
X+1722646Y+2158961D01*
X+1683961Y+2197646D01*
X+1683961Y+2252354D01*
X+1722646Y+2291039D01*
X+1777354Y+2291039D01*
X+1816039Y+2252354D01*
X+1816039Y+2237985D01*
X+1833961Y+2220063D01*
X+1833961Y+2252354D01*
X+1872646Y+2291039D01*
X+1927354Y+2291039D01*
X+1966039Y+2252354D01*
G37*
G36*
X+1166039Y+4252354D02*
X+1166039Y+4237985D01*
X+1173146Y+4230878D01*
X+1298146Y+4230878D01*
X+1480878Y+4048146D01*
X+1480878Y+3937515D01*
X+1516039Y+3902354D01*
X+1516039Y+3866039D01*
X+1552354Y+3866039D01*
X+1591039Y+3827354D01*
X+1591039Y+3772646D01*
X+1552354Y+3733961D01*
X+1497646Y+3733961D01*
X+1487486Y+3744121D01*
X+1401855Y+3744121D01*
X+1319121Y+3826855D01*
X+1319121Y+3976855D01*
X+1226855Y+4069121D01*
X+1076855Y+4069121D01*
X+987015Y+4158961D01*
X+972646Y+4158961D01*
X+933961Y+4197646D01*
X+933961Y+4252354D01*
X+972646Y+4291039D01*
X+1027354Y+4291039D01*
X+1050000Y+4268393D01*
X+1072646Y+4291039D01*
X+1127354Y+4291039D01*
X+1166039Y+4252354D01*
G37*
G36*
X+1647060Y+2910747D02*
X+1647060Y+2933893D01*
X+1663427Y+2950260D01*
X+1686573Y+2950260D01*
X+1702940Y+2933893D01*
X+1702940Y+2910747D01*
X+1686573Y+2894380D01*
X+1663427Y+2894380D01*
X+1647060Y+2910747D01*
G37*
G36*
X+1799460Y+2910747D02*
X+1799460Y+2933893D01*
X+1815827Y+2950260D01*
X+1838973Y+2950260D01*
X+1855340Y+2933893D01*
X+1855340Y+2910747D01*
X+1838973Y+2894380D01*
X+1815827Y+2894380D01*
X+1799460Y+2910747D01*
G37*
G36*
X+1799460Y+2760887D02*
X+1799460Y+2784033D01*
X+1815827Y+2800400D01*
X+1838973Y+2800400D01*
X+1855340Y+2784033D01*
X+1855340Y+2760887D01*
X+1838973Y+2744520D01*
X+1815827Y+2744520D01*
X+1799460Y+2760887D01*
G37*
G36*
X+1799460Y+2608487D02*
X+1799460Y+2631633D01*
X+1815827Y+2648000D01*
X+1838973Y+2648000D01*
X+1855340Y+2631633D01*
X+1855340Y+2608487D01*
X+1838973Y+2592120D01*
X+1815827Y+2592120D01*
X+1799460Y+2608487D01*
G37*
G36*
X+1647060Y+2608487D02*
X+1647060Y+2631633D01*
X+1663427Y+2648000D01*
X+1686573Y+2648000D01*
X+1702940Y+2631633D01*
X+1702940Y+2608487D01*
X+1686573Y+2592120D01*
X+1663427Y+2592120D01*
X+1647060Y+2608487D01*
G37*
G36*
X+1494660Y+2608487D02*
X+1494660Y+2631633D01*
X+1511027Y+2648000D01*
X+1534173Y+2648000D01*
X+1550540Y+2631633D01*
X+1550540Y+2608487D01*
X+1534173Y+2592120D01*
X+1511027Y+2592120D01*
X+1494660Y+2608487D01*
G37*
G36*
X+1492120Y+2763427D02*
X+1492120Y+2786573D01*
X+1508487Y+2802940D01*
X+1531633Y+2802940D01*
X+1548000Y+2786573D01*
X+1548000Y+2763427D01*
X+1531633Y+2747060D01*
X+1508487Y+2747060D01*
X+1492120Y+2763427D01*
G37*
G36*
X+1647060Y+2763427D02*
X+1647060Y+2786573D01*
X+1663427Y+2802940D01*
X+1686573Y+2802940D01*
X+1702940Y+2786573D01*
X+1702940Y+2763427D01*
X+1686573Y+2747060D01*
X+1663427Y+2747060D01*
X+1647060Y+2763427D01*
G37*
G36*
X+1352420Y+2763427D02*
X+1352420Y+2786573D01*
X+1368787Y+2802940D01*
X+1391933Y+2802940D01*
X+1408300Y+2786573D01*
X+1408300Y+2763427D01*
X+1391933Y+2747060D01*
X+1368787Y+2747060D01*
X+1352420Y+2763427D01*
G37*
G36*
X+1352420Y+2608487D02*
X+1352420Y+2631633D01*
X+1368787Y+2648000D01*
X+1391933Y+2648000D01*
X+1408300Y+2631633D01*
X+1408300Y+2608487D01*
X+1391933Y+2592120D01*
X+1368787Y+2592120D01*
X+1352420Y+2608487D01*
G37*
G36*
X+1352420Y+2461167D02*
X+1352420Y+2484313D01*
X+1368787Y+2500680D01*
X+1391933Y+2500680D01*
X+1408300Y+2484313D01*
X+1408300Y+2461167D01*
X+1391933Y+2444800D01*
X+1368787Y+2444800D01*
X+1352420Y+2461167D01*
G37*
G36*
X+1494660Y+2461167D02*
X+1494660Y+2484313D01*
X+1511027Y+2500680D01*
X+1534173Y+2500680D01*
X+1550540Y+2484313D01*
X+1550540Y+2461167D01*
X+1534173Y+2444800D01*
X+1511027Y+2444800D01*
X+1494660Y+2461167D01*
G37*
G36*
X+1644520Y+2461167D02*
X+1644520Y+2484313D01*
X+1660887Y+2500680D01*
X+1684033Y+2500680D01*
X+1700400Y+2484313D01*
X+1700400Y+2461167D01*
X+1684033Y+2444800D01*
X+1660887Y+2444800D01*
X+1644520Y+2461167D01*
G37*
G36*
X+1796920Y+2461167D02*
X+1796920Y+2484313D01*
X+1813287Y+2500680D01*
X+1836433Y+2500680D01*
X+1852800Y+2484313D01*
X+1852800Y+2461167D01*
X+1836433Y+2444800D01*
X+1813287Y+2444800D01*
X+1796920Y+2461167D01*
G37*
G36*
X+1944240Y+2461167D02*
X+1944240Y+2484313D01*
X+1960607Y+2500680D01*
X+1983753Y+2500680D01*
X+2000120Y+2484313D01*
X+2000120Y+2461167D01*
X+1983753Y+2444800D01*
X+1960607Y+2444800D01*
X+1944240Y+2461167D01*
G37*
G36*
X+1944240Y+2608487D02*
X+1944240Y+2631633D01*
X+1960607Y+2648000D01*
X+1983753Y+2648000D01*
X+2000120Y+2631633D01*
X+2000120Y+2608487D01*
X+1983753Y+2592120D01*
X+1960607Y+2592120D01*
X+1944240Y+2608487D01*
G37*
G36*
X+1944240Y+2763427D02*
X+1944240Y+2786573D01*
X+1960607Y+2802940D01*
X+1983753Y+2802940D01*
X+2000120Y+2786573D01*
X+2000120Y+2763427D01*
X+1983753Y+2747060D01*
X+1960607Y+2747060D01*
X+1944240Y+2763427D01*
G37*
G36*
X+1944240Y+2913287D02*
X+1944240Y+2936433D01*
X+1960607Y+2952800D01*
X+1983753Y+2952800D01*
X+2000120Y+2936433D01*
X+2000120Y+2913287D01*
X+1983753Y+2896920D01*
X+1960607Y+2896920D01*
X+1944240Y+2913287D01*
G37*
G36*
X+1352420Y+2910747D02*
X+1352420Y+2933893D01*
X+1368787Y+2950260D01*
X+1391933Y+2950260D01*
X+1408300Y+2933893D01*
X+1408300Y+2910747D01*
X+1391933Y+2894380D01*
X+1368787Y+2894380D01*
X+1352420Y+2910747D01*
G37*
G36*
X+1497200Y+2910747D02*
X+1497200Y+2933893D01*
X+1513567Y+2950260D01*
X+1536713Y+2950260D01*
X+1553080Y+2933893D01*
X+1553080Y+2910747D01*
X+1536713Y+2894380D01*
X+1513567Y+2894380D01*
X+1497200Y+2910747D01*
G37*
G36*
X+1647060Y+3063147D02*
X+1647060Y+3086293D01*
X+1663427Y+3102660D01*
X+1686573Y+3102660D01*
X+1702940Y+3086293D01*
X+1702940Y+3063147D01*
X+1686573Y+3046780D01*
X+1663427Y+3046780D01*
X+1647060Y+3063147D01*
G37*
G36*
X+1799460Y+3063147D02*
X+1799460Y+3086293D01*
X+1815827Y+3102660D01*
X+1838973Y+3102660D01*
X+1855340Y+3086293D01*
X+1855340Y+3063147D01*
X+1838973Y+3046780D01*
X+1815827Y+3046780D01*
X+1799460Y+3063147D01*
G37*
G36*
X+1944240Y+3063147D02*
X+1944240Y+3086293D01*
X+1960607Y+3102660D01*
X+1983753Y+3102660D01*
X+2000120Y+3086293D01*
X+2000120Y+3063147D01*
X+1983753Y+3046780D01*
X+1960607Y+3046780D01*
X+1944240Y+3063147D01*
G37*
G36*
X+1497200Y+3063147D02*
X+1497200Y+3086293D01*
X+1513567Y+3102660D01*
X+1536713Y+3102660D01*
X+1553080Y+3086293D01*
X+1553080Y+3063147D01*
X+1536713Y+3046780D01*
X+1513567Y+3046780D01*
X+1497200Y+3063147D01*
G37*
G36*
X+1873120Y+2435767D02*
X+1873120Y+2458913D01*
X+1889487Y+2475280D01*
X+1912633Y+2475280D01*
X+1929000Y+2458913D01*
X+1929000Y+2435767D01*
X+1912633Y+2419400D01*
X+1889487Y+2419400D01*
X+1873120Y+2435767D01*
G37*
G36*
X+1723260Y+2435767D02*
X+1723260Y+2458913D01*
X+1739627Y+2475280D01*
X+1762773Y+2475280D01*
X+1779140Y+2458913D01*
X+1779140Y+2435767D01*
X+1762773Y+2419400D01*
X+1739627Y+2419400D01*
X+1723260Y+2435767D01*
G37*
G36*
X+1570860Y+2435767D02*
X+1570860Y+2458913D01*
X+1587227Y+2475280D01*
X+1610373Y+2475280D01*
X+1626740Y+2458913D01*
X+1626740Y+2435767D01*
X+1610373Y+2419400D01*
X+1587227Y+2419400D01*
X+1570860Y+2435767D01*
G37*
G36*
X+1421000Y+2435767D02*
X+1421000Y+2458913D01*
X+1437367Y+2475280D01*
X+1460513Y+2475280D01*
X+1476880Y+2458913D01*
X+1476880Y+2435767D01*
X+1460513Y+2419400D01*
X+1437367Y+2419400D01*
X+1421000Y+2435767D01*
G37*
G36*
X+1321940Y+2537367D02*
X+1321940Y+2560513D01*
X+1338307Y+2576880D01*
X+1361453Y+2576880D01*
X+1377820Y+2560513D01*
X+1377820Y+2537367D01*
X+1361453Y+2521000D01*
X+1338307Y+2521000D01*
X+1321940Y+2537367D01*
G37*
G36*
X+1321940Y+2684687D02*
X+1321940Y+2707833D01*
X+1338307Y+2724200D01*
X+1361453Y+2724200D01*
X+1377820Y+2707833D01*
X+1377820Y+2684687D01*
X+1361453Y+2668320D01*
X+1338307Y+2668320D01*
X+1321940Y+2684687D01*
G37*
G36*
X+1321940Y+2839627D02*
X+1321940Y+2862773D01*
X+1338307Y+2879140D01*
X+1361453Y+2879140D01*
X+1377820Y+2862773D01*
X+1377820Y+2839627D01*
X+1361453Y+2823260D01*
X+1338307Y+2823260D01*
X+1321940Y+2839627D01*
G37*
G36*
X+1321940Y+2986947D02*
X+1321940Y+3010093D01*
X+1338307Y+3026460D01*
X+1361453Y+3026460D01*
X+1377820Y+3010093D01*
X+1377820Y+2986947D01*
X+1361453Y+2970580D01*
X+1338307Y+2970580D01*
X+1321940Y+2986947D01*
G37*
G36*
X+1352420Y+3063147D02*
X+1352420Y+3086293D01*
X+1368787Y+3102660D01*
X+1391933Y+3102660D01*
X+1408300Y+3086293D01*
X+1408300Y+3063147D01*
X+1391933Y+3046780D01*
X+1368787Y+3046780D01*
X+1352420Y+3063147D01*
G37*
G36*
X+1423540Y+3088547D02*
X+1423540Y+3111693D01*
X+1439907Y+3128060D01*
X+1463053Y+3128060D01*
X+1479420Y+3111693D01*
X+1479420Y+3088547D01*
X+1463053Y+3072180D01*
X+1439907Y+3072180D01*
X+1423540Y+3088547D01*
G37*
G36*
X+1573400Y+3088547D02*
X+1573400Y+3111693D01*
X+1589767Y+3128060D01*
X+1612913Y+3128060D01*
X+1629280Y+3111693D01*
X+1629280Y+3088547D01*
X+1612913Y+3072180D01*
X+1589767Y+3072180D01*
X+1573400Y+3088547D01*
G37*
G36*
X+1723260Y+3088547D02*
X+1723260Y+3111693D01*
X+1739627Y+3128060D01*
X+1762773Y+3128060D01*
X+1779140Y+3111693D01*
X+1779140Y+3088547D01*
X+1762773Y+3072180D01*
X+1739627Y+3072180D01*
X+1723260Y+3088547D01*
G37*
G36*
X+1873120Y+3088547D02*
X+1873120Y+3111693D01*
X+1889487Y+3128060D01*
X+1912633Y+3128060D01*
X+1929000Y+3111693D01*
X+1929000Y+3088547D01*
X+1912633Y+3072180D01*
X+1889487Y+3072180D01*
X+1873120Y+3088547D01*
G37*
G36*
X+1974720Y+2986947D02*
X+1974720Y+3010093D01*
X+1991087Y+3026460D01*
X+2014233Y+3026460D01*
X+2030600Y+3010093D01*
X+2030600Y+2986947D01*
X+2014233Y+2970580D01*
X+1991087Y+2970580D01*
X+1974720Y+2986947D01*
G37*
G36*
X+1974720Y+2837087D02*
X+1974720Y+2860233D01*
X+1991087Y+2876600D01*
X+2014233Y+2876600D01*
X+2030600Y+2860233D01*
X+2030600Y+2837087D01*
X+2014233Y+2820720D01*
X+1991087Y+2820720D01*
X+1974720Y+2837087D01*
G37*
G36*
X+1974720Y+2684687D02*
X+1974720Y+2707833D01*
X+1991087Y+2724200D01*
X+2014233Y+2724200D01*
X+2030600Y+2707833D01*
X+2030600Y+2684687D01*
X+2014233Y+2668320D01*
X+1991087Y+2668320D01*
X+1974720Y+2684687D01*
G37*
G36*
X+1974720Y+2537367D02*
X+1974720Y+2560513D01*
X+1991087Y+2576880D01*
X+2014233Y+2576880D01*
X+2030600Y+2560513D01*
X+2030600Y+2537367D01*
X+2014233Y+2521000D01*
X+1991087Y+2521000D01*
X+1974720Y+2537367D01*
G37*
G36*
X+147060Y+4088427D02*
X+147060Y+4111573D01*
X+163427Y+4127940D01*
X+186573Y+4127940D01*
X+202940Y+4111573D01*
X+202940Y+4088427D01*
X+186573Y+4072060D01*
X+163427Y+4072060D01*
X+147060Y+4088427D01*
G37*
G36*
X+62514Y+3555879D02*
X+173146Y+3555878D01*
X+330879Y+3398145D01*
X+330879Y+3279799D01*
X+562154Y+3066039D01*
X+577354Y+3066039D01*
X+600000Y+3043393D01*
X+622646Y+3066039D01*
X+677354Y+3066039D01*
X+716039Y+3027354D01*
X+716039Y+2972646D01*
X+677354Y+2933961D01*
X+662985Y+2933961D01*
X+598145Y+2869121D01*
X+501855Y+2869121D01*
X+201855Y+3169121D01*
X+131374Y+3169121D01*
X+5921Y+3263211D01*
X-5879Y+3286811D01*
X-5879Y+3312486D01*
X-16039Y+3322646D01*
X-16039Y+3377354D01*
X+22646Y+3416039D01*
X+77354Y+3416039D01*
X+116039Y+3377354D01*
X+116039Y+3322646D01*
X+114709Y+3321316D01*
X+168626Y+3280879D01*
X+219121Y+3280879D01*
X+219121Y+3351855D01*
X+126854Y+3444122D01*
X+62514Y+3444121D01*
X+52354Y+3433961D01*
X-2354Y+3433961D01*
X-41039Y+3472646D01*
X-41039Y+3527354D01*
X-2354Y+3566039D01*
X+52354Y+3566039D01*
X+62514Y+3555879D01*
G37*
G36*
X+147060Y+3313427D02*
X+147060Y+3336573D01*
X+163427Y+3352940D01*
X+186573Y+3352940D01*
X+202940Y+3336573D01*
X+202940Y+3313427D01*
X+186573Y+3297060D01*
X+163427Y+3297060D01*
X+147060Y+3313427D01*
G37*
G36*
X+691039Y+2602354D02*
X+691039Y+2547646D01*
X+680879Y+2537486D01*
X+680879Y+2451855D01*
X+598145Y+2369121D01*
X+273145Y+2369121D01*
X+266039Y+2362015D01*
X+266039Y+2347646D01*
X+227354Y+2308961D01*
X+172646Y+2308961D01*
X+133961Y+2347646D01*
X+133961Y+2402354D01*
X+169107Y+2437500D01*
X+133961Y+2472646D01*
X+133961Y+2527354D01*
X+172646Y+2566039D01*
X+227354Y+2566039D01*
X+237514Y+2555879D01*
X+512486Y+2555879D01*
X+522646Y+2566039D01*
X+558961Y+2566039D01*
X+558961Y+2602354D01*
X+597646Y+2641039D01*
X+652354Y+2641039D01*
X+691039Y+2602354D01*
G37*
G36*
X-52940Y+2363427D02*
X-52940Y+2386573D01*
X-36573Y+2402940D01*
X-13427Y+2402940D01*
X+2940Y+2386573D01*
X+2940Y+2363427D01*
X-13427Y+2347060D01*
X-36573Y+2347060D01*
X-52940Y+2363427D01*
G37*
G36*
X+1122060Y+1213427D02*
X+1122060Y+1236573D01*
X+1138427Y+1252940D01*
X+1161573Y+1252940D01*
X+1177940Y+1236573D01*
X+1177940Y+1213427D01*
X+1161573Y+1197060D01*
X+1138427Y+1197060D01*
X+1122060Y+1213427D01*
G37*
G36*
X+2272060Y+1563427D02*
X+2272060Y+1586573D01*
X+2288427Y+1602940D01*
X+2311573Y+1602940D01*
X+2327940Y+1586573D01*
X+2327940Y+1563427D01*
X+2311573Y+1547060D01*
X+2288427Y+1547060D01*
X+2272060Y+1563427D01*
G37*
G36*
X+2447060Y+2563427D02*
X+2447060Y+2586573D01*
X+2463427Y+2602940D01*
X+2486573Y+2602940D01*
X+2502940Y+2586573D01*
X+2502940Y+2563427D01*
X+2486573Y+2547060D01*
X+2463427Y+2547060D01*
X+2447060Y+2563427D01*
G37*
G36*
X+2197060Y+2588427D02*
X+2197060Y+2611573D01*
X+2213427Y+2627940D01*
X+2236573Y+2627940D01*
X+2252940Y+2611573D01*
X+2252940Y+2588427D01*
X+2236573Y+2572060D01*
X+2213427Y+2572060D01*
X+2197060Y+2588427D01*
G37*
%LPD*%
G36*
X+3000000Y+4850000D02*
X+2879314Y+4850000D01*
X+2891439Y+4862125D01*
X+2891439Y+4937875D01*
X+2837875Y+4991439D01*
X+2762125Y+4991439D01*
X+2708561Y+4937875D01*
X+2708561Y+4862125D01*
X+2720686Y+4850000D01*
X+2706279Y+4850000D01*
X+2706279Y+5316335D01*
X+2823505Y+5433561D01*
X+2837875Y+5433561D01*
X+2891439Y+5487125D01*
X+2891439Y+5562875D01*
X+2837875Y+5616439D01*
X+2762125Y+5616439D01*
X+2708561Y+5562875D01*
X+2708561Y+5548505D01*
X+2543721Y+5383665D01*
X+2543721Y+4850000D01*
X+2341439Y+4850000D01*
X+2341439Y+4887875D01*
X+2331279Y+4898035D01*
X+2331279Y+5341335D01*
X+2423505Y+5433561D01*
X+2437875Y+5433561D01*
X+2491439Y+5487125D01*
X+2491439Y+5562875D01*
X+2437875Y+5616439D01*
X+2362125Y+5616439D01*
X+2308561Y+5562875D01*
X+2308561Y+5548505D01*
X+2168721Y+5408665D01*
X+2168721Y+4898035D01*
X+2158561Y+4887875D01*
X+2158561Y+4850000D01*
X+2079314Y+4850000D01*
X+2091439Y+4862125D01*
X+2091439Y+4937875D01*
X+2037875Y+4991439D01*
X+1962125Y+4991439D01*
X+1908561Y+4937875D01*
X+1908561Y+4862125D01*
X+1920686Y+4850000D01*
X+1691439Y+4850000D01*
X+1691439Y+4862875D01*
X+1681279Y+4873035D01*
X+1681279Y+5451965D01*
X+1691439Y+5462125D01*
X+1691439Y+5537875D01*
X+1637875Y+5591439D01*
X+1562125Y+5591439D01*
X+1508561Y+5537875D01*
X+1508561Y+5462125D01*
X+1518721Y+5451965D01*
X+1518721Y+4873035D01*
X+1508561Y+4862875D01*
X+1508561Y+4850000D01*
X+1404314Y+4850000D01*
X+1416439Y+4862125D01*
X+1416439Y+4937875D01*
X+1362875Y+4991439D01*
X+1287125Y+4991439D01*
X+1233561Y+4937875D01*
X+1233561Y+4862125D01*
X+1245686Y+4850000D01*
X+1029314Y+4850000D01*
X+987875Y+4891439D01*
X+981923Y+4891439D01*
X+906279Y+4979982D01*
X+906279Y+5451965D01*
X+916439Y+5462125D01*
X+916439Y+5537875D01*
X+862875Y+5591439D01*
X+787125Y+5591439D01*
X+733561Y+5537875D01*
X+733561Y+5462125D01*
X+743721Y+5451965D01*
X+743721Y+5021223D01*
X+183665Y+5581279D01*
X+48035Y+5581279D01*
X+37875Y+5591439D01*
X-37875Y+5591439D01*
X-91439Y+5537875D01*
X-91439Y+5462125D01*
X-37875Y+5408561D01*
X+37875Y+5408561D01*
X+48035Y+5418721D01*
X+116335Y+5418721D01*
X+543617Y+4991439D01*
X+537125Y+4991439D01*
X+483561Y+4937875D01*
X+483561Y+4862125D01*
X+495686Y+4850000D01*
X-195686Y+4850000D01*
X-183561Y+4862125D01*
X-183561Y+4937875D01*
X-237125Y+4991439D01*
X-312875Y+4991439D01*
X-366439Y+4937875D01*
X-366439Y+4862125D01*
X-354314Y+4850000D01*
X-700000Y+4850000D01*
X-700000Y+4189944D01*
X-1268721Y+4758665D01*
X-1268721Y+5151965D01*
X-1258561Y+5162125D01*
X-1258561Y+5237875D01*
X-1312125Y+5291439D01*
X-1387875Y+5291439D01*
X-1441439Y+5237875D01*
X-1441439Y+5162125D01*
X-1431279Y+5151965D01*
X-1431279Y+4691335D01*
X-716439Y+3976495D01*
X-716439Y+3962125D01*
X-710593Y+3956279D01*
X-791335Y+3956279D01*
X-1258561Y+4423505D01*
X-1258561Y+4437875D01*
X-1312125Y+4491439D01*
X-1387875Y+4491439D01*
X-1441439Y+4437875D01*
X-1441439Y+4362125D01*
X-1387875Y+4308561D01*
X-1373505Y+4308561D01*
X-858665Y+3793721D01*
X-700000Y+3793721D01*
X-700000Y+3281279D01*
X-916335Y+3281279D01*
X-1258561Y+3623505D01*
X-1258561Y+3637875D01*
X-1312125Y+3691439D01*
X-1387875Y+3691439D01*
X-1441439Y+3637875D01*
X-1441439Y+3562125D01*
X-1387875Y+3508561D01*
X-1373505Y+3508561D01*
X-983665Y+3118721D01*
X-700000Y+3118721D01*
X-700000Y+2982017D01*
X-1282073Y+2982871D01*
X-1373505Y+2891439D01*
X-1387875Y+2891439D01*
X-1441439Y+2837875D01*
X-1441439Y+2762125D01*
X-1387875Y+2708561D01*
X-1312125Y+2708561D01*
X-1258561Y+2762125D01*
X-1258561Y+2776495D01*
X-1214845Y+2820211D01*
X-700000Y+2819400D01*
X-700000Y+2154314D01*
X-741439Y+2112875D01*
X-741439Y+2098505D01*
X-758665Y+2081279D01*
X-1301965Y+2081279D01*
X-1312125Y+2091439D01*
X-1387875Y+2091439D01*
X-1441439Y+2037875D01*
X-1441439Y+1962125D01*
X-1387875Y+1908561D01*
X-1312125Y+1908561D01*
X-1301965Y+1918721D01*
X-700000Y+1918721D01*
X-700000Y+1281279D01*
X-1301965Y+1281279D01*
X-1312125Y+1291439D01*
X-1387875Y+1291439D01*
X-1441439Y+1237875D01*
X-1441439Y+1162125D01*
X-1387875Y+1108561D01*
X-1312125Y+1108561D01*
X-1301965Y+1118721D01*
X-710593Y+1118721D01*
X-741439Y+1087875D01*
X-741439Y+1073505D01*
X-1323505Y+491439D01*
X-1387875Y+491439D01*
X-1441439Y+437875D01*
X-1441439Y+362125D01*
X-1387875Y+308561D01*
X-1312125Y+308561D01*
X-1301965Y+318721D01*
X-1266335Y+318721D01*
X-700000Y+885056D01*
X-700000Y+350000D01*
X-456279Y+350000D01*
X-456279Y-226965D01*
X-466439Y-237125D01*
X-466439Y-312875D01*
X-412875Y-366439D01*
X-337125Y-366439D01*
X-283561Y-312875D01*
X-283561Y-237125D01*
X-293721Y-226965D01*
X-293721Y+350000D01*
X+685056Y+350000D01*
X+343721Y+8665D01*
X+343721Y-226965D01*
X+333561Y-237125D01*
X+333561Y-312875D01*
X+387125Y-366439D01*
X+462875Y-366439D01*
X+516439Y-312875D01*
X+516439Y-237125D01*
X+506279Y-226965D01*
X+506279Y-58665D01*
X+873505Y+308561D01*
X+887875Y+308561D01*
X+929314Y+350000D01*
X+1468721Y+350000D01*
X+1468721Y+83665D01*
X+1201495Y-183561D01*
X+1187125Y-183561D01*
X+1133561Y-237125D01*
X+1133561Y-312875D01*
X+1187125Y-366439D01*
X+1262875Y-366439D01*
X+1316439Y-312875D01*
X+1316439Y-298505D01*
X+1631279Y+16335D01*
X+1631279Y+350000D01*
X+1943721Y+350000D01*
X+1943721Y-251965D01*
X+1933561Y-262125D01*
X+1933561Y-337875D01*
X+1987125Y-391439D01*
X+2062875Y-391439D01*
X+2116439Y-337875D01*
X+2116439Y-262125D01*
X+2106279Y-251965D01*
X+2106279Y+350000D01*
X+4850000Y+350000D01*
X+4850000Y-666461D01*
X+4741133Y-666461D01*
X+4516461Y-891133D01*
X+4516461Y-1208867D01*
X+4741133Y-1433539D01*
X+4850000Y-1433539D01*
X+4850000Y-1573800D01*
X-4373800Y-1573800D01*
X-4373800Y+7073800D01*
X+3000000Y+7073800D01*
X+3000000Y+4850000D01*
G37*
%LPC*%
G36*
X-4233539Y-1208867D02*
X-4233539Y-891133D01*
X-4008867Y-666461D01*
X-3691133Y-666461D01*
X-3466461Y-891133D01*
X-3466461Y-1208867D01*
X-3691133Y-1433539D01*
X-4008867Y-1433539D01*
X-4233539Y-1208867D01*
G37*
G36*
X-4233539Y+6391133D02*
X-4233539Y+6708867D01*
X-4008867Y+6933539D01*
X-3691133Y+6933539D01*
X-3466461Y+6708867D01*
X-3466461Y+6391133D01*
X-3691133Y+6166461D01*
X-4008867Y+6166461D01*
X-4233539Y+6391133D01*
G37*
G36*
X-3281561Y+5990480D02*
X-3281561Y+5809520D01*
X-3366081Y+5725000D01*
X-3281561Y+5640480D01*
X-3281561Y+5459520D01*
X-3366081Y+5375000D01*
X-3281561Y+5290480D01*
X-3281561Y+5109520D01*
X-3366081Y+5025000D01*
X-3281561Y+4940480D01*
X-3281561Y+4759520D01*
X-3366081Y+4675000D01*
X-3281561Y+4590480D01*
X-3281561Y+4409520D01*
X-3366081Y+4325000D01*
X-3281561Y+4240480D01*
X-3281561Y+4059520D01*
X-3366081Y+3975000D01*
X-3281561Y+3890480D01*
X-3281561Y+3709520D01*
X-3366081Y+3625000D01*
X-3281561Y+3540480D01*
X-3281561Y+3359520D01*
X-3366081Y+3275000D01*
X-3281561Y+3190480D01*
X-3281561Y+3009520D01*
X-3366081Y+2925000D01*
X-3281561Y+2840480D01*
X-3281561Y+2659520D01*
X-3366081Y+2575000D01*
X-3281561Y+2490480D01*
X-3281561Y+2309520D01*
X-3366081Y+2225000D01*
X-3281561Y+2140480D01*
X-3281561Y+1959520D01*
X-3366081Y+1875000D01*
X-3281561Y+1790480D01*
X-3281561Y+1609520D01*
X-3366081Y+1525000D01*
X-3281561Y+1440480D01*
X-3281561Y+1259520D01*
X-3366081Y+1175000D01*
X-3281561Y+1090480D01*
X-3281561Y+909520D01*
X-3366081Y+825000D01*
X-3281561Y+740480D01*
X-3281561Y+559520D01*
X-3366081Y+475000D01*
X-3281561Y+390480D01*
X-3281561Y+209520D01*
X-3366081Y+125000D01*
X-3281561Y+40480D01*
X-3281561Y-140480D01*
X-3366081Y-225000D01*
X-3281561Y-309520D01*
X-3281561Y-490480D01*
X-3409520Y-618439D01*
X-3590480Y-618439D01*
X-3718439Y-490480D01*
X-3718439Y-309520D01*
X-3633919Y-225000D01*
X-3718439Y-140480D01*
X-3718439Y+40480D01*
X-3633919Y+125000D01*
X-3718439Y+209520D01*
X-3718439Y+390480D01*
X-3633919Y+475000D01*
X-3718439Y+559520D01*
X-3718439Y+740480D01*
X-3633919Y+825000D01*
X-3718439Y+909520D01*
X-3718439Y+1090480D01*
X-3633919Y+1175000D01*
X-3718439Y+1259520D01*
X-3718439Y+1440480D01*
X-3633919Y+1525000D01*
X-3718439Y+1609520D01*
X-3718439Y+1790480D01*
X-3633919Y+1875000D01*
X-3718439Y+1959520D01*
X-3718439Y+2140480D01*
X-3633919Y+2225000D01*
X-3718439Y+2309520D01*
X-3718439Y+2490480D01*
X-3633919Y+2575000D01*
X-3718439Y+2659520D01*
X-3718439Y+2840480D01*
X-3633919Y+2925000D01*
X-3718439Y+3009520D01*
X-3718439Y+3190480D01*
X-3633919Y+3275000D01*
X-3718439Y+3359520D01*
X-3718439Y+3540480D01*
X-3633919Y+3625000D01*
X-3718439Y+3709520D01*
X-3718439Y+3890480D01*
X-3633919Y+3975000D01*
X-3718439Y+4059520D01*
X-3718439Y+4240480D01*
X-3633919Y+4325000D01*
X-3718439Y+4409520D01*
X-3718439Y+4590480D01*
X-3633919Y+4675000D01*
X-3718439Y+4759520D01*
X-3718439Y+4940480D01*
X-3633919Y+5025000D01*
X-3718439Y+5109520D01*
X-3718439Y+5290480D01*
X-3633919Y+5375000D01*
X-3718439Y+5459520D01*
X-3718439Y+5640480D01*
X-3633919Y+5725000D01*
X-3718439Y+5809520D01*
X-3718439Y+5990480D01*
X-3590480Y+6118439D01*
X-3409520Y+6118439D01*
X-3281561Y+5990480D01*
G37*
G36*
X+2281961Y+6695041D02*
X+2281961Y+6854959D01*
X+2395041Y+6968039D01*
X+2554959Y+6968039D01*
X+2668039Y+6854959D01*
X+2668039Y+6695041D01*
X+2554959Y+6581961D01*
X+2395041Y+6581961D01*
X+2281961Y+6695041D01*
G37*
G36*
X-2528361Y+6207361D02*
X-3117639Y+6207361D01*
X-3117639Y+6542639D01*
X-2528361Y+6542639D01*
X-2528361Y+6207361D01*
G37*
G36*
X-2677940Y-86573D02*
X-2677940Y-63427D01*
X-2661573Y-47060D01*
X-2638427Y-47060D01*
X-2622060Y-63427D01*
X-2622060Y-86573D01*
X-2638427Y-102940D01*
X-2661573Y-102940D01*
X-2677940Y-86573D01*
G37*
G36*
X-2902940Y-761573D02*
X-2902940Y-738427D01*
X-2886573Y-722060D01*
X-2863427Y-722060D01*
X-2847060Y-738427D01*
X-2847060Y-761573D01*
X-2863427Y-777940D01*
X-2886573Y-777940D01*
X-2902940Y-761573D01*
G37*
G36*
X-2977940Y-686573D02*
X-2977940Y-663427D01*
X-2961573Y-647060D01*
X-2938427Y-647060D01*
X-2922060Y-663427D01*
X-2922060Y-686573D01*
X-2938427Y-702940D01*
X-2961573Y-702940D01*
X-2977940Y-686573D01*
G37*
G36*
X-2802940Y+38427D02*
X-2802940Y+61573D01*
X-2786573Y+77940D01*
X-2763427Y+77940D01*
X-2747060Y+61573D01*
X-2747060Y+38427D01*
X-2763427Y+22060D01*
X-2786573Y+22060D01*
X-2802940Y+38427D01*
G37*
G36*
X-3102940Y-561573D02*
X-3102940Y-538427D01*
X-3086573Y-522060D01*
X-3063427Y-522060D01*
X-3047060Y-538427D01*
X-3047060Y-561573D01*
X-3063427Y-577940D01*
X-3086573Y-577940D01*
X-3102940Y-561573D01*
G37*
G36*
X-2777940Y-886573D02*
X-2777940Y-863427D01*
X-2761573Y-847060D01*
X-2738427Y-847060D01*
X-2722060Y-863427D01*
X-2722060Y-886573D01*
X-2738427Y-902940D01*
X-2761573Y-902940D01*
X-2777940Y-886573D01*
G37*
%LPD*%
D13*
X+2249368Y+2900913D02*
X+2225000Y+2900000D01*
X+2875000Y+3200000D02*
X+2800000Y+3200000D01*
X+2550000Y+2950000D01*
X+2549228Y+2850772D01*
X+2499228Y+2800000D01*
X+2425460Y+2800000D01*
X+2424999Y+2799539D01*
X+2225000Y+2800000D01*
X+2475000Y+2875000D02*
X+2475000Y+2950000D01*
X+2800000Y+3275000D01*
X+2950000Y+3275000D01*
X+2225000Y+2900000D02*
X+2350000Y+2900000D01*
X+2800000Y+3350000D01*
X+2950000Y+3350000D01*
X+2225000Y+3050000D02*
X+2424438Y+3049438D01*
X+2875000Y+3500000D01*
X+2875000Y+3725000D01*
X+2950000Y+3800000D01*
X+2225000Y+3150000D02*
X+2449368Y+3149368D01*
X+2825000Y+3525000D01*
X+2825000Y+3975000D01*
X+2950000Y+4100000D01*
X+1150000Y+1875000D02*
X+875000Y+1600000D01*
X+875000Y+1475000D01*
X+725000Y+1475000D02*
X+725000Y+1550000D01*
X+1125000Y+1950000D01*
X+1225000Y+1950000D01*
X+625000Y+2200000D02*
X+625000Y+2000000D01*
X+650000Y+1975000D01*
X+550000Y+2125000D02*
X+550000Y+2000000D01*
X+525000Y+1975000D01*
X+200000Y+2650000D02*
X+475000Y+2650000D01*
X+525000Y+2700000D01*
X+525000Y+2775000D01*
X-1350000Y+3600000D02*
X-950000Y+3200000D01*
X-300000Y+3200000D01*
X+450000Y+3275000D02*
X+574999Y+3275000D01*
X+673454Y+3176545D01*
X+675000Y+3176545D01*
X+675000Y+3175000D01*
X+750000Y+3100000D02*
X+750000Y+3200001D01*
X+600000Y+3350000D01*
X+500001Y+3350000D01*
X+450000Y+3400000D01*
X+900000Y+3775000D02*
X+1050000Y+3625000D01*
X+1250000Y+3725000D02*
X+1175000Y+3800000D01*
X+1175000Y+3925000D01*
X+1325000Y+3650000D02*
X+1225000Y+3650000D01*
X+1000000Y+3875000D01*
X+1000000Y+3925000D01*
X+1725000Y+3875000D02*
X+1675000Y+3875000D01*
X+1625000Y+3925000D01*
X+1625000Y+4175000D01*
X+2250000Y+4175000D02*
X+2025000Y+3925000D01*
X+2250000Y+3900000D02*
X+2275000Y+3900000D01*
X+2425000Y+4050000D01*
X+2175000Y+3825000D02*
X+2300000Y+3825000D01*
X+2525000Y+4050000D01*
X+2550000Y+4050000D01*
X+2025000Y+3825000D02*
X+1950000Y+3900000D01*
X+1950000Y+3950000D01*
X+2125000Y+4125000D01*
X+2125000Y+4175000D01*
X+1150000Y+1475000D02*
X+1350000Y+1675000D01*
X+1350000Y+1725000D01*
X+1425000Y+1800000D02*
X+1325000Y+1800000D01*
X+1275000Y+1750000D01*
X+1275000Y+1700000D01*
X+1050000Y+1475000D01*
X+1775000Y+1475000D02*
X+1775000Y+1675000D01*
X+1750000Y+2225000D02*
X+1850000Y+2125000D01*
X+1850000Y+1575000D01*
X+1950000Y+1475000D01*
X+1575000Y+1975000D02*
X+1500000Y+1900000D01*
X+1500000Y+1750000D01*
X+1350000Y+1600000D01*
X+1350000Y+1475000D01*
X+1550000Y+2225000D02*
X+1550000Y+2100000D01*
X+1650000Y+2000000D01*
X+1650000Y+1950000D01*
X+1550000Y+1850000D01*
X+1550000Y+1725000D01*
X+1450000Y+1625000D01*
X+1450000Y+1475000D01*
X-375000Y-275000D02*
X-375000Y+750000D01*
X+1225000Y-275000D02*
X+1550000Y+50000D01*
X+1550000Y+400000D01*
X+2025000Y-300000D02*
X+2025000Y+400000D01*
X+1900000Y+2225000D02*
X+1900000Y+1800000D01*
X+2225000Y+1475000D01*
X+2275000Y+1475000D01*
X+850000Y+4800000D02*
X+150000Y+5500000D01*
X+0Y+5500000D01*
X-1350000Y+400000D02*
X-1300000Y+400000D01*
X-650000Y+1050000D01*
X-1350000Y+1200000D02*
X-650000Y+1200000D01*
X-1350000Y+2800000D02*
X-1350000Y+2801545D01*
X-1348458Y+2801542D01*
X-1248458Y+2901542D01*
X-300000Y+2900102D01*
X-1350000Y+5200000D02*
X-1350000Y+4725000D01*
X-625000Y+4000000D01*
X-1350000Y+4400000D02*
X-825000Y+3875000D01*
X-625000Y+3875000D01*
X+2800000Y+5525000D02*
X+2625000Y+5350000D01*
X+2625000Y+4000000D01*
X+2575000Y+3950000D01*
X+375000Y+3850000D02*
X+700000Y+3850000D01*
X+900000Y+3650000D01*
X+1000000Y+4225000D02*
X+1100000Y+4125000D01*
X+1250000Y+4125000D01*
X+1375000Y+4000000D01*
X+1375000Y+3850000D01*
X+1425000Y+3800000D01*
X+1525000Y+3800000D01*
X+1450000Y+3875000D02*
X+1425000Y+3900000D01*
X+1425000Y+4025000D01*
X+1275000Y+4175000D01*
X+1150000Y+4175000D01*
X+1100000Y+4225000D01*
X+1700000Y+3950000D02*
X+1700000Y+4125000D01*
X+1750000Y+4175000D01*
X+825000Y+5500000D02*
X+825000Y+4950000D01*
X+950000Y+4800000D01*
X+2225000Y+2900000D02*
X+2248650Y+2901545D01*
X+2248018Y+2900913D01*
X+2249368Y+2900913D01*
X+5400000Y+4150000D02*
X+5350000Y+4200000D01*
X+4300000Y+4200000D01*
X+3300000Y+3200000D01*
X+2875000Y+3200000D01*
X+5400000Y+6475000D02*
X+5325000Y+6400000D01*
X+5325000Y+6125000D01*
X+3750000Y+4550000D01*
X+3100000Y+4550000D01*
X+2950000Y+4400000D01*
X+5400000Y+6225000D02*
X+5400000Y+6100000D01*
X+3700000Y+4400000D01*
X+3100000Y+4400000D01*
X+2950000Y+4250000D01*
X+5400000Y+5975000D02*
X+5375000Y+5975000D01*
X+3650000Y+4250000D01*
X+3100000Y+4250000D01*
X+2950000Y+4100000D01*
X+5400000Y+5200000D02*
X+4900000Y+5200000D01*
X+3500000Y+3800000D01*
X+3100000Y+3800000D01*
X+2950000Y+3650000D01*
X+5400000Y+4925000D02*
X+4725000Y+4925000D01*
X+3450000Y+3650000D01*
X+3100000Y+3650000D01*
X+2950000Y+3500000D01*
X+5400000Y+4675000D02*
X+4575000Y+4675000D01*
X+3400000Y+3500000D01*
X+3100000Y+3500000D01*
X+2950000Y+3350000D01*
X+5400000Y+4425000D02*
X+4425000Y+4425000D01*
X+3350000Y+3350000D01*
X+3175000Y+3350000D01*
X+3100000Y+3275000D01*
X+2950000Y+3275000D01*
X+2575000Y+2650000D02*
X+2675000Y+2750000D01*
X+2675000Y+2975000D01*
X+2825000Y+3125000D01*
X+3125000Y+3125000D01*
X+3200000Y+3050000D01*
X+3350000Y+3050000D01*
X+4362500Y+4062500D01*
X+5601600Y+4058800D01*
X+2575000Y+2500000D02*
X+2750000Y+2675000D01*
X+2750000Y+2950000D01*
X+2850000Y+3050000D01*
X+3100000Y+3050000D01*
X+3174896Y+2975104D01*
X+3375104Y+2975104D01*
X+4350000Y+3950000D01*
X+5400000Y+5725000D02*
X+5225000Y+5725000D01*
X+3600000Y+4100000D01*
X+3350000Y+4100000D01*
X+3100000Y+4100000D01*
X+2950000Y+3950000D01*
X+5400000Y+5475000D02*
X+5075000Y+5475000D01*
X+3550000Y+3950000D01*
X+3425000Y+3950000D01*
X+3100000Y+3950000D01*
X+2950000Y+3800000D01*
X+1125000Y+3500000D02*
X+1125000Y+3650000D01*
X+900000Y+3875000D01*
X+650000Y+3000000D02*
X+575000Y+2925000D01*
X+525000Y+2925000D01*
X+225000Y+3225000D01*
X+150000Y+3225000D01*
X+50000Y+3300000D01*
X+50000Y+3350000D01*
X+550000Y+3000000D02*
X+275000Y+3255357D01*
X+275000Y+3375000D01*
X+150000Y+3500000D01*
X+25000Y+3500000D01*
X+450000Y+2725000D02*
X+250000Y+2725000D01*
X+200000Y+2775000D01*
X+625000Y+2575000D02*
X+625000Y+2475000D01*
X+575000Y+2425000D01*
X+250000Y+2425000D01*
X+200000Y+2375000D01*
X+550000Y+2500000D02*
X+200000Y+2500000D01*
X-1350000Y+2000000D02*
X-725000Y+2000000D01*
X-650000Y+2075000D01*
X+425000Y-275000D02*
X+425000Y-25000D01*
X+850000Y+400000D01*
X+1250000Y+1250000D02*
X+1250000Y+1450000D01*
X+1275000Y+1500000D01*
X+1925000Y+1675000D02*
X+2100000Y+1500000D01*
X+2100000Y+1475000D01*
X+4825000Y+4125000D02*
X+4325000Y+4125000D01*
X+3325000Y+3125000D01*
X+1600000Y+5500000D02*
X+1600000Y+4825000D01*
X+2400000Y+5525000D02*
X+2250000Y+5375000D01*
X+2250000Y+4850000D01*
D18*
X+2875000Y+2950000D03*
X+2825000Y+2875000D03*
X+2825000Y+2575000D03*
X+2825000Y+2725000D03*
X+2875000Y+2800000D03*
X+2875000Y+2650000D03*
X+2875000Y+2500000D03*
X+2350000Y+1819165D03*
X+2350000Y+1780835D03*
X+2450000Y+1800000D03*
X+2825000Y+2325000D03*
X+2825000Y+2280835D03*
X+2925000Y+2300000D03*
X+3025673Y+2324327D03*
X+3025000Y+2275000D03*
X+4013449Y+2075000D03*
X+4013449Y+2225000D03*
X+4213449Y+2150000D03*
X+4138449Y+2075000D03*
X+4138449Y+2225000D03*
X+4010040Y+975000D03*
X+4010040Y+1125000D03*
X+4135040Y+1125000D03*
X+4135040Y+975000D03*
X+4210040Y+1050000D03*
X+2225000Y+2800000D03*
X+2475000Y+2875000D03*
X+2225000Y+3050000D03*
X+2225000Y+3150000D03*
X+2550000Y+1800000D03*
X+1150000Y+1875000D03*
X+875000Y+1475000D03*
X+725000Y+1475000D03*
X+1225000Y+1950000D03*
X+625000Y+2200000D03*
X+650000Y+1975000D03*
X+550000Y+2125000D03*
X+525000Y+1975000D03*
X+525000Y+2775000D03*
X-1350000Y+3600000D03*
X-300000Y+3200000D03*
X+675000Y+3175000D03*
X+450000Y+3275000D03*
X+750000Y+3100000D03*
X+450000Y+3400000D03*
X+1050000Y+3625000D03*
X+900000Y+3775000D03*
X+1250000Y+3725000D03*
X+1175000Y+3925000D03*
X+1325000Y+3650000D03*
X+1000000Y+3925000D03*
X+1725000Y+3875000D03*
X+2400000Y+3350000D03*
X+2550000Y+3450000D03*
X+2250000Y+4175000D03*
X+2025000Y+3925000D03*
X+2250000Y+3900000D03*
X+2425000Y+4050000D03*
X+2175000Y+3825000D03*
X+2025000Y+3825000D03*
X+1150000Y+1475000D03*
X+1350000Y+1725000D03*
X+1425000Y+1800000D03*
X+1050000Y+1475000D03*
X+1775000Y+1475000D03*
X+1775000Y+1675000D03*
X+1750000Y+2225000D03*
X+1950000Y+1475000D03*
X+1575000Y+1975000D03*
X+1350000Y+1475000D03*
X+1550000Y+2225000D03*
X+1450000Y+1475000D03*
X-375000Y-275000D03*
X-375000Y+750000D03*
X+1225000Y-275000D03*
X+1550000Y+400000D03*
X+2025000Y-300000D03*
X+2025000Y+400000D03*
X+1900000Y+2225000D03*
X+2275000Y+1475000D03*
X+850000Y+4800000D03*
X+0Y+5500000D03*
X-1350000Y+400000D03*
X-650000Y+1050000D03*
X-1350000Y+1200000D03*
X-650000Y+1200000D03*
X-1350000Y+2800000D03*
X-300000Y+2900102D03*
X-1350000Y+5200000D03*
X-625000Y+4000000D03*
X-1350000Y+4400000D03*
X-625000Y+3875000D03*
X+2800000Y+5525000D03*
X+2575000Y+3950000D03*
X+375000Y+3850000D03*
X+900000Y+3650000D03*
X+1000000Y+4225000D03*
X+1525000Y+3800000D03*
X+1450000Y+3875000D03*
X+1100000Y+4225000D03*
X+1700000Y+3950000D03*
X+1750000Y+4175000D03*
X+825000Y+5500000D03*
X+950000Y+4800000D03*
X+2675000Y+1975000D03*
X+2225000Y+2900000D03*
D19*
X+1675000Y+2922320D03*
X+1827400Y+2922320D03*
X+1827400Y+2772460D03*
X+1827400Y+2620060D03*
X+1675000Y+2620060D03*
X+1522600Y+2620060D03*
X+1520060Y+2775000D03*
X+1675000Y+2775000D03*
X+1380360Y+2775000D03*
X+1380360Y+2620060D03*
X+1380360Y+2472740D03*
X+1522600Y+2472740D03*
X+1672460Y+2472740D03*
X+1824860Y+2472740D03*
X+1972180Y+2472740D03*
X+1972180Y+2620060D03*
X+1972180Y+2775000D03*
X+1972180Y+2924860D03*
X+1380360Y+2922320D03*
X+1525140Y+2922320D03*
X+1675000Y+3074720D03*
X+1827400Y+3074720D03*
X+1972180Y+3074720D03*
X+1525140Y+3074720D03*
X+1901060Y+2447340D03*
X+1751200Y+2447340D03*
X+1598800Y+2447340D03*
X+1448940Y+2447340D03*
X+1349880Y+2548940D03*
X+1349880Y+2696260D03*
X+1349880Y+2851200D03*
X+1349880Y+2998520D03*
X+1380360Y+3074720D03*
X+1451480Y+3100120D03*
X+1601340Y+3100120D03*
X+1751200Y+3100120D03*
X+1901060Y+3100120D03*
X+2002660Y+2998520D03*
X+2002660Y+2848660D03*
X+2002660Y+2696260D03*
X+2002660Y+2548940D03*
D18*
X-2650000Y-75000D03*
X-2875000Y-750000D03*
X-2950000Y-675000D03*
X-2775000Y+50000D03*
X-3075000Y-550000D03*
X-2750000Y-875000D03*
X+2875000Y+3200000D03*
X+5400000Y+4150000D03*
X+5400000Y+6475000D03*
X+2950000Y+4400000D03*
X+5400000Y+6225000D03*
X+2950000Y+4250000D03*
X+5400000Y+5975000D03*
X+2950000Y+4100000D03*
X+5400000Y+5725000D03*
X+2950000Y+3950000D03*
X+5400000Y+5475000D03*
X+2950000Y+3800000D03*
X+5400000Y+5200000D03*
X+2950000Y+3650000D03*
X+5400000Y+4925000D03*
X+2950000Y+3500000D03*
X+5400000Y+4675000D03*
X+2950000Y+3350000D03*
X+5400000Y+4425000D03*
X+2950000Y+3275000D03*
X+4600000Y+4500000D03*
X+3210000Y+3425000D03*
X+3210000Y+3575000D03*
X+3210000Y+3725000D03*
X+3210000Y+4025000D03*
X+3210000Y+3875000D03*
X+3210000Y+4175000D03*
X+3210000Y+4475000D03*
X+3210000Y+4325000D03*
X+3210000Y+3275000D03*
X+3210000Y+3125000D03*
X+2575000Y+2650000D03*
X+5601600Y+4058800D03*
X+2575000Y+2500000D03*
X+4350000Y+3950000D03*
X+3350000Y+4100000D03*
X+3425000Y+3950000D03*
X+1675024Y+4608924D03*
X+175000Y+4100000D03*
X+1125000Y+3500000D03*
X+900000Y+3875000D03*
X+650000Y+3000000D03*
X+50000Y+3350000D03*
X+550000Y+3000000D03*
X+25000Y+3500000D03*
X+175000Y+3325000D03*
X+450000Y+2725000D03*
X+200000Y+2775000D03*
X+625000Y+2575000D03*
X+550000Y+2500000D03*
X+200000Y+2500000D03*
X+200000Y+2375000D03*
X-25000Y+2375000D03*
X-1350000Y+2000000D03*
X-650000Y+2075000D03*
X+1050000Y+1975000D03*
X+425000Y-275000D03*
X+850000Y+400000D03*
X+1250000Y+1250000D03*
X+1275000Y+1500000D03*
X+1150000Y+1225000D03*
X+1925000Y+1675000D03*
X+2100000Y+1475000D03*
X+2300000Y+1575000D03*
X+4825000Y+4125000D03*
X+3325000Y+3125000D03*
X+1600000Y+5500000D03*
X+1600000Y+4825000D03*
X+2250000Y+4675000D03*
X+2125000Y+4175000D03*
X+1625000Y+4175000D03*
X+2550000Y+4050000D03*
X+200000Y+2650000D03*
X+2150000Y+925000D03*
X+1800000Y+925000D03*
X+1350000Y+925000D03*
X+700000Y+925000D03*
X-450000Y+1000000D03*
X-450000Y+2225000D03*
X-450000Y+2800000D03*
X-350000Y+3500000D03*
X-450000Y+3775000D03*
X-450000Y+4350000D03*
X+575000Y+4900000D03*
X+2000000Y+4900000D03*
X+2800000Y+4900000D03*
X+1325000Y+4900000D03*
X+2400000Y+5525000D03*
X+2250000Y+4850000D03*
X-275000Y+4900000D03*
X+200000Y+925000D03*
X+2475000Y+2575000D03*
X+2275000Y+2075000D03*
X+2225000Y+2600000D03*
D13*
X+2937015Y+4466039D02*
X+2922646Y+4466039D01*
X+2883961Y+4427354D01*
X+2883961Y+4372646D01*
X+2922646Y+4333961D01*
X+2954937Y+4333961D01*
X+2937015Y+4316039D01*
X+2922646Y+4316039D01*
X+2883961Y+4277354D01*
X+2883961Y+4222646D01*
X+2922646Y+4183961D01*
X+2954937Y+4183961D01*
X+2937015Y+4166039D01*
X+2922646Y+4166039D01*
X+2883961Y+4127354D01*
X+2883961Y+4112985D01*
X+2769121Y+3998145D01*
X+2769121Y+3548145D01*
X+2426295Y+3205319D01*
X+2262559Y+3205834D01*
X+2252354Y+3216039D01*
X+2197646Y+3216039D01*
X+2158961Y+3177354D01*
X+2158961Y+3122646D01*
X+2181607Y+3100000D01*
X+2158961Y+3077354D01*
X+2158961Y+3022646D01*
X+2197646Y+2983961D01*
X+2252354Y+2983961D01*
X+2262360Y+2993967D01*
X+2364681Y+2993705D01*
X+2326854Y+2955878D01*
X+2285383Y+2955878D01*
X+2283595Y+2959825D01*
X+2259721Y+2958672D01*
X+2252354Y+2966039D01*
X+2197646Y+2966039D01*
X+2158961Y+2927354D01*
X+2158961Y+2872646D01*
X+2181607Y+2850000D01*
X+2158961Y+2827354D01*
X+2158961Y+2772646D01*
X+2197646Y+2733961D01*
X+2252354Y+2733961D01*
X+2262388Y+2743995D01*
X+2448092Y+2743608D01*
X+2448605Y+2744121D01*
X+2522623Y+2744121D01*
X+2539041Y+2760792D01*
X+2604929Y+2827697D01*
X+2605699Y+2926675D01*
X+2619121Y+2940097D01*
X+2619121Y+2773145D01*
X+2562015Y+2716039D01*
X+2547646Y+2716039D01*
X+2508961Y+2677354D01*
X+2508961Y+2622646D01*
X+2547646Y+2583961D01*
X+2579937Y+2583961D01*
X+2562015Y+2566039D01*
X+2547646Y+2566039D01*
X+2508961Y+2527354D01*
X+2508961Y+2472646D01*
X+2547646Y+2433961D01*
X+2602354Y+2433961D01*
X+2641039Y+2472646D01*
X+2641039Y+2487015D01*
X+2805879Y+2651855D01*
X+2805879Y+2704608D01*
X+2813427Y+2697060D01*
X+2836573Y+2697060D01*
X+2852940Y+2713427D01*
X+2852940Y+2736573D01*
X+2836573Y+2752940D01*
X+2813427Y+2752940D01*
X+2805879Y+2745392D01*
X+2805879Y+2854608D01*
X+2813427Y+2847060D01*
X+2836573Y+2847060D01*
X+2852940Y+2863427D01*
X+2852940Y+2886573D01*
X+2836573Y+2902940D01*
X+2813427Y+2902940D01*
X+2805879Y+2895392D01*
X+2805879Y+2926855D01*
X+2873146Y+2994122D01*
X+3076854Y+2994122D01*
X+3100000Y+2970976D01*
X+3100000Y+1222275D01*
X+3043136Y+1279139D01*
X+2956864Y+1279139D01*
X+2895861Y+1218136D01*
X+2895861Y+1131864D01*
X+2927725Y+1100000D01*
X+2895861Y+1068136D01*
X+2895861Y+1000000D01*
X-200000Y+1000000D01*
X-200000Y+4550000D01*
X+1640555Y+4550000D01*
X+1647670Y+4542885D01*
X+1702378Y+4542885D01*
X+1709493Y+4550000D01*
X+2569121Y+4550000D01*
X+2569121Y+4116039D01*
X+2522646Y+4116039D01*
X+2512486Y+4105879D01*
X+2501855Y+4105879D01*
X+2482184Y+4086208D01*
X+2452354Y+4116039D01*
X+2397646Y+4116039D01*
X+2358961Y+4077354D01*
X+2358961Y+4062985D01*
X+2262015Y+3966039D01*
X+2222646Y+3966039D01*
X+2183961Y+3927354D01*
X+2183961Y+3891039D01*
X+2147646Y+3891039D01*
X+2108961Y+3852354D01*
X+2108961Y+3797646D01*
X+2147646Y+3758961D01*
X+2202354Y+3758961D01*
X+2212514Y+3769121D01*
X+2323146Y+3769122D01*
X+2508961Y+3954937D01*
X+2508961Y+3922646D01*
X+2547646Y+3883961D01*
X+2602354Y+3883961D01*
X+2641039Y+3922646D01*
X+2641039Y+3937015D01*
X+2680879Y+3976855D01*
X+2680879Y+4550000D01*
X+3020976Y+4550000D01*
X+2937015Y+4466039D01*
X+2854139Y+2118136D02*
X+2854139Y+2031864D01*
X+2793136Y+1970861D01*
X+2706864Y+1970861D01*
X+2702940Y+1974785D01*
X+2702940Y+1963427D01*
X+2686573Y+1947060D01*
X+2663427Y+1947060D01*
X+2647060Y+1963427D01*
X+2647060Y+1986573D01*
X+2663427Y+2002940D01*
X+2674785Y+2002940D01*
X+2662500Y+2015225D01*
X+2618136Y+1970861D01*
X+2531864Y+1970861D01*
X+2487500Y+2015225D01*
X+2443136Y+1970861D01*
X+2356864Y+1970861D01*
X+2310559Y+2017166D01*
X+2302354Y+2008961D01*
X+2247646Y+2008961D01*
X+2208961Y+2047646D01*
X+2208961Y+2102354D01*
X+2247646Y+2141039D01*
X+2302354Y+2141039D01*
X+2310559Y+2132834D01*
X+2356864Y+2179139D01*
X+2443136Y+2179139D01*
X+2487500Y+2134775D01*
X+2531864Y+2179139D01*
X+2618136Y+2179139D01*
X+2662500Y+2134775D01*
X+2706864Y+2179139D01*
X+2793136Y+2179139D01*
X+2854139Y+2118136D01*
X+2847060Y+2938427D02*
X+2847060Y+2961573D01*
X+2863427Y+2977940D01*
X+2886573Y+2977940D01*
X+2902940Y+2961573D01*
X+2902940Y+2938427D01*
X+2886573Y+2922060D01*
X+2863427Y+2922060D01*
X+2847060Y+2938427D01*
X+2797060Y+2563427D02*
X+2797060Y+2586573D01*
X+2813427Y+2602940D01*
X+2836573Y+2602940D01*
X+2852940Y+2586573D01*
X+2852940Y+2563427D01*
X+2836573Y+2547060D01*
X+2813427Y+2547060D01*
X+2797060Y+2563427D01*
X+2847060Y+2788427D02*
X+2847060Y+2811573D01*
X+2863427Y+2827940D01*
X+2886573Y+2827940D01*
X+2902940Y+2811573D01*
X+2902940Y+2788427D01*
X+2886573Y+2772060D01*
X+2863427Y+2772060D01*
X+2847060Y+2788427D01*
X+2847060Y+2638427D02*
X+2847060Y+2661573D01*
X+2863427Y+2677940D01*
X+2886573Y+2677940D01*
X+2902940Y+2661573D01*
X+2902940Y+2638427D01*
X+2886573Y+2622060D01*
X+2863427Y+2622060D01*
X+2847060Y+2638427D01*
X+2847060Y+2488427D02*
X+2847060Y+2511573D01*
X+2863427Y+2527940D01*
X+2886573Y+2527940D01*
X+2902940Y+2511573D01*
X+2902940Y+2488427D01*
X+2886573Y+2472060D01*
X+2863427Y+2472060D01*
X+2847060Y+2488427D01*
X+2377940Y+1830738D02*
X+2377940Y+1807592D01*
X+2370348Y+1800000D01*
X+2377940Y+1792408D01*
X+2377940Y+1769262D01*
X+2361573Y+1752895D01*
X+2338427Y+1752895D01*
X+2322060Y+1769262D01*
X+2322060Y+1792408D01*
X+2329652Y+1800000D01*
X+2322060Y+1807592D01*
X+2322060Y+1830738D01*
X+2338427Y+1847105D01*
X+2361573Y+1847105D01*
X+2377940Y+1830738D01*
X+2422060Y+1788427D02*
X+2422060Y+1811573D01*
X+2438427Y+1827940D01*
X+2461573Y+1827940D01*
X+2477940Y+1811573D01*
X+2477940Y+1788427D01*
X+2461573Y+1772060D01*
X+2438427Y+1772060D01*
X+2422060Y+1788427D01*
X+2852940Y+2336573D02*
X+2852940Y+2313427D01*
X+2842430Y+2302918D01*
X+2852940Y+2292408D01*
X+2852940Y+2269262D01*
X+2836573Y+2252895D01*
X+2813427Y+2252895D01*
X+2797060Y+2269262D01*
X+2797060Y+2292408D01*
X+2807570Y+2302918D01*
X+2797060Y+2313427D01*
X+2797060Y+2336573D01*
X+2813427Y+2352940D01*
X+2836573Y+2352940D01*
X+2852940Y+2336573D01*
X+2897060Y+2288427D02*
X+2897060Y+2311573D01*
X+2913427Y+2327940D01*
X+2936573Y+2327940D01*
X+2952940Y+2311573D01*
X+2952940Y+2288427D01*
X+2936573Y+2272060D01*
X+2913427Y+2272060D01*
X+2897060Y+2288427D01*
X+3053613Y+2335900D02*
X+3053613Y+2312754D01*
X+3040186Y+2299327D01*
X+3052940Y+2286573D01*
X+3052940Y+2263427D01*
X+3036573Y+2247060D01*
X+3013427Y+2247060D01*
X+2997060Y+2263427D01*
X+2997060Y+2286573D01*
X+3010487Y+2300000D01*
X+2997733Y+2312754D01*
X+2997733Y+2335900D01*
X+3014100Y+2352267D01*
X+3037246Y+2352267D01*
X+3053613Y+2335900D01*
X+2522060Y+1788427D02*
X+2522060Y+1811573D01*
X+2538427Y+1827940D01*
X+2561573Y+1827940D01*
X+2577940Y+1811573D01*
X+2577940Y+1788427D01*
X+2561573Y+1772060D01*
X+2538427Y+1772060D01*
X+2522060Y+1788427D01*
X+1291039Y+1977354D02*
X+1291039Y+1922646D01*
X+1252354Y+1883961D01*
X+1216039Y+1883961D01*
X+1216039Y+1847646D01*
X+1177354Y+1808961D01*
X+1162985Y+1808961D01*
X+930878Y+1576854D01*
X+930879Y+1512514D01*
X+941039Y+1502354D01*
X+941039Y+1447646D01*
X+902354Y+1408961D01*
X+847646Y+1408961D01*
X+808961Y+1447646D01*
X+808961Y+1502354D01*
X+819121Y+1512514D01*
X+819122Y+1565098D01*
X+780879Y+1526855D01*
X+780879Y+1512514D01*
X+791039Y+1502354D01*
X+791039Y+1447646D01*
X+752354Y+1408961D01*
X+697646Y+1408961D01*
X+658961Y+1447646D01*
X+658961Y+1502354D01*
X+669121Y+1512514D01*
X+669121Y+1573145D01*
X+1043036Y+1947060D01*
X+1038427Y+1947060D01*
X+1022060Y+1963427D01*
X+1022060Y+1986573D01*
X+1038427Y+2002940D01*
X+1061573Y+2002940D01*
X+1077940Y+1986573D01*
X+1077940Y+1981964D01*
X+1101855Y+2005879D01*
X+1187486Y+2005879D01*
X+1197646Y+2016039D01*
X+1252354Y+2016039D01*
X+1291039Y+1977354D01*
X+691039Y+2227354D02*
X+691039Y+2172646D01*
X+680879Y+2162486D01*
X+680879Y+2037514D01*
X+716039Y+2002354D01*
X+716039Y+1947646D01*
X+677354Y+1908961D01*
X+622646Y+1908961D01*
X+587500Y+1944107D01*
X+552354Y+1908961D01*
X+497646Y+1908961D01*
X+458961Y+1947646D01*
X+458961Y+2002354D01*
X+494122Y+2037515D01*
X+494121Y+2087486D01*
X+483961Y+2097646D01*
X+483961Y+2152354D01*
X+522646Y+2191039D01*
X+558961Y+2191039D01*
X+558961Y+2227354D01*
X+597646Y+2266039D01*
X+652354Y+2266039D01*
X+691039Y+2227354D01*
X+591039Y+2802354D02*
X+591039Y+2747646D01*
X+580879Y+2737486D01*
X+580879Y+2676855D01*
X+498145Y+2594121D01*
X+237514Y+2594121D01*
X+227354Y+2583961D01*
X+172646Y+2583961D01*
X+133961Y+2622646D01*
X+133961Y+2677354D01*
X+169107Y+2712500D01*
X+133961Y+2747646D01*
X+133961Y+2802354D01*
X+172646Y+2841039D01*
X+227354Y+2841039D01*
X+266039Y+2802354D01*
X+266039Y+2787985D01*
X+273145Y+2780879D01*
X+412486Y+2780879D01*
X+422646Y+2791039D01*
X+458961Y+2791039D01*
X+458961Y+2802354D01*
X+497646Y+2841039D01*
X+552354Y+2841039D01*
X+591039Y+2802354D01*
X+516039Y+3427354D02*
X+516039Y+3412986D01*
X+523146Y+3405879D01*
X+623145Y+3405879D01*
X+805879Y+3223146D01*
X+805879Y+3137514D01*
X+816039Y+3127354D01*
X+816039Y+3072646D01*
X+777354Y+3033961D01*
X+722646Y+3033961D01*
X+683961Y+3072646D01*
X+683961Y+3108961D01*
X+647646Y+3108961D01*
X+608961Y+3147646D01*
X+608961Y+3162014D01*
X+551854Y+3219121D01*
X+487514Y+3219121D01*
X+477354Y+3208961D01*
X+422646Y+3208961D01*
X+383961Y+3247646D01*
X+383961Y+3302354D01*
X+419107Y+3337500D01*
X+383961Y+3372646D01*
X+383961Y+3427354D01*
X+422646Y+3466039D01*
X+477354Y+3466039D01*
X+516039Y+3427354D01*
X+1241039Y+3952354D02*
X+1241039Y+3897646D01*
X+1230879Y+3887486D01*
X+1230878Y+3823146D01*
X+1262985Y+3791039D01*
X+1277354Y+3791039D01*
X+1316039Y+3752354D01*
X+1316039Y+3716039D01*
X+1352354Y+3716039D01*
X+1391039Y+3677354D01*
X+1391039Y+3622646D01*
X+1352354Y+3583961D01*
X+1297646Y+3583961D01*
X+1287486Y+3594121D01*
X+1201855Y+3594121D01*
X+1180879Y+3615097D01*
X+1180879Y+3537514D01*
X+1191039Y+3527354D01*
X+1191039Y+3472646D01*
X+1152354Y+3433961D01*
X+1097646Y+3433961D01*
X+1058961Y+3472646D01*
X+1058961Y+3527354D01*
X+1069121Y+3537514D01*
X+1069121Y+3558961D01*
X+1022646Y+3558961D01*
X+983961Y+3597646D01*
X+983961Y+3612015D01*
X+966039Y+3629937D01*
X+966039Y+3622646D01*
X+927354Y+3583961D01*
X+872646Y+3583961D01*
X+833961Y+3622646D01*
X+833961Y+3637015D01*
X+676855Y+3794121D01*
X+412514Y+3794121D01*
X+402354Y+3783961D01*
X+347646Y+3783961D01*
X+308961Y+3822646D01*
X+308961Y+3877354D01*
X+347646Y+3916039D01*
X+402354Y+3916039D01*
X+412514Y+3905879D01*
X+723145Y+3905879D01*
X+833961Y+3795063D01*
X+833961Y+3802354D01*
X+856607Y+3825000D01*
X+833961Y+3847646D01*
X+833961Y+3902354D01*
X+872646Y+3941039D01*
X+927354Y+3941039D01*
X+933961Y+3934432D01*
X+933961Y+3952354D01*
X+972646Y+3991039D01*
X+1027354Y+3991039D01*
X+1066039Y+3952354D01*
X+1066039Y+3897646D01*
X+1061208Y+3892816D01*
X+1119122Y+3834902D01*
X+1119121Y+3887486D01*
X+1108961Y+3897646D01*
X+1108961Y+3952354D01*
X+1147646Y+3991039D01*
X+1202354Y+3991039D01*
X+1241039Y+3952354D01*
X+1816039Y+4202354D02*
X+1816039Y+4147646D01*
X+1777354Y+4108961D01*
X+1762985Y+4108961D01*
X+1755879Y+4101855D01*
X+1755879Y+3987514D01*
X+1766039Y+3977354D01*
X+1766039Y+3927354D01*
X+1791039Y+3902354D01*
X+1791039Y+3847646D01*
X+1752354Y+3808961D01*
X+1697646Y+3808961D01*
X+1687486Y+3819121D01*
X+1651855Y+3819121D01*
X+1569122Y+3901854D01*
X+1569122Y+3925000D01*
X+1569121Y+4137486D01*
X+1558961Y+4147646D01*
X+1558961Y+4202354D01*
X+1597646Y+4241039D01*
X+1652354Y+4241039D01*
X+1687500Y+4205893D01*
X+1722646Y+4241039D01*
X+1777354Y+4241039D01*
X+1816039Y+4202354D01*
X+2372060Y+3338427D02*
X+2372060Y+3361573D01*
X+2388427Y+3377940D01*
X+2411573Y+3377940D01*
X+2427940Y+3361573D01*
X+2427940Y+3338427D01*
X+2411573Y+3322060D01*
X+2388427Y+3322060D01*
X+2372060Y+3338427D01*
X+2522060Y+3438427D02*
X+2522060Y+3461573D01*
X+2538427Y+3477940D01*
X+2561573Y+3477940D01*
X+2577940Y+3461573D01*
X+2577940Y+3438427D01*
X+2561573Y+3422060D01*
X+2538427Y+3422060D01*
X+2522060Y+3438427D01*
X+2316039Y+4202354D02*
X+2316039Y+4147646D01*
X+2277354Y+4108961D01*
X+2267026Y+4108961D01*
X+2186206Y+4019736D01*
X+2091039Y+3913225D01*
X+2091039Y+3897646D01*
X+2068393Y+3875000D01*
X+2091039Y+3852354D01*
X+2091039Y+3797646D01*
X+2052354Y+3758961D01*
X+1997646Y+3758961D01*
X+1958961Y+3797646D01*
X+1958961Y+3812015D01*
X+1894121Y+3876855D01*
X+1894121Y+3973145D01*
X+2063792Y+4142816D01*
X+2058961Y+4147646D01*
X+2058961Y+4202354D01*
X+2097646Y+4241039D01*
X+2152354Y+4241039D01*
X+2187500Y+4205893D01*
X+2222646Y+4241039D01*
X+2277354Y+4241039D01*
X+2316039Y+4202354D01*
X+1616039Y+2252354D02*
X+1616039Y+2197646D01*
X+1605879Y+2187486D01*
X+1605878Y+2123146D01*
X+1705879Y+2023145D01*
X+1705879Y+1926855D01*
X+1605878Y+1826854D01*
X+1605878Y+1701854D01*
X+1505879Y+1601855D01*
X+1505879Y+1512514D01*
X+1516039Y+1502354D01*
X+1516039Y+1447646D01*
X+1477354Y+1408961D01*
X+1422646Y+1408961D01*
X+1400000Y+1431607D01*
X+1377354Y+1408961D01*
X+1322646Y+1408961D01*
X+1305879Y+1425728D01*
X+1305879Y+1287514D01*
X+1316039Y+1277354D01*
X+1316039Y+1222646D01*
X+1277354Y+1183961D01*
X+1222646Y+1183961D01*
X+1183961Y+1222646D01*
X+1183961Y+1277354D01*
X+1194121Y+1287514D01*
X+1194121Y+1425728D01*
X+1177354Y+1408961D01*
X+1122646Y+1408961D01*
X+1100000Y+1431607D01*
X+1077354Y+1408961D01*
X+1022646Y+1408961D01*
X+983961Y+1447646D01*
X+983961Y+1502354D01*
X+1022646Y+1541039D01*
X+1037015Y+1541039D01*
X+1219121Y+1723145D01*
X+1219121Y+1773145D01*
X+1301855Y+1855879D01*
X+1387486Y+1855879D01*
X+1397646Y+1866039D01*
X+1444121Y+1866039D01*
X+1444121Y+1923145D01*
X+1508961Y+1987985D01*
X+1508961Y+2002354D01*
X+1538792Y+2032184D01*
X+1494122Y+2076854D01*
X+1494122Y+2100000D01*
X+1494121Y+2187486D01*
X+1483961Y+2197646D01*
X+1483961Y+2252354D01*
X+1522646Y+2291039D01*
X+1577354Y+2291039D01*
X+1616039Y+2252354D01*
X+1966039Y+2252354D02*
X+1966039Y+2197646D01*
X+1955879Y+2187486D01*
X+1955879Y+1823145D01*
X+2242816Y+1536208D01*
X+2247646Y+1541039D01*
X+2302354Y+1541039D01*
X+2341039Y+1502354D01*
X+2341039Y+1447646D01*
X+2302354Y+1408961D01*
X+2247646Y+1408961D01*
X+2237486Y+1419121D01*
X+2201855Y+1419121D01*
X+2166039Y+1454937D01*
X+2166039Y+1447646D01*
X+2127354Y+1408961D01*
X+2072646Y+1408961D01*
X+2033961Y+1447646D01*
X+2033961Y+1487015D01*
X+1912015Y+1608961D01*
X+1905879Y+1608961D01*
X+1905879Y+1598145D01*
X+1962985Y+1541039D01*
X+1977354Y+1541039D01*
X+2016039Y+1502354D01*
X+2016039Y+1447646D01*
X+1977354Y+1408961D01*
X+1922646Y+1408961D01*
X+1883961Y+1447646D01*
X+1883961Y+1462015D01*
X+1830879Y+1515097D01*
X+1830879Y+1512514D01*
X+1841039Y+1502354D01*
X+1841039Y+1447646D01*
X+1802354Y+1408961D01*
X+1747646Y+1408961D01*
X+1708961Y+1447646D01*
X+1708961Y+1502354D01*
X+1719121Y+1512514D01*
X+1719121Y+1637486D01*
X+1708961Y+1647646D01*
X+1708961Y+1702354D01*
X+1747646Y+1741039D01*
X+1794121Y+1741039D01*
X+1794121Y+2101855D01*
X+1737015Y+2158961D01*
X+1722646Y+2158961D01*
X+1683961Y+2197646D01*
X+1683961Y+2252354D01*
X+1722646Y+2291039D01*
X+1777354Y+2291039D01*
X+1816039Y+2252354D01*
X+1816039Y+2237985D01*
X+1833961Y+2220063D01*
X+1833961Y+2252354D01*
X+1872646Y+2291039D01*
X+1927354Y+2291039D01*
X+1966039Y+2252354D01*
X+1166039Y+4252354D02*
X+1166039Y+4237985D01*
X+1173146Y+4230878D01*
X+1298146Y+4230878D01*
X+1480878Y+4048146D01*
X+1480878Y+3937515D01*
X+1516039Y+3902354D01*
X+1516039Y+3866039D01*
X+1552354Y+3866039D01*
X+1591039Y+3827354D01*
X+1591039Y+3772646D01*
X+1552354Y+3733961D01*
X+1497646Y+3733961D01*
X+1487486Y+3744121D01*
X+1401855Y+3744121D01*
X+1319121Y+3826855D01*
X+1319121Y+3976855D01*
X+1226855Y+4069121D01*
X+1076855Y+4069121D01*
X+987015Y+4158961D01*
X+972646Y+4158961D01*
X+933961Y+4197646D01*
X+933961Y+4252354D01*
X+972646Y+4291039D01*
X+1027354Y+4291039D01*
X+1050000Y+4268393D01*
X+1072646Y+4291039D01*
X+1127354Y+4291039D01*
X+1166039Y+4252354D01*
X+1647060Y+2910747D02*
X+1647060Y+2933893D01*
X+1663427Y+2950260D01*
X+1686573Y+2950260D01*
X+1702940Y+2933893D01*
X+1702940Y+2910747D01*
X+1686573Y+2894380D01*
X+1663427Y+2894380D01*
X+1647060Y+2910747D01*
X+1799460Y+2910747D02*
X+1799460Y+2933893D01*
X+1815827Y+2950260D01*
X+1838973Y+2950260D01*
X+1855340Y+2933893D01*
X+1855340Y+2910747D01*
X+1838973Y+2894380D01*
X+1815827Y+2894380D01*
X+1799460Y+2910747D01*
X+1799460Y+2760887D02*
X+1799460Y+2784033D01*
X+1815827Y+2800400D01*
X+1838973Y+2800400D01*
X+1855340Y+2784033D01*
X+1855340Y+2760887D01*
X+1838973Y+2744520D01*
X+1815827Y+2744520D01*
X+1799460Y+2760887D01*
X+1799460Y+2608487D02*
X+1799460Y+2631633D01*
X+1815827Y+2648000D01*
X+1838973Y+2648000D01*
X+1855340Y+2631633D01*
X+1855340Y+2608487D01*
X+1838973Y+2592120D01*
X+1815827Y+2592120D01*
X+1799460Y+2608487D01*
X+1647060Y+2608487D02*
X+1647060Y+2631633D01*
X+1663427Y+2648000D01*
X+1686573Y+2648000D01*
X+1702940Y+2631633D01*
X+1702940Y+2608487D01*
X+1686573Y+2592120D01*
X+1663427Y+2592120D01*
X+1647060Y+2608487D01*
X+1494660Y+2608487D02*
X+1494660Y+2631633D01*
X+1511027Y+2648000D01*
X+1534173Y+2648000D01*
X+1550540Y+2631633D01*
X+1550540Y+2608487D01*
X+1534173Y+2592120D01*
X+1511027Y+2592120D01*
X+1494660Y+2608487D01*
X+1492120Y+2763427D02*
X+1492120Y+2786573D01*
X+1508487Y+2802940D01*
X+1531633Y+2802940D01*
X+1548000Y+2786573D01*
X+1548000Y+2763427D01*
X+1531633Y+2747060D01*
X+1508487Y+2747060D01*
X+1492120Y+2763427D01*
X+1647060Y+2763427D02*
X+1647060Y+2786573D01*
X+1663427Y+2802940D01*
X+1686573Y+2802940D01*
X+1702940Y+2786573D01*
X+1702940Y+2763427D01*
X+1686573Y+2747060D01*
X+1663427Y+2747060D01*
X+1647060Y+2763427D01*
X+1352420Y+2763427D02*
X+1352420Y+2786573D01*
X+1368787Y+2802940D01*
X+1391933Y+2802940D01*
X+1408300Y+2786573D01*
X+1408300Y+2763427D01*
X+1391933Y+2747060D01*
X+1368787Y+2747060D01*
X+1352420Y+2763427D01*
X+1352420Y+2608487D02*
X+1352420Y+2631633D01*
X+1368787Y+2648000D01*
X+1391933Y+2648000D01*
X+1408300Y+2631633D01*
X+1408300Y+2608487D01*
X+1391933Y+2592120D01*
X+1368787Y+2592120D01*
X+1352420Y+2608487D01*
X+1352420Y+2461167D02*
X+1352420Y+2484313D01*
X+1368787Y+2500680D01*
X+1391933Y+2500680D01*
X+1408300Y+2484313D01*
X+1408300Y+2461167D01*
X+1391933Y+2444800D01*
X+1368787Y+2444800D01*
X+1352420Y+2461167D01*
X+1494660Y+2461167D02*
X+1494660Y+2484313D01*
X+1511027Y+2500680D01*
X+1534173Y+2500680D01*
X+1550540Y+2484313D01*
X+1550540Y+2461167D01*
X+1534173Y+2444800D01*
X+1511027Y+2444800D01*
X+1494660Y+2461167D01*
X+1644520Y+2461167D02*
X+1644520Y+2484313D01*
X+1660887Y+2500680D01*
X+1684033Y+2500680D01*
X+1700400Y+2484313D01*
X+1700400Y+2461167D01*
X+1684033Y+2444800D01*
X+1660887Y+2444800D01*
X+1644520Y+2461167D01*
X+1796920Y+2461167D02*
X+1796920Y+2484313D01*
X+1813287Y+2500680D01*
X+1836433Y+2500680D01*
X+1852800Y+2484313D01*
X+1852800Y+2461167D01*
X+1836433Y+2444800D01*
X+1813287Y+2444800D01*
X+1796920Y+2461167D01*
X+1944240Y+2461167D02*
X+1944240Y+2484313D01*
X+1960607Y+2500680D01*
X+1983753Y+2500680D01*
X+2000120Y+2484313D01*
X+2000120Y+2461167D01*
X+1983753Y+2444800D01*
X+1960607Y+2444800D01*
X+1944240Y+2461167D01*
X+1944240Y+2608487D02*
X+1944240Y+2631633D01*
X+1960607Y+2648000D01*
X+1983753Y+2648000D01*
X+2000120Y+2631633D01*
X+2000120Y+2608487D01*
X+1983753Y+2592120D01*
X+1960607Y+2592120D01*
X+1944240Y+2608487D01*
X+1944240Y+2763427D02*
X+1944240Y+2786573D01*
X+1960607Y+2802940D01*
X+1983753Y+2802940D01*
X+2000120Y+2786573D01*
X+2000120Y+2763427D01*
X+1983753Y+2747060D01*
X+1960607Y+2747060D01*
X+1944240Y+2763427D01*
X+1944240Y+2913287D02*
X+1944240Y+2936433D01*
X+1960607Y+2952800D01*
X+1983753Y+2952800D01*
X+2000120Y+2936433D01*
X+2000120Y+2913287D01*
X+1983753Y+2896920D01*
X+1960607Y+2896920D01*
X+1944240Y+2913287D01*
X+1352420Y+2910747D02*
X+1352420Y+2933893D01*
X+1368787Y+2950260D01*
X+1391933Y+2950260D01*
X+1408300Y+2933893D01*
X+1408300Y+2910747D01*
X+1391933Y+2894380D01*
X+1368787Y+2894380D01*
X+1352420Y+2910747D01*
X+1497200Y+2910747D02*
X+1497200Y+2933893D01*
X+1513567Y+2950260D01*
X+1536713Y+2950260D01*
X+1553080Y+2933893D01*
X+1553080Y+2910747D01*
X+1536713Y+2894380D01*
X+1513567Y+2894380D01*
X+1497200Y+2910747D01*
X+1647060Y+3063147D02*
X+1647060Y+3086293D01*
X+1663427Y+3102660D01*
X+1686573Y+3102660D01*
X+1702940Y+3086293D01*
X+1702940Y+3063147D01*
X+1686573Y+3046780D01*
X+1663427Y+3046780D01*
X+1647060Y+3063147D01*
X+1799460Y+3063147D02*
X+1799460Y+3086293D01*
X+1815827Y+3102660D01*
X+1838973Y+3102660D01*
X+1855340Y+3086293D01*
X+1855340Y+3063147D01*
X+1838973Y+3046780D01*
X+1815827Y+3046780D01*
X+1799460Y+3063147D01*
X+1944240Y+3063147D02*
X+1944240Y+3086293D01*
X+1960607Y+3102660D01*
X+1983753Y+3102660D01*
X+2000120Y+3086293D01*
X+2000120Y+3063147D01*
X+1983753Y+3046780D01*
X+1960607Y+3046780D01*
X+1944240Y+3063147D01*
X+1497200Y+3063147D02*
X+1497200Y+3086293D01*
X+1513567Y+3102660D01*
X+1536713Y+3102660D01*
X+1553080Y+3086293D01*
X+1553080Y+3063147D01*
X+1536713Y+3046780D01*
X+1513567Y+3046780D01*
X+1497200Y+3063147D01*
X+1873120Y+2435767D02*
X+1873120Y+2458913D01*
X+1889487Y+2475280D01*
X+1912633Y+2475280D01*
X+1929000Y+2458913D01*
X+1929000Y+2435767D01*
X+1912633Y+2419400D01*
X+1889487Y+2419400D01*
X+1873120Y+2435767D01*
X+1723260Y+2435767D02*
X+1723260Y+2458913D01*
X+1739627Y+2475280D01*
X+1762773Y+2475280D01*
X+1779140Y+2458913D01*
X+1779140Y+2435767D01*
X+1762773Y+2419400D01*
X+1739627Y+2419400D01*
X+1723260Y+2435767D01*
X+1570860Y+2435767D02*
X+1570860Y+2458913D01*
X+1587227Y+2475280D01*
X+1610373Y+2475280D01*
X+1626740Y+2458913D01*
X+1626740Y+2435767D01*
X+1610373Y+2419400D01*
X+1587227Y+2419400D01*
X+1570860Y+2435767D01*
X+1421000Y+2435767D02*
X+1421000Y+2458913D01*
X+1437367Y+2475280D01*
X+1460513Y+2475280D01*
X+1476880Y+2458913D01*
X+1476880Y+2435767D01*
X+1460513Y+2419400D01*
X+1437367Y+2419400D01*
X+1421000Y+2435767D01*
X+1321940Y+2537367D02*
X+1321940Y+2560513D01*
X+1338307Y+2576880D01*
X+1361453Y+2576880D01*
X+1377820Y+2560513D01*
X+1377820Y+2537367D01*
X+1361453Y+2521000D01*
X+1338307Y+2521000D01*
X+1321940Y+2537367D01*
X+1321940Y+2684687D02*
X+1321940Y+2707833D01*
X+1338307Y+2724200D01*
X+1361453Y+2724200D01*
X+1377820Y+2707833D01*
X+1377820Y+2684687D01*
X+1361453Y+2668320D01*
X+1338307Y+2668320D01*
X+1321940Y+2684687D01*
X+1321940Y+2839627D02*
X+1321940Y+2862773D01*
X+1338307Y+2879140D01*
X+1361453Y+2879140D01*
X+1377820Y+2862773D01*
X+1377820Y+2839627D01*
X+1361453Y+2823260D01*
X+1338307Y+2823260D01*
X+1321940Y+2839627D01*
X+1321940Y+2986947D02*
X+1321940Y+3010093D01*
X+1338307Y+3026460D01*
X+1361453Y+3026460D01*
X+1377820Y+3010093D01*
X+1377820Y+2986947D01*
X+1361453Y+2970580D01*
X+1338307Y+2970580D01*
X+1321940Y+2986947D01*
X+1352420Y+3063147D02*
X+1352420Y+3086293D01*
X+1368787Y+3102660D01*
X+1391933Y+3102660D01*
X+1408300Y+3086293D01*
X+1408300Y+3063147D01*
X+1391933Y+3046780D01*
X+1368787Y+3046780D01*
X+1352420Y+3063147D01*
X+1423540Y+3088547D02*
X+1423540Y+3111693D01*
X+1439907Y+3128060D01*
X+1463053Y+3128060D01*
X+1479420Y+3111693D01*
X+1479420Y+3088547D01*
X+1463053Y+3072180D01*
X+1439907Y+3072180D01*
X+1423540Y+3088547D01*
X+1573400Y+3088547D02*
X+1573400Y+3111693D01*
X+1589767Y+3128060D01*
X+1612913Y+3128060D01*
X+1629280Y+3111693D01*
X+1629280Y+3088547D01*
X+1612913Y+3072180D01*
X+1589767Y+3072180D01*
X+1573400Y+3088547D01*
X+1723260Y+3088547D02*
X+1723260Y+3111693D01*
X+1739627Y+3128060D01*
X+1762773Y+3128060D01*
X+1779140Y+3111693D01*
X+1779140Y+3088547D01*
X+1762773Y+3072180D01*
X+1739627Y+3072180D01*
X+1723260Y+3088547D01*
X+1873120Y+3088547D02*
X+1873120Y+3111693D01*
X+1889487Y+3128060D01*
X+1912633Y+3128060D01*
X+1929000Y+3111693D01*
X+1929000Y+3088547D01*
X+1912633Y+3072180D01*
X+1889487Y+3072180D01*
X+1873120Y+3088547D01*
X+1974720Y+2986947D02*
X+1974720Y+3010093D01*
X+1991087Y+3026460D01*
X+2014233Y+3026460D01*
X+2030600Y+3010093D01*
X+2030600Y+2986947D01*
X+2014233Y+2970580D01*
X+1991087Y+2970580D01*
X+1974720Y+2986947D01*
X+1974720Y+2837087D02*
X+1974720Y+2860233D01*
X+1991087Y+2876600D01*
X+2014233Y+2876600D01*
X+2030600Y+2860233D01*
X+2030600Y+2837087D01*
X+2014233Y+2820720D01*
X+1991087Y+2820720D01*
X+1974720Y+2837087D01*
X+1974720Y+2684687D02*
X+1974720Y+2707833D01*
X+1991087Y+2724200D01*
X+2014233Y+2724200D01*
X+2030600Y+2707833D01*
X+2030600Y+2684687D01*
X+2014233Y+2668320D01*
X+1991087Y+2668320D01*
X+1974720Y+2684687D01*
X+1974720Y+2537367D02*
X+1974720Y+2560513D01*
X+1991087Y+2576880D01*
X+2014233Y+2576880D01*
X+2030600Y+2560513D01*
X+2030600Y+2537367D01*
X+2014233Y+2521000D01*
X+1991087Y+2521000D01*
X+1974720Y+2537367D01*
X+147060Y+4088427D02*
X+147060Y+4111573D01*
X+163427Y+4127940D01*
X+186573Y+4127940D01*
X+202940Y+4111573D01*
X+202940Y+4088427D01*
X+186573Y+4072060D01*
X+163427Y+4072060D01*
X+147060Y+4088427D01*
X+62514Y+3555879D02*
X+173146Y+3555878D01*
X+330879Y+3398145D01*
X+330879Y+3279799D01*
X+562154Y+3066039D01*
X+577354Y+3066039D01*
X+600000Y+3043393D01*
X+622646Y+3066039D01*
X+677354Y+3066039D01*
X+716039Y+3027354D01*
X+716039Y+2972646D01*
X+677354Y+2933961D01*
X+662985Y+2933961D01*
X+598145Y+2869121D01*
X+501855Y+2869121D01*
X+201855Y+3169121D01*
X+131374Y+3169121D01*
X+5921Y+3263211D01*
X-5879Y+3286811D01*
X-5879Y+3312486D01*
X-16039Y+3322646D01*
X-16039Y+3377354D01*
X+22646Y+3416039D01*
X+77354Y+3416039D01*
X+116039Y+3377354D01*
X+116039Y+3322646D01*
X+114709Y+3321316D01*
X+168626Y+3280879D01*
X+219121Y+3280879D01*
X+219121Y+3351855D01*
X+126854Y+3444122D01*
X+62514Y+3444121D01*
X+52354Y+3433961D01*
X-2354Y+3433961D01*
X-41039Y+3472646D01*
X-41039Y+3527354D01*
X-2354Y+3566039D01*
X+52354Y+3566039D01*
X+62514Y+3555879D01*
X+147060Y+3313427D02*
X+147060Y+3336573D01*
X+163427Y+3352940D01*
X+186573Y+3352940D01*
X+202940Y+3336573D01*
X+202940Y+3313427D01*
X+186573Y+3297060D01*
X+163427Y+3297060D01*
X+147060Y+3313427D01*
X+691039Y+2602354D02*
X+691039Y+2547646D01*
X+680879Y+2537486D01*
X+680879Y+2451855D01*
X+598145Y+2369121D01*
X+273145Y+2369121D01*
X+266039Y+2362015D01*
X+266039Y+2347646D01*
X+227354Y+2308961D01*
X+172646Y+2308961D01*
X+133961Y+2347646D01*
X+133961Y+2402354D01*
X+169107Y+2437500D01*
X+133961Y+2472646D01*
X+133961Y+2527354D01*
X+172646Y+2566039D01*
X+227354Y+2566039D01*
X+237514Y+2555879D01*
X+512486Y+2555879D01*
X+522646Y+2566039D01*
X+558961Y+2566039D01*
X+558961Y+2602354D01*
X+597646Y+2641039D01*
X+652354Y+2641039D01*
X+691039Y+2602354D01*
X-52940Y+2363427D02*
X-52940Y+2386573D01*
X-36573Y+2402940D01*
X-13427Y+2402940D01*
X+2940Y+2386573D01*
X+2940Y+2363427D01*
X-13427Y+2347060D01*
X-36573Y+2347060D01*
X-52940Y+2363427D01*
X+1122060Y+1213427D02*
X+1122060Y+1236573D01*
X+1138427Y+1252940D01*
X+1161573Y+1252940D01*
X+1177940Y+1236573D01*
X+1177940Y+1213427D01*
X+1161573Y+1197060D01*
X+1138427Y+1197060D01*
X+1122060Y+1213427D01*
X+2272060Y+1563427D02*
X+2272060Y+1586573D01*
X+2288427Y+1602940D01*
X+2311573Y+1602940D01*
X+2327940Y+1586573D01*
X+2327940Y+1563427D01*
X+2311573Y+1547060D01*
X+2288427Y+1547060D01*
X+2272060Y+1563427D01*
X+2447060Y+2563427D02*
X+2447060Y+2586573D01*
X+2463427Y+2602940D01*
X+2486573Y+2602940D01*
X+2502940Y+2586573D01*
X+2502940Y+2563427D01*
X+2486573Y+2547060D01*
X+2463427Y+2547060D01*
X+2447060Y+2563427D01*
X+2197060Y+2588427D02*
X+2197060Y+2611573D01*
X+2213427Y+2627940D01*
X+2236573Y+2627940D01*
X+2252940Y+2611573D01*
X+2252940Y+2588427D01*
X+2236573Y+2572060D01*
X+2213427Y+2572060D01*
X+2197060Y+2588427D01*
X+3000000Y+4850000D02*
X+2879314Y+4850000D01*
X+2891439Y+4862125D01*
X+2891439Y+4937875D01*
X+2837875Y+4991439D01*
X+2762125Y+4991439D01*
X+2708561Y+4937875D01*
X+2708561Y+4862125D01*
X+2720686Y+4850000D01*
X+2706279Y+4850000D01*
X+2706279Y+5316335D01*
X+2823505Y+5433561D01*
X+2837875Y+5433561D01*
X+2891439Y+5487125D01*
X+2891439Y+5562875D01*
X+2837875Y+5616439D01*
X+2762125Y+5616439D01*
X+2708561Y+5562875D01*
X+2708561Y+5548505D01*
X+2543721Y+5383665D01*
X+2543721Y+4850000D01*
X+2341439Y+4850000D01*
X+2341439Y+4887875D01*
X+2331279Y+4898035D01*
X+2331279Y+5341335D01*
X+2423505Y+5433561D01*
X+2437875Y+5433561D01*
X+2491439Y+5487125D01*
X+2491439Y+5562875D01*
X+2437875Y+5616439D01*
X+2362125Y+5616439D01*
X+2308561Y+5562875D01*
X+2308561Y+5548505D01*
X+2168721Y+5408665D01*
X+2168721Y+4898035D01*
X+2158561Y+4887875D01*
X+2158561Y+4850000D01*
X+2079314Y+4850000D01*
X+2091439Y+4862125D01*
X+2091439Y+4937875D01*
X+2037875Y+4991439D01*
X+1962125Y+4991439D01*
X+1908561Y+4937875D01*
X+1908561Y+4862125D01*
X+1920686Y+4850000D01*
X+1691439Y+4850000D01*
X+1691439Y+4862875D01*
X+1681279Y+4873035D01*
X+1681279Y+5451965D01*
X+1691439Y+5462125D01*
X+1691439Y+5537875D01*
X+1637875Y+5591439D01*
X+1562125Y+5591439D01*
X+1508561Y+5537875D01*
X+1508561Y+5462125D01*
X+1518721Y+5451965D01*
X+1518721Y+4873035D01*
X+1508561Y+4862875D01*
X+1508561Y+4850000D01*
X+1404314Y+4850000D01*
X+1416439Y+4862125D01*
X+1416439Y+4937875D01*
X+1362875Y+4991439D01*
X+1287125Y+4991439D01*
X+1233561Y+4937875D01*
X+1233561Y+4862125D01*
X+1245686Y+4850000D01*
X+1029314Y+4850000D01*
X+987875Y+4891439D01*
X+981923Y+4891439D01*
X+906279Y+4979982D01*
X+906279Y+5451965D01*
X+916439Y+5462125D01*
X+916439Y+5537875D01*
X+862875Y+5591439D01*
X+787125Y+5591439D01*
X+733561Y+5537875D01*
X+733561Y+5462125D01*
X+743721Y+5451965D01*
X+743721Y+5021223D01*
X+183665Y+5581279D01*
X+48035Y+5581279D01*
X+37875Y+5591439D01*
X-37875Y+5591439D01*
X-91439Y+5537875D01*
X-91439Y+5462125D01*
X-37875Y+5408561D01*
X+37875Y+5408561D01*
X+48035Y+5418721D01*
X+116335Y+5418721D01*
X+543617Y+4991439D01*
X+537125Y+4991439D01*
X+483561Y+4937875D01*
X+483561Y+4862125D01*
X+495686Y+4850000D01*
X-195686Y+4850000D01*
X-183561Y+4862125D01*
X-183561Y+4937875D01*
X-237125Y+4991439D01*
X-312875Y+4991439D01*
X-366439Y+4937875D01*
X-366439Y+4862125D01*
X-354314Y+4850000D01*
X-700000Y+4850000D01*
X-700000Y+4189944D01*
X-1268721Y+4758665D01*
X-1268721Y+5151965D01*
X-1258561Y+5162125D01*
X-1258561Y+5237875D01*
X-1312125Y+5291439D01*
X-1387875Y+5291439D01*
X-1441439Y+5237875D01*
X-1441439Y+5162125D01*
X-1431279Y+5151965D01*
X-1431279Y+4691335D01*
X-716439Y+3976495D01*
X-716439Y+3962125D01*
X-710593Y+3956279D01*
X-791335Y+3956279D01*
X-1258561Y+4423505D01*
X-1258561Y+4437875D01*
X-1312125Y+4491439D01*
X-1387875Y+4491439D01*
X-1441439Y+4437875D01*
X-1441439Y+4362125D01*
X-1387875Y+4308561D01*
X-1373505Y+4308561D01*
X-858665Y+3793721D01*
X-700000Y+3793721D01*
X-700000Y+3281279D01*
X-916335Y+3281279D01*
X-1258561Y+3623505D01*
X-1258561Y+3637875D01*
X-1312125Y+3691439D01*
X-1387875Y+3691439D01*
X-1441439Y+3637875D01*
X-1441439Y+3562125D01*
X-1387875Y+3508561D01*
X-1373505Y+3508561D01*
X-983665Y+3118721D01*
X-700000Y+3118721D01*
X-700000Y+2982017D01*
X-1282073Y+2982871D01*
X-1373505Y+2891439D01*
X-1387875Y+2891439D01*
X-1441439Y+2837875D01*
X-1441439Y+2762125D01*
X-1387875Y+2708561D01*
X-1312125Y+2708561D01*
X-1258561Y+2762125D01*
X-1258561Y+2776495D01*
X-1214845Y+2820211D01*
X-700000Y+2819400D01*
X-700000Y+2154314D01*
X-741439Y+2112875D01*
X-741439Y+2098505D01*
X-758665Y+2081279D01*
X-1301965Y+2081279D01*
X-1312125Y+2091439D01*
X-1387875Y+2091439D01*
X-1441439Y+2037875D01*
X-1441439Y+1962125D01*
X-1387875Y+1908561D01*
X-1312125Y+1908561D01*
X-1301965Y+1918721D01*
X-700000Y+1918721D01*
X-700000Y+1281279D01*
X-1301965Y+1281279D01*
X-1312125Y+1291439D01*
X-1387875Y+1291439D01*
X-1441439Y+1237875D01*
X-1441439Y+1162125D01*
X-1387875Y+1108561D01*
X-1312125Y+1108561D01*
X-1301965Y+1118721D01*
X-710593Y+1118721D01*
X-741439Y+1087875D01*
X-741439Y+1073505D01*
X-1323505Y+491439D01*
X-1387875Y+491439D01*
X-1441439Y+437875D01*
X-1441439Y+362125D01*
X-1387875Y+308561D01*
X-1312125Y+308561D01*
X-1301965Y+318721D01*
X-1266335Y+318721D01*
X-700000Y+885056D01*
X-700000Y+350000D01*
X-456279Y+350000D01*
X-456279Y-226965D01*
X-466439Y-237125D01*
X-466439Y-312875D01*
X-412875Y-366439D01*
X-337125Y-366439D01*
X-283561Y-312875D01*
X-283561Y-237125D01*
X-293721Y-226965D01*
X-293721Y+350000D01*
X+685056Y+350000D01*
X+343721Y+8665D01*
X+343721Y-226965D01*
X+333561Y-237125D01*
X+333561Y-312875D01*
X+387125Y-366439D01*
X+462875Y-366439D01*
X+516439Y-312875D01*
X+516439Y-237125D01*
X+506279Y-226965D01*
X+506279Y-58665D01*
X+873505Y+308561D01*
X+887875Y+308561D01*
X+929314Y+350000D01*
X+1468721Y+350000D01*
X+1468721Y+83665D01*
X+1201495Y-183561D01*
X+1187125Y-183561D01*
X+1133561Y-237125D01*
X+1133561Y-312875D01*
X+1187125Y-366439D01*
X+1262875Y-366439D01*
X+1316439Y-312875D01*
X+1316439Y-298505D01*
X+1631279Y+16335D01*
X+1631279Y+350000D01*
X+1943721Y+350000D01*
X+1943721Y-251965D01*
X+1933561Y-262125D01*
X+1933561Y-337875D01*
X+1987125Y-391439D01*
X+2062875Y-391439D01*
X+2116439Y-337875D01*
X+2116439Y-262125D01*
X+2106279Y-251965D01*
X+2106279Y+350000D01*
X+4850000Y+350000D01*
X+4850000Y-666461D01*
X+4741133Y-666461D01*
X+4516461Y-891133D01*
X+4516461Y-1208867D01*
X+4741133Y-1433539D01*
X+4850000Y-1433539D01*
X+4850000Y-1573800D01*
X-4373800Y-1573800D01*
X-4373800Y+7073800D01*
X+3000000Y+7073800D01*
X+3000000Y+4850000D01*
X-4233539Y-1208867D02*
X-4233539Y-891133D01*
X-4008867Y-666461D01*
X-3691133Y-666461D01*
X-3466461Y-891133D01*
X-3466461Y-1208867D01*
X-3691133Y-1433539D01*
X-4008867Y-1433539D01*
X-4233539Y-1208867D01*
X-4233539Y+6391133D02*
X-4233539Y+6708867D01*
X-4008867Y+6933539D01*
X-3691133Y+6933539D01*
X-3466461Y+6708867D01*
X-3466461Y+6391133D01*
X-3691133Y+6166461D01*
X-4008867Y+6166461D01*
X-4233539Y+6391133D01*
X-3281561Y+5990480D02*
X-3281561Y+5809520D01*
X-3366081Y+5725000D01*
X-3281561Y+5640480D01*
X-3281561Y+5459520D01*
X-3366081Y+5375000D01*
X-3281561Y+5290480D01*
X-3281561Y+5109520D01*
X-3366081Y+5025000D01*
X-3281561Y+4940480D01*
X-3281561Y+4759520D01*
X-3366081Y+4675000D01*
X-3281561Y+4590480D01*
X-3281561Y+4409520D01*
X-3366081Y+4325000D01*
X-3281561Y+4240480D01*
X-3281561Y+4059520D01*
X-3366081Y+3975000D01*
X-3281561Y+3890480D01*
X-3281561Y+3709520D01*
X-3366081Y+3625000D01*
X-3281561Y+3540480D01*
X-3281561Y+3359520D01*
X-3366081Y+3275000D01*
X-3281561Y+3190480D01*
X-3281561Y+3009520D01*
X-3366081Y+2925000D01*
X-3281561Y+2840480D01*
X-3281561Y+2659520D01*
X-3366081Y+2575000D01*
X-3281561Y+2490480D01*
X-3281561Y+2309520D01*
X-3366081Y+2225000D01*
X-3281561Y+2140480D01*
X-3281561Y+1959520D01*
X-3366081Y+1875000D01*
X-3281561Y+1790480D01*
X-3281561Y+1609520D01*
X-3366081Y+1525000D01*
X-3281561Y+1440480D01*
X-3281561Y+1259520D01*
X-3366081Y+1175000D01*
X-3281561Y+1090480D01*
X-3281561Y+909520D01*
X-3366081Y+825000D01*
X-3281561Y+740480D01*
X-3281561Y+559520D01*
X-3366081Y+475000D01*
X-3281561Y+390480D01*
X-3281561Y+209520D01*
X-3366081Y+125000D01*
X-3281561Y+40480D01*
X-3281561Y-140480D01*
X-3366081Y-225000D01*
X-3281561Y-309520D01*
X-3281561Y-490480D01*
X-3409520Y-618439D01*
X-3590480Y-618439D01*
X-3718439Y-490480D01*
X-3718439Y-309520D01*
X-3633919Y-225000D01*
X-3718439Y-140480D01*
X-3718439Y+40480D01*
X-3633919Y+125000D01*
X-3718439Y+209520D01*
X-3718439Y+390480D01*
X-3633919Y+475000D01*
X-3718439Y+559520D01*
X-3718439Y+740480D01*
X-3633919Y+825000D01*
X-3718439Y+909520D01*
X-3718439Y+1090480D01*
X-3633919Y+1175000D01*
X-3718439Y+1259520D01*
X-3718439Y+1440480D01*
X-3633919Y+1525000D01*
X-3718439Y+1609520D01*
X-3718439Y+1790480D01*
X-3633919Y+1875000D01*
X-3718439Y+1959520D01*
X-3718439Y+2140480D01*
X-3633919Y+2225000D01*
X-3718439Y+2309520D01*
X-3718439Y+2490480D01*
X-3633919Y+2575000D01*
X-3718439Y+2659520D01*
X-3718439Y+2840480D01*
X-3633919Y+2925000D01*
X-3718439Y+3009520D01*
X-3718439Y+3190480D01*
X-3633919Y+3275000D01*
X-3718439Y+3359520D01*
X-3718439Y+3540480D01*
X-3633919Y+3625000D01*
X-3718439Y+3709520D01*
X-3718439Y+3890480D01*
X-3633919Y+3975000D01*
X-3718439Y+4059520D01*
X-3718439Y+4240480D01*
X-3633919Y+4325000D01*
X-3718439Y+4409520D01*
X-3718439Y+4590480D01*
X-3633919Y+4675000D01*
X-3718439Y+4759520D01*
X-3718439Y+4940480D01*
X-3633919Y+5025000D01*
X-3718439Y+5109520D01*
X-3718439Y+5290480D01*
X-3633919Y+5375000D01*
X-3718439Y+5459520D01*
X-3718439Y+5640480D01*
X-3633919Y+5725000D01*
X-3718439Y+5809520D01*
X-3718439Y+5990480D01*
X-3590480Y+6118439D01*
X-3409520Y+6118439D01*
X-3281561Y+5990480D01*
X+2281961Y+6695041D02*
X+2281961Y+6854959D01*
X+2395041Y+6968039D01*
X+2554959Y+6968039D01*
X+2668039Y+6854959D01*
X+2668039Y+6695041D01*
X+2554959Y+6581961D01*
X+2395041Y+6581961D01*
X+2281961Y+6695041D01*
X-2528361Y+6207361D02*
X-3117639Y+6207361D01*
X-3117639Y+6542639D01*
X-2528361Y+6542639D01*
X-2528361Y+6207361D01*
X-2677940Y-86573D02*
X-2677940Y-63427D01*
X-2661573Y-47060D01*
X-2638427Y-47060D01*
X-2622060Y-63427D01*
X-2622060Y-86573D01*
X-2638427Y-102940D01*
X-2661573Y-102940D01*
X-2677940Y-86573D01*
X-2902940Y-761573D02*
X-2902940Y-738427D01*
X-2886573Y-722060D01*
X-2863427Y-722060D01*
X-2847060Y-738427D01*
X-2847060Y-761573D01*
X-2863427Y-777940D01*
X-2886573Y-777940D01*
X-2902940Y-761573D01*
X-2977940Y-686573D02*
X-2977940Y-663427D01*
X-2961573Y-647060D01*
X-2938427Y-647060D01*
X-2922060Y-663427D01*
X-2922060Y-686573D01*
X-2938427Y-702940D01*
X-2961573Y-702940D01*
X-2977940Y-686573D01*
X-2802940Y+38427D02*
X-2802940Y+61573D01*
X-2786573Y+77940D01*
X-2763427Y+77940D01*
X-2747060Y+61573D01*
X-2747060Y+38427D01*
X-2763427Y+22060D01*
X-2786573Y+22060D01*
X-2802940Y+38427D01*
X-3102940Y-561573D02*
X-3102940Y-538427D01*
X-3086573Y-522060D01*
X-3063427Y-522060D01*
X-3047060Y-538427D01*
X-3047060Y-561573D01*
X-3063427Y-577940D01*
X-3086573Y-577940D01*
X-3102940Y-561573D01*
X-2777940Y-886573D02*
X-2777940Y-863427D01*
X-2761573Y-847060D01*
X-2738427Y-847060D01*
X-2722060Y-863427D01*
X-2722060Y-886573D01*
X-2738427Y-902940D01*
X-2761573Y-902940D01*
X-2777940Y-886573D01*
X-2528361Y+6375000D02*
X-2696000Y+6375000D01*
X-2696000Y+6207361D02*
X-2696000Y+6375000D01*
X-2696000Y+6542639D02*
X-2696000Y+6375000D01*
D21*
X-3850000Y-1050000D03*
X-3850000Y+6550000D03*
X+4900000Y+6550000D03*
X+4900000Y-1050000D03*
D25*
X-3500000Y-400000D03*
X-3500000Y-50000D03*
X-3500000Y+300000D03*
X-3500000Y+650000D03*
X-3500000Y+1000000D03*
X-3500000Y+1350000D03*
X-3500000Y+1700000D03*
X-3500000Y+2050000D03*
X-3500000Y+2400000D03*
X-3500000Y+2750000D03*
X-3500000Y+3100000D03*
X-3500000Y+3450000D03*
X-3500000Y+3800000D03*
X-3500000Y+4150000D03*
X-3500000Y+4500000D03*
X-3500000Y+4850000D03*
X-3500000Y+5200000D03*
X-3500000Y+5550000D03*
X-3500000Y+5900000D03*
D32*
X+6050000Y+6600000D03*
X+6050000Y+6346000D03*
X+6050000Y+6092000D03*
X+6050000Y+5838000D03*
X+6050000Y+5584000D03*
X+6050000Y+5330000D03*
X+6050000Y+5076000D03*
X+6050000Y+4822000D03*
X+6050000Y+4568000D03*
X+6050000Y+4314000D03*
X+6304000Y+4314000D03*
X+6304000Y+4568000D03*
X+6304000Y+4822000D03*
X+6304000Y+5076000D03*
X+6304000Y+5330000D03*
X+6304000Y+5584000D03*
X+6304000Y+5838000D03*
X+6304000Y+6092000D03*
X+6304000Y+6346000D03*
X+6304000Y+6600000D03*
D36*
X+2400000Y+2075000D03*
X+2750000Y+2075000D03*
X+2575000Y+2075000D03*
X+3000000Y+1025000D03*
X+3000000Y+1175000D03*
D37*
X+3675000Y+6775000D03*
D32*
X+3500000Y+6000000D03*
X+3754000Y+6000000D03*
D37*
X+2475000Y+6775000D03*
D32*
X-2950000Y+6375000D03*
X-2696000Y+6375000D03*
D46*
X+6450400Y-976200D02*
X+6475800Y-950800D01*
X+6552000Y-950800D01*
X+6577400Y-976200D01*
X+6577400Y-1001600D01*
X+6552000Y-1027000D01*
X+6475800Y-1027000D01*
X+6450400Y-1052400D01*
X+6450400Y-1103200D01*
X+6577400Y-1103200D01*
D47*
X-4450000Y-1650000D02*
X+7000000Y-1650000D01*
X+7000000Y+7150000D01*
X-4450000Y+7150000D01*
X-4450000Y-1650000D01*
X+5641340Y+2554820D02*
X+5663332Y+2550509D01*
X+5681067Y+2538667D01*
X+5692909Y+2520932D01*
X+5697220Y+2498940D01*
X+5641340Y+2554820D02*
X+5619348Y+2550509D01*
X+5601613Y+2538667D01*
X+5589771Y+2520932D01*
X+5585460Y+2498940D01*
X+5641340Y+652360D02*
X+5619348Y+656671D01*
X+5601613Y+668513D01*
X+5589771Y+686248D01*
X+5585460Y+708240D01*
X+5641340Y+652360D02*
X+5663332Y+656671D01*
X+5681067Y+668513D01*
X+5692909Y+686248D01*
X+5697220Y+708240D01*
X+5585460Y+705700D02*
X+5585460Y+2498940D01*
X+5697220Y+2498940D02*
X+5697220Y+708240D01*
M02*
