G04 PROTEUS GERBER X2 FILE*
%TF.GenerationSoftware,Labcenter,Proteus,8.11-SP1-Build30228*%
%TF.CreationDate,2022-02-22T19:14:10+00:00*%
%TF.FileFunction,Copper,L4,Bot*%
%TF.FilePolarity,Positive*%
%TF.Part,Single*%
%TF.SameCoordinates,{6c2897ae-c00c-46c9-bae6-367ef81e3b77}*%
%FSLAX45Y45*%
%MOMM*%
G01*
%TA.AperFunction,Conductor*%
%ADD13C,0.304800*%
%ADD14C,0.762000*%
%ADD15C,0.635000*%
%ADD17C,0.508000*%
%TA.AperFunction,ViaPad*%
%ADD18C,0.508000*%
%ADD19C,0.381000*%
%TA.AperFunction,OtherPad,Unknown*%
%ADD21C,6.350000*%
%TA.AperFunction,ComponentPad*%
%ADD25C,3.048000*%
%TA.AperFunction,ComponentPad*%
%ADD32R,2.032000X2.032000*%
%TA.AperFunction,OtherPad,Unknown*%
%ADD36C,1.270000*%
%TA.AperFunction,ComponentPad*%
%ADD37C,2.540000*%
%TA.AperFunction,SMDPad,CuDef*%
%ADD48R,0.889000X1.016000*%
%ADD49R,1.016000X0.889000*%
%TA.AperFunction,SMDPad,CuDef*%
%ADD50R,2.108200X2.108200*%
%ADD28R,0.939800X0.990600*%
%ADD29R,0.990600X0.939800*%
%TA.AperFunction,NonConductor*%
%ADD46C,0.203200*%
%TA.AperFunction,Profile*%
%ADD47C,0.203200*%
%TD.AperFunction*%
G36*
X+5900000Y+6775000D02*
X+6923800Y+6775714D01*
X+6923800Y+3700000D01*
X+4350000Y+3700000D01*
X+3100000Y+2450000D01*
X+3100000Y+1258196D01*
X+3053657Y+1304539D01*
X+2946343Y+1304539D01*
X+2870461Y+1228657D01*
X+2870461Y+1121343D01*
X+2891804Y+1100000D01*
X+2870461Y+1078657D01*
X+2870461Y+1000000D01*
X+2548029Y+1000000D01*
X+2548029Y+1040569D01*
X+1411971Y+1040569D01*
X+1411971Y+1022789D01*
X+1273029Y+1022789D01*
X+1273029Y+1040569D01*
X+886971Y+1040569D01*
X+886971Y+1022789D01*
X+663029Y+1022789D01*
X+663029Y+1040569D01*
X+276971Y+1040569D01*
X+276971Y+1022789D01*
X+148029Y+1022789D01*
X+148029Y+1040569D01*
X-200000Y+1040569D01*
X-200000Y+3127726D01*
X-179139Y+3106865D01*
X-179139Y+2810489D01*
X-191839Y+2810489D01*
X-191839Y+2589511D01*
X-1339Y+2589511D01*
X-1339Y+2495531D01*
X+108561Y+2495531D01*
X+108561Y+2462125D01*
X+133186Y+2437500D01*
X+108561Y+2412875D01*
X+108561Y+2337125D01*
X+162125Y+2283561D01*
X+237875Y+2283561D01*
X+291439Y+2337125D01*
X+291439Y+2412875D01*
X+266814Y+2437500D01*
X+291439Y+2462125D01*
X+291439Y+2537875D01*
X+254314Y+2575000D01*
X+291439Y+2612125D01*
X+291439Y+2687875D01*
X+266814Y+2712500D01*
X+291439Y+2737125D01*
X+291439Y+2812875D01*
X+237875Y+2866439D01*
X+232339Y+2866439D01*
X+232339Y+2904469D01*
X+29139Y+2904469D01*
X+29139Y+3070861D01*
X+33161Y+3070861D01*
X+33161Y+3064511D01*
X+223661Y+3064511D01*
X+223661Y+2970531D01*
X+457339Y+2970531D01*
X+457339Y+3068545D01*
X+541439Y+3152645D01*
X+541439Y+3312875D01*
X+516814Y+3337500D01*
X+541439Y+3362125D01*
X+541439Y+3437875D01*
X+487875Y+3491439D01*
X+412125Y+3491439D01*
X+300155Y+3379469D01*
X+223661Y+3379469D01*
X+223661Y+3285489D01*
X+114803Y+3285489D01*
X+141439Y+3312125D01*
X+141439Y+3387875D01*
X+91814Y+3437500D01*
X+116439Y+3462125D01*
X+116439Y+3537875D01*
X+62875Y+3591439D01*
X+57339Y+3591439D01*
X+57339Y+3629469D01*
X-145861Y+3629469D01*
X-145861Y+4331865D01*
X+72274Y+4550000D01*
X+327726Y+4550000D01*
X+428551Y+4449175D01*
X+428551Y+4253551D01*
X+520861Y+4253551D01*
X+520861Y+3935489D01*
X+508161Y+3935489D01*
X+508161Y+3714511D01*
X+698661Y+3714511D01*
X+698661Y+3620531D01*
X+808561Y+3620531D01*
X+808561Y+3612125D01*
X+862125Y+3558561D01*
X+937875Y+3558561D01*
X+962500Y+3583186D01*
X+1012125Y+3533561D01*
X+1033561Y+3533561D01*
X+1033561Y+3462125D01*
X+1087125Y+3408561D01*
X+1162875Y+3408561D01*
X+1216439Y+3462125D01*
X+1216439Y+3537875D01*
X+1162875Y+3591439D01*
X+1141439Y+3591439D01*
X+1141439Y+3662875D01*
X+1087875Y+3716439D01*
X+1012125Y+3716439D01*
X+987500Y+3691814D01*
X+966814Y+3712500D01*
X+971975Y+3717661D01*
X+1158561Y+3717661D01*
X+1158561Y+3687125D01*
X+1212125Y+3633561D01*
X+1233561Y+3633561D01*
X+1233561Y+3612125D01*
X+1287125Y+3558561D01*
X+1362875Y+3558561D01*
X+1416439Y+3612125D01*
X+1416439Y+3687875D01*
X+1362875Y+3741439D01*
X+1341439Y+3741439D01*
X+1341439Y+3762875D01*
X+1304469Y+3799845D01*
X+1304469Y+3951339D01*
X+1266439Y+3951339D01*
X+1266439Y+3962875D01*
X+1212875Y+4016439D01*
X+1210489Y+4016439D01*
X+1210489Y+4141839D01*
X+1146153Y+4141839D01*
X+1196975Y+4192661D01*
X+1254469Y+4192661D01*
X+1254469Y+4426339D01*
X+1160489Y+4426339D01*
X+1160489Y+4463215D01*
X+1247274Y+4550000D01*
X+1604634Y+4550000D01*
X+1637149Y+4517485D01*
X+1712899Y+4517485D01*
X+1745414Y+4550000D01*
X+1845861Y+4550000D01*
X+1845861Y+4379139D01*
X+1785489Y+4379139D01*
X+1785489Y+4391839D01*
X+1564511Y+4391839D01*
X+1564511Y+4243825D01*
X+1533561Y+4212875D01*
X+1529022Y+4201339D01*
X+1470531Y+4201339D01*
X+1470531Y+3967661D01*
X+1608561Y+3967661D01*
X+1608561Y+3912125D01*
X+1633561Y+3887125D01*
X+1633561Y+3837125D01*
X+1687125Y+3783561D01*
X+1762875Y+3783561D01*
X+1816439Y+3837125D01*
X+1816439Y+3912875D01*
X+1791439Y+3937875D01*
X+1791439Y+3967661D01*
X+1879469Y+3967661D01*
X+1879469Y+4170861D01*
X+1970531Y+4170861D01*
X+1970531Y+3999845D01*
X+1933561Y+3962875D01*
X+1933561Y+3887125D01*
X+1945686Y+3875000D01*
X+1933561Y+3862875D01*
X+1933561Y+3787125D01*
X+1987125Y+3733561D01*
X+2062875Y+3733561D01*
X+2100000Y+3770686D01*
X+2137125Y+3733561D01*
X+2212875Y+3733561D01*
X+2266439Y+3787125D01*
X+2266439Y+3808561D01*
X+2287875Y+3808561D01*
X+2341439Y+3862125D01*
X+2341439Y+3937875D01*
X+2311653Y+3967661D01*
X+2378025Y+3967661D01*
X+2387125Y+3958561D01*
X+2462875Y+3958561D01*
X+2483561Y+3979247D01*
X+2483561Y+3912125D01*
X+2537125Y+3858561D01*
X+2612875Y+3858561D01*
X+2666439Y+3912125D01*
X+2666439Y+3987875D01*
X+2641661Y+4012653D01*
X+2643763Y+4017661D01*
X+2704469Y+4017661D01*
X+2704469Y+4251339D01*
X+2610489Y+4251339D01*
X+2610489Y+4441839D01*
X+2389511Y+4441839D01*
X+2389511Y+4379139D01*
X+2285489Y+4379139D01*
X+2285489Y+4391839D01*
X+2064511Y+4391839D01*
X+2064511Y+4379139D01*
X+2054139Y+4379139D01*
X+2054139Y+4550000D01*
X+3350000Y+4550000D01*
X+3350000Y+5832361D01*
X+3921639Y+5832361D01*
X+3921639Y+6167639D01*
X+3350000Y+6167639D01*
X+3350000Y+6800000D01*
X+3000000Y+6800000D01*
X+3000000Y+4850000D01*
X+2888294Y+4850000D01*
X+2897789Y+4859495D01*
X+2897789Y+4940505D01*
X+2790505Y+5047789D01*
X+2598029Y+5047789D01*
X+2598029Y+5065569D01*
X+2211971Y+5065569D01*
X+2211971Y+5047789D01*
X+2009495Y+5047789D01*
X+2000000Y+5038294D01*
X+1990505Y+5047789D01*
X+1788029Y+5047789D01*
X+1788029Y+5065569D01*
X+1401971Y+5065569D01*
X+1401971Y+5047789D01*
X+1334495Y+5047789D01*
X+1325000Y+5038294D01*
X+1315505Y+5047789D01*
X+988029Y+5047789D01*
X+988029Y+5065569D01*
X+601971Y+5065569D01*
X+601971Y+5047789D01*
X+584495Y+5047789D01*
X+575000Y+5038294D01*
X+565505Y+5047789D01*
X+188029Y+5047789D01*
X+188029Y+5065569D01*
X-198029Y+5065569D01*
X-198029Y+5047789D01*
X-265505Y+5047789D01*
X-463294Y+4850000D01*
X-700000Y+4850000D01*
X-700000Y+4054314D01*
X-716439Y+4037875D01*
X-716439Y+3962125D01*
X-700000Y+3945686D01*
X-700000Y+3929314D01*
X-716439Y+3912875D01*
X-716439Y+3837125D01*
X-700000Y+3820686D01*
X-700000Y+2154314D01*
X-741439Y+2112875D01*
X-741439Y+2037125D01*
X-700000Y+1995686D01*
X-700000Y+1279314D01*
X-741439Y+1237875D01*
X-741439Y+1162125D01*
X-704314Y+1125000D01*
X-741439Y+1087875D01*
X-741439Y+1012125D01*
X-700000Y+970686D01*
X-700000Y+350000D01*
X+770686Y+350000D01*
X+812125Y+308561D01*
X+887875Y+308561D01*
X+929314Y+350000D01*
X+1470686Y+350000D01*
X+1512125Y+308561D01*
X+1587875Y+308561D01*
X+1629314Y+350000D01*
X+1945686Y+350000D01*
X+1987125Y+308561D01*
X+2062875Y+308561D01*
X+2104314Y+350000D01*
X+3050000Y+350000D01*
X+3300000Y+600000D01*
X+3300000Y+2500000D01*
X+3475000Y+2675000D01*
X+4850000Y+2675000D01*
X+4850000Y-666461D01*
X+4741133Y-666461D01*
X+4516461Y-891133D01*
X+4516461Y-1208867D01*
X+4741133Y-1433539D01*
X+4850000Y-1433539D01*
X+4850000Y-1573800D01*
X-4373800Y-1573800D01*
X-4373800Y+7073800D01*
X+5900000Y+7073800D01*
X+5900000Y+6775000D01*
G37*
%LPC*%
G36*
X-4233539Y-1208867D02*
X-4233539Y-891133D01*
X-4008867Y-666461D01*
X-3691133Y-666461D01*
X-3466461Y-891133D01*
X-3466461Y-1208867D01*
X-3691133Y-1433539D01*
X-4008867Y-1433539D01*
X-4233539Y-1208867D01*
G37*
G36*
X-4233539Y+6391133D02*
X-4233539Y+6708867D01*
X-4008867Y+6933539D01*
X-3691133Y+6933539D01*
X-3466461Y+6708867D01*
X-3466461Y+6391133D01*
X-3691133Y+6166461D01*
X-4008867Y+6166461D01*
X-4233539Y+6391133D01*
G37*
G36*
X+4516461Y+6391133D02*
X+4516461Y+6708867D01*
X+4741133Y+6933539D01*
X+5058867Y+6933539D01*
X+5283539Y+6708867D01*
X+5283539Y+6391133D01*
X+5058867Y+6166461D01*
X+4741133Y+6166461D01*
X+4516461Y+6391133D01*
G37*
G36*
X-3281561Y+5990480D02*
X-3281561Y+5809520D01*
X-3366081Y+5725000D01*
X-3281561Y+5640480D01*
X-3281561Y+5459520D01*
X-3366081Y+5375000D01*
X-3281561Y+5290480D01*
X-3281561Y+5109520D01*
X-3366081Y+5025000D01*
X-3281561Y+4940480D01*
X-3281561Y+4759520D01*
X-3366081Y+4675000D01*
X-3281561Y+4590480D01*
X-3281561Y+4409520D01*
X-3366081Y+4325000D01*
X-3281561Y+4240480D01*
X-3281561Y+4059520D01*
X-3366081Y+3975000D01*
X-3281561Y+3890480D01*
X-3281561Y+3709520D01*
X-3366081Y+3625000D01*
X-3281561Y+3540480D01*
X-3281561Y+3359520D01*
X-3366081Y+3275000D01*
X-3281561Y+3190480D01*
X-3281561Y+3009520D01*
X-3366081Y+2925000D01*
X-3281561Y+2840480D01*
X-3281561Y+2659520D01*
X-3366081Y+2575000D01*
X-3281561Y+2490480D01*
X-3281561Y+2309520D01*
X-3366081Y+2225000D01*
X-3281561Y+2140480D01*
X-3281561Y+1959520D01*
X-3366081Y+1875000D01*
X-3281561Y+1790480D01*
X-3281561Y+1609520D01*
X-3366081Y+1525000D01*
X-3281561Y+1440480D01*
X-3281561Y+1259520D01*
X-3366081Y+1175000D01*
X-3281561Y+1090480D01*
X-3281561Y+909520D01*
X-3366081Y+825000D01*
X-3281561Y+740480D01*
X-3281561Y+559520D01*
X-3366081Y+475000D01*
X-3281561Y+390480D01*
X-3281561Y+209520D01*
X-3366081Y+125000D01*
X-3281561Y+40480D01*
X-3281561Y-140480D01*
X-3366081Y-225000D01*
X-3281561Y-309520D01*
X-3281561Y-490480D01*
X-3409520Y-618439D01*
X-3590480Y-618439D01*
X-3718439Y-490480D01*
X-3718439Y-309520D01*
X-3633919Y-225000D01*
X-3718439Y-140480D01*
X-3718439Y+40480D01*
X-3633919Y+125000D01*
X-3718439Y+209520D01*
X-3718439Y+390480D01*
X-3633919Y+475000D01*
X-3718439Y+559520D01*
X-3718439Y+740480D01*
X-3633919Y+825000D01*
X-3718439Y+909520D01*
X-3718439Y+1090480D01*
X-3633919Y+1175000D01*
X-3718439Y+1259520D01*
X-3718439Y+1440480D01*
X-3633919Y+1525000D01*
X-3718439Y+1609520D01*
X-3718439Y+1790480D01*
X-3633919Y+1875000D01*
X-3718439Y+1959520D01*
X-3718439Y+2140480D01*
X-3633919Y+2225000D01*
X-3718439Y+2309520D01*
X-3718439Y+2490480D01*
X-3633919Y+2575000D01*
X-3718439Y+2659520D01*
X-3718439Y+2840480D01*
X-3633919Y+2925000D01*
X-3718439Y+3009520D01*
X-3718439Y+3190480D01*
X-3633919Y+3275000D01*
X-3718439Y+3359520D01*
X-3718439Y+3540480D01*
X-3633919Y+3625000D01*
X-3718439Y+3709520D01*
X-3718439Y+3890480D01*
X-3633919Y+3975000D01*
X-3718439Y+4059520D01*
X-3718439Y+4240480D01*
X-3633919Y+4325000D01*
X-3718439Y+4409520D01*
X-3718439Y+4590480D01*
X-3633919Y+4675000D01*
X-3718439Y+4759520D01*
X-3718439Y+4940480D01*
X-3633919Y+5025000D01*
X-3718439Y+5109520D01*
X-3718439Y+5290480D01*
X-3633919Y+5375000D01*
X-3718439Y+5459520D01*
X-3718439Y+5640480D01*
X-3633919Y+5725000D01*
X-3718439Y+5809520D01*
X-3718439Y+5990480D01*
X-3590480Y+6118439D01*
X-3409520Y+6118439D01*
X-3281561Y+5990480D01*
G37*
G36*
X+6217639Y+6432361D02*
X+6217639Y+4146361D01*
X+5882361Y+4146361D01*
X+5882361Y+6767639D01*
X+6217639Y+6767639D01*
X+6217639Y+6432361D01*
G37*
G36*
X+6276645Y+4380040D02*
X+6331355Y+4380040D01*
X+6370040Y+4341355D01*
X+6370040Y+4286645D01*
X+6331355Y+4247960D01*
X+6276645Y+4247960D01*
X+6237960Y+4286645D01*
X+6237960Y+4341355D01*
X+6276645Y+4380040D01*
G37*
G36*
X+6276645Y+4634040D02*
X+6331355Y+4634040D01*
X+6370040Y+4595355D01*
X+6370040Y+4540645D01*
X+6331355Y+4501960D01*
X+6276645Y+4501960D01*
X+6237960Y+4540645D01*
X+6237960Y+4595355D01*
X+6276645Y+4634040D01*
G37*
G36*
X+6276645Y+4888040D02*
X+6331355Y+4888040D01*
X+6370040Y+4849355D01*
X+6370040Y+4794645D01*
X+6331355Y+4755960D01*
X+6276645Y+4755960D01*
X+6237960Y+4794645D01*
X+6237960Y+4849355D01*
X+6276645Y+4888040D01*
G37*
G36*
X+6276645Y+5142040D02*
X+6331355Y+5142040D01*
X+6370040Y+5103355D01*
X+6370040Y+5048645D01*
X+6331355Y+5009960D01*
X+6276645Y+5009960D01*
X+6237960Y+5048645D01*
X+6237960Y+5103355D01*
X+6276645Y+5142040D01*
G37*
G36*
X+6276645Y+5396040D02*
X+6331355Y+5396040D01*
X+6370040Y+5357355D01*
X+6370040Y+5302645D01*
X+6331355Y+5263960D01*
X+6276645Y+5263960D01*
X+6237960Y+5302645D01*
X+6237960Y+5357355D01*
X+6276645Y+5396040D01*
G37*
G36*
X+6276645Y+5650040D02*
X+6331355Y+5650040D01*
X+6370040Y+5611355D01*
X+6370040Y+5556645D01*
X+6331355Y+5517960D01*
X+6276645Y+5517960D01*
X+6237960Y+5556645D01*
X+6237960Y+5611355D01*
X+6276645Y+5650040D01*
G37*
G36*
X+6276645Y+5904040D02*
X+6331355Y+5904040D01*
X+6370040Y+5865355D01*
X+6370040Y+5810645D01*
X+6331355Y+5771960D01*
X+6276645Y+5771960D01*
X+6237960Y+5810645D01*
X+6237960Y+5865355D01*
X+6276645Y+5904040D01*
G37*
G36*
X+6276645Y+6158040D02*
X+6331355Y+6158040D01*
X+6370040Y+6119355D01*
X+6370040Y+6064645D01*
X+6331355Y+6025960D01*
X+6276645Y+6025960D01*
X+6237960Y+6064645D01*
X+6237960Y+6119355D01*
X+6276645Y+6158040D01*
G37*
G36*
X+6276645Y+6412040D02*
X+6331355Y+6412040D01*
X+6370040Y+6373355D01*
X+6370040Y+6318645D01*
X+6331355Y+6279960D01*
X+6276645Y+6279960D01*
X+6237960Y+6318645D01*
X+6237960Y+6373355D01*
X+6276645Y+6412040D01*
G37*
G36*
X+6276645Y+6666040D02*
X+6331355Y+6666040D01*
X+6370040Y+6627355D01*
X+6370040Y+6572645D01*
X+6331355Y+6533960D01*
X+6276645Y+6533960D01*
X+6237960Y+6572645D01*
X+6237960Y+6627355D01*
X+6276645Y+6666040D01*
G37*
G36*
X+2879539Y+2128657D02*
X+2879539Y+2021343D01*
X+2803657Y+1945461D01*
X+2696343Y+1945461D01*
X+2690658Y+1951146D01*
X+2686573Y+1947060D01*
X+2663427Y+1947060D01*
X+2647060Y+1963427D01*
X+2647060Y+1963864D01*
X+2628657Y+1945461D01*
X+2521343Y+1945461D01*
X+2487500Y+1979304D01*
X+2453657Y+1945461D01*
X+2346343Y+1945461D01*
X+2308243Y+1983561D01*
X+2237125Y+1983561D01*
X+2183561Y+2037125D01*
X+2183561Y+2112875D01*
X+2237125Y+2166439D01*
X+2308243Y+2166439D01*
X+2346343Y+2204539D01*
X+2453657Y+2204539D01*
X+2487500Y+2170696D01*
X+2521343Y+2204539D01*
X+2628657Y+2204539D01*
X+2662500Y+2170696D01*
X+2696343Y+2204539D01*
X+2803657Y+2204539D01*
X+2879539Y+2128657D01*
G37*
G36*
X+3578480Y+6735020D02*
X+3578480Y+6814980D01*
X+3635020Y+6871520D01*
X+3714980Y+6871520D01*
X+3771520Y+6814980D01*
X+3771520Y+6735020D01*
X+3714980Y+6678480D01*
X+3635020Y+6678480D01*
X+3578480Y+6735020D01*
G37*
G36*
X+2281961Y+6695041D02*
X+2281961Y+6854959D01*
X+2395041Y+6968039D01*
X+2554959Y+6968039D01*
X+2668039Y+6854959D01*
X+2668039Y+6695041D01*
X+2554959Y+6581961D01*
X+2395041Y+6581961D01*
X+2281961Y+6695041D01*
G37*
G36*
X-3117639Y+6542639D02*
X-2782361Y+6542639D01*
X-2782361Y+6207361D01*
X-3117639Y+6207361D01*
X-3117639Y+6542639D01*
G37*
G36*
X-2762040Y+6347645D02*
X-2762040Y+6402355D01*
X-2723355Y+6441040D01*
X-2668645Y+6441040D01*
X-2629960Y+6402355D01*
X-2629960Y+6347645D01*
X-2668645Y+6308960D01*
X-2723355Y+6308960D01*
X-2762040Y+6347645D01*
G37*
G36*
X+143687Y+4440240D02*
X+156313Y+4440240D01*
X+165240Y+4431313D01*
X+165240Y+4418687D01*
X+156313Y+4409760D01*
X+143687Y+4409760D01*
X+134760Y+4418687D01*
X+134760Y+4431313D01*
X+143687Y+4440240D01*
G37*
G36*
X+2847060Y+2938427D02*
X+2847060Y+2961573D01*
X+2863427Y+2977940D01*
X+2886573Y+2977940D01*
X+2902940Y+2961573D01*
X+2902940Y+2938427D01*
X+2886573Y+2922060D01*
X+2863427Y+2922060D01*
X+2847060Y+2938427D01*
G37*
G36*
X+2797060Y+2863427D02*
X+2797060Y+2886573D01*
X+2813427Y+2902940D01*
X+2836573Y+2902940D01*
X+2852940Y+2886573D01*
X+2852940Y+2863427D01*
X+2836573Y+2847060D01*
X+2813427Y+2847060D01*
X+2797060Y+2863427D01*
G37*
G36*
X+2797060Y+2563427D02*
X+2797060Y+2586573D01*
X+2813427Y+2602940D01*
X+2836573Y+2602940D01*
X+2852940Y+2586573D01*
X+2852940Y+2563427D01*
X+2836573Y+2547060D01*
X+2813427Y+2547060D01*
X+2797060Y+2563427D01*
G37*
G36*
X+2797060Y+2713427D02*
X+2797060Y+2736573D01*
X+2813427Y+2752940D01*
X+2836573Y+2752940D01*
X+2852940Y+2736573D01*
X+2852940Y+2713427D01*
X+2836573Y+2697060D01*
X+2813427Y+2697060D01*
X+2797060Y+2713427D01*
G37*
G36*
X+2847060Y+2788427D02*
X+2847060Y+2811573D01*
X+2863427Y+2827940D01*
X+2886573Y+2827940D01*
X+2902940Y+2811573D01*
X+2902940Y+2788427D01*
X+2886573Y+2772060D01*
X+2863427Y+2772060D01*
X+2847060Y+2788427D01*
G37*
G36*
X+2847060Y+2638427D02*
X+2847060Y+2661573D01*
X+2863427Y+2677940D01*
X+2886573Y+2677940D01*
X+2902940Y+2661573D01*
X+2902940Y+2638427D01*
X+2886573Y+2622060D01*
X+2863427Y+2622060D01*
X+2847060Y+2638427D01*
G37*
G36*
X+2847060Y+2488427D02*
X+2847060Y+2511573D01*
X+2863427Y+2527940D01*
X+2886573Y+2527940D01*
X+2902940Y+2511573D01*
X+2902940Y+2488427D01*
X+2886573Y+2472060D01*
X+2863427Y+2472060D01*
X+2847060Y+2488427D01*
G37*
G36*
X+2377940Y+1830738D02*
X+2377940Y+1807592D01*
X+2370348Y+1800000D01*
X+2377940Y+1792408D01*
X+2377940Y+1769262D01*
X+2361573Y+1752895D01*
X+2338427Y+1752895D01*
X+2322060Y+1769262D01*
X+2322060Y+1792408D01*
X+2329652Y+1800000D01*
X+2322060Y+1807592D01*
X+2322060Y+1830738D01*
X+2338427Y+1847105D01*
X+2361573Y+1847105D01*
X+2377940Y+1830738D01*
G37*
G36*
X+2422060Y+1788427D02*
X+2422060Y+1811573D01*
X+2438427Y+1827940D01*
X+2461573Y+1827940D01*
X+2477940Y+1811573D01*
X+2477940Y+1788427D01*
X+2461573Y+1772060D01*
X+2438427Y+1772060D01*
X+2422060Y+1788427D01*
G37*
G36*
X+2852940Y+2336573D02*
X+2852940Y+2313427D01*
X+2842430Y+2302918D01*
X+2852940Y+2292408D01*
X+2852940Y+2269262D01*
X+2836573Y+2252895D01*
X+2813427Y+2252895D01*
X+2797060Y+2269262D01*
X+2797060Y+2292408D01*
X+2807570Y+2302918D01*
X+2797060Y+2313427D01*
X+2797060Y+2336573D01*
X+2813427Y+2352940D01*
X+2836573Y+2352940D01*
X+2852940Y+2336573D01*
G37*
G36*
X+2897060Y+2288427D02*
X+2897060Y+2311573D01*
X+2913427Y+2327940D01*
X+2936573Y+2327940D01*
X+2952940Y+2311573D01*
X+2952940Y+2288427D01*
X+2936573Y+2272060D01*
X+2913427Y+2272060D01*
X+2897060Y+2288427D01*
G37*
G36*
X+3053613Y+2335900D02*
X+3053613Y+2312754D01*
X+3040186Y+2299327D01*
X+3052940Y+2286573D01*
X+3052940Y+2263427D01*
X+3036573Y+2247060D01*
X+3013427Y+2247060D01*
X+2997060Y+2263427D01*
X+2997060Y+2286573D01*
X+3010487Y+2300000D01*
X+2997733Y+2312754D01*
X+2997733Y+2335900D01*
X+3014100Y+2352267D01*
X+3037246Y+2352267D01*
X+3053613Y+2335900D01*
G37*
G36*
X+3985509Y+2063427D02*
X+3985509Y+2086573D01*
X+4001876Y+2102940D01*
X+4025022Y+2102940D01*
X+4041389Y+2086573D01*
X+4041389Y+2063427D01*
X+4025022Y+2047060D01*
X+4001876Y+2047060D01*
X+3985509Y+2063427D01*
G37*
G36*
X+3985509Y+2213427D02*
X+3985509Y+2236573D01*
X+4001876Y+2252940D01*
X+4025022Y+2252940D01*
X+4041389Y+2236573D01*
X+4041389Y+2213427D01*
X+4025022Y+2197060D01*
X+4001876Y+2197060D01*
X+3985509Y+2213427D01*
G37*
G36*
X+4185509Y+2138427D02*
X+4185509Y+2161573D01*
X+4201876Y+2177940D01*
X+4225022Y+2177940D01*
X+4241389Y+2161573D01*
X+4241389Y+2138427D01*
X+4225022Y+2122060D01*
X+4201876Y+2122060D01*
X+4185509Y+2138427D01*
G37*
G36*
X+4110509Y+2063427D02*
X+4110509Y+2086573D01*
X+4126876Y+2102940D01*
X+4150022Y+2102940D01*
X+4166389Y+2086573D01*
X+4166389Y+2063427D01*
X+4150022Y+2047060D01*
X+4126876Y+2047060D01*
X+4110509Y+2063427D01*
G37*
G36*
X+4110509Y+2213427D02*
X+4110509Y+2236573D01*
X+4126876Y+2252940D01*
X+4150022Y+2252940D01*
X+4166389Y+2236573D01*
X+4166389Y+2213427D01*
X+4150022Y+2197060D01*
X+4126876Y+2197060D01*
X+4110509Y+2213427D01*
G37*
G36*
X+3982100Y+963427D02*
X+3982100Y+986573D01*
X+3998467Y+1002940D01*
X+4021613Y+1002940D01*
X+4037980Y+986573D01*
X+4037980Y+963427D01*
X+4021613Y+947060D01*
X+3998467Y+947060D01*
X+3982100Y+963427D01*
G37*
G36*
X+3982100Y+1113427D02*
X+3982100Y+1136573D01*
X+3998467Y+1152940D01*
X+4021613Y+1152940D01*
X+4037980Y+1136573D01*
X+4037980Y+1113427D01*
X+4021613Y+1097060D01*
X+3998467Y+1097060D01*
X+3982100Y+1113427D01*
G37*
G36*
X+4107100Y+1113427D02*
X+4107100Y+1136573D01*
X+4123467Y+1152940D01*
X+4146613Y+1152940D01*
X+4162980Y+1136573D01*
X+4162980Y+1113427D01*
X+4146613Y+1097060D01*
X+4123467Y+1097060D01*
X+4107100Y+1113427D01*
G37*
G36*
X+4107100Y+963427D02*
X+4107100Y+986573D01*
X+4123467Y+1002940D01*
X+4146613Y+1002940D01*
X+4162980Y+986573D01*
X+4162980Y+963427D01*
X+4146613Y+947060D01*
X+4123467Y+947060D01*
X+4107100Y+963427D01*
G37*
G36*
X+4182100Y+1038427D02*
X+4182100Y+1061573D01*
X+4198467Y+1077940D01*
X+4221613Y+1077940D01*
X+4237980Y+1061573D01*
X+4237980Y+1038427D01*
X+4221613Y+1022060D01*
X+4198467Y+1022060D01*
X+4182100Y+1038427D01*
G37*
G36*
X+2316439Y+3187875D02*
X+2316439Y+3112125D01*
X+2304314Y+3100000D01*
X+2316439Y+3087875D01*
X+2316439Y+3012125D01*
X+2279314Y+2975000D01*
X+2316439Y+2937875D01*
X+2316439Y+2862125D01*
X+2304314Y+2850000D01*
X+2316439Y+2837875D01*
X+2316439Y+2762125D01*
X+2262875Y+2708561D01*
X+2187125Y+2708561D01*
X+2133561Y+2762125D01*
X+2133561Y+2837875D01*
X+2145686Y+2850000D01*
X+2133561Y+2862125D01*
X+2133561Y+2937875D01*
X+2170686Y+2975000D01*
X+2133561Y+3012125D01*
X+2133561Y+3087875D01*
X+2145686Y+3100000D01*
X+2133561Y+3112125D01*
X+2133561Y+3187875D01*
X+2187125Y+3241439D01*
X+2262875Y+3241439D01*
X+2316439Y+3187875D01*
G37*
G36*
X+2383561Y+2837125D02*
X+2383561Y+2912875D01*
X+2437125Y+2966439D01*
X+2512875Y+2966439D01*
X+2566439Y+2912875D01*
X+2566439Y+2837125D01*
X+2512875Y+2783561D01*
X+2437125Y+2783561D01*
X+2383561Y+2837125D01*
G37*
G36*
X+2522060Y+1788427D02*
X+2522060Y+1811573D01*
X+2538427Y+1827940D01*
X+2561573Y+1827940D01*
X+2577940Y+1811573D01*
X+2577940Y+1788427D01*
X+2561573Y+1772060D01*
X+2538427Y+1772060D01*
X+2522060Y+1788427D01*
G37*
G36*
X+1316439Y+1987875D02*
X+1316439Y+1912125D01*
X+1262875Y+1858561D01*
X+1241439Y+1858561D01*
X+1241439Y+1837125D01*
X+1187875Y+1783561D01*
X+1112125Y+1783561D01*
X+1058561Y+1837125D01*
X+1058561Y+1912875D01*
X+1112125Y+1966439D01*
X+1133561Y+1966439D01*
X+1133561Y+1987875D01*
X+1187125Y+2041439D01*
X+1262875Y+2041439D01*
X+1316439Y+1987875D01*
G37*
G36*
X+1337875Y+1566439D02*
X+1387875Y+1566439D01*
X+1400000Y+1554314D01*
X+1412125Y+1566439D01*
X+1487875Y+1566439D01*
X+1541439Y+1512875D01*
X+1541439Y+1437125D01*
X+1487875Y+1383561D01*
X+1412125Y+1383561D01*
X+1400000Y+1395686D01*
X+1387875Y+1383561D01*
X+1312125Y+1383561D01*
X+1287125Y+1408561D01*
X+1237125Y+1408561D01*
X+1225000Y+1420686D01*
X+1187875Y+1383561D01*
X+1112125Y+1383561D01*
X+1100000Y+1395686D01*
X+1087875Y+1383561D01*
X+1012125Y+1383561D01*
X+962500Y+1433186D01*
X+912875Y+1383561D01*
X+837125Y+1383561D01*
X+800000Y+1420686D01*
X+762875Y+1383561D01*
X+687125Y+1383561D01*
X+633561Y+1437125D01*
X+633561Y+1512875D01*
X+687125Y+1566439D01*
X+762875Y+1566439D01*
X+800000Y+1529314D01*
X+837125Y+1566439D01*
X+912875Y+1566439D01*
X+962500Y+1516814D01*
X+1012125Y+1566439D01*
X+1087875Y+1566439D01*
X+1100000Y+1554314D01*
X+1112125Y+1566439D01*
X+1187875Y+1566439D01*
X+1200000Y+1554314D01*
X+1237125Y+1591439D01*
X+1312875Y+1591439D01*
X+1337875Y+1566439D01*
G37*
G36*
X+716439Y+2237875D02*
X+716439Y+2162125D01*
X+662875Y+2108561D01*
X+641439Y+2108561D01*
X+641439Y+2087125D01*
X+620753Y+2066439D01*
X+687875Y+2066439D01*
X+741439Y+2012875D01*
X+741439Y+1937125D01*
X+687875Y+1883561D01*
X+612125Y+1883561D01*
X+587500Y+1908186D01*
X+562875Y+1883561D01*
X+487125Y+1883561D01*
X+433561Y+1937125D01*
X+433561Y+2012875D01*
X+483186Y+2062500D01*
X+458561Y+2087125D01*
X+458561Y+2162875D01*
X+512125Y+2216439D01*
X+533561Y+2216439D01*
X+533561Y+2237875D01*
X+587125Y+2291439D01*
X+662875Y+2291439D01*
X+716439Y+2237875D01*
G37*
G36*
X+616439Y+2812875D02*
X+616439Y+2737125D01*
X+562875Y+2683561D01*
X+537875Y+2683561D01*
X+487875Y+2633561D01*
X+412125Y+2633561D01*
X+358561Y+2687125D01*
X+358561Y+2762875D01*
X+412125Y+2816439D01*
X+437125Y+2816439D01*
X+487125Y+2866439D01*
X+562875Y+2866439D01*
X+616439Y+2812875D01*
G37*
G36*
X-1441439Y+3562125D02*
X-1441439Y+3637875D01*
X-1387875Y+3691439D01*
X-1312125Y+3691439D01*
X-1258561Y+3637875D01*
X-1258561Y+3562125D01*
X-1312125Y+3508561D01*
X-1387875Y+3508561D01*
X-1441439Y+3562125D01*
G37*
G36*
X+766439Y+3212875D02*
X+766439Y+3191439D01*
X+787875Y+3191439D01*
X+841439Y+3137875D01*
X+841439Y+3062125D01*
X+787875Y+3008561D01*
X+741439Y+3008561D01*
X+741439Y+2962125D01*
X+687875Y+2908561D01*
X+612125Y+2908561D01*
X+600000Y+2920686D01*
X+587875Y+2908561D01*
X+512125Y+2908561D01*
X+458561Y+2962125D01*
X+458561Y+3037875D01*
X+512125Y+3091439D01*
X+587875Y+3091439D01*
X+600000Y+3079314D01*
X+612125Y+3091439D01*
X+629247Y+3091439D01*
X+583561Y+3137125D01*
X+583561Y+3212875D01*
X+637125Y+3266439D01*
X+712875Y+3266439D01*
X+766439Y+3212875D01*
G37*
G36*
X+2372060Y+3338427D02*
X+2372060Y+3361573D01*
X+2388427Y+3377940D01*
X+2411573Y+3377940D01*
X+2427940Y+3361573D01*
X+2427940Y+3338427D01*
X+2411573Y+3322060D01*
X+2388427Y+3322060D01*
X+2372060Y+3338427D01*
G37*
G36*
X+2522060Y+3438427D02*
X+2522060Y+3461573D01*
X+2538427Y+3477940D01*
X+2561573Y+3477940D01*
X+2577940Y+3461573D01*
X+2577940Y+3438427D01*
X+2561573Y+3422060D01*
X+2538427Y+3422060D01*
X+2522060Y+3438427D01*
G37*
G36*
X+1516439Y+1837875D02*
X+1516439Y+1762125D01*
X+1462875Y+1708561D01*
X+1441439Y+1708561D01*
X+1441439Y+1687125D01*
X+1387875Y+1633561D01*
X+1312125Y+1633561D01*
X+1258561Y+1687125D01*
X+1258561Y+1762875D01*
X+1312125Y+1816439D01*
X+1333561Y+1816439D01*
X+1333561Y+1837875D01*
X+1387125Y+1891439D01*
X+1462875Y+1891439D01*
X+1516439Y+1837875D01*
G37*
G36*
X+2327940Y+1586573D02*
X+2327940Y+1563427D01*
X+2321914Y+1557400D01*
X+2366439Y+1512875D01*
X+2366439Y+1437125D01*
X+2312875Y+1383561D01*
X+2237125Y+1383561D01*
X+2187500Y+1433186D01*
X+2137875Y+1383561D01*
X+2062125Y+1383561D01*
X+2025000Y+1420686D01*
X+1987875Y+1383561D01*
X+1912125Y+1383561D01*
X+1862500Y+1433186D01*
X+1812875Y+1383561D01*
X+1737125Y+1383561D01*
X+1683561Y+1437125D01*
X+1683561Y+1512875D01*
X+1737125Y+1566439D01*
X+1812875Y+1566439D01*
X+1862500Y+1516814D01*
X+1912125Y+1566439D01*
X+1987875Y+1566439D01*
X+2025000Y+1529314D01*
X+2062125Y+1566439D01*
X+2137875Y+1566439D01*
X+2187500Y+1516814D01*
X+2237125Y+1566439D01*
X+2272060Y+1566439D01*
X+2272060Y+1586573D01*
X+2288427Y+1602940D01*
X+2311573Y+1602940D01*
X+2327940Y+1586573D01*
G37*
G36*
X+2016439Y+1712875D02*
X+2016439Y+1637125D01*
X+1962875Y+1583561D01*
X+1887125Y+1583561D01*
X+1850000Y+1620686D01*
X+1812875Y+1583561D01*
X+1737125Y+1583561D01*
X+1683561Y+1637125D01*
X+1683561Y+1712875D01*
X+1737125Y+1766439D01*
X+1812875Y+1766439D01*
X+1850000Y+1729314D01*
X+1887125Y+1766439D01*
X+1962875Y+1766439D01*
X+2016439Y+1712875D01*
G37*
G36*
X+1991439Y+2262875D02*
X+1991439Y+2187125D01*
X+1937875Y+2133561D01*
X+1862125Y+2133561D01*
X+1825000Y+2170686D01*
X+1787875Y+2133561D01*
X+1712125Y+2133561D01*
X+1658561Y+2187125D01*
X+1658561Y+2262875D01*
X+1712125Y+2316439D01*
X+1787875Y+2316439D01*
X+1825000Y+2279314D01*
X+1862125Y+2316439D01*
X+1937875Y+2316439D01*
X+1991439Y+2262875D01*
G37*
G36*
X+1483561Y+1937125D02*
X+1483561Y+2012875D01*
X+1537125Y+2066439D01*
X+1612875Y+2066439D01*
X+1666439Y+2012875D01*
X+1666439Y+1937125D01*
X+1612875Y+1883561D01*
X+1537125Y+1883561D01*
X+1483561Y+1937125D01*
G37*
G36*
X+1458561Y+2187125D02*
X+1458561Y+2262875D01*
X+1512125Y+2316439D01*
X+1587875Y+2316439D01*
X+1641439Y+2262875D01*
X+1641439Y+2187125D01*
X+1587875Y+2133561D01*
X+1512125Y+2133561D01*
X+1458561Y+2187125D01*
G37*
G36*
X-466439Y-312875D02*
X-466439Y-237125D01*
X-412875Y-183561D01*
X-337125Y-183561D01*
X-283561Y-237125D01*
X-283561Y-312875D01*
X-337125Y-366439D01*
X-412875Y-366439D01*
X-466439Y-312875D01*
G37*
G36*
X+1133561Y-312875D02*
X+1133561Y-237125D01*
X+1187125Y-183561D01*
X+1262875Y-183561D01*
X+1316439Y-237125D01*
X+1316439Y-312875D01*
X+1262875Y-366439D01*
X+1187125Y-366439D01*
X+1133561Y-312875D01*
G37*
G36*
X+1933561Y-337875D02*
X+1933561Y-262125D01*
X+1987125Y-208561D01*
X+2062875Y-208561D01*
X+2116439Y-262125D01*
X+2116439Y-337875D01*
X+2062875Y-391439D01*
X+1987125Y-391439D01*
X+1933561Y-337875D01*
G37*
G36*
X-91439Y+5462125D02*
X-91439Y+5537875D01*
X-37875Y+5591439D01*
X+37875Y+5591439D01*
X+91439Y+5537875D01*
X+91439Y+5462125D01*
X+37875Y+5408561D01*
X-37875Y+5408561D01*
X-91439Y+5462125D01*
G37*
G36*
X-1441439Y+362125D02*
X-1441439Y+437875D01*
X-1387875Y+491439D01*
X-1312125Y+491439D01*
X-1258561Y+437875D01*
X-1258561Y+362125D01*
X-1312125Y+308561D01*
X-1387875Y+308561D01*
X-1441439Y+362125D01*
G37*
G36*
X-1441439Y+1162125D02*
X-1441439Y+1237875D01*
X-1387875Y+1291439D01*
X-1312125Y+1291439D01*
X-1258561Y+1237875D01*
X-1258561Y+1162125D01*
X-1312125Y+1108561D01*
X-1387875Y+1108561D01*
X-1441439Y+1162125D01*
G37*
G36*
X-1441439Y+2762125D02*
X-1441439Y+2837875D01*
X-1387875Y+2891439D01*
X-1312125Y+2891439D01*
X-1258561Y+2837875D01*
X-1258561Y+2762125D01*
X-1312125Y+2708561D01*
X-1387875Y+2708561D01*
X-1441439Y+2762125D01*
G37*
G36*
X-1441439Y+5162125D02*
X-1441439Y+5237875D01*
X-1387875Y+5291439D01*
X-1312125Y+5291439D01*
X-1258561Y+5237875D01*
X-1258561Y+5162125D01*
X-1312125Y+5108561D01*
X-1387875Y+5108561D01*
X-1441439Y+5162125D01*
G37*
G36*
X-1441439Y+4362125D02*
X-1441439Y+4437875D01*
X-1387875Y+4491439D01*
X-1312125Y+4491439D01*
X-1258561Y+4437875D01*
X-1258561Y+4362125D01*
X-1312125Y+4308561D01*
X-1387875Y+4308561D01*
X-1441439Y+4362125D01*
G37*
G36*
X+2708561Y+5487125D02*
X+2708561Y+5562875D01*
X+2762125Y+5616439D01*
X+2837875Y+5616439D01*
X+2891439Y+5562875D01*
X+2891439Y+5487125D01*
X+2837875Y+5433561D01*
X+2762125Y+5433561D01*
X+2708561Y+5487125D01*
G37*
G36*
X+283561Y+3812125D02*
X+283561Y+3887875D01*
X+337125Y+3941439D01*
X+412875Y+3941439D01*
X+466439Y+3887875D01*
X+466439Y+3812125D01*
X+412875Y+3758561D01*
X+337125Y+3758561D01*
X+283561Y+3812125D01*
G37*
G36*
X+1541439Y+3912875D02*
X+1541439Y+3891439D01*
X+1562875Y+3891439D01*
X+1616439Y+3837875D01*
X+1616439Y+3762125D01*
X+1562875Y+3708561D01*
X+1487125Y+3708561D01*
X+1433561Y+3762125D01*
X+1433561Y+3783561D01*
X+1412125Y+3783561D01*
X+1358561Y+3837125D01*
X+1358561Y+3912875D01*
X+1412125Y+3966439D01*
X+1487875Y+3966439D01*
X+1541439Y+3912875D01*
G37*
G36*
X+733561Y+5462125D02*
X+733561Y+5537875D01*
X+787125Y+5591439D01*
X+862875Y+5591439D01*
X+916439Y+5537875D01*
X+916439Y+5462125D01*
X+862875Y+5408561D01*
X+787125Y+5408561D01*
X+733561Y+5462125D01*
G37*
G36*
X+1647060Y+2910747D02*
X+1647060Y+2933893D01*
X+1663427Y+2950260D01*
X+1686573Y+2950260D01*
X+1702940Y+2933893D01*
X+1702940Y+2910747D01*
X+1686573Y+2894380D01*
X+1663427Y+2894380D01*
X+1647060Y+2910747D01*
G37*
G36*
X+1799460Y+2910747D02*
X+1799460Y+2933893D01*
X+1815827Y+2950260D01*
X+1838973Y+2950260D01*
X+1855340Y+2933893D01*
X+1855340Y+2910747D01*
X+1838973Y+2894380D01*
X+1815827Y+2894380D01*
X+1799460Y+2910747D01*
G37*
G36*
X+1799460Y+2760887D02*
X+1799460Y+2784033D01*
X+1815827Y+2800400D01*
X+1838973Y+2800400D01*
X+1855340Y+2784033D01*
X+1855340Y+2760887D01*
X+1838973Y+2744520D01*
X+1815827Y+2744520D01*
X+1799460Y+2760887D01*
G37*
G36*
X+1799460Y+2608487D02*
X+1799460Y+2631633D01*
X+1815827Y+2648000D01*
X+1838973Y+2648000D01*
X+1855340Y+2631633D01*
X+1855340Y+2608487D01*
X+1838973Y+2592120D01*
X+1815827Y+2592120D01*
X+1799460Y+2608487D01*
G37*
G36*
X+1647060Y+2608487D02*
X+1647060Y+2631633D01*
X+1663427Y+2648000D01*
X+1686573Y+2648000D01*
X+1702940Y+2631633D01*
X+1702940Y+2608487D01*
X+1686573Y+2592120D01*
X+1663427Y+2592120D01*
X+1647060Y+2608487D01*
G37*
G36*
X+1494660Y+2608487D02*
X+1494660Y+2631633D01*
X+1511027Y+2648000D01*
X+1534173Y+2648000D01*
X+1550540Y+2631633D01*
X+1550540Y+2608487D01*
X+1534173Y+2592120D01*
X+1511027Y+2592120D01*
X+1494660Y+2608487D01*
G37*
G36*
X+1492120Y+2763427D02*
X+1492120Y+2786573D01*
X+1508487Y+2802940D01*
X+1531633Y+2802940D01*
X+1548000Y+2786573D01*
X+1548000Y+2763427D01*
X+1531633Y+2747060D01*
X+1508487Y+2747060D01*
X+1492120Y+2763427D01*
G37*
G36*
X+1647060Y+2763427D02*
X+1647060Y+2786573D01*
X+1663427Y+2802940D01*
X+1686573Y+2802940D01*
X+1702940Y+2786573D01*
X+1702940Y+2763427D01*
X+1686573Y+2747060D01*
X+1663427Y+2747060D01*
X+1647060Y+2763427D01*
G37*
G36*
X+1352420Y+2763427D02*
X+1352420Y+2786573D01*
X+1368787Y+2802940D01*
X+1391933Y+2802940D01*
X+1408300Y+2786573D01*
X+1408300Y+2763427D01*
X+1391933Y+2747060D01*
X+1368787Y+2747060D01*
X+1352420Y+2763427D01*
G37*
G36*
X+1352420Y+2608487D02*
X+1352420Y+2631633D01*
X+1368787Y+2648000D01*
X+1391933Y+2648000D01*
X+1408300Y+2631633D01*
X+1408300Y+2608487D01*
X+1391933Y+2592120D01*
X+1368787Y+2592120D01*
X+1352420Y+2608487D01*
G37*
G36*
X+1352420Y+2461167D02*
X+1352420Y+2484313D01*
X+1368787Y+2500680D01*
X+1391933Y+2500680D01*
X+1408300Y+2484313D01*
X+1408300Y+2461167D01*
X+1391933Y+2444800D01*
X+1368787Y+2444800D01*
X+1352420Y+2461167D01*
G37*
G36*
X+1494660Y+2461167D02*
X+1494660Y+2484313D01*
X+1511027Y+2500680D01*
X+1534173Y+2500680D01*
X+1550540Y+2484313D01*
X+1550540Y+2461167D01*
X+1534173Y+2444800D01*
X+1511027Y+2444800D01*
X+1494660Y+2461167D01*
G37*
G36*
X+1644520Y+2461167D02*
X+1644520Y+2484313D01*
X+1660887Y+2500680D01*
X+1684033Y+2500680D01*
X+1700400Y+2484313D01*
X+1700400Y+2461167D01*
X+1684033Y+2444800D01*
X+1660887Y+2444800D01*
X+1644520Y+2461167D01*
G37*
G36*
X+1796920Y+2461167D02*
X+1796920Y+2484313D01*
X+1813287Y+2500680D01*
X+1836433Y+2500680D01*
X+1852800Y+2484313D01*
X+1852800Y+2461167D01*
X+1836433Y+2444800D01*
X+1813287Y+2444800D01*
X+1796920Y+2461167D01*
G37*
G36*
X+1944240Y+2461167D02*
X+1944240Y+2484313D01*
X+1960607Y+2500680D01*
X+1983753Y+2500680D01*
X+2000120Y+2484313D01*
X+2000120Y+2461167D01*
X+1983753Y+2444800D01*
X+1960607Y+2444800D01*
X+1944240Y+2461167D01*
G37*
G36*
X+1944240Y+2608487D02*
X+1944240Y+2631633D01*
X+1960607Y+2648000D01*
X+1983753Y+2648000D01*
X+2000120Y+2631633D01*
X+2000120Y+2608487D01*
X+1983753Y+2592120D01*
X+1960607Y+2592120D01*
X+1944240Y+2608487D01*
G37*
G36*
X+1944240Y+2763427D02*
X+1944240Y+2786573D01*
X+1960607Y+2802940D01*
X+1983753Y+2802940D01*
X+2000120Y+2786573D01*
X+2000120Y+2763427D01*
X+1983753Y+2747060D01*
X+1960607Y+2747060D01*
X+1944240Y+2763427D01*
G37*
G36*
X+1944240Y+2913287D02*
X+1944240Y+2936433D01*
X+1960607Y+2952800D01*
X+1983753Y+2952800D01*
X+2000120Y+2936433D01*
X+2000120Y+2913287D01*
X+1983753Y+2896920D01*
X+1960607Y+2896920D01*
X+1944240Y+2913287D01*
G37*
G36*
X+1352420Y+2910747D02*
X+1352420Y+2933893D01*
X+1368787Y+2950260D01*
X+1391933Y+2950260D01*
X+1408300Y+2933893D01*
X+1408300Y+2910747D01*
X+1391933Y+2894380D01*
X+1368787Y+2894380D01*
X+1352420Y+2910747D01*
G37*
G36*
X+1497200Y+2910747D02*
X+1497200Y+2933893D01*
X+1513567Y+2950260D01*
X+1536713Y+2950260D01*
X+1553080Y+2933893D01*
X+1553080Y+2910747D01*
X+1536713Y+2894380D01*
X+1513567Y+2894380D01*
X+1497200Y+2910747D01*
G37*
G36*
X+1647060Y+3063147D02*
X+1647060Y+3086293D01*
X+1663427Y+3102660D01*
X+1686573Y+3102660D01*
X+1702940Y+3086293D01*
X+1702940Y+3063147D01*
X+1686573Y+3046780D01*
X+1663427Y+3046780D01*
X+1647060Y+3063147D01*
G37*
G36*
X+1799460Y+3063147D02*
X+1799460Y+3086293D01*
X+1815827Y+3102660D01*
X+1838973Y+3102660D01*
X+1855340Y+3086293D01*
X+1855340Y+3063147D01*
X+1838973Y+3046780D01*
X+1815827Y+3046780D01*
X+1799460Y+3063147D01*
G37*
G36*
X+1944240Y+3063147D02*
X+1944240Y+3086293D01*
X+1960607Y+3102660D01*
X+1983753Y+3102660D01*
X+2000120Y+3086293D01*
X+2000120Y+3063147D01*
X+1983753Y+3046780D01*
X+1960607Y+3046780D01*
X+1944240Y+3063147D01*
G37*
G36*
X+1497200Y+3063147D02*
X+1497200Y+3086293D01*
X+1513567Y+3102660D01*
X+1536713Y+3102660D01*
X+1553080Y+3086293D01*
X+1553080Y+3063147D01*
X+1536713Y+3046780D01*
X+1513567Y+3046780D01*
X+1497200Y+3063147D01*
G37*
G36*
X+1873120Y+2435767D02*
X+1873120Y+2458913D01*
X+1889487Y+2475280D01*
X+1912633Y+2475280D01*
X+1929000Y+2458913D01*
X+1929000Y+2435767D01*
X+1912633Y+2419400D01*
X+1889487Y+2419400D01*
X+1873120Y+2435767D01*
G37*
G36*
X+1723260Y+2435767D02*
X+1723260Y+2458913D01*
X+1739627Y+2475280D01*
X+1762773Y+2475280D01*
X+1779140Y+2458913D01*
X+1779140Y+2435767D01*
X+1762773Y+2419400D01*
X+1739627Y+2419400D01*
X+1723260Y+2435767D01*
G37*
G36*
X+1570860Y+2435767D02*
X+1570860Y+2458913D01*
X+1587227Y+2475280D01*
X+1610373Y+2475280D01*
X+1626740Y+2458913D01*
X+1626740Y+2435767D01*
X+1610373Y+2419400D01*
X+1587227Y+2419400D01*
X+1570860Y+2435767D01*
G37*
G36*
X+1421000Y+2435767D02*
X+1421000Y+2458913D01*
X+1437367Y+2475280D01*
X+1460513Y+2475280D01*
X+1476880Y+2458913D01*
X+1476880Y+2435767D01*
X+1460513Y+2419400D01*
X+1437367Y+2419400D01*
X+1421000Y+2435767D01*
G37*
G36*
X+1321940Y+2537367D02*
X+1321940Y+2560513D01*
X+1338307Y+2576880D01*
X+1361453Y+2576880D01*
X+1377820Y+2560513D01*
X+1377820Y+2537367D01*
X+1361453Y+2521000D01*
X+1338307Y+2521000D01*
X+1321940Y+2537367D01*
G37*
G36*
X+1321940Y+2684687D02*
X+1321940Y+2707833D01*
X+1338307Y+2724200D01*
X+1361453Y+2724200D01*
X+1377820Y+2707833D01*
X+1377820Y+2684687D01*
X+1361453Y+2668320D01*
X+1338307Y+2668320D01*
X+1321940Y+2684687D01*
G37*
G36*
X+1321940Y+2839627D02*
X+1321940Y+2862773D01*
X+1338307Y+2879140D01*
X+1361453Y+2879140D01*
X+1377820Y+2862773D01*
X+1377820Y+2839627D01*
X+1361453Y+2823260D01*
X+1338307Y+2823260D01*
X+1321940Y+2839627D01*
G37*
G36*
X+1321940Y+2986947D02*
X+1321940Y+3010093D01*
X+1338307Y+3026460D01*
X+1361453Y+3026460D01*
X+1377820Y+3010093D01*
X+1377820Y+2986947D01*
X+1361453Y+2970580D01*
X+1338307Y+2970580D01*
X+1321940Y+2986947D01*
G37*
G36*
X+1352420Y+3063147D02*
X+1352420Y+3086293D01*
X+1368787Y+3102660D01*
X+1391933Y+3102660D01*
X+1408300Y+3086293D01*
X+1408300Y+3063147D01*
X+1391933Y+3046780D01*
X+1368787Y+3046780D01*
X+1352420Y+3063147D01*
G37*
G36*
X+1423540Y+3088547D02*
X+1423540Y+3111693D01*
X+1439907Y+3128060D01*
X+1463053Y+3128060D01*
X+1479420Y+3111693D01*
X+1479420Y+3088547D01*
X+1463053Y+3072180D01*
X+1439907Y+3072180D01*
X+1423540Y+3088547D01*
G37*
G36*
X+1573400Y+3088547D02*
X+1573400Y+3111693D01*
X+1589767Y+3128060D01*
X+1612913Y+3128060D01*
X+1629280Y+3111693D01*
X+1629280Y+3088547D01*
X+1612913Y+3072180D01*
X+1589767Y+3072180D01*
X+1573400Y+3088547D01*
G37*
G36*
X+1723260Y+3088547D02*
X+1723260Y+3111693D01*
X+1739627Y+3128060D01*
X+1762773Y+3128060D01*
X+1779140Y+3111693D01*
X+1779140Y+3088547D01*
X+1762773Y+3072180D01*
X+1739627Y+3072180D01*
X+1723260Y+3088547D01*
G37*
G36*
X+1873120Y+3088547D02*
X+1873120Y+3111693D01*
X+1889487Y+3128060D01*
X+1912633Y+3128060D01*
X+1929000Y+3111693D01*
X+1929000Y+3088547D01*
X+1912633Y+3072180D01*
X+1889487Y+3072180D01*
X+1873120Y+3088547D01*
G37*
G36*
X+1974720Y+2986947D02*
X+1974720Y+3010093D01*
X+1991087Y+3026460D01*
X+2014233Y+3026460D01*
X+2030600Y+3010093D01*
X+2030600Y+2986947D01*
X+2014233Y+2970580D01*
X+1991087Y+2970580D01*
X+1974720Y+2986947D01*
G37*
G36*
X+1974720Y+2837087D02*
X+1974720Y+2860233D01*
X+1991087Y+2876600D01*
X+2014233Y+2876600D01*
X+2030600Y+2860233D01*
X+2030600Y+2837087D01*
X+2014233Y+2820720D01*
X+1991087Y+2820720D01*
X+1974720Y+2837087D01*
G37*
G36*
X+1974720Y+2684687D02*
X+1974720Y+2707833D01*
X+1991087Y+2724200D01*
X+2014233Y+2724200D01*
X+2030600Y+2707833D01*
X+2030600Y+2684687D01*
X+2014233Y+2668320D01*
X+1991087Y+2668320D01*
X+1974720Y+2684687D01*
G37*
G36*
X+1974720Y+2537367D02*
X+1974720Y+2560513D01*
X+1991087Y+2576880D01*
X+2014233Y+2576880D01*
X+2030600Y+2560513D01*
X+2030600Y+2537367D01*
X+2014233Y+2521000D01*
X+1991087Y+2521000D01*
X+1974720Y+2537367D01*
G37*
G36*
X-2677940Y-86573D02*
X-2677940Y-63427D01*
X-2661573Y-47060D01*
X-2638427Y-47060D01*
X-2622060Y-63427D01*
X-2622060Y-86573D01*
X-2638427Y-102940D01*
X-2661573Y-102940D01*
X-2677940Y-86573D01*
G37*
G36*
X-2902940Y-761573D02*
X-2902940Y-738427D01*
X-2886573Y-722060D01*
X-2863427Y-722060D01*
X-2847060Y-738427D01*
X-2847060Y-761573D01*
X-2863427Y-777940D01*
X-2886573Y-777940D01*
X-2902940Y-761573D01*
G37*
G36*
X-2977940Y-686573D02*
X-2977940Y-663427D01*
X-2961573Y-647060D01*
X-2938427Y-647060D01*
X-2922060Y-663427D01*
X-2922060Y-686573D01*
X-2938427Y-702940D01*
X-2961573Y-702940D01*
X-2977940Y-686573D01*
G37*
G36*
X-2802940Y+38427D02*
X-2802940Y+61573D01*
X-2786573Y+77940D01*
X-2763427Y+77940D01*
X-2747060Y+61573D01*
X-2747060Y+38427D01*
X-2763427Y+22060D01*
X-2786573Y+22060D01*
X-2802940Y+38427D01*
G37*
G36*
X-3102940Y-561573D02*
X-3102940Y-538427D01*
X-3086573Y-522060D01*
X-3063427Y-522060D01*
X-3047060Y-538427D01*
X-3047060Y-561573D01*
X-3063427Y-577940D01*
X-3086573Y-577940D01*
X-3102940Y-561573D01*
G37*
G36*
X-2777940Y-886573D02*
X-2777940Y-863427D01*
X-2761573Y-847060D01*
X-2738427Y-847060D01*
X-2722060Y-863427D01*
X-2722060Y-886573D01*
X-2738427Y-902940D01*
X-2761573Y-902940D01*
X-2777940Y-886573D01*
G37*
G36*
X+3041439Y+4437875D02*
X+3041439Y+4362125D01*
X+3004314Y+4325000D01*
X+3041439Y+4287875D01*
X+3041439Y+4212125D01*
X+3004314Y+4175000D01*
X+3041439Y+4137875D01*
X+3041439Y+4062125D01*
X+3004314Y+4025000D01*
X+3041439Y+3987875D01*
X+3041439Y+3912125D01*
X+3004314Y+3875000D01*
X+3041439Y+3837875D01*
X+3041439Y+3762125D01*
X+3004314Y+3725000D01*
X+3041439Y+3687875D01*
X+3041439Y+3612125D01*
X+3004314Y+3575000D01*
X+3041439Y+3537875D01*
X+3041439Y+3462125D01*
X+3004314Y+3425000D01*
X+3041439Y+3387875D01*
X+3041439Y+3237125D01*
X+2987875Y+3183561D01*
X+2966439Y+3183561D01*
X+2966439Y+3162125D01*
X+2912875Y+3108561D01*
X+2837125Y+3108561D01*
X+2783561Y+3162125D01*
X+2783561Y+3237875D01*
X+2837125Y+3291439D01*
X+2858561Y+3291439D01*
X+2858561Y+3387875D01*
X+2895686Y+3425000D01*
X+2858561Y+3462125D01*
X+2858561Y+3537875D01*
X+2895686Y+3575000D01*
X+2858561Y+3612125D01*
X+2858561Y+3687875D01*
X+2895686Y+3725000D01*
X+2858561Y+3762125D01*
X+2858561Y+3837875D01*
X+2895686Y+3875000D01*
X+2858561Y+3912125D01*
X+2858561Y+3987875D01*
X+2895686Y+4025000D01*
X+2858561Y+4062125D01*
X+2858561Y+4137875D01*
X+2895686Y+4175000D01*
X+2858561Y+4212125D01*
X+2858561Y+4287875D01*
X+2895686Y+4325000D01*
X+2858561Y+4362125D01*
X+2858561Y+4437875D01*
X+2912125Y+4491439D01*
X+2987875Y+4491439D01*
X+3041439Y+4437875D01*
G37*
G36*
X+5308561Y+4112125D02*
X+5308561Y+4187875D01*
X+5362125Y+4241439D01*
X+5437875Y+4241439D01*
X+5491439Y+4187875D01*
X+5491439Y+4112125D01*
X+5437875Y+4058561D01*
X+5362125Y+4058561D01*
X+5308561Y+4112125D01*
G37*
G36*
X+5308561Y+6437125D02*
X+5308561Y+6512875D01*
X+5362125Y+6566439D01*
X+5437875Y+6566439D01*
X+5491439Y+6512875D01*
X+5491439Y+6437125D01*
X+5437875Y+6383561D01*
X+5362125Y+6383561D01*
X+5308561Y+6437125D01*
G37*
G36*
X+5308561Y+6187125D02*
X+5308561Y+6262875D01*
X+5362125Y+6316439D01*
X+5437875Y+6316439D01*
X+5491439Y+6262875D01*
X+5491439Y+6187125D01*
X+5437875Y+6133561D01*
X+5362125Y+6133561D01*
X+5308561Y+6187125D01*
G37*
G36*
X+5308561Y+5937125D02*
X+5308561Y+6012875D01*
X+5362125Y+6066439D01*
X+5437875Y+6066439D01*
X+5491439Y+6012875D01*
X+5491439Y+5937125D01*
X+5437875Y+5883561D01*
X+5362125Y+5883561D01*
X+5308561Y+5937125D01*
G37*
G36*
X+5308561Y+5687125D02*
X+5308561Y+5762875D01*
X+5362125Y+5816439D01*
X+5437875Y+5816439D01*
X+5491439Y+5762875D01*
X+5491439Y+5687125D01*
X+5437875Y+5633561D01*
X+5362125Y+5633561D01*
X+5308561Y+5687125D01*
G37*
G36*
X+5308561Y+5437125D02*
X+5308561Y+5512875D01*
X+5362125Y+5566439D01*
X+5437875Y+5566439D01*
X+5491439Y+5512875D01*
X+5491439Y+5437125D01*
X+5437875Y+5383561D01*
X+5362125Y+5383561D01*
X+5308561Y+5437125D01*
G37*
G36*
X+5308561Y+5162125D02*
X+5308561Y+5237875D01*
X+5362125Y+5291439D01*
X+5437875Y+5291439D01*
X+5491439Y+5237875D01*
X+5491439Y+5162125D01*
X+5437875Y+5108561D01*
X+5362125Y+5108561D01*
X+5308561Y+5162125D01*
G37*
G36*
X+5308561Y+4887125D02*
X+5308561Y+4962875D01*
X+5362125Y+5016439D01*
X+5437875Y+5016439D01*
X+5491439Y+4962875D01*
X+5491439Y+4887125D01*
X+5437875Y+4833561D01*
X+5362125Y+4833561D01*
X+5308561Y+4887125D01*
G37*
G36*
X+5308561Y+4637125D02*
X+5308561Y+4712875D01*
X+5362125Y+4766439D01*
X+5437875Y+4766439D01*
X+5491439Y+4712875D01*
X+5491439Y+4637125D01*
X+5437875Y+4583561D01*
X+5362125Y+4583561D01*
X+5308561Y+4637125D01*
G37*
G36*
X+5308561Y+4387125D02*
X+5308561Y+4462875D01*
X+5362125Y+4516439D01*
X+5437875Y+4516439D01*
X+5491439Y+4462875D01*
X+5491439Y+4387125D01*
X+5437875Y+4333561D01*
X+5362125Y+4333561D01*
X+5308561Y+4387125D01*
G37*
G36*
X+4572060Y+4488427D02*
X+4572060Y+4511573D01*
X+4588427Y+4527940D01*
X+4611573Y+4527940D01*
X+4627940Y+4511573D01*
X+4627940Y+4488427D01*
X+4611573Y+4472060D01*
X+4588427Y+4472060D01*
X+4572060Y+4488427D01*
G37*
G36*
X+3182060Y+3413427D02*
X+3182060Y+3436573D01*
X+3198427Y+3452940D01*
X+3221573Y+3452940D01*
X+3237940Y+3436573D01*
X+3237940Y+3413427D01*
X+3221573Y+3397060D01*
X+3198427Y+3397060D01*
X+3182060Y+3413427D01*
G37*
G36*
X+3182060Y+3563427D02*
X+3182060Y+3586573D01*
X+3198427Y+3602940D01*
X+3221573Y+3602940D01*
X+3237940Y+3586573D01*
X+3237940Y+3563427D01*
X+3221573Y+3547060D01*
X+3198427Y+3547060D01*
X+3182060Y+3563427D01*
G37*
G36*
X+3182060Y+3713427D02*
X+3182060Y+3736573D01*
X+3198427Y+3752940D01*
X+3221573Y+3752940D01*
X+3237940Y+3736573D01*
X+3237940Y+3713427D01*
X+3221573Y+3697060D01*
X+3198427Y+3697060D01*
X+3182060Y+3713427D01*
G37*
G36*
X+3182060Y+4013427D02*
X+3182060Y+4036573D01*
X+3198427Y+4052940D01*
X+3221573Y+4052940D01*
X+3237940Y+4036573D01*
X+3237940Y+4013427D01*
X+3221573Y+3997060D01*
X+3198427Y+3997060D01*
X+3182060Y+4013427D01*
G37*
G36*
X+3182060Y+3863427D02*
X+3182060Y+3886573D01*
X+3198427Y+3902940D01*
X+3221573Y+3902940D01*
X+3237940Y+3886573D01*
X+3237940Y+3863427D01*
X+3221573Y+3847060D01*
X+3198427Y+3847060D01*
X+3182060Y+3863427D01*
G37*
G36*
X+3182060Y+4163427D02*
X+3182060Y+4186573D01*
X+3198427Y+4202940D01*
X+3221573Y+4202940D01*
X+3237940Y+4186573D01*
X+3237940Y+4163427D01*
X+3221573Y+4147060D01*
X+3198427Y+4147060D01*
X+3182060Y+4163427D01*
G37*
G36*
X+3182060Y+4463427D02*
X+3182060Y+4486573D01*
X+3198427Y+4502940D01*
X+3221573Y+4502940D01*
X+3237940Y+4486573D01*
X+3237940Y+4463427D01*
X+3221573Y+4447060D01*
X+3198427Y+4447060D01*
X+3182060Y+4463427D01*
G37*
G36*
X+3182060Y+4313427D02*
X+3182060Y+4336573D01*
X+3198427Y+4352940D01*
X+3221573Y+4352940D01*
X+3237940Y+4336573D01*
X+3237940Y+4313427D01*
X+3221573Y+4297060D01*
X+3198427Y+4297060D01*
X+3182060Y+4313427D01*
G37*
G36*
X+3182060Y+3263427D02*
X+3182060Y+3286573D01*
X+3198427Y+3302940D01*
X+3221573Y+3302940D01*
X+3237940Y+3286573D01*
X+3237940Y+3263427D01*
X+3221573Y+3247060D01*
X+3198427Y+3247060D01*
X+3182060Y+3263427D01*
G37*
G36*
X+3416439Y+3162875D02*
X+3416439Y+3087125D01*
X+3362875Y+3033561D01*
X+3287125Y+3033561D01*
X+3233561Y+3087125D01*
X+3233561Y+3109048D01*
X+3221573Y+3097060D01*
X+3198427Y+3097060D01*
X+3182060Y+3113427D01*
X+3182060Y+3136573D01*
X+3198427Y+3152940D01*
X+3221573Y+3152940D01*
X+3233561Y+3140952D01*
X+3233561Y+3162875D01*
X+3287125Y+3216439D01*
X+3362875Y+3216439D01*
X+3416439Y+3162875D01*
G37*
G36*
X+2666439Y+2687875D02*
X+2666439Y+2612125D01*
X+2629314Y+2575000D01*
X+2666439Y+2537875D01*
X+2666439Y+2462125D01*
X+2612875Y+2408561D01*
X+2537125Y+2408561D01*
X+2483561Y+2462125D01*
X+2483561Y+2537875D01*
X+2520686Y+2575000D01*
X+2483561Y+2612125D01*
X+2483561Y+2687875D01*
X+2537125Y+2741439D01*
X+2612875Y+2741439D01*
X+2666439Y+2687875D01*
G37*
G36*
X+5510161Y+4020925D02*
X+5510161Y+4096675D01*
X+5563725Y+4150239D01*
X+5639475Y+4150239D01*
X+5693039Y+4096675D01*
X+5693039Y+4020925D01*
X+5639475Y+3967361D01*
X+5563725Y+3967361D01*
X+5510161Y+4020925D01*
G37*
G36*
X+4258561Y+3912125D02*
X+4258561Y+3987875D01*
X+4312125Y+4041439D01*
X+4387875Y+4041439D01*
X+4441439Y+3987875D01*
X+4441439Y+3912125D01*
X+4387875Y+3858561D01*
X+4312125Y+3858561D01*
X+4258561Y+3912125D01*
G37*
G36*
X+3441439Y+4137875D02*
X+3441439Y+4062125D01*
X+3420753Y+4041439D01*
X+3462875Y+4041439D01*
X+3516439Y+3987875D01*
X+3516439Y+3912125D01*
X+3462875Y+3858561D01*
X+3387125Y+3858561D01*
X+3333561Y+3912125D01*
X+3333561Y+3987875D01*
X+3354247Y+4008561D01*
X+3312125Y+4008561D01*
X+3258561Y+4062125D01*
X+3258561Y+4137875D01*
X+3312125Y+4191439D01*
X+3387875Y+4191439D01*
X+3441439Y+4137875D01*
G37*
G36*
X+147060Y+4088427D02*
X+147060Y+4111573D01*
X+163427Y+4127940D01*
X+186573Y+4127940D01*
X+202940Y+4111573D01*
X+202940Y+4088427D01*
X+186573Y+4072060D01*
X+163427Y+4072060D01*
X+147060Y+4088427D01*
G37*
G36*
X+147060Y+3313427D02*
X+147060Y+3336573D01*
X+163427Y+3352940D01*
X+186573Y+3352940D01*
X+202940Y+3336573D01*
X+202940Y+3313427D01*
X+186573Y+3297060D01*
X+163427Y+3297060D01*
X+147060Y+3313427D01*
G37*
G36*
X+716439Y+2612875D02*
X+716439Y+2537125D01*
X+662875Y+2483561D01*
X+641439Y+2483561D01*
X+641439Y+2462125D01*
X+587875Y+2408561D01*
X+512125Y+2408561D01*
X+458561Y+2462125D01*
X+458561Y+2537875D01*
X+512125Y+2591439D01*
X+533561Y+2591439D01*
X+533561Y+2612875D01*
X+587125Y+2666439D01*
X+662875Y+2666439D01*
X+716439Y+2612875D01*
G37*
G36*
X-52940Y+2363427D02*
X-52940Y+2386573D01*
X-36573Y+2402940D01*
X-13427Y+2402940D01*
X+2940Y+2386573D01*
X+2940Y+2363427D01*
X-13427Y+2347060D01*
X-36573Y+2347060D01*
X-52940Y+2363427D01*
G37*
G36*
X-1441439Y+1962125D02*
X-1441439Y+2037875D01*
X-1387875Y+2091439D01*
X-1312125Y+2091439D01*
X-1258561Y+2037875D01*
X-1258561Y+1962125D01*
X-1312125Y+1908561D01*
X-1387875Y+1908561D01*
X-1441439Y+1962125D01*
G37*
G36*
X+1022060Y+1963427D02*
X+1022060Y+1986573D01*
X+1038427Y+2002940D01*
X+1061573Y+2002940D01*
X+1077940Y+1986573D01*
X+1077940Y+1963427D01*
X+1061573Y+1947060D01*
X+1038427Y+1947060D01*
X+1022060Y+1963427D01*
G37*
G36*
X+333561Y-312875D02*
X+333561Y-237125D01*
X+387125Y-183561D01*
X+462875Y-183561D01*
X+516439Y-237125D01*
X+516439Y-312875D01*
X+462875Y-366439D01*
X+387125Y-366439D01*
X+333561Y-312875D01*
G37*
G36*
X+1341439Y+1287875D02*
X+1341439Y+1212125D01*
X+1287875Y+1158561D01*
X+1212125Y+1158561D01*
X+1167600Y+1203086D01*
X+1161573Y+1197060D01*
X+1138427Y+1197060D01*
X+1122060Y+1213427D01*
X+1122060Y+1236573D01*
X+1138427Y+1252940D01*
X+1158561Y+1252940D01*
X+1158561Y+1287875D01*
X+1212125Y+1341439D01*
X+1287875Y+1341439D01*
X+1341439Y+1287875D01*
G37*
G36*
X+4733561Y+4087125D02*
X+4733561Y+4162875D01*
X+4787125Y+4216439D01*
X+4862875Y+4216439D01*
X+4916439Y+4162875D01*
X+4916439Y+4087125D01*
X+4862875Y+4033561D01*
X+4787125Y+4033561D01*
X+4733561Y+4087125D01*
G37*
G36*
X+1508561Y+5462125D02*
X+1508561Y+5537875D01*
X+1562125Y+5591439D01*
X+1637875Y+5591439D01*
X+1691439Y+5537875D01*
X+1691439Y+5462125D01*
X+1637875Y+5408561D01*
X+1562125Y+5408561D01*
X+1508561Y+5462125D01*
G37*
G36*
X+2308561Y+5487125D02*
X+2308561Y+5562875D01*
X+2362125Y+5616439D01*
X+2437875Y+5616439D01*
X+2491439Y+5562875D01*
X+2491439Y+5487125D01*
X+2437875Y+5433561D01*
X+2362125Y+5433561D01*
X+2308561Y+5487125D01*
G37*
G36*
X+2447060Y+2563427D02*
X+2447060Y+2586573D01*
X+2463427Y+2602940D01*
X+2486573Y+2602940D01*
X+2502940Y+2586573D01*
X+2502940Y+2563427D01*
X+2486573Y+2547060D01*
X+2463427Y+2547060D01*
X+2447060Y+2563427D01*
G37*
G36*
X+2197060Y+2588427D02*
X+2197060Y+2611573D01*
X+2213427Y+2627940D01*
X+2236573Y+2627940D01*
X+2252940Y+2611573D01*
X+2252940Y+2588427D01*
X+2236573Y+2572060D01*
X+2213427Y+2572060D01*
X+2197060Y+2588427D01*
G37*
%LPD*%
D13*
X+1675000Y+2922320D02*
X+1827400Y+2922320D01*
X+1827400Y+2772460D01*
X+1827400Y+2620060D01*
X+1675000Y+2620060D01*
X+1522600Y+2620060D01*
X+1520060Y+2775000D01*
X+1675000Y+2775000D01*
X+1380360Y+2775000D02*
X+1380360Y+2620060D01*
X+1522600Y+2472740D02*
X+1672460Y+2472740D01*
X+1824860Y+2472740D01*
X+1972180Y+2620060D02*
X+1972180Y+2775000D01*
X+1972180Y+2924860D01*
X+1379050Y+3070870D02*
X+1379697Y+2924857D01*
X+1379708Y+2922320D02*
X+1379709Y+2922170D01*
X+1380360Y+2775000D01*
X+1379708Y+2922320D02*
X+1380360Y+2922320D01*
X+1379697Y+2924857D01*
X+1380360Y+2922320D02*
X+1525140Y+2922320D01*
X+1675000Y+2922320D01*
X+1525140Y+3074720D02*
X+1675000Y+3074720D01*
X+1827400Y+3074720D01*
X+1450980Y+2998940D02*
X+1383830Y+3070996D01*
X+1972180Y+2526080D02*
X+1918840Y+2472740D01*
X+1431160Y+2472740D02*
X+1380360Y+2523540D01*
X+1380360Y+2620060D02*
X+1380360Y+2523540D01*
X+1380360Y+2472740D01*
X+1431160Y+2472740D01*
X+1522600Y+2472740D01*
X+1824860Y+2472740D02*
X+1918840Y+2472740D01*
X+1972180Y+2472740D01*
X+1972180Y+2526080D01*
X+1972180Y+2620060D01*
X+1827400Y+3074720D02*
X+1918840Y+3074720D01*
X+1972180Y+3074720D01*
X+1525140Y+3074720D02*
X+1383830Y+3070996D01*
X+1379050Y+3070870D01*
X+1918840Y+2472740D02*
X+1901060Y+2447340D01*
X+1751200Y+2447340D01*
X+1598800Y+2447340D01*
X+1448940Y+2447340D01*
X+1431160Y+2472740D01*
X+1380360Y+2523540D02*
X+1349880Y+2548940D01*
X+1349880Y+2696260D01*
X+1349880Y+2851200D01*
X+1349880Y+2998520D01*
X+1383830Y+3070996D02*
X+1380360Y+3074720D01*
X+1395600Y+3089960D01*
X+1451480Y+3100120D01*
X+1601340Y+3100120D01*
X+1751200Y+3100120D01*
X+1901060Y+3100120D01*
X+1918840Y+3074720D01*
X+2002660Y+2998520D01*
X+2002660Y+2848660D01*
X+2002660Y+2696260D01*
X+2002660Y+2548940D01*
X+1972180Y+2526080D01*
D14*
X+3210000Y+3425000D02*
X+3210000Y+3425397D01*
X+3209604Y+3425793D01*
D15*
X+1675024Y+4608924D02*
X+1675024Y+4515504D01*
X+1671758Y+4512238D01*
D14*
X-250000Y+3425000D02*
X-250000Y+4375000D01*
X+50000Y+4675000D01*
X+350000Y+4675000D01*
X+600000Y+4425000D01*
X+1050000Y+4500000D02*
X+675000Y+4500000D01*
X+600000Y+4425000D01*
X+1100000Y+4025000D02*
X+625000Y+4025000D01*
X+625000Y+3825000D02*
X+625000Y+4025000D01*
X+625000Y+4400000D01*
X+600000Y+4425000D01*
X-250000Y+3325000D02*
X-250000Y+3400000D01*
X-250000Y+3425000D01*
D15*
X+2250000Y+4675000D02*
X+2250000Y+4525000D01*
D14*
X+2500000Y+4325000D02*
X+2450000Y+4275000D01*
X+2175000Y+4275000D01*
X+2100000Y+4275000D01*
X+1950000Y+4275000D01*
X+1950000Y+4635000D01*
X+1850000Y+4725000D01*
X+1275000Y+4725000D01*
X+1050000Y+4500000D01*
X+1675000Y+4275000D02*
X+1950000Y+4275000D01*
X-75000Y+2700000D02*
X-75000Y+3175000D01*
X+150000Y+3175000D02*
X-75000Y+3175000D01*
X-100000Y+3175000D01*
X-250000Y+3325000D01*
D17*
X+25000Y+3500000D02*
X-40520Y+3500000D01*
X-59500Y+3518980D01*
X+50000Y+3350000D02*
X-40520Y+3350000D01*
X-59500Y+3331020D01*
X+450000Y+3400000D02*
X+340500Y+3290500D01*
X+340500Y+3268980D01*
X+450000Y+3275000D02*
X+450000Y+3190520D01*
X+340500Y+3081020D01*
X+200000Y+2775000D02*
X+110422Y+2775000D01*
X+110065Y+2775357D01*
X+115500Y+2793980D01*
X+900000Y+3875000D02*
X+856020Y+3918980D01*
X+815500Y+3918980D01*
X+900000Y+3775000D02*
X+856020Y+3731020D01*
X+815500Y+3731020D01*
X+1175000Y+3925000D02*
X+1175000Y+3853480D01*
X+1193980Y+3834500D01*
X+1000000Y+3925000D02*
X+1000000Y+3840520D01*
X+1006020Y+3834500D01*
X+1000000Y+4225000D02*
X+956020Y+4268980D01*
X+956020Y+4309500D01*
X+1100000Y+4225000D02*
X+1143980Y+4268980D01*
X+1143980Y+4309500D01*
X+1750000Y+4175000D02*
X+1750000Y+4103480D01*
X+1768980Y+4084500D01*
X+2250000Y+4175000D02*
X+2250000Y+4103480D01*
X+2268980Y+4084500D01*
X+2125000Y+4175000D02*
X+2081020Y+4084500D01*
X+1625000Y+4175000D02*
X+1581020Y+4084500D01*
X+1625000Y+4175000D01*
X+2425000Y+4050000D02*
X+2425000Y+4115520D01*
X+2406020Y+4134500D01*
X+2550000Y+4050000D02*
X+2593980Y+4134500D01*
X+200000Y+2650000D02*
X+115500Y+2606020D01*
D15*
X+2435000Y+925000D02*
X+2435000Y+1081449D01*
X+2436314Y+1082763D01*
X+2275000Y+925000D02*
X+2150000Y+925000D01*
X+2060000Y+925000D02*
X+2150000Y+925000D01*
X+1900000Y+925000D02*
X+1800000Y+925000D01*
X+1685000Y+925000D02*
X+1800000Y+925000D01*
X+1525000Y+925000D02*
X+1350000Y+925000D01*
X+1160000Y+925000D02*
X+1350000Y+925000D01*
X+1000000Y+925000D02*
X+700000Y+925000D01*
X+550000Y+925000D02*
X+700000Y+925000D01*
X-450000Y+1640000D02*
X-450000Y+1000000D01*
X-300000Y+925000D02*
X-375000Y+925000D01*
X-450000Y+1000000D01*
X-125000Y+925000D02*
X-300000Y+925000D01*
X-450000Y+1800000D02*
X-450000Y+2225000D01*
X-450000Y+2465000D02*
X-450000Y+2225000D01*
X-450000Y+2625000D02*
X-450000Y+2800000D01*
X-450000Y+3015000D02*
X-450000Y+2800000D01*
X-450000Y+3175000D02*
X-450000Y+3490000D01*
X-440000Y+3500000D01*
X-350000Y+3500000D01*
X-450000Y+3650000D02*
X-450000Y+3775000D01*
X-450000Y+3990000D02*
X-450000Y+3775000D01*
X-450000Y+4150000D02*
X-450000Y+4350000D01*
X-450000Y+4540000D02*
X-450000Y+4350000D01*
X+75000Y+4950000D02*
X+525000Y+4950000D01*
X+575000Y+4900000D01*
X+715000Y+4950000D02*
X+625000Y+4950000D01*
X+575000Y+4900000D01*
X+1675000Y+4950000D02*
X+1950000Y+4950000D01*
X+2000000Y+4900000D01*
X+2325000Y+4950000D02*
X+2050000Y+4950000D01*
X+2000000Y+4900000D01*
X+2485000Y+4950000D02*
X+2750000Y+4950000D01*
X+2800000Y+4900000D01*
X+875000Y+4950000D02*
X+1275000Y+4950000D01*
X+1325000Y+4900000D01*
X+1515000Y+4950000D02*
X+1375000Y+4950000D01*
X+1325000Y+4900000D01*
X-85000Y+4950000D02*
X-225000Y+4950000D01*
X-275000Y+4900000D01*
X-450000Y+4700000D02*
X-450000Y+4725000D01*
X-275000Y+4900000D01*
X+390000Y+925000D02*
X+200000Y+925000D01*
X+35000Y+925000D02*
X+200000Y+925000D01*
D18*
X+2875000Y+2950000D03*
X+2825000Y+2875000D03*
X+2825000Y+2575000D03*
X+2825000Y+2725000D03*
X+2875000Y+2800000D03*
X+2875000Y+2650000D03*
X+2875000Y+2500000D03*
X+2350000Y+1819165D03*
X+2350000Y+1780835D03*
X+2450000Y+1800000D03*
X+2825000Y+2325000D03*
X+2825000Y+2280835D03*
X+2925000Y+2300000D03*
X+3025673Y+2324327D03*
X+3025000Y+2275000D03*
X+4013449Y+2075000D03*
X+4013449Y+2225000D03*
X+4213449Y+2150000D03*
X+4138449Y+2075000D03*
X+4138449Y+2225000D03*
X+4010040Y+975000D03*
X+4010040Y+1125000D03*
X+4135040Y+1125000D03*
X+4135040Y+975000D03*
X+4210040Y+1050000D03*
X+2225000Y+2800000D03*
X+2475000Y+2875000D03*
X+2225000Y+3050000D03*
X+2225000Y+3150000D03*
X+2550000Y+1800000D03*
X+1150000Y+1875000D03*
X+875000Y+1475000D03*
X+725000Y+1475000D03*
X+1225000Y+1950000D03*
X+625000Y+2200000D03*
X+650000Y+1975000D03*
X+550000Y+2125000D03*
X+525000Y+1975000D03*
X+525000Y+2775000D03*
X-1350000Y+3600000D03*
X-300000Y+3200000D03*
X+675000Y+3175000D03*
X+450000Y+3275000D03*
X+750000Y+3100000D03*
X+450000Y+3400000D03*
X+1050000Y+3625000D03*
X+900000Y+3775000D03*
X+1250000Y+3725000D03*
X+1175000Y+3925000D03*
X+1325000Y+3650000D03*
X+1000000Y+3925000D03*
X+1725000Y+3875000D03*
X+2400000Y+3350000D03*
X+2550000Y+3450000D03*
X+2250000Y+4175000D03*
X+2025000Y+3925000D03*
X+2250000Y+3900000D03*
X+2425000Y+4050000D03*
X+2175000Y+3825000D03*
X+2025000Y+3825000D03*
X+1150000Y+1475000D03*
X+1350000Y+1725000D03*
X+1425000Y+1800000D03*
X+1050000Y+1475000D03*
X+1775000Y+1475000D03*
X+1775000Y+1675000D03*
X+1750000Y+2225000D03*
X+1950000Y+1475000D03*
X+1575000Y+1975000D03*
X+1350000Y+1475000D03*
X+1550000Y+2225000D03*
X+1450000Y+1475000D03*
X-375000Y-275000D03*
X-375000Y+750000D03*
X+1225000Y-275000D03*
X+1550000Y+400000D03*
X+2025000Y-300000D03*
X+2025000Y+400000D03*
X+1900000Y+2225000D03*
X+2275000Y+1475000D03*
X+850000Y+4800000D03*
X+0Y+5500000D03*
X-1350000Y+400000D03*
X-650000Y+1050000D03*
X-1350000Y+1200000D03*
X-650000Y+1200000D03*
X-1350000Y+2800000D03*
X-300000Y+2900102D03*
X-1350000Y+5200000D03*
X-625000Y+4000000D03*
X-1350000Y+4400000D03*
X-625000Y+3875000D03*
X+2800000Y+5525000D03*
X+2575000Y+3950000D03*
X+375000Y+3850000D03*
X+900000Y+3650000D03*
X+1000000Y+4225000D03*
X+1525000Y+3800000D03*
X+1450000Y+3875000D03*
X+1100000Y+4225000D03*
X+1700000Y+3950000D03*
X+1750000Y+4175000D03*
X+825000Y+5500000D03*
X+950000Y+4800000D03*
X+2675000Y+1975000D03*
X+2225000Y+2900000D03*
D19*
X+1675000Y+2922320D03*
X+1827400Y+2922320D03*
X+1827400Y+2772460D03*
X+1827400Y+2620060D03*
X+1675000Y+2620060D03*
X+1522600Y+2620060D03*
X+1520060Y+2775000D03*
X+1675000Y+2775000D03*
X+1380360Y+2775000D03*
X+1380360Y+2620060D03*
X+1380360Y+2472740D03*
X+1522600Y+2472740D03*
X+1672460Y+2472740D03*
X+1824860Y+2472740D03*
X+1972180Y+2472740D03*
X+1972180Y+2620060D03*
X+1972180Y+2775000D03*
X+1972180Y+2924860D03*
X+1380360Y+2922320D03*
X+1525140Y+2922320D03*
X+1675000Y+3074720D03*
X+1827400Y+3074720D03*
X+1972180Y+3074720D03*
X+1525140Y+3074720D03*
X+1901060Y+2447340D03*
X+1751200Y+2447340D03*
X+1598800Y+2447340D03*
X+1448940Y+2447340D03*
X+1349880Y+2548940D03*
X+1349880Y+2696260D03*
X+1349880Y+2851200D03*
X+1349880Y+2998520D03*
X+1380360Y+3074720D03*
X+1451480Y+3100120D03*
X+1601340Y+3100120D03*
X+1751200Y+3100120D03*
X+1901060Y+3100120D03*
X+2002660Y+2998520D03*
X+2002660Y+2848660D03*
X+2002660Y+2696260D03*
X+2002660Y+2548940D03*
D18*
X-2650000Y-75000D03*
X-2875000Y-750000D03*
X-2950000Y-675000D03*
X-2775000Y+50000D03*
X-3075000Y-550000D03*
X-2750000Y-875000D03*
X+2875000Y+3200000D03*
X+5400000Y+4150000D03*
X+5400000Y+6475000D03*
X+2950000Y+4400000D03*
X+5400000Y+6225000D03*
X+2950000Y+4250000D03*
X+5400000Y+5975000D03*
X+2950000Y+4100000D03*
X+5400000Y+5725000D03*
X+2950000Y+3950000D03*
X+5400000Y+5475000D03*
X+2950000Y+3800000D03*
X+5400000Y+5200000D03*
X+2950000Y+3650000D03*
X+5400000Y+4925000D03*
X+2950000Y+3500000D03*
X+5400000Y+4675000D03*
X+2950000Y+3350000D03*
X+5400000Y+4425000D03*
X+2950000Y+3275000D03*
X+4600000Y+4500000D03*
X+3210000Y+3425000D03*
X+3210000Y+3575000D03*
X+3210000Y+3725000D03*
X+3210000Y+4025000D03*
X+3210000Y+3875000D03*
X+3210000Y+4175000D03*
X+3210000Y+4475000D03*
X+3210000Y+4325000D03*
X+3210000Y+3275000D03*
X+3210000Y+3125000D03*
X+2575000Y+2650000D03*
X+5601600Y+4058800D03*
X+2575000Y+2500000D03*
X+4350000Y+3950000D03*
X+3350000Y+4100000D03*
X+3425000Y+3950000D03*
X+1675024Y+4608924D03*
X+175000Y+4100000D03*
X+1125000Y+3500000D03*
X+900000Y+3875000D03*
X+650000Y+3000000D03*
X+50000Y+3350000D03*
X+550000Y+3000000D03*
X+25000Y+3500000D03*
X+175000Y+3325000D03*
X+450000Y+2725000D03*
X+200000Y+2775000D03*
X+625000Y+2575000D03*
X+550000Y+2500000D03*
X+200000Y+2500000D03*
X+200000Y+2375000D03*
X-25000Y+2375000D03*
X-1350000Y+2000000D03*
X-650000Y+2075000D03*
X+1050000Y+1975000D03*
X+425000Y-275000D03*
X+850000Y+400000D03*
X+1250000Y+1250000D03*
X+1275000Y+1500000D03*
X+1150000Y+1225000D03*
X+1925000Y+1675000D03*
X+2100000Y+1475000D03*
X+2300000Y+1575000D03*
X+4825000Y+4125000D03*
X+3325000Y+3125000D03*
X+1600000Y+5500000D03*
X+1600000Y+4825000D03*
X+2250000Y+4675000D03*
X+2125000Y+4175000D03*
X+1625000Y+4175000D03*
X+2550000Y+4050000D03*
X+200000Y+2650000D03*
X+2150000Y+925000D03*
X+1800000Y+925000D03*
X+1350000Y+925000D03*
X+700000Y+925000D03*
X-450000Y+1000000D03*
X-450000Y+2225000D03*
X-450000Y+2800000D03*
X-350000Y+3500000D03*
X-450000Y+3775000D03*
X-450000Y+4350000D03*
X+575000Y+4900000D03*
X+2000000Y+4900000D03*
X+2800000Y+4900000D03*
X+1325000Y+4900000D03*
X+2400000Y+5525000D03*
X+2250000Y+4850000D03*
X-275000Y+4900000D03*
X+200000Y+925000D03*
X+2475000Y+2575000D03*
X+2275000Y+2075000D03*
X+2225000Y+2600000D03*
D13*
X+5900000Y+6775000D02*
X+6923800Y+6775714D01*
X+6923800Y+3700000D01*
X+4350000Y+3700000D01*
X+3100000Y+2450000D01*
X+3100000Y+1258196D01*
X+3053657Y+1304539D01*
X+2946343Y+1304539D01*
X+2870461Y+1228657D01*
X+2870461Y+1121343D01*
X+2891804Y+1100000D01*
X+2870461Y+1078657D01*
X+2870461Y+1000000D01*
X+2548029Y+1000000D01*
X+2548029Y+1040569D01*
X+1411971Y+1040569D01*
X+1411971Y+1022789D01*
X+1273029Y+1022789D01*
X+1273029Y+1040569D01*
X+886971Y+1040569D01*
X+886971Y+1022789D01*
X+663029Y+1022789D01*
X+663029Y+1040569D01*
X+276971Y+1040569D01*
X+276971Y+1022789D01*
X+148029Y+1022789D01*
X+148029Y+1040569D01*
X-200000Y+1040569D01*
X-200000Y+3127726D01*
X-179139Y+3106865D01*
X-179139Y+2810489D01*
X-191839Y+2810489D01*
X-191839Y+2589511D01*
X-1339Y+2589511D01*
X-1339Y+2495531D01*
X+108561Y+2495531D01*
X+108561Y+2462125D01*
X+133186Y+2437500D01*
X+108561Y+2412875D01*
X+108561Y+2337125D01*
X+162125Y+2283561D01*
X+237875Y+2283561D01*
X+291439Y+2337125D01*
X+291439Y+2412875D01*
X+266814Y+2437500D01*
X+291439Y+2462125D01*
X+291439Y+2537875D01*
X+254314Y+2575000D01*
X+291439Y+2612125D01*
X+291439Y+2687875D01*
X+266814Y+2712500D01*
X+291439Y+2737125D01*
X+291439Y+2812875D01*
X+237875Y+2866439D01*
X+232339Y+2866439D01*
X+232339Y+2904469D01*
X+29139Y+2904469D01*
X+29139Y+3070861D01*
X+33161Y+3070861D01*
X+33161Y+3064511D01*
X+223661Y+3064511D01*
X+223661Y+2970531D01*
X+457339Y+2970531D01*
X+457339Y+3068545D01*
X+541439Y+3152645D01*
X+541439Y+3312875D01*
X+516814Y+3337500D01*
X+541439Y+3362125D01*
X+541439Y+3437875D01*
X+487875Y+3491439D01*
X+412125Y+3491439D01*
X+300155Y+3379469D01*
X+223661Y+3379469D01*
X+223661Y+3285489D01*
X+114803Y+3285489D01*
X+141439Y+3312125D01*
X+141439Y+3387875D01*
X+91814Y+3437500D01*
X+116439Y+3462125D01*
X+116439Y+3537875D01*
X+62875Y+3591439D01*
X+57339Y+3591439D01*
X+57339Y+3629469D01*
X-145861Y+3629469D01*
X-145861Y+4331865D01*
X+72274Y+4550000D01*
X+327726Y+4550000D01*
X+428551Y+4449175D01*
X+428551Y+4253551D01*
X+520861Y+4253551D01*
X+520861Y+3935489D01*
X+508161Y+3935489D01*
X+508161Y+3714511D01*
X+698661Y+3714511D01*
X+698661Y+3620531D01*
X+808561Y+3620531D01*
X+808561Y+3612125D01*
X+862125Y+3558561D01*
X+937875Y+3558561D01*
X+962500Y+3583186D01*
X+1012125Y+3533561D01*
X+1033561Y+3533561D01*
X+1033561Y+3462125D01*
X+1087125Y+3408561D01*
X+1162875Y+3408561D01*
X+1216439Y+3462125D01*
X+1216439Y+3537875D01*
X+1162875Y+3591439D01*
X+1141439Y+3591439D01*
X+1141439Y+3662875D01*
X+1087875Y+3716439D01*
X+1012125Y+3716439D01*
X+987500Y+3691814D01*
X+966814Y+3712500D01*
X+971975Y+3717661D01*
X+1158561Y+3717661D01*
X+1158561Y+3687125D01*
X+1212125Y+3633561D01*
X+1233561Y+3633561D01*
X+1233561Y+3612125D01*
X+1287125Y+3558561D01*
X+1362875Y+3558561D01*
X+1416439Y+3612125D01*
X+1416439Y+3687875D01*
X+1362875Y+3741439D01*
X+1341439Y+3741439D01*
X+1341439Y+3762875D01*
X+1304469Y+3799845D01*
X+1304469Y+3951339D01*
X+1266439Y+3951339D01*
X+1266439Y+3962875D01*
X+1212875Y+4016439D01*
X+1210489Y+4016439D01*
X+1210489Y+4141839D01*
X+1146153Y+4141839D01*
X+1196975Y+4192661D01*
X+1254469Y+4192661D01*
X+1254469Y+4426339D01*
X+1160489Y+4426339D01*
X+1160489Y+4463215D01*
X+1247274Y+4550000D01*
X+1604634Y+4550000D01*
X+1637149Y+4517485D01*
X+1712899Y+4517485D01*
X+1745414Y+4550000D01*
X+1845861Y+4550000D01*
X+1845861Y+4379139D01*
X+1785489Y+4379139D01*
X+1785489Y+4391839D01*
X+1564511Y+4391839D01*
X+1564511Y+4243825D01*
X+1533561Y+4212875D01*
X+1529022Y+4201339D01*
X+1470531Y+4201339D01*
X+1470531Y+3967661D01*
X+1608561Y+3967661D01*
X+1608561Y+3912125D01*
X+1633561Y+3887125D01*
X+1633561Y+3837125D01*
X+1687125Y+3783561D01*
X+1762875Y+3783561D01*
X+1816439Y+3837125D01*
X+1816439Y+3912875D01*
X+1791439Y+3937875D01*
X+1791439Y+3967661D01*
X+1879469Y+3967661D01*
X+1879469Y+4170861D01*
X+1970531Y+4170861D01*
X+1970531Y+3999845D01*
X+1933561Y+3962875D01*
X+1933561Y+3887125D01*
X+1945686Y+3875000D01*
X+1933561Y+3862875D01*
X+1933561Y+3787125D01*
X+1987125Y+3733561D01*
X+2062875Y+3733561D01*
X+2100000Y+3770686D01*
X+2137125Y+3733561D01*
X+2212875Y+3733561D01*
X+2266439Y+3787125D01*
X+2266439Y+3808561D01*
X+2287875Y+3808561D01*
X+2341439Y+3862125D01*
X+2341439Y+3937875D01*
X+2311653Y+3967661D01*
X+2378025Y+3967661D01*
X+2387125Y+3958561D01*
X+2462875Y+3958561D01*
X+2483561Y+3979247D01*
X+2483561Y+3912125D01*
X+2537125Y+3858561D01*
X+2612875Y+3858561D01*
X+2666439Y+3912125D01*
X+2666439Y+3987875D01*
X+2641661Y+4012653D01*
X+2643763Y+4017661D01*
X+2704469Y+4017661D01*
X+2704469Y+4251339D01*
X+2610489Y+4251339D01*
X+2610489Y+4441839D01*
X+2389511Y+4441839D01*
X+2389511Y+4379139D01*
X+2285489Y+4379139D01*
X+2285489Y+4391839D01*
X+2064511Y+4391839D01*
X+2064511Y+4379139D01*
X+2054139Y+4379139D01*
X+2054139Y+4550000D01*
X+3350000Y+4550000D01*
X+3350000Y+5832361D01*
X+3921639Y+5832361D01*
X+3921639Y+6167639D01*
X+3350000Y+6167639D01*
X+3350000Y+6800000D01*
X+3000000Y+6800000D01*
X+3000000Y+4850000D01*
X+2888294Y+4850000D01*
X+2897789Y+4859495D01*
X+2897789Y+4940505D01*
X+2790505Y+5047789D01*
X+2598029Y+5047789D01*
X+2598029Y+5065569D01*
X+2211971Y+5065569D01*
X+2211971Y+5047789D01*
X+2009495Y+5047789D01*
X+2000000Y+5038294D01*
X+1990505Y+5047789D01*
X+1788029Y+5047789D01*
X+1788029Y+5065569D01*
X+1401971Y+5065569D01*
X+1401971Y+5047789D01*
X+1334495Y+5047789D01*
X+1325000Y+5038294D01*
X+1315505Y+5047789D01*
X+988029Y+5047789D01*
X+988029Y+5065569D01*
X+601971Y+5065569D01*
X+601971Y+5047789D01*
X+584495Y+5047789D01*
X+575000Y+5038294D01*
X+565505Y+5047789D01*
X+188029Y+5047789D01*
X+188029Y+5065569D01*
X-198029Y+5065569D01*
X-198029Y+5047789D01*
X-265505Y+5047789D01*
X-463294Y+4850000D01*
X-700000Y+4850000D01*
X-700000Y+4054314D01*
X-716439Y+4037875D01*
X-716439Y+3962125D01*
X-700000Y+3945686D01*
X-700000Y+3929314D01*
X-716439Y+3912875D01*
X-716439Y+3837125D01*
X-700000Y+3820686D01*
X-700000Y+2154314D01*
X-741439Y+2112875D01*
X-741439Y+2037125D01*
X-700000Y+1995686D01*
X-700000Y+1279314D01*
X-741439Y+1237875D01*
X-741439Y+1162125D01*
X-704314Y+1125000D01*
X-741439Y+1087875D01*
X-741439Y+1012125D01*
X-700000Y+970686D01*
X-700000Y+350000D01*
X+770686Y+350000D01*
X+812125Y+308561D01*
X+887875Y+308561D01*
X+929314Y+350000D01*
X+1470686Y+350000D01*
X+1512125Y+308561D01*
X+1587875Y+308561D01*
X+1629314Y+350000D01*
X+1945686Y+350000D01*
X+1987125Y+308561D01*
X+2062875Y+308561D01*
X+2104314Y+350000D01*
X+3050000Y+350000D01*
X+3300000Y+600000D01*
X+3300000Y+2500000D01*
X+3475000Y+2675000D01*
X+4850000Y+2675000D01*
X+4850000Y-666461D01*
X+4741133Y-666461D01*
X+4516461Y-891133D01*
X+4516461Y-1208867D01*
X+4741133Y-1433539D01*
X+4850000Y-1433539D01*
X+4850000Y-1573800D01*
X-4373800Y-1573800D01*
X-4373800Y+7073800D01*
X+5900000Y+7073800D01*
X+5900000Y+6775000D01*
X-4233539Y-1208867D02*
X-4233539Y-891133D01*
X-4008867Y-666461D01*
X-3691133Y-666461D01*
X-3466461Y-891133D01*
X-3466461Y-1208867D01*
X-3691133Y-1433539D01*
X-4008867Y-1433539D01*
X-4233539Y-1208867D01*
X-4233539Y+6391133D02*
X-4233539Y+6708867D01*
X-4008867Y+6933539D01*
X-3691133Y+6933539D01*
X-3466461Y+6708867D01*
X-3466461Y+6391133D01*
X-3691133Y+6166461D01*
X-4008867Y+6166461D01*
X-4233539Y+6391133D01*
X+4516461Y+6391133D02*
X+4516461Y+6708867D01*
X+4741133Y+6933539D01*
X+5058867Y+6933539D01*
X+5283539Y+6708867D01*
X+5283539Y+6391133D01*
X+5058867Y+6166461D01*
X+4741133Y+6166461D01*
X+4516461Y+6391133D01*
X-3281561Y+5990480D02*
X-3281561Y+5809520D01*
X-3366081Y+5725000D01*
X-3281561Y+5640480D01*
X-3281561Y+5459520D01*
X-3366081Y+5375000D01*
X-3281561Y+5290480D01*
X-3281561Y+5109520D01*
X-3366081Y+5025000D01*
X-3281561Y+4940480D01*
X-3281561Y+4759520D01*
X-3366081Y+4675000D01*
X-3281561Y+4590480D01*
X-3281561Y+4409520D01*
X-3366081Y+4325000D01*
X-3281561Y+4240480D01*
X-3281561Y+4059520D01*
X-3366081Y+3975000D01*
X-3281561Y+3890480D01*
X-3281561Y+3709520D01*
X-3366081Y+3625000D01*
X-3281561Y+3540480D01*
X-3281561Y+3359520D01*
X-3366081Y+3275000D01*
X-3281561Y+3190480D01*
X-3281561Y+3009520D01*
X-3366081Y+2925000D01*
X-3281561Y+2840480D01*
X-3281561Y+2659520D01*
X-3366081Y+2575000D01*
X-3281561Y+2490480D01*
X-3281561Y+2309520D01*
X-3366081Y+2225000D01*
X-3281561Y+2140480D01*
X-3281561Y+1959520D01*
X-3366081Y+1875000D01*
X-3281561Y+1790480D01*
X-3281561Y+1609520D01*
X-3366081Y+1525000D01*
X-3281561Y+1440480D01*
X-3281561Y+1259520D01*
X-3366081Y+1175000D01*
X-3281561Y+1090480D01*
X-3281561Y+909520D01*
X-3366081Y+825000D01*
X-3281561Y+740480D01*
X-3281561Y+559520D01*
X-3366081Y+475000D01*
X-3281561Y+390480D01*
X-3281561Y+209520D01*
X-3366081Y+125000D01*
X-3281561Y+40480D01*
X-3281561Y-140480D01*
X-3366081Y-225000D01*
X-3281561Y-309520D01*
X-3281561Y-490480D01*
X-3409520Y-618439D01*
X-3590480Y-618439D01*
X-3718439Y-490480D01*
X-3718439Y-309520D01*
X-3633919Y-225000D01*
X-3718439Y-140480D01*
X-3718439Y+40480D01*
X-3633919Y+125000D01*
X-3718439Y+209520D01*
X-3718439Y+390480D01*
X-3633919Y+475000D01*
X-3718439Y+559520D01*
X-3718439Y+740480D01*
X-3633919Y+825000D01*
X-3718439Y+909520D01*
X-3718439Y+1090480D01*
X-3633919Y+1175000D01*
X-3718439Y+1259520D01*
X-3718439Y+1440480D01*
X-3633919Y+1525000D01*
X-3718439Y+1609520D01*
X-3718439Y+1790480D01*
X-3633919Y+1875000D01*
X-3718439Y+1959520D01*
X-3718439Y+2140480D01*
X-3633919Y+2225000D01*
X-3718439Y+2309520D01*
X-3718439Y+2490480D01*
X-3633919Y+2575000D01*
X-3718439Y+2659520D01*
X-3718439Y+2840480D01*
X-3633919Y+2925000D01*
X-3718439Y+3009520D01*
X-3718439Y+3190480D01*
X-3633919Y+3275000D01*
X-3718439Y+3359520D01*
X-3718439Y+3540480D01*
X-3633919Y+3625000D01*
X-3718439Y+3709520D01*
X-3718439Y+3890480D01*
X-3633919Y+3975000D01*
X-3718439Y+4059520D01*
X-3718439Y+4240480D01*
X-3633919Y+4325000D01*
X-3718439Y+4409520D01*
X-3718439Y+4590480D01*
X-3633919Y+4675000D01*
X-3718439Y+4759520D01*
X-3718439Y+4940480D01*
X-3633919Y+5025000D01*
X-3718439Y+5109520D01*
X-3718439Y+5290480D01*
X-3633919Y+5375000D01*
X-3718439Y+5459520D01*
X-3718439Y+5640480D01*
X-3633919Y+5725000D01*
X-3718439Y+5809520D01*
X-3718439Y+5990480D01*
X-3590480Y+6118439D01*
X-3409520Y+6118439D01*
X-3281561Y+5990480D01*
X+6217639Y+6432361D02*
X+6217639Y+4146361D01*
X+5882361Y+4146361D01*
X+5882361Y+6767639D01*
X+6217639Y+6767639D01*
X+6217639Y+6432361D01*
X+6276645Y+4380040D02*
X+6331355Y+4380040D01*
X+6370040Y+4341355D01*
X+6370040Y+4286645D01*
X+6331355Y+4247960D01*
X+6276645Y+4247960D01*
X+6237960Y+4286645D01*
X+6237960Y+4341355D01*
X+6276645Y+4380040D01*
X+6276645Y+4634040D02*
X+6331355Y+4634040D01*
X+6370040Y+4595355D01*
X+6370040Y+4540645D01*
X+6331355Y+4501960D01*
X+6276645Y+4501960D01*
X+6237960Y+4540645D01*
X+6237960Y+4595355D01*
X+6276645Y+4634040D01*
X+6276645Y+4888040D02*
X+6331355Y+4888040D01*
X+6370040Y+4849355D01*
X+6370040Y+4794645D01*
X+6331355Y+4755960D01*
X+6276645Y+4755960D01*
X+6237960Y+4794645D01*
X+6237960Y+4849355D01*
X+6276645Y+4888040D01*
X+6276645Y+5142040D02*
X+6331355Y+5142040D01*
X+6370040Y+5103355D01*
X+6370040Y+5048645D01*
X+6331355Y+5009960D01*
X+6276645Y+5009960D01*
X+6237960Y+5048645D01*
X+6237960Y+5103355D01*
X+6276645Y+5142040D01*
X+6276645Y+5396040D02*
X+6331355Y+5396040D01*
X+6370040Y+5357355D01*
X+6370040Y+5302645D01*
X+6331355Y+5263960D01*
X+6276645Y+5263960D01*
X+6237960Y+5302645D01*
X+6237960Y+5357355D01*
X+6276645Y+5396040D01*
X+6276645Y+5650040D02*
X+6331355Y+5650040D01*
X+6370040Y+5611355D01*
X+6370040Y+5556645D01*
X+6331355Y+5517960D01*
X+6276645Y+5517960D01*
X+6237960Y+5556645D01*
X+6237960Y+5611355D01*
X+6276645Y+5650040D01*
X+6276645Y+5904040D02*
X+6331355Y+5904040D01*
X+6370040Y+5865355D01*
X+6370040Y+5810645D01*
X+6331355Y+5771960D01*
X+6276645Y+5771960D01*
X+6237960Y+5810645D01*
X+6237960Y+5865355D01*
X+6276645Y+5904040D01*
X+6276645Y+6158040D02*
X+6331355Y+6158040D01*
X+6370040Y+6119355D01*
X+6370040Y+6064645D01*
X+6331355Y+6025960D01*
X+6276645Y+6025960D01*
X+6237960Y+6064645D01*
X+6237960Y+6119355D01*
X+6276645Y+6158040D01*
X+6276645Y+6412040D02*
X+6331355Y+6412040D01*
X+6370040Y+6373355D01*
X+6370040Y+6318645D01*
X+6331355Y+6279960D01*
X+6276645Y+6279960D01*
X+6237960Y+6318645D01*
X+6237960Y+6373355D01*
X+6276645Y+6412040D01*
X+6276645Y+6666040D02*
X+6331355Y+6666040D01*
X+6370040Y+6627355D01*
X+6370040Y+6572645D01*
X+6331355Y+6533960D01*
X+6276645Y+6533960D01*
X+6237960Y+6572645D01*
X+6237960Y+6627355D01*
X+6276645Y+6666040D01*
X+2879539Y+2128657D02*
X+2879539Y+2021343D01*
X+2803657Y+1945461D01*
X+2696343Y+1945461D01*
X+2690658Y+1951146D01*
X+2686573Y+1947060D01*
X+2663427Y+1947060D01*
X+2647060Y+1963427D01*
X+2647060Y+1963864D01*
X+2628657Y+1945461D01*
X+2521343Y+1945461D01*
X+2487500Y+1979304D01*
X+2453657Y+1945461D01*
X+2346343Y+1945461D01*
X+2308243Y+1983561D01*
X+2237125Y+1983561D01*
X+2183561Y+2037125D01*
X+2183561Y+2112875D01*
X+2237125Y+2166439D01*
X+2308243Y+2166439D01*
X+2346343Y+2204539D01*
X+2453657Y+2204539D01*
X+2487500Y+2170696D01*
X+2521343Y+2204539D01*
X+2628657Y+2204539D01*
X+2662500Y+2170696D01*
X+2696343Y+2204539D01*
X+2803657Y+2204539D01*
X+2879539Y+2128657D01*
X+3578480Y+6735020D02*
X+3578480Y+6814980D01*
X+3635020Y+6871520D01*
X+3714980Y+6871520D01*
X+3771520Y+6814980D01*
X+3771520Y+6735020D01*
X+3714980Y+6678480D01*
X+3635020Y+6678480D01*
X+3578480Y+6735020D01*
X+2281961Y+6695041D02*
X+2281961Y+6854959D01*
X+2395041Y+6968039D01*
X+2554959Y+6968039D01*
X+2668039Y+6854959D01*
X+2668039Y+6695041D01*
X+2554959Y+6581961D01*
X+2395041Y+6581961D01*
X+2281961Y+6695041D01*
X-3117639Y+6542639D02*
X-2782361Y+6542639D01*
X-2782361Y+6207361D01*
X-3117639Y+6207361D01*
X-3117639Y+6542639D01*
X-2762040Y+6347645D02*
X-2762040Y+6402355D01*
X-2723355Y+6441040D01*
X-2668645Y+6441040D01*
X-2629960Y+6402355D01*
X-2629960Y+6347645D01*
X-2668645Y+6308960D01*
X-2723355Y+6308960D01*
X-2762040Y+6347645D01*
X+143687Y+4440240D02*
X+156313Y+4440240D01*
X+165240Y+4431313D01*
X+165240Y+4418687D01*
X+156313Y+4409760D01*
X+143687Y+4409760D01*
X+134760Y+4418687D01*
X+134760Y+4431313D01*
X+143687Y+4440240D01*
X+2847060Y+2938427D02*
X+2847060Y+2961573D01*
X+2863427Y+2977940D01*
X+2886573Y+2977940D01*
X+2902940Y+2961573D01*
X+2902940Y+2938427D01*
X+2886573Y+2922060D01*
X+2863427Y+2922060D01*
X+2847060Y+2938427D01*
X+2797060Y+2863427D02*
X+2797060Y+2886573D01*
X+2813427Y+2902940D01*
X+2836573Y+2902940D01*
X+2852940Y+2886573D01*
X+2852940Y+2863427D01*
X+2836573Y+2847060D01*
X+2813427Y+2847060D01*
X+2797060Y+2863427D01*
X+2797060Y+2563427D02*
X+2797060Y+2586573D01*
X+2813427Y+2602940D01*
X+2836573Y+2602940D01*
X+2852940Y+2586573D01*
X+2852940Y+2563427D01*
X+2836573Y+2547060D01*
X+2813427Y+2547060D01*
X+2797060Y+2563427D01*
X+2797060Y+2713427D02*
X+2797060Y+2736573D01*
X+2813427Y+2752940D01*
X+2836573Y+2752940D01*
X+2852940Y+2736573D01*
X+2852940Y+2713427D01*
X+2836573Y+2697060D01*
X+2813427Y+2697060D01*
X+2797060Y+2713427D01*
X+2847060Y+2788427D02*
X+2847060Y+2811573D01*
X+2863427Y+2827940D01*
X+2886573Y+2827940D01*
X+2902940Y+2811573D01*
X+2902940Y+2788427D01*
X+2886573Y+2772060D01*
X+2863427Y+2772060D01*
X+2847060Y+2788427D01*
X+2847060Y+2638427D02*
X+2847060Y+2661573D01*
X+2863427Y+2677940D01*
X+2886573Y+2677940D01*
X+2902940Y+2661573D01*
X+2902940Y+2638427D01*
X+2886573Y+2622060D01*
X+2863427Y+2622060D01*
X+2847060Y+2638427D01*
X+2847060Y+2488427D02*
X+2847060Y+2511573D01*
X+2863427Y+2527940D01*
X+2886573Y+2527940D01*
X+2902940Y+2511573D01*
X+2902940Y+2488427D01*
X+2886573Y+2472060D01*
X+2863427Y+2472060D01*
X+2847060Y+2488427D01*
X+2377940Y+1830738D02*
X+2377940Y+1807592D01*
X+2370348Y+1800000D01*
X+2377940Y+1792408D01*
X+2377940Y+1769262D01*
X+2361573Y+1752895D01*
X+2338427Y+1752895D01*
X+2322060Y+1769262D01*
X+2322060Y+1792408D01*
X+2329652Y+1800000D01*
X+2322060Y+1807592D01*
X+2322060Y+1830738D01*
X+2338427Y+1847105D01*
X+2361573Y+1847105D01*
X+2377940Y+1830738D01*
X+2422060Y+1788427D02*
X+2422060Y+1811573D01*
X+2438427Y+1827940D01*
X+2461573Y+1827940D01*
X+2477940Y+1811573D01*
X+2477940Y+1788427D01*
X+2461573Y+1772060D01*
X+2438427Y+1772060D01*
X+2422060Y+1788427D01*
X+2852940Y+2336573D02*
X+2852940Y+2313427D01*
X+2842430Y+2302918D01*
X+2852940Y+2292408D01*
X+2852940Y+2269262D01*
X+2836573Y+2252895D01*
X+2813427Y+2252895D01*
X+2797060Y+2269262D01*
X+2797060Y+2292408D01*
X+2807570Y+2302918D01*
X+2797060Y+2313427D01*
X+2797060Y+2336573D01*
X+2813427Y+2352940D01*
X+2836573Y+2352940D01*
X+2852940Y+2336573D01*
X+2897060Y+2288427D02*
X+2897060Y+2311573D01*
X+2913427Y+2327940D01*
X+2936573Y+2327940D01*
X+2952940Y+2311573D01*
X+2952940Y+2288427D01*
X+2936573Y+2272060D01*
X+2913427Y+2272060D01*
X+2897060Y+2288427D01*
X+3053613Y+2335900D02*
X+3053613Y+2312754D01*
X+3040186Y+2299327D01*
X+3052940Y+2286573D01*
X+3052940Y+2263427D01*
X+3036573Y+2247060D01*
X+3013427Y+2247060D01*
X+2997060Y+2263427D01*
X+2997060Y+2286573D01*
X+3010487Y+2300000D01*
X+2997733Y+2312754D01*
X+2997733Y+2335900D01*
X+3014100Y+2352267D01*
X+3037246Y+2352267D01*
X+3053613Y+2335900D01*
X+3985509Y+2063427D02*
X+3985509Y+2086573D01*
X+4001876Y+2102940D01*
X+4025022Y+2102940D01*
X+4041389Y+2086573D01*
X+4041389Y+2063427D01*
X+4025022Y+2047060D01*
X+4001876Y+2047060D01*
X+3985509Y+2063427D01*
X+3985509Y+2213427D02*
X+3985509Y+2236573D01*
X+4001876Y+2252940D01*
X+4025022Y+2252940D01*
X+4041389Y+2236573D01*
X+4041389Y+2213427D01*
X+4025022Y+2197060D01*
X+4001876Y+2197060D01*
X+3985509Y+2213427D01*
X+4185509Y+2138427D02*
X+4185509Y+2161573D01*
X+4201876Y+2177940D01*
X+4225022Y+2177940D01*
X+4241389Y+2161573D01*
X+4241389Y+2138427D01*
X+4225022Y+2122060D01*
X+4201876Y+2122060D01*
X+4185509Y+2138427D01*
X+4110509Y+2063427D02*
X+4110509Y+2086573D01*
X+4126876Y+2102940D01*
X+4150022Y+2102940D01*
X+4166389Y+2086573D01*
X+4166389Y+2063427D01*
X+4150022Y+2047060D01*
X+4126876Y+2047060D01*
X+4110509Y+2063427D01*
X+4110509Y+2213427D02*
X+4110509Y+2236573D01*
X+4126876Y+2252940D01*
X+4150022Y+2252940D01*
X+4166389Y+2236573D01*
X+4166389Y+2213427D01*
X+4150022Y+2197060D01*
X+4126876Y+2197060D01*
X+4110509Y+2213427D01*
X+3982100Y+963427D02*
X+3982100Y+986573D01*
X+3998467Y+1002940D01*
X+4021613Y+1002940D01*
X+4037980Y+986573D01*
X+4037980Y+963427D01*
X+4021613Y+947060D01*
X+3998467Y+947060D01*
X+3982100Y+963427D01*
X+3982100Y+1113427D02*
X+3982100Y+1136573D01*
X+3998467Y+1152940D01*
X+4021613Y+1152940D01*
X+4037980Y+1136573D01*
X+4037980Y+1113427D01*
X+4021613Y+1097060D01*
X+3998467Y+1097060D01*
X+3982100Y+1113427D01*
X+4107100Y+1113427D02*
X+4107100Y+1136573D01*
X+4123467Y+1152940D01*
X+4146613Y+1152940D01*
X+4162980Y+1136573D01*
X+4162980Y+1113427D01*
X+4146613Y+1097060D01*
X+4123467Y+1097060D01*
X+4107100Y+1113427D01*
X+4107100Y+963427D02*
X+4107100Y+986573D01*
X+4123467Y+1002940D01*
X+4146613Y+1002940D01*
X+4162980Y+986573D01*
X+4162980Y+963427D01*
X+4146613Y+947060D01*
X+4123467Y+947060D01*
X+4107100Y+963427D01*
X+4182100Y+1038427D02*
X+4182100Y+1061573D01*
X+4198467Y+1077940D01*
X+4221613Y+1077940D01*
X+4237980Y+1061573D01*
X+4237980Y+1038427D01*
X+4221613Y+1022060D01*
X+4198467Y+1022060D01*
X+4182100Y+1038427D01*
X+2316439Y+3187875D02*
X+2316439Y+3112125D01*
X+2304314Y+3100000D01*
X+2316439Y+3087875D01*
X+2316439Y+3012125D01*
X+2279314Y+2975000D01*
X+2316439Y+2937875D01*
X+2316439Y+2862125D01*
X+2304314Y+2850000D01*
X+2316439Y+2837875D01*
X+2316439Y+2762125D01*
X+2262875Y+2708561D01*
X+2187125Y+2708561D01*
X+2133561Y+2762125D01*
X+2133561Y+2837875D01*
X+2145686Y+2850000D01*
X+2133561Y+2862125D01*
X+2133561Y+2937875D01*
X+2170686Y+2975000D01*
X+2133561Y+3012125D01*
X+2133561Y+3087875D01*
X+2145686Y+3100000D01*
X+2133561Y+3112125D01*
X+2133561Y+3187875D01*
X+2187125Y+3241439D01*
X+2262875Y+3241439D01*
X+2316439Y+3187875D01*
X+2383561Y+2837125D02*
X+2383561Y+2912875D01*
X+2437125Y+2966439D01*
X+2512875Y+2966439D01*
X+2566439Y+2912875D01*
X+2566439Y+2837125D01*
X+2512875Y+2783561D01*
X+2437125Y+2783561D01*
X+2383561Y+2837125D01*
X+2522060Y+1788427D02*
X+2522060Y+1811573D01*
X+2538427Y+1827940D01*
X+2561573Y+1827940D01*
X+2577940Y+1811573D01*
X+2577940Y+1788427D01*
X+2561573Y+1772060D01*
X+2538427Y+1772060D01*
X+2522060Y+1788427D01*
X+1316439Y+1987875D02*
X+1316439Y+1912125D01*
X+1262875Y+1858561D01*
X+1241439Y+1858561D01*
X+1241439Y+1837125D01*
X+1187875Y+1783561D01*
X+1112125Y+1783561D01*
X+1058561Y+1837125D01*
X+1058561Y+1912875D01*
X+1112125Y+1966439D01*
X+1133561Y+1966439D01*
X+1133561Y+1987875D01*
X+1187125Y+2041439D01*
X+1262875Y+2041439D01*
X+1316439Y+1987875D01*
X+1337875Y+1566439D02*
X+1387875Y+1566439D01*
X+1400000Y+1554314D01*
X+1412125Y+1566439D01*
X+1487875Y+1566439D01*
X+1541439Y+1512875D01*
X+1541439Y+1437125D01*
X+1487875Y+1383561D01*
X+1412125Y+1383561D01*
X+1400000Y+1395686D01*
X+1387875Y+1383561D01*
X+1312125Y+1383561D01*
X+1287125Y+1408561D01*
X+1237125Y+1408561D01*
X+1225000Y+1420686D01*
X+1187875Y+1383561D01*
X+1112125Y+1383561D01*
X+1100000Y+1395686D01*
X+1087875Y+1383561D01*
X+1012125Y+1383561D01*
X+962500Y+1433186D01*
X+912875Y+1383561D01*
X+837125Y+1383561D01*
X+800000Y+1420686D01*
X+762875Y+1383561D01*
X+687125Y+1383561D01*
X+633561Y+1437125D01*
X+633561Y+1512875D01*
X+687125Y+1566439D01*
X+762875Y+1566439D01*
X+800000Y+1529314D01*
X+837125Y+1566439D01*
X+912875Y+1566439D01*
X+962500Y+1516814D01*
X+1012125Y+1566439D01*
X+1087875Y+1566439D01*
X+1100000Y+1554314D01*
X+1112125Y+1566439D01*
X+1187875Y+1566439D01*
X+1200000Y+1554314D01*
X+1237125Y+1591439D01*
X+1312875Y+1591439D01*
X+1337875Y+1566439D01*
X+716439Y+2237875D02*
X+716439Y+2162125D01*
X+662875Y+2108561D01*
X+641439Y+2108561D01*
X+641439Y+2087125D01*
X+620753Y+2066439D01*
X+687875Y+2066439D01*
X+741439Y+2012875D01*
X+741439Y+1937125D01*
X+687875Y+1883561D01*
X+612125Y+1883561D01*
X+587500Y+1908186D01*
X+562875Y+1883561D01*
X+487125Y+1883561D01*
X+433561Y+1937125D01*
X+433561Y+2012875D01*
X+483186Y+2062500D01*
X+458561Y+2087125D01*
X+458561Y+2162875D01*
X+512125Y+2216439D01*
X+533561Y+2216439D01*
X+533561Y+2237875D01*
X+587125Y+2291439D01*
X+662875Y+2291439D01*
X+716439Y+2237875D01*
X+616439Y+2812875D02*
X+616439Y+2737125D01*
X+562875Y+2683561D01*
X+537875Y+2683561D01*
X+487875Y+2633561D01*
X+412125Y+2633561D01*
X+358561Y+2687125D01*
X+358561Y+2762875D01*
X+412125Y+2816439D01*
X+437125Y+2816439D01*
X+487125Y+2866439D01*
X+562875Y+2866439D01*
X+616439Y+2812875D01*
X-1441439Y+3562125D02*
X-1441439Y+3637875D01*
X-1387875Y+3691439D01*
X-1312125Y+3691439D01*
X-1258561Y+3637875D01*
X-1258561Y+3562125D01*
X-1312125Y+3508561D01*
X-1387875Y+3508561D01*
X-1441439Y+3562125D01*
X+766439Y+3212875D02*
X+766439Y+3191439D01*
X+787875Y+3191439D01*
X+841439Y+3137875D01*
X+841439Y+3062125D01*
X+787875Y+3008561D01*
X+741439Y+3008561D01*
X+741439Y+2962125D01*
X+687875Y+2908561D01*
X+612125Y+2908561D01*
X+600000Y+2920686D01*
X+587875Y+2908561D01*
X+512125Y+2908561D01*
X+458561Y+2962125D01*
X+458561Y+3037875D01*
X+512125Y+3091439D01*
X+587875Y+3091439D01*
X+600000Y+3079314D01*
X+612125Y+3091439D01*
X+629247Y+3091439D01*
X+583561Y+3137125D01*
X+583561Y+3212875D01*
X+637125Y+3266439D01*
X+712875Y+3266439D01*
X+766439Y+3212875D01*
X+2372060Y+3338427D02*
X+2372060Y+3361573D01*
X+2388427Y+3377940D01*
X+2411573Y+3377940D01*
X+2427940Y+3361573D01*
X+2427940Y+3338427D01*
X+2411573Y+3322060D01*
X+2388427Y+3322060D01*
X+2372060Y+3338427D01*
X+2522060Y+3438427D02*
X+2522060Y+3461573D01*
X+2538427Y+3477940D01*
X+2561573Y+3477940D01*
X+2577940Y+3461573D01*
X+2577940Y+3438427D01*
X+2561573Y+3422060D01*
X+2538427Y+3422060D01*
X+2522060Y+3438427D01*
X+1516439Y+1837875D02*
X+1516439Y+1762125D01*
X+1462875Y+1708561D01*
X+1441439Y+1708561D01*
X+1441439Y+1687125D01*
X+1387875Y+1633561D01*
X+1312125Y+1633561D01*
X+1258561Y+1687125D01*
X+1258561Y+1762875D01*
X+1312125Y+1816439D01*
X+1333561Y+1816439D01*
X+1333561Y+1837875D01*
X+1387125Y+1891439D01*
X+1462875Y+1891439D01*
X+1516439Y+1837875D01*
X+2327940Y+1586573D02*
X+2327940Y+1563427D01*
X+2321914Y+1557400D01*
X+2366439Y+1512875D01*
X+2366439Y+1437125D01*
X+2312875Y+1383561D01*
X+2237125Y+1383561D01*
X+2187500Y+1433186D01*
X+2137875Y+1383561D01*
X+2062125Y+1383561D01*
X+2025000Y+1420686D01*
X+1987875Y+1383561D01*
X+1912125Y+1383561D01*
X+1862500Y+1433186D01*
X+1812875Y+1383561D01*
X+1737125Y+1383561D01*
X+1683561Y+1437125D01*
X+1683561Y+1512875D01*
X+1737125Y+1566439D01*
X+1812875Y+1566439D01*
X+1862500Y+1516814D01*
X+1912125Y+1566439D01*
X+1987875Y+1566439D01*
X+2025000Y+1529314D01*
X+2062125Y+1566439D01*
X+2137875Y+1566439D01*
X+2187500Y+1516814D01*
X+2237125Y+1566439D01*
X+2272060Y+1566439D01*
X+2272060Y+1586573D01*
X+2288427Y+1602940D01*
X+2311573Y+1602940D01*
X+2327940Y+1586573D01*
X+2016439Y+1712875D02*
X+2016439Y+1637125D01*
X+1962875Y+1583561D01*
X+1887125Y+1583561D01*
X+1850000Y+1620686D01*
X+1812875Y+1583561D01*
X+1737125Y+1583561D01*
X+1683561Y+1637125D01*
X+1683561Y+1712875D01*
X+1737125Y+1766439D01*
X+1812875Y+1766439D01*
X+1850000Y+1729314D01*
X+1887125Y+1766439D01*
X+1962875Y+1766439D01*
X+2016439Y+1712875D01*
X+1991439Y+2262875D02*
X+1991439Y+2187125D01*
X+1937875Y+2133561D01*
X+1862125Y+2133561D01*
X+1825000Y+2170686D01*
X+1787875Y+2133561D01*
X+1712125Y+2133561D01*
X+1658561Y+2187125D01*
X+1658561Y+2262875D01*
X+1712125Y+2316439D01*
X+1787875Y+2316439D01*
X+1825000Y+2279314D01*
X+1862125Y+2316439D01*
X+1937875Y+2316439D01*
X+1991439Y+2262875D01*
X+1483561Y+1937125D02*
X+1483561Y+2012875D01*
X+1537125Y+2066439D01*
X+1612875Y+2066439D01*
X+1666439Y+2012875D01*
X+1666439Y+1937125D01*
X+1612875Y+1883561D01*
X+1537125Y+1883561D01*
X+1483561Y+1937125D01*
X+1458561Y+2187125D02*
X+1458561Y+2262875D01*
X+1512125Y+2316439D01*
X+1587875Y+2316439D01*
X+1641439Y+2262875D01*
X+1641439Y+2187125D01*
X+1587875Y+2133561D01*
X+1512125Y+2133561D01*
X+1458561Y+2187125D01*
X-466439Y-312875D02*
X-466439Y-237125D01*
X-412875Y-183561D01*
X-337125Y-183561D01*
X-283561Y-237125D01*
X-283561Y-312875D01*
X-337125Y-366439D01*
X-412875Y-366439D01*
X-466439Y-312875D01*
X+1133561Y-312875D02*
X+1133561Y-237125D01*
X+1187125Y-183561D01*
X+1262875Y-183561D01*
X+1316439Y-237125D01*
X+1316439Y-312875D01*
X+1262875Y-366439D01*
X+1187125Y-366439D01*
X+1133561Y-312875D01*
X+1933561Y-337875D02*
X+1933561Y-262125D01*
X+1987125Y-208561D01*
X+2062875Y-208561D01*
X+2116439Y-262125D01*
X+2116439Y-337875D01*
X+2062875Y-391439D01*
X+1987125Y-391439D01*
X+1933561Y-337875D01*
X-91439Y+5462125D02*
X-91439Y+5537875D01*
X-37875Y+5591439D01*
X+37875Y+5591439D01*
X+91439Y+5537875D01*
X+91439Y+5462125D01*
X+37875Y+5408561D01*
X-37875Y+5408561D01*
X-91439Y+5462125D01*
X-1441439Y+362125D02*
X-1441439Y+437875D01*
X-1387875Y+491439D01*
X-1312125Y+491439D01*
X-1258561Y+437875D01*
X-1258561Y+362125D01*
X-1312125Y+308561D01*
X-1387875Y+308561D01*
X-1441439Y+362125D01*
X-1441439Y+1162125D02*
X-1441439Y+1237875D01*
X-1387875Y+1291439D01*
X-1312125Y+1291439D01*
X-1258561Y+1237875D01*
X-1258561Y+1162125D01*
X-1312125Y+1108561D01*
X-1387875Y+1108561D01*
X-1441439Y+1162125D01*
X-1441439Y+2762125D02*
X-1441439Y+2837875D01*
X-1387875Y+2891439D01*
X-1312125Y+2891439D01*
X-1258561Y+2837875D01*
X-1258561Y+2762125D01*
X-1312125Y+2708561D01*
X-1387875Y+2708561D01*
X-1441439Y+2762125D01*
X-1441439Y+5162125D02*
X-1441439Y+5237875D01*
X-1387875Y+5291439D01*
X-1312125Y+5291439D01*
X-1258561Y+5237875D01*
X-1258561Y+5162125D01*
X-1312125Y+5108561D01*
X-1387875Y+5108561D01*
X-1441439Y+5162125D01*
X-1441439Y+4362125D02*
X-1441439Y+4437875D01*
X-1387875Y+4491439D01*
X-1312125Y+4491439D01*
X-1258561Y+4437875D01*
X-1258561Y+4362125D01*
X-1312125Y+4308561D01*
X-1387875Y+4308561D01*
X-1441439Y+4362125D01*
X+2708561Y+5487125D02*
X+2708561Y+5562875D01*
X+2762125Y+5616439D01*
X+2837875Y+5616439D01*
X+2891439Y+5562875D01*
X+2891439Y+5487125D01*
X+2837875Y+5433561D01*
X+2762125Y+5433561D01*
X+2708561Y+5487125D01*
X+283561Y+3812125D02*
X+283561Y+3887875D01*
X+337125Y+3941439D01*
X+412875Y+3941439D01*
X+466439Y+3887875D01*
X+466439Y+3812125D01*
X+412875Y+3758561D01*
X+337125Y+3758561D01*
X+283561Y+3812125D01*
X+1541439Y+3912875D02*
X+1541439Y+3891439D01*
X+1562875Y+3891439D01*
X+1616439Y+3837875D01*
X+1616439Y+3762125D01*
X+1562875Y+3708561D01*
X+1487125Y+3708561D01*
X+1433561Y+3762125D01*
X+1433561Y+3783561D01*
X+1412125Y+3783561D01*
X+1358561Y+3837125D01*
X+1358561Y+3912875D01*
X+1412125Y+3966439D01*
X+1487875Y+3966439D01*
X+1541439Y+3912875D01*
X+733561Y+5462125D02*
X+733561Y+5537875D01*
X+787125Y+5591439D01*
X+862875Y+5591439D01*
X+916439Y+5537875D01*
X+916439Y+5462125D01*
X+862875Y+5408561D01*
X+787125Y+5408561D01*
X+733561Y+5462125D01*
X+1647060Y+2910747D02*
X+1647060Y+2933893D01*
X+1663427Y+2950260D01*
X+1686573Y+2950260D01*
X+1702940Y+2933893D01*
X+1702940Y+2910747D01*
X+1686573Y+2894380D01*
X+1663427Y+2894380D01*
X+1647060Y+2910747D01*
X+1799460Y+2910747D02*
X+1799460Y+2933893D01*
X+1815827Y+2950260D01*
X+1838973Y+2950260D01*
X+1855340Y+2933893D01*
X+1855340Y+2910747D01*
X+1838973Y+2894380D01*
X+1815827Y+2894380D01*
X+1799460Y+2910747D01*
X+1799460Y+2760887D02*
X+1799460Y+2784033D01*
X+1815827Y+2800400D01*
X+1838973Y+2800400D01*
X+1855340Y+2784033D01*
X+1855340Y+2760887D01*
X+1838973Y+2744520D01*
X+1815827Y+2744520D01*
X+1799460Y+2760887D01*
X+1799460Y+2608487D02*
X+1799460Y+2631633D01*
X+1815827Y+2648000D01*
X+1838973Y+2648000D01*
X+1855340Y+2631633D01*
X+1855340Y+2608487D01*
X+1838973Y+2592120D01*
X+1815827Y+2592120D01*
X+1799460Y+2608487D01*
X+1647060Y+2608487D02*
X+1647060Y+2631633D01*
X+1663427Y+2648000D01*
X+1686573Y+2648000D01*
X+1702940Y+2631633D01*
X+1702940Y+2608487D01*
X+1686573Y+2592120D01*
X+1663427Y+2592120D01*
X+1647060Y+2608487D01*
X+1494660Y+2608487D02*
X+1494660Y+2631633D01*
X+1511027Y+2648000D01*
X+1534173Y+2648000D01*
X+1550540Y+2631633D01*
X+1550540Y+2608487D01*
X+1534173Y+2592120D01*
X+1511027Y+2592120D01*
X+1494660Y+2608487D01*
X+1492120Y+2763427D02*
X+1492120Y+2786573D01*
X+1508487Y+2802940D01*
X+1531633Y+2802940D01*
X+1548000Y+2786573D01*
X+1548000Y+2763427D01*
X+1531633Y+2747060D01*
X+1508487Y+2747060D01*
X+1492120Y+2763427D01*
X+1647060Y+2763427D02*
X+1647060Y+2786573D01*
X+1663427Y+2802940D01*
X+1686573Y+2802940D01*
X+1702940Y+2786573D01*
X+1702940Y+2763427D01*
X+1686573Y+2747060D01*
X+1663427Y+2747060D01*
X+1647060Y+2763427D01*
X+1352420Y+2763427D02*
X+1352420Y+2786573D01*
X+1368787Y+2802940D01*
X+1391933Y+2802940D01*
X+1408300Y+2786573D01*
X+1408300Y+2763427D01*
X+1391933Y+2747060D01*
X+1368787Y+2747060D01*
X+1352420Y+2763427D01*
X+1352420Y+2608487D02*
X+1352420Y+2631633D01*
X+1368787Y+2648000D01*
X+1391933Y+2648000D01*
X+1408300Y+2631633D01*
X+1408300Y+2608487D01*
X+1391933Y+2592120D01*
X+1368787Y+2592120D01*
X+1352420Y+2608487D01*
X+1352420Y+2461167D02*
X+1352420Y+2484313D01*
X+1368787Y+2500680D01*
X+1391933Y+2500680D01*
X+1408300Y+2484313D01*
X+1408300Y+2461167D01*
X+1391933Y+2444800D01*
X+1368787Y+2444800D01*
X+1352420Y+2461167D01*
X+1494660Y+2461167D02*
X+1494660Y+2484313D01*
X+1511027Y+2500680D01*
X+1534173Y+2500680D01*
X+1550540Y+2484313D01*
X+1550540Y+2461167D01*
X+1534173Y+2444800D01*
X+1511027Y+2444800D01*
X+1494660Y+2461167D01*
X+1644520Y+2461167D02*
X+1644520Y+2484313D01*
X+1660887Y+2500680D01*
X+1684033Y+2500680D01*
X+1700400Y+2484313D01*
X+1700400Y+2461167D01*
X+1684033Y+2444800D01*
X+1660887Y+2444800D01*
X+1644520Y+2461167D01*
X+1796920Y+2461167D02*
X+1796920Y+2484313D01*
X+1813287Y+2500680D01*
X+1836433Y+2500680D01*
X+1852800Y+2484313D01*
X+1852800Y+2461167D01*
X+1836433Y+2444800D01*
X+1813287Y+2444800D01*
X+1796920Y+2461167D01*
X+1944240Y+2461167D02*
X+1944240Y+2484313D01*
X+1960607Y+2500680D01*
X+1983753Y+2500680D01*
X+2000120Y+2484313D01*
X+2000120Y+2461167D01*
X+1983753Y+2444800D01*
X+1960607Y+2444800D01*
X+1944240Y+2461167D01*
X+1944240Y+2608487D02*
X+1944240Y+2631633D01*
X+1960607Y+2648000D01*
X+1983753Y+2648000D01*
X+2000120Y+2631633D01*
X+2000120Y+2608487D01*
X+1983753Y+2592120D01*
X+1960607Y+2592120D01*
X+1944240Y+2608487D01*
X+1944240Y+2763427D02*
X+1944240Y+2786573D01*
X+1960607Y+2802940D01*
X+1983753Y+2802940D01*
X+2000120Y+2786573D01*
X+2000120Y+2763427D01*
X+1983753Y+2747060D01*
X+1960607Y+2747060D01*
X+1944240Y+2763427D01*
X+1944240Y+2913287D02*
X+1944240Y+2936433D01*
X+1960607Y+2952800D01*
X+1983753Y+2952800D01*
X+2000120Y+2936433D01*
X+2000120Y+2913287D01*
X+1983753Y+2896920D01*
X+1960607Y+2896920D01*
X+1944240Y+2913287D01*
X+1352420Y+2910747D02*
X+1352420Y+2933893D01*
X+1368787Y+2950260D01*
X+1391933Y+2950260D01*
X+1408300Y+2933893D01*
X+1408300Y+2910747D01*
X+1391933Y+2894380D01*
X+1368787Y+2894380D01*
X+1352420Y+2910747D01*
X+1497200Y+2910747D02*
X+1497200Y+2933893D01*
X+1513567Y+2950260D01*
X+1536713Y+2950260D01*
X+1553080Y+2933893D01*
X+1553080Y+2910747D01*
X+1536713Y+2894380D01*
X+1513567Y+2894380D01*
X+1497200Y+2910747D01*
X+1647060Y+3063147D02*
X+1647060Y+3086293D01*
X+1663427Y+3102660D01*
X+1686573Y+3102660D01*
X+1702940Y+3086293D01*
X+1702940Y+3063147D01*
X+1686573Y+3046780D01*
X+1663427Y+3046780D01*
X+1647060Y+3063147D01*
X+1799460Y+3063147D02*
X+1799460Y+3086293D01*
X+1815827Y+3102660D01*
X+1838973Y+3102660D01*
X+1855340Y+3086293D01*
X+1855340Y+3063147D01*
X+1838973Y+3046780D01*
X+1815827Y+3046780D01*
X+1799460Y+3063147D01*
X+1944240Y+3063147D02*
X+1944240Y+3086293D01*
X+1960607Y+3102660D01*
X+1983753Y+3102660D01*
X+2000120Y+3086293D01*
X+2000120Y+3063147D01*
X+1983753Y+3046780D01*
X+1960607Y+3046780D01*
X+1944240Y+3063147D01*
X+1497200Y+3063147D02*
X+1497200Y+3086293D01*
X+1513567Y+3102660D01*
X+1536713Y+3102660D01*
X+1553080Y+3086293D01*
X+1553080Y+3063147D01*
X+1536713Y+3046780D01*
X+1513567Y+3046780D01*
X+1497200Y+3063147D01*
X+1873120Y+2435767D02*
X+1873120Y+2458913D01*
X+1889487Y+2475280D01*
X+1912633Y+2475280D01*
X+1929000Y+2458913D01*
X+1929000Y+2435767D01*
X+1912633Y+2419400D01*
X+1889487Y+2419400D01*
X+1873120Y+2435767D01*
X+1723260Y+2435767D02*
X+1723260Y+2458913D01*
X+1739627Y+2475280D01*
X+1762773Y+2475280D01*
X+1779140Y+2458913D01*
X+1779140Y+2435767D01*
X+1762773Y+2419400D01*
X+1739627Y+2419400D01*
X+1723260Y+2435767D01*
X+1570860Y+2435767D02*
X+1570860Y+2458913D01*
X+1587227Y+2475280D01*
X+1610373Y+2475280D01*
X+1626740Y+2458913D01*
X+1626740Y+2435767D01*
X+1610373Y+2419400D01*
X+1587227Y+2419400D01*
X+1570860Y+2435767D01*
X+1421000Y+2435767D02*
X+1421000Y+2458913D01*
X+1437367Y+2475280D01*
X+1460513Y+2475280D01*
X+1476880Y+2458913D01*
X+1476880Y+2435767D01*
X+1460513Y+2419400D01*
X+1437367Y+2419400D01*
X+1421000Y+2435767D01*
X+1321940Y+2537367D02*
X+1321940Y+2560513D01*
X+1338307Y+2576880D01*
X+1361453Y+2576880D01*
X+1377820Y+2560513D01*
X+1377820Y+2537367D01*
X+1361453Y+2521000D01*
X+1338307Y+2521000D01*
X+1321940Y+2537367D01*
X+1321940Y+2684687D02*
X+1321940Y+2707833D01*
X+1338307Y+2724200D01*
X+1361453Y+2724200D01*
X+1377820Y+2707833D01*
X+1377820Y+2684687D01*
X+1361453Y+2668320D01*
X+1338307Y+2668320D01*
X+1321940Y+2684687D01*
X+1321940Y+2839627D02*
X+1321940Y+2862773D01*
X+1338307Y+2879140D01*
X+1361453Y+2879140D01*
X+1377820Y+2862773D01*
X+1377820Y+2839627D01*
X+1361453Y+2823260D01*
X+1338307Y+2823260D01*
X+1321940Y+2839627D01*
X+1321940Y+2986947D02*
X+1321940Y+3010093D01*
X+1338307Y+3026460D01*
X+1361453Y+3026460D01*
X+1377820Y+3010093D01*
X+1377820Y+2986947D01*
X+1361453Y+2970580D01*
X+1338307Y+2970580D01*
X+1321940Y+2986947D01*
X+1352420Y+3063147D02*
X+1352420Y+3086293D01*
X+1368787Y+3102660D01*
X+1391933Y+3102660D01*
X+1408300Y+3086293D01*
X+1408300Y+3063147D01*
X+1391933Y+3046780D01*
X+1368787Y+3046780D01*
X+1352420Y+3063147D01*
X+1423540Y+3088547D02*
X+1423540Y+3111693D01*
X+1439907Y+3128060D01*
X+1463053Y+3128060D01*
X+1479420Y+3111693D01*
X+1479420Y+3088547D01*
X+1463053Y+3072180D01*
X+1439907Y+3072180D01*
X+1423540Y+3088547D01*
X+1573400Y+3088547D02*
X+1573400Y+3111693D01*
X+1589767Y+3128060D01*
X+1612913Y+3128060D01*
X+1629280Y+3111693D01*
X+1629280Y+3088547D01*
X+1612913Y+3072180D01*
X+1589767Y+3072180D01*
X+1573400Y+3088547D01*
X+1723260Y+3088547D02*
X+1723260Y+3111693D01*
X+1739627Y+3128060D01*
X+1762773Y+3128060D01*
X+1779140Y+3111693D01*
X+1779140Y+3088547D01*
X+1762773Y+3072180D01*
X+1739627Y+3072180D01*
X+1723260Y+3088547D01*
X+1873120Y+3088547D02*
X+1873120Y+3111693D01*
X+1889487Y+3128060D01*
X+1912633Y+3128060D01*
X+1929000Y+3111693D01*
X+1929000Y+3088547D01*
X+1912633Y+3072180D01*
X+1889487Y+3072180D01*
X+1873120Y+3088547D01*
X+1974720Y+2986947D02*
X+1974720Y+3010093D01*
X+1991087Y+3026460D01*
X+2014233Y+3026460D01*
X+2030600Y+3010093D01*
X+2030600Y+2986947D01*
X+2014233Y+2970580D01*
X+1991087Y+2970580D01*
X+1974720Y+2986947D01*
X+1974720Y+2837087D02*
X+1974720Y+2860233D01*
X+1991087Y+2876600D01*
X+2014233Y+2876600D01*
X+2030600Y+2860233D01*
X+2030600Y+2837087D01*
X+2014233Y+2820720D01*
X+1991087Y+2820720D01*
X+1974720Y+2837087D01*
X+1974720Y+2684687D02*
X+1974720Y+2707833D01*
X+1991087Y+2724200D01*
X+2014233Y+2724200D01*
X+2030600Y+2707833D01*
X+2030600Y+2684687D01*
X+2014233Y+2668320D01*
X+1991087Y+2668320D01*
X+1974720Y+2684687D01*
X+1974720Y+2537367D02*
X+1974720Y+2560513D01*
X+1991087Y+2576880D01*
X+2014233Y+2576880D01*
X+2030600Y+2560513D01*
X+2030600Y+2537367D01*
X+2014233Y+2521000D01*
X+1991087Y+2521000D01*
X+1974720Y+2537367D01*
X-2677940Y-86573D02*
X-2677940Y-63427D01*
X-2661573Y-47060D01*
X-2638427Y-47060D01*
X-2622060Y-63427D01*
X-2622060Y-86573D01*
X-2638427Y-102940D01*
X-2661573Y-102940D01*
X-2677940Y-86573D01*
X-2902940Y-761573D02*
X-2902940Y-738427D01*
X-2886573Y-722060D01*
X-2863427Y-722060D01*
X-2847060Y-738427D01*
X-2847060Y-761573D01*
X-2863427Y-777940D01*
X-2886573Y-777940D01*
X-2902940Y-761573D01*
X-2977940Y-686573D02*
X-2977940Y-663427D01*
X-2961573Y-647060D01*
X-2938427Y-647060D01*
X-2922060Y-663427D01*
X-2922060Y-686573D01*
X-2938427Y-702940D01*
X-2961573Y-702940D01*
X-2977940Y-686573D01*
X-2802940Y+38427D02*
X-2802940Y+61573D01*
X-2786573Y+77940D01*
X-2763427Y+77940D01*
X-2747060Y+61573D01*
X-2747060Y+38427D01*
X-2763427Y+22060D01*
X-2786573Y+22060D01*
X-2802940Y+38427D01*
X-3102940Y-561573D02*
X-3102940Y-538427D01*
X-3086573Y-522060D01*
X-3063427Y-522060D01*
X-3047060Y-538427D01*
X-3047060Y-561573D01*
X-3063427Y-577940D01*
X-3086573Y-577940D01*
X-3102940Y-561573D01*
X-2777940Y-886573D02*
X-2777940Y-863427D01*
X-2761573Y-847060D01*
X-2738427Y-847060D01*
X-2722060Y-863427D01*
X-2722060Y-886573D01*
X-2738427Y-902940D01*
X-2761573Y-902940D01*
X-2777940Y-886573D01*
X+3041439Y+4437875D02*
X+3041439Y+4362125D01*
X+3004314Y+4325000D01*
X+3041439Y+4287875D01*
X+3041439Y+4212125D01*
X+3004314Y+4175000D01*
X+3041439Y+4137875D01*
X+3041439Y+4062125D01*
X+3004314Y+4025000D01*
X+3041439Y+3987875D01*
X+3041439Y+3912125D01*
X+3004314Y+3875000D01*
X+3041439Y+3837875D01*
X+3041439Y+3762125D01*
X+3004314Y+3725000D01*
X+3041439Y+3687875D01*
X+3041439Y+3612125D01*
X+3004314Y+3575000D01*
X+3041439Y+3537875D01*
X+3041439Y+3462125D01*
X+3004314Y+3425000D01*
X+3041439Y+3387875D01*
X+3041439Y+3237125D01*
X+2987875Y+3183561D01*
X+2966439Y+3183561D01*
X+2966439Y+3162125D01*
X+2912875Y+3108561D01*
X+2837125Y+3108561D01*
X+2783561Y+3162125D01*
X+2783561Y+3237875D01*
X+2837125Y+3291439D01*
X+2858561Y+3291439D01*
X+2858561Y+3387875D01*
X+2895686Y+3425000D01*
X+2858561Y+3462125D01*
X+2858561Y+3537875D01*
X+2895686Y+3575000D01*
X+2858561Y+3612125D01*
X+2858561Y+3687875D01*
X+2895686Y+3725000D01*
X+2858561Y+3762125D01*
X+2858561Y+3837875D01*
X+2895686Y+3875000D01*
X+2858561Y+3912125D01*
X+2858561Y+3987875D01*
X+2895686Y+4025000D01*
X+2858561Y+4062125D01*
X+2858561Y+4137875D01*
X+2895686Y+4175000D01*
X+2858561Y+4212125D01*
X+2858561Y+4287875D01*
X+2895686Y+4325000D01*
X+2858561Y+4362125D01*
X+2858561Y+4437875D01*
X+2912125Y+4491439D01*
X+2987875Y+4491439D01*
X+3041439Y+4437875D01*
X+5308561Y+4112125D02*
X+5308561Y+4187875D01*
X+5362125Y+4241439D01*
X+5437875Y+4241439D01*
X+5491439Y+4187875D01*
X+5491439Y+4112125D01*
X+5437875Y+4058561D01*
X+5362125Y+4058561D01*
X+5308561Y+4112125D01*
X+5308561Y+6437125D02*
X+5308561Y+6512875D01*
X+5362125Y+6566439D01*
X+5437875Y+6566439D01*
X+5491439Y+6512875D01*
X+5491439Y+6437125D01*
X+5437875Y+6383561D01*
X+5362125Y+6383561D01*
X+5308561Y+6437125D01*
X+5308561Y+6187125D02*
X+5308561Y+6262875D01*
X+5362125Y+6316439D01*
X+5437875Y+6316439D01*
X+5491439Y+6262875D01*
X+5491439Y+6187125D01*
X+5437875Y+6133561D01*
X+5362125Y+6133561D01*
X+5308561Y+6187125D01*
X+5308561Y+5937125D02*
X+5308561Y+6012875D01*
X+5362125Y+6066439D01*
X+5437875Y+6066439D01*
X+5491439Y+6012875D01*
X+5491439Y+5937125D01*
X+5437875Y+5883561D01*
X+5362125Y+5883561D01*
X+5308561Y+5937125D01*
X+5308561Y+5687125D02*
X+5308561Y+5762875D01*
X+5362125Y+5816439D01*
X+5437875Y+5816439D01*
X+5491439Y+5762875D01*
X+5491439Y+5687125D01*
X+5437875Y+5633561D01*
X+5362125Y+5633561D01*
X+5308561Y+5687125D01*
X+5308561Y+5437125D02*
X+5308561Y+5512875D01*
X+5362125Y+5566439D01*
X+5437875Y+5566439D01*
X+5491439Y+5512875D01*
X+5491439Y+5437125D01*
X+5437875Y+5383561D01*
X+5362125Y+5383561D01*
X+5308561Y+5437125D01*
X+5308561Y+5162125D02*
X+5308561Y+5237875D01*
X+5362125Y+5291439D01*
X+5437875Y+5291439D01*
X+5491439Y+5237875D01*
X+5491439Y+5162125D01*
X+5437875Y+5108561D01*
X+5362125Y+5108561D01*
X+5308561Y+5162125D01*
X+5308561Y+4887125D02*
X+5308561Y+4962875D01*
X+5362125Y+5016439D01*
X+5437875Y+5016439D01*
X+5491439Y+4962875D01*
X+5491439Y+4887125D01*
X+5437875Y+4833561D01*
X+5362125Y+4833561D01*
X+5308561Y+4887125D01*
X+5308561Y+4637125D02*
X+5308561Y+4712875D01*
X+5362125Y+4766439D01*
X+5437875Y+4766439D01*
X+5491439Y+4712875D01*
X+5491439Y+4637125D01*
X+5437875Y+4583561D01*
X+5362125Y+4583561D01*
X+5308561Y+4637125D01*
X+5308561Y+4387125D02*
X+5308561Y+4462875D01*
X+5362125Y+4516439D01*
X+5437875Y+4516439D01*
X+5491439Y+4462875D01*
X+5491439Y+4387125D01*
X+5437875Y+4333561D01*
X+5362125Y+4333561D01*
X+5308561Y+4387125D01*
X+4572060Y+4488427D02*
X+4572060Y+4511573D01*
X+4588427Y+4527940D01*
X+4611573Y+4527940D01*
X+4627940Y+4511573D01*
X+4627940Y+4488427D01*
X+4611573Y+4472060D01*
X+4588427Y+4472060D01*
X+4572060Y+4488427D01*
X+3182060Y+3413427D02*
X+3182060Y+3436573D01*
X+3198427Y+3452940D01*
X+3221573Y+3452940D01*
X+3237940Y+3436573D01*
X+3237940Y+3413427D01*
X+3221573Y+3397060D01*
X+3198427Y+3397060D01*
X+3182060Y+3413427D01*
X+3182060Y+3563427D02*
X+3182060Y+3586573D01*
X+3198427Y+3602940D01*
X+3221573Y+3602940D01*
X+3237940Y+3586573D01*
X+3237940Y+3563427D01*
X+3221573Y+3547060D01*
X+3198427Y+3547060D01*
X+3182060Y+3563427D01*
X+3182060Y+3713427D02*
X+3182060Y+3736573D01*
X+3198427Y+3752940D01*
X+3221573Y+3752940D01*
X+3237940Y+3736573D01*
X+3237940Y+3713427D01*
X+3221573Y+3697060D01*
X+3198427Y+3697060D01*
X+3182060Y+3713427D01*
X+3182060Y+4013427D02*
X+3182060Y+4036573D01*
X+3198427Y+4052940D01*
X+3221573Y+4052940D01*
X+3237940Y+4036573D01*
X+3237940Y+4013427D01*
X+3221573Y+3997060D01*
X+3198427Y+3997060D01*
X+3182060Y+4013427D01*
X+3182060Y+3863427D02*
X+3182060Y+3886573D01*
X+3198427Y+3902940D01*
X+3221573Y+3902940D01*
X+3237940Y+3886573D01*
X+3237940Y+3863427D01*
X+3221573Y+3847060D01*
X+3198427Y+3847060D01*
X+3182060Y+3863427D01*
X+3182060Y+4163427D02*
X+3182060Y+4186573D01*
X+3198427Y+4202940D01*
X+3221573Y+4202940D01*
X+3237940Y+4186573D01*
X+3237940Y+4163427D01*
X+3221573Y+4147060D01*
X+3198427Y+4147060D01*
X+3182060Y+4163427D01*
X+3182060Y+4463427D02*
X+3182060Y+4486573D01*
X+3198427Y+4502940D01*
X+3221573Y+4502940D01*
X+3237940Y+4486573D01*
X+3237940Y+4463427D01*
X+3221573Y+4447060D01*
X+3198427Y+4447060D01*
X+3182060Y+4463427D01*
X+3182060Y+4313427D02*
X+3182060Y+4336573D01*
X+3198427Y+4352940D01*
X+3221573Y+4352940D01*
X+3237940Y+4336573D01*
X+3237940Y+4313427D01*
X+3221573Y+4297060D01*
X+3198427Y+4297060D01*
X+3182060Y+4313427D01*
X+3182060Y+3263427D02*
X+3182060Y+3286573D01*
X+3198427Y+3302940D01*
X+3221573Y+3302940D01*
X+3237940Y+3286573D01*
X+3237940Y+3263427D01*
X+3221573Y+3247060D01*
X+3198427Y+3247060D01*
X+3182060Y+3263427D01*
X+3416439Y+3162875D02*
X+3416439Y+3087125D01*
X+3362875Y+3033561D01*
X+3287125Y+3033561D01*
X+3233561Y+3087125D01*
X+3233561Y+3109048D01*
X+3221573Y+3097060D01*
X+3198427Y+3097060D01*
X+3182060Y+3113427D01*
X+3182060Y+3136573D01*
X+3198427Y+3152940D01*
X+3221573Y+3152940D01*
X+3233561Y+3140952D01*
X+3233561Y+3162875D01*
X+3287125Y+3216439D01*
X+3362875Y+3216439D01*
X+3416439Y+3162875D01*
X+2666439Y+2687875D02*
X+2666439Y+2612125D01*
X+2629314Y+2575000D01*
X+2666439Y+2537875D01*
X+2666439Y+2462125D01*
X+2612875Y+2408561D01*
X+2537125Y+2408561D01*
X+2483561Y+2462125D01*
X+2483561Y+2537875D01*
X+2520686Y+2575000D01*
X+2483561Y+2612125D01*
X+2483561Y+2687875D01*
X+2537125Y+2741439D01*
X+2612875Y+2741439D01*
X+2666439Y+2687875D01*
X+5510161Y+4020925D02*
X+5510161Y+4096675D01*
X+5563725Y+4150239D01*
X+5639475Y+4150239D01*
X+5693039Y+4096675D01*
X+5693039Y+4020925D01*
X+5639475Y+3967361D01*
X+5563725Y+3967361D01*
X+5510161Y+4020925D01*
X+4258561Y+3912125D02*
X+4258561Y+3987875D01*
X+4312125Y+4041439D01*
X+4387875Y+4041439D01*
X+4441439Y+3987875D01*
X+4441439Y+3912125D01*
X+4387875Y+3858561D01*
X+4312125Y+3858561D01*
X+4258561Y+3912125D01*
X+3441439Y+4137875D02*
X+3441439Y+4062125D01*
X+3420753Y+4041439D01*
X+3462875Y+4041439D01*
X+3516439Y+3987875D01*
X+3516439Y+3912125D01*
X+3462875Y+3858561D01*
X+3387125Y+3858561D01*
X+3333561Y+3912125D01*
X+3333561Y+3987875D01*
X+3354247Y+4008561D01*
X+3312125Y+4008561D01*
X+3258561Y+4062125D01*
X+3258561Y+4137875D01*
X+3312125Y+4191439D01*
X+3387875Y+4191439D01*
X+3441439Y+4137875D01*
X+147060Y+4088427D02*
X+147060Y+4111573D01*
X+163427Y+4127940D01*
X+186573Y+4127940D01*
X+202940Y+4111573D01*
X+202940Y+4088427D01*
X+186573Y+4072060D01*
X+163427Y+4072060D01*
X+147060Y+4088427D01*
X+147060Y+3313427D02*
X+147060Y+3336573D01*
X+163427Y+3352940D01*
X+186573Y+3352940D01*
X+202940Y+3336573D01*
X+202940Y+3313427D01*
X+186573Y+3297060D01*
X+163427Y+3297060D01*
X+147060Y+3313427D01*
X+716439Y+2612875D02*
X+716439Y+2537125D01*
X+662875Y+2483561D01*
X+641439Y+2483561D01*
X+641439Y+2462125D01*
X+587875Y+2408561D01*
X+512125Y+2408561D01*
X+458561Y+2462125D01*
X+458561Y+2537875D01*
X+512125Y+2591439D01*
X+533561Y+2591439D01*
X+533561Y+2612875D01*
X+587125Y+2666439D01*
X+662875Y+2666439D01*
X+716439Y+2612875D01*
X-52940Y+2363427D02*
X-52940Y+2386573D01*
X-36573Y+2402940D01*
X-13427Y+2402940D01*
X+2940Y+2386573D01*
X+2940Y+2363427D01*
X-13427Y+2347060D01*
X-36573Y+2347060D01*
X-52940Y+2363427D01*
X-1441439Y+1962125D02*
X-1441439Y+2037875D01*
X-1387875Y+2091439D01*
X-1312125Y+2091439D01*
X-1258561Y+2037875D01*
X-1258561Y+1962125D01*
X-1312125Y+1908561D01*
X-1387875Y+1908561D01*
X-1441439Y+1962125D01*
X+1022060Y+1963427D02*
X+1022060Y+1986573D01*
X+1038427Y+2002940D01*
X+1061573Y+2002940D01*
X+1077940Y+1986573D01*
X+1077940Y+1963427D01*
X+1061573Y+1947060D01*
X+1038427Y+1947060D01*
X+1022060Y+1963427D01*
X+333561Y-312875D02*
X+333561Y-237125D01*
X+387125Y-183561D01*
X+462875Y-183561D01*
X+516439Y-237125D01*
X+516439Y-312875D01*
X+462875Y-366439D01*
X+387125Y-366439D01*
X+333561Y-312875D01*
X+1341439Y+1287875D02*
X+1341439Y+1212125D01*
X+1287875Y+1158561D01*
X+1212125Y+1158561D01*
X+1167600Y+1203086D01*
X+1161573Y+1197060D01*
X+1138427Y+1197060D01*
X+1122060Y+1213427D01*
X+1122060Y+1236573D01*
X+1138427Y+1252940D01*
X+1158561Y+1252940D01*
X+1158561Y+1287875D01*
X+1212125Y+1341439D01*
X+1287875Y+1341439D01*
X+1341439Y+1287875D01*
X+4733561Y+4087125D02*
X+4733561Y+4162875D01*
X+4787125Y+4216439D01*
X+4862875Y+4216439D01*
X+4916439Y+4162875D01*
X+4916439Y+4087125D01*
X+4862875Y+4033561D01*
X+4787125Y+4033561D01*
X+4733561Y+4087125D01*
X+1508561Y+5462125D02*
X+1508561Y+5537875D01*
X+1562125Y+5591439D01*
X+1637875Y+5591439D01*
X+1691439Y+5537875D01*
X+1691439Y+5462125D01*
X+1637875Y+5408561D01*
X+1562125Y+5408561D01*
X+1508561Y+5462125D01*
X+2308561Y+5487125D02*
X+2308561Y+5562875D01*
X+2362125Y+5616439D01*
X+2437875Y+5616439D01*
X+2491439Y+5562875D01*
X+2491439Y+5487125D01*
X+2437875Y+5433561D01*
X+2362125Y+5433561D01*
X+2308561Y+5487125D01*
X+2447060Y+2563427D02*
X+2447060Y+2586573D01*
X+2463427Y+2602940D01*
X+2486573Y+2602940D01*
X+2502940Y+2586573D01*
X+2502940Y+2563427D01*
X+2486573Y+2547060D01*
X+2463427Y+2547060D01*
X+2447060Y+2563427D01*
X+2197060Y+2588427D02*
X+2197060Y+2611573D01*
X+2213427Y+2627940D01*
X+2236573Y+2627940D01*
X+2252940Y+2611573D01*
X+2252940Y+2588427D01*
X+2236573Y+2572060D01*
X+2213427Y+2572060D01*
X+2197060Y+2588427D01*
X+6304000Y+4380040D02*
X+6304000Y+4314000D01*
X+6304000Y+4247960D02*
X+6304000Y+4314000D01*
X+6237960Y+4314000D02*
X+6304000Y+4314000D01*
X+6370040Y+4314000D02*
X+6304000Y+4314000D01*
X+6304000Y+4634040D02*
X+6304000Y+4568000D01*
X+6304000Y+4501960D02*
X+6304000Y+4568000D01*
X+6237960Y+4568000D02*
X+6304000Y+4568000D01*
X+6370040Y+4568000D02*
X+6304000Y+4568000D01*
X+6304000Y+4888040D02*
X+6304000Y+4822000D01*
X+6304000Y+4755960D02*
X+6304000Y+4822000D01*
X+6237960Y+4822000D02*
X+6304000Y+4822000D01*
X+6370040Y+4822000D02*
X+6304000Y+4822000D01*
X+6304000Y+5142040D02*
X+6304000Y+5076000D01*
X+6304000Y+5009960D02*
X+6304000Y+5076000D01*
X+6237960Y+5076000D02*
X+6304000Y+5076000D01*
X+6370040Y+5076000D02*
X+6304000Y+5076000D01*
X+6304000Y+5396040D02*
X+6304000Y+5330000D01*
X+6304000Y+5263960D02*
X+6304000Y+5330000D01*
X+6237960Y+5330000D02*
X+6304000Y+5330000D01*
X+6370040Y+5330000D02*
X+6304000Y+5330000D01*
X+6304000Y+5650040D02*
X+6304000Y+5584000D01*
X+6304000Y+5517960D02*
X+6304000Y+5584000D01*
X+6237960Y+5584000D02*
X+6304000Y+5584000D01*
X+6370040Y+5584000D02*
X+6304000Y+5584000D01*
X+6304000Y+5904040D02*
X+6304000Y+5838000D01*
X+6304000Y+5771960D02*
X+6304000Y+5838000D01*
X+6237960Y+5838000D02*
X+6304000Y+5838000D01*
X+6370040Y+5838000D02*
X+6304000Y+5838000D01*
X+6304000Y+6158040D02*
X+6304000Y+6092000D01*
X+6304000Y+6025960D02*
X+6304000Y+6092000D01*
X+6237960Y+6092000D02*
X+6304000Y+6092000D01*
X+6370040Y+6092000D02*
X+6304000Y+6092000D01*
X+6304000Y+6412040D02*
X+6304000Y+6346000D01*
X+6304000Y+6279960D02*
X+6304000Y+6346000D01*
X+6237960Y+6346000D02*
X+6304000Y+6346000D01*
X+6370040Y+6346000D02*
X+6304000Y+6346000D01*
X+6304000Y+6666040D02*
X+6304000Y+6600000D01*
X+6304000Y+6533960D02*
X+6304000Y+6600000D01*
X+6237960Y+6600000D02*
X+6304000Y+6600000D01*
X+6370040Y+6600000D02*
X+6304000Y+6600000D01*
X+3578480Y+6775000D02*
X+3675000Y+6775000D01*
X+3771520Y+6775000D02*
X+3675000Y+6775000D01*
X+3675000Y+6678480D02*
X+3675000Y+6775000D01*
X+3675000Y+6871520D02*
X+3675000Y+6775000D01*
X-2762040Y+6375000D02*
X-2696000Y+6375000D01*
X-2629960Y+6375000D02*
X-2696000Y+6375000D01*
X-2696000Y+6308960D02*
X-2696000Y+6375000D01*
X-2696000Y+6441040D02*
X-2696000Y+6375000D01*
X+150000Y+4440240D02*
X+150000Y+4425000D01*
X+150000Y+4409760D02*
X+150000Y+4425000D01*
X+134760Y+4425000D02*
X+150000Y+4425000D01*
X+165240Y+4425000D02*
X+150000Y+4425000D01*
D21*
X-3850000Y-1050000D03*
X-3850000Y+6550000D03*
X+4900000Y+6550000D03*
X+4900000Y-1050000D03*
D25*
X-3500000Y-400000D03*
X-3500000Y-50000D03*
X-3500000Y+300000D03*
X-3500000Y+650000D03*
X-3500000Y+1000000D03*
X-3500000Y+1350000D03*
X-3500000Y+1700000D03*
X-3500000Y+2050000D03*
X-3500000Y+2400000D03*
X-3500000Y+2750000D03*
X-3500000Y+3100000D03*
X-3500000Y+3450000D03*
X-3500000Y+3800000D03*
X-3500000Y+4150000D03*
X-3500000Y+4500000D03*
X-3500000Y+4850000D03*
X-3500000Y+5200000D03*
X-3500000Y+5550000D03*
X-3500000Y+5900000D03*
D32*
X+6050000Y+6600000D03*
X+6050000Y+6346000D03*
X+6050000Y+6092000D03*
X+6050000Y+5838000D03*
X+6050000Y+5584000D03*
X+6050000Y+5330000D03*
X+6050000Y+5076000D03*
X+6050000Y+4822000D03*
X+6050000Y+4568000D03*
X+6050000Y+4314000D03*
X+6304000Y+4314000D03*
X+6304000Y+4568000D03*
X+6304000Y+4822000D03*
X+6304000Y+5076000D03*
X+6304000Y+5330000D03*
X+6304000Y+5584000D03*
X+6304000Y+5838000D03*
X+6304000Y+6092000D03*
X+6304000Y+6346000D03*
X+6304000Y+6600000D03*
D36*
X+2400000Y+2075000D03*
X+2750000Y+2075000D03*
X+2575000Y+2075000D03*
X+3000000Y+1025000D03*
X+3000000Y+1175000D03*
D37*
X+3675000Y+6775000D03*
D32*
X+3500000Y+6000000D03*
X+3754000Y+6000000D03*
D37*
X+2475000Y+6775000D03*
D32*
X-2950000Y+6375000D03*
X-2696000Y+6375000D03*
D48*
X+2175000Y+4275000D03*
X+2268980Y+4084500D03*
X+2081020Y+4084500D03*
X+2500000Y+4325000D03*
X+2593980Y+4134500D03*
X+2406020Y+4134500D03*
X+1675000Y+4275000D03*
X+1768980Y+4084500D03*
X+1581020Y+4084500D03*
X+1050000Y+4500000D03*
X+1143980Y+4309500D03*
X+956020Y+4309500D03*
X+1100000Y+4025000D03*
X+1193980Y+3834500D03*
X+1006020Y+3834500D03*
D49*
X+625000Y+3825000D03*
X+815500Y+3918980D03*
X+815500Y+3731020D03*
X+150000Y+3175000D03*
X+340500Y+3268980D03*
X+340500Y+3081020D03*
X-250000Y+3425000D03*
X-59500Y+3518980D03*
X-59500Y+3331020D03*
X-75000Y+2700000D03*
X+115500Y+2793980D03*
X+115500Y+2606020D03*
D50*
X+150000Y+4425000D03*
X+600000Y+4425000D03*
D28*
X+2485000Y+4950000D03*
X+2325000Y+4950000D03*
X+1675000Y+4950000D03*
X+1515000Y+4950000D03*
X+875000Y+4950000D03*
X+715000Y+4950000D03*
X+75000Y+4950000D03*
X-85000Y+4950000D03*
D29*
X-450000Y+4700000D03*
X-450000Y+4540000D03*
X-450000Y+4150000D03*
X-450000Y+3990000D03*
X-450000Y+3650000D03*
X-450000Y+3490000D03*
X-450000Y+3175000D03*
X-450000Y+3015000D03*
X-450000Y+2625000D03*
X-450000Y+2465000D03*
X-450000Y+1800000D03*
X-450000Y+1640000D03*
D28*
X-125000Y+925000D03*
X+35000Y+925000D03*
X+390000Y+925000D03*
X+550000Y+925000D03*
X+1000000Y+925000D03*
X+1160000Y+925000D03*
X+1525000Y+925000D03*
X+1685000Y+925000D03*
X+1900000Y+925000D03*
X+2060000Y+925000D03*
X+2275000Y+925000D03*
X+2435000Y+925000D03*
D46*
X+6675000Y-1103200D02*
X+6675000Y-950800D01*
X+6802000Y-950800D01*
X+6827400Y-976200D01*
X+6827400Y-1001600D01*
X+6802000Y-1027000D01*
X+6827400Y-1052400D01*
X+6827400Y-1077800D01*
X+6802000Y-1103200D01*
X+6675000Y-1103200D01*
X+6675000Y-1027000D02*
X+6802000Y-1027000D01*
D47*
X-4450000Y-1650000D02*
X+7000000Y-1650000D01*
X+7000000Y+7150000D01*
X-4450000Y+7150000D01*
X-4450000Y-1650000D01*
X+5641340Y+2554820D02*
X+5663332Y+2550509D01*
X+5681067Y+2538667D01*
X+5692909Y+2520932D01*
X+5697220Y+2498940D01*
X+5641340Y+2554820D02*
X+5619348Y+2550509D01*
X+5601613Y+2538667D01*
X+5589771Y+2520932D01*
X+5585460Y+2498940D01*
X+5641340Y+652360D02*
X+5619348Y+656671D01*
X+5601613Y+668513D01*
X+5589771Y+686248D01*
X+5585460Y+708240D01*
X+5641340Y+652360D02*
X+5663332Y+656671D01*
X+5681067Y+668513D01*
X+5692909Y+686248D01*
X+5697220Y+708240D01*
X+5585460Y+705700D02*
X+5585460Y+2498940D01*
X+5697220Y+2498940D02*
X+5697220Y+708240D01*
M02*
