G04 PROTEUS GERBER X2 FILE*
%TF.GenerationSoftware,Labcenter,Proteus,8.11-SP1-Build30228*%
%TF.CreationDate,2022-02-22T19:14:10+00:00*%
%TF.FileFunction,Plated,1,4,PTH*%
%TF.FilePolarity,Positive*%
%TF.Part,Single*%
%TF.SameCoordinates,{6c2897ae-c00c-46c9-bae6-367ef81e3b77}*%
%FSLAX45Y45*%
%MOMM*%
G01*
%TA.AperFunction,ViaDrill*%
%ADD166C,0.254000*%
%TA.AperFunction,OtherDrill,Unknown*%
%ADD167C,4.749800*%
%TA.AperFunction,ComponentDrill*%
%ADD168C,1.397000*%
%TA.AperFunction,ComponentDrill*%
%ADD169C,1.016000*%
%TA.AperFunction,OtherDrill,Unknown*%
%ADD170C,0.762000*%
%TA.AperFunction,ComponentDrill*%
%ADD171C,1.625600*%
%TD.AperFunction*%
D166*
X+2875000Y+2950000D03*
X+2825000Y+2875000D03*
X+2825000Y+2575000D03*
X+2825000Y+2725000D03*
X+2875000Y+2800000D03*
X+2875000Y+2650000D03*
X+2875000Y+2500000D03*
X+2350000Y+1819165D03*
X+2350000Y+1780835D03*
X+2450000Y+1800000D03*
X+2825000Y+2325000D03*
X+2825000Y+2280835D03*
X+2925000Y+2300000D03*
X+3025673Y+2324327D03*
X+3025000Y+2275000D03*
X+4013449Y+2075000D03*
X+4013449Y+2225000D03*
X+4213449Y+2150000D03*
X+4138449Y+2075000D03*
X+4138449Y+2225000D03*
X+4010040Y+975000D03*
X+4010040Y+1125000D03*
X+4135040Y+1125000D03*
X+4135040Y+975000D03*
X+4210040Y+1050000D03*
X+2225000Y+2800000D03*
X+2475000Y+2875000D03*
X+2225000Y+3050000D03*
X+2225000Y+3150000D03*
X+2550000Y+1800000D03*
X+1150000Y+1875000D03*
X+875000Y+1475000D03*
X+725000Y+1475000D03*
X+1225000Y+1950000D03*
X+625000Y+2200000D03*
X+650000Y+1975000D03*
X+550000Y+2125000D03*
X+525000Y+1975000D03*
X+525000Y+2775000D03*
X-1350000Y+3600000D03*
X-300000Y+3200000D03*
X+675000Y+3175000D03*
X+450000Y+3275000D03*
X+750000Y+3100000D03*
X+450000Y+3400000D03*
X+1050000Y+3625000D03*
X+900000Y+3775000D03*
X+1250000Y+3725000D03*
X+1175000Y+3925000D03*
X+1325000Y+3650000D03*
X+1000000Y+3925000D03*
X+1725000Y+3875000D03*
X+2400000Y+3350000D03*
X+2550000Y+3450000D03*
X+2250000Y+4175000D03*
X+2025000Y+3925000D03*
X+2250000Y+3900000D03*
X+2425000Y+4050000D03*
X+2175000Y+3825000D03*
X+2025000Y+3825000D03*
X+1150000Y+1475000D03*
X+1350000Y+1725000D03*
X+1425000Y+1800000D03*
X+1050000Y+1475000D03*
X+1775000Y+1475000D03*
X+1775000Y+1675000D03*
X+1750000Y+2225000D03*
X+1950000Y+1475000D03*
X+1575000Y+1975000D03*
X+1350000Y+1475000D03*
X+1550000Y+2225000D03*
X+1450000Y+1475000D03*
X-375000Y-275000D03*
X-375000Y+750000D03*
X+1225000Y-275000D03*
X+1550000Y+400000D03*
X+2025000Y-300000D03*
X+2025000Y+400000D03*
X+1900000Y+2225000D03*
X+2275000Y+1475000D03*
X+850000Y+4800000D03*
X+0Y+5500000D03*
X-1350000Y+400000D03*
X-650000Y+1050000D03*
X-1350000Y+1200000D03*
X-650000Y+1200000D03*
X-1350000Y+2800000D03*
X-300000Y+2900102D03*
X-1350000Y+5200000D03*
X-625000Y+4000000D03*
X-1350000Y+4400000D03*
X-625000Y+3875000D03*
X+2800000Y+5525000D03*
X+2575000Y+3950000D03*
X+375000Y+3850000D03*
X+900000Y+3650000D03*
X+1000000Y+4225000D03*
X+1525000Y+3800000D03*
X+1450000Y+3875000D03*
X+1100000Y+4225000D03*
X+1700000Y+3950000D03*
X+1750000Y+4175000D03*
X+825000Y+5500000D03*
X+950000Y+4800000D03*
X+2675000Y+1975000D03*
X+2225000Y+2900000D03*
X+1675000Y+2922320D03*
X+1827400Y+2922320D03*
X+1827400Y+2772460D03*
X+1827400Y+2620060D03*
X+1675000Y+2620060D03*
X+1522600Y+2620060D03*
X+1520060Y+2775000D03*
X+1675000Y+2775000D03*
X+1380360Y+2775000D03*
X+1380360Y+2620060D03*
X+1380360Y+2472740D03*
X+1522600Y+2472740D03*
X+1672460Y+2472740D03*
X+1824860Y+2472740D03*
X+1972180Y+2472740D03*
X+1972180Y+2620060D03*
X+1972180Y+2775000D03*
X+1972180Y+2924860D03*
X+1380360Y+2922320D03*
X+1525140Y+2922320D03*
X+1675000Y+3074720D03*
X+1827400Y+3074720D03*
X+1972180Y+3074720D03*
X+1525140Y+3074720D03*
X+1901060Y+2447340D03*
X+1751200Y+2447340D03*
X+1598800Y+2447340D03*
X+1448940Y+2447340D03*
X+1349880Y+2548940D03*
X+1349880Y+2696260D03*
X+1349880Y+2851200D03*
X+1349880Y+2998520D03*
X+1380360Y+3074720D03*
X+1451480Y+3100120D03*
X+1601340Y+3100120D03*
X+1751200Y+3100120D03*
X+1901060Y+3100120D03*
X+2002660Y+2998520D03*
X+2002660Y+2848660D03*
X+2002660Y+2696260D03*
X+2002660Y+2548940D03*
X-2650000Y-75000D03*
X-2875000Y-750000D03*
X-2950000Y-675000D03*
X-2775000Y+50000D03*
X-3075000Y-550000D03*
X-2750000Y-875000D03*
X+2875000Y+3200000D03*
X+5400000Y+4150000D03*
X+5400000Y+6475000D03*
X+2950000Y+4400000D03*
X+5400000Y+6225000D03*
X+2950000Y+4250000D03*
X+5400000Y+5975000D03*
X+2950000Y+4100000D03*
X+5400000Y+5725000D03*
X+2950000Y+3950000D03*
X+5400000Y+5475000D03*
X+2950000Y+3800000D03*
X+5400000Y+5200000D03*
X+2950000Y+3650000D03*
X+5400000Y+4925000D03*
X+2950000Y+3500000D03*
X+5400000Y+4675000D03*
X+2950000Y+3350000D03*
X+5400000Y+4425000D03*
X+2950000Y+3275000D03*
X+4600000Y+4500000D03*
X+3210000Y+3425000D03*
X+3210000Y+3575000D03*
X+3210000Y+3725000D03*
X+3210000Y+4025000D03*
X+3210000Y+3875000D03*
X+3210000Y+4175000D03*
X+3210000Y+4475000D03*
X+3210000Y+4325000D03*
X+3210000Y+3275000D03*
X+3210000Y+3125000D03*
X+2575000Y+2650000D03*
X+5601600Y+4058800D03*
X+2575000Y+2500000D03*
X+4350000Y+3950000D03*
X+3350000Y+4100000D03*
X+3425000Y+3950000D03*
X+1675024Y+4608924D03*
X+175000Y+4100000D03*
X+1125000Y+3500000D03*
X+900000Y+3875000D03*
X+650000Y+3000000D03*
X+50000Y+3350000D03*
X+550000Y+3000000D03*
X+25000Y+3500000D03*
X+175000Y+3325000D03*
X+450000Y+2725000D03*
X+200000Y+2775000D03*
X+625000Y+2575000D03*
X+550000Y+2500000D03*
X+200000Y+2500000D03*
X+200000Y+2375000D03*
X-25000Y+2375000D03*
X-1350000Y+2000000D03*
X-650000Y+2075000D03*
X+1050000Y+1975000D03*
X+425000Y-275000D03*
X+850000Y+400000D03*
X+1250000Y+1250000D03*
X+1275000Y+1500000D03*
X+1150000Y+1225000D03*
X+1925000Y+1675000D03*
X+2100000Y+1475000D03*
X+2300000Y+1575000D03*
X+4825000Y+4125000D03*
X+3325000Y+3125000D03*
X+1600000Y+5500000D03*
X+1600000Y+4825000D03*
X+2250000Y+4675000D03*
X+2125000Y+4175000D03*
X+1625000Y+4175000D03*
X+2550000Y+4050000D03*
X+200000Y+2650000D03*
X+2150000Y+925000D03*
X+1800000Y+925000D03*
X+1350000Y+925000D03*
X+700000Y+925000D03*
X-450000Y+1000000D03*
X-450000Y+2225000D03*
X-450000Y+2800000D03*
X-350000Y+3500000D03*
X-450000Y+3775000D03*
X-450000Y+4350000D03*
X+575000Y+4900000D03*
X+2000000Y+4900000D03*
X+2800000Y+4900000D03*
X+1325000Y+4900000D03*
X+2400000Y+5525000D03*
X+2250000Y+4850000D03*
X-275000Y+4900000D03*
X+200000Y+925000D03*
X+2475000Y+2575000D03*
X+2275000Y+2075000D03*
X+2225000Y+2600000D03*
D167*
X-3850000Y-1050000D03*
X-3850000Y+6550000D03*
X+4900000Y+6550000D03*
X+4900000Y-1050000D03*
D168*
X-3500000Y-400000D03*
X-3500000Y-50000D03*
X-3500000Y+300000D03*
X-3500000Y+650000D03*
X-3500000Y+1000000D03*
X-3500000Y+1350000D03*
X-3500000Y+1700000D03*
X-3500000Y+2050000D03*
X-3500000Y+2400000D03*
X-3500000Y+2750000D03*
X-3500000Y+3100000D03*
X-3500000Y+3450000D03*
X-3500000Y+3800000D03*
X-3500000Y+4150000D03*
X-3500000Y+4500000D03*
X-3500000Y+4850000D03*
X-3500000Y+5200000D03*
X-3500000Y+5550000D03*
X-3500000Y+5900000D03*
D169*
X+6050000Y+6600000D03*
X+6050000Y+6346000D03*
X+6050000Y+6092000D03*
X+6050000Y+5838000D03*
X+6050000Y+5584000D03*
X+6050000Y+5330000D03*
X+6050000Y+5076000D03*
X+6050000Y+4822000D03*
X+6050000Y+4568000D03*
X+6050000Y+4314000D03*
X+6304000Y+4314000D03*
X+6304000Y+4568000D03*
X+6304000Y+4822000D03*
X+6304000Y+5076000D03*
X+6304000Y+5330000D03*
X+6304000Y+5584000D03*
X+6304000Y+5838000D03*
X+6304000Y+6092000D03*
X+6304000Y+6346000D03*
X+6304000Y+6600000D03*
D170*
X+2400000Y+2075000D03*
X+2750000Y+2075000D03*
X+2575000Y+2075000D03*
X+3000000Y+1025000D03*
X+3000000Y+1175000D03*
D171*
X+3675000Y+6775000D03*
D169*
X+3500000Y+6000000D03*
X+3754000Y+6000000D03*
D171*
X+2475000Y+6775000D03*
D169*
X-2950000Y+6375000D03*
X-2696000Y+6375000D03*
M02*
