G04 =========================================*
G04 Numerical Innovations - Layer Information*
G04 Units: English*
G04 Layer Type: Top*
G04 Layer Subtype: *
G04 Physical Order: 1*
G04 Stackup Order: 1*
G04 =========================================*
G04 FAB 3000 Version 8.5.0 (64-bit) - Gerber/CAM Software (by Simon Garrison)*
G04 RS274-X Output*
%FSLAX36Y36*%
%MIA0B0*%
%MOIN*%
%SFA1.000000B1.000000*%

%IPPOS*%
%AMPPAD033*
4,1,5,0.000707,0.026870,
0.026870,0.000707,
-0.000707,-0.026870,
-0.026870,-0.000707,
0.000707,0.026870,
0.000707,0.026870,0.0*
%
%AMPPAD034*
4,1,5,0.026870,-0.000707,
0.000707,-0.026870,
-0.026870,0.000707,
-0.000707,0.026870,
0.026870,-0.000707,
0.026870,-0.000707,0.0*
%
%AMPPAD036*
4,1,5,-0.033234,0.007071,
-0.007071,0.033234,
0.033234,-0.007071,
0.007071,-0.033234,
-0.033234,0.007071,
-0.033234,0.007071,0.0*
%
%ADD10C,0.040000*%
%ADD11C,0.100000*%
%ADD12C,0.080000*%
%ADD13C,0.012000*%
%ADD14C,0.030000*%
%ADD15C,0.025000*%
%ADD16C,0.050000*%
%ADD17C,0.020000*%
%ADD18C,0.020000*%
%ADD19C,0.015000*%
%ADD20R,0.040000X0.060000*%
%ADD21C,0.250000*%
%ADD22R,0.060000X0.040000*%
%ADD23R,0.120000X0.050000*%
%ADD24R,0.208000X0.068000*%
%ADD25C,0.120000*%
%ADD26R,0.134000X0.049000*%
%ADD27R,0.049000X0.134000*%
%ADD28R,0.037000X0.039000*%
%ADD29R,0.039000X0.037000*%
%ADD30C,0.005000*%
%ADD31R,0.035000X0.035000*%
%ADD32R,0.080000X0.080000*%
%ADD33R,0.035000X0.025000*%
%ADD34R,0.071000X0.045000*%
%ADD35R,0.024000X0.024000*%
%ADD36C,0.050000*%
%ADD37C,0.100000*%
%ADD38C,0.050000*%
%ADD39PPAD033*%
%ADD40PPAD034*%
%ADD41R,0.037000X0.057000*%
%ADD42PPAD036*%
%ADD43R,0.020000X0.025000*%
%ADD44R,0.060000X0.100000*%
%ADD45R,0.275000X0.275000*%
%ADD46C,0.008000*%
%ADD47C,0.008000*%
%ADD70C,0.008000*%
%ADD71R,0.040000X0.050000*%
%ADD72R,0.011811X0.062992*%
%ADD73R,0.062992X0.011811*%
%LNEVAL-ADBMS6830MSW_REVD_GERBER - CADCAM Top Copper_0*%
%LPD*%
G36*
X2555333Y-502408D02*
G01X2587973Y-582408D01*
X2575973D01*
X2566693Y-558248D01*
X2533173D01*
X2524453Y-582408D01*
X2513333D01*
X2543893Y-502408D01*
X2549333D01*
Y-510888D01*
Y-510968D01*
X2549253Y-511208D01*
X2549093Y-511608D01*
X2549013Y-512168D01*
X2548853Y-512888D01*
X2548693Y-513768D01*
X2548453Y-514648D01*
X2548213Y-515688D01*
X2547893Y-516808D01*
X2547573Y-518008D01*
X2547253Y-519288D01*
X2545973Y-523368D01*
X2545013Y-526168D01*
X2536213Y-549608D01*
X2563333D01*
X2555013Y-527448D01*
X2554933Y-527368D01*
X2554773Y-527048D01*
X2554613Y-526488D01*
X2554373Y-525768D01*
X2554053Y-524888D01*
X2553653Y-523928D01*
X2553333Y-522888D01*
X2552853Y-521608D01*
X2552453Y-520328D01*
X2551013Y-516248D01*
X2550133Y-513528D01*
X2549653Y-512088D01*
X2549333Y-510888D01*
Y-502408D01*
X2555333D01*
G37*
G36*
X2111073Y2414788D02*
G01X2140896D01*
X2144477Y2418369D01*
Y2406272D01*
X2155512D01*
Y2397862D01*
X2144477D01*
Y2384781D01*
X2140896Y2388362D01*
X2111073D01*
X2089985Y2367274D01*
Y2337451D01*
X2111073Y2316363D01*
X2140896D01*
X2144477Y2319944D01*
Y2306863D01*
X2155512D01*
Y2299437D01*
X2144477D01*
Y2286356D01*
X2140896Y2289937D01*
X2111073D01*
X2089985Y2268848D01*
Y2239026D01*
X2111073Y2217937D01*
X2140896D01*
X2144477Y2221519D01*
Y2208437D01*
X2155512D01*
Y2201011D01*
X2144477D01*
Y2187930D01*
X2140896Y2191511D01*
X2111073D01*
X2089985Y2170423D01*
Y2140600D01*
X2111073Y2119512D01*
X2140896D01*
X2144477Y2123093D01*
Y2110012D01*
X2155512D01*
Y2092744D01*
X2144477D01*
Y2079663D01*
X2140896Y2083244D01*
X2111073D01*
X2089985Y2062156D01*
Y2032333D01*
X2111073Y2011245D01*
X2140896D01*
X2144477Y2014826D01*
Y2001745D01*
X2155512D01*
Y1983492D01*
X2144477D01*
Y1971395D01*
X2140896Y1974976D01*
X2111073D01*
X2089985Y1953888D01*
Y1924065D01*
X2111073Y1902977D01*
X2140896D01*
X2143911Y1905993D01*
X2144477D01*
Y1892493D01*
X2155512D01*
Y1886051D01*
X2144477D01*
Y1879921D01*
X1931606D01*
Y1882662D01*
X1948598D01*
Y2034661D01*
X1836599D01*
Y1914578D01*
X1768598D01*
Y2034661D01*
X1656599D01*
Y1882662D01*
X1667099D01*
Y1879921D01*
X1348425D01*
Y2159225D01*
X1367334D01*
Y2161225D01*
X1490350D01*
Y2248224D01*
X1409952D01*
Y2296205D01*
X1543952D01*
Y2428204D01*
X1348425D01*
Y2431102D01*
X1863226D01*
X1866588Y2427741D01*
X1991680D01*
X1995042Y2431102D01*
X2094758D01*
X2111073Y2414788D01*
G37*
%LNEVAL-ADBMS6830MSW_REVD_GERBER - CADCAM Top Copper_1*%
%LPC*%
G36*
X1796598Y2228176D02*
G01Y2233147D01*
X1800113Y2236661D01*
X1805084D01*
X1808598Y2233147D01*
Y2228176D01*
X1805084Y2224661D01*
X1800113D01*
X1796598Y2228176D01*
G37*
%LNEVAL-ADBMS6830MSW_REVD_GERBER - CADCAM Top Copper_2*%
%LPD*%
G36*
X831985Y1258383D02*
G01Y1221932D01*
X833445Y1220472D01*
X831985Y1219013D01*
Y1182562D01*
X843287Y1171260D01*
X831985Y1159958D01*
Y1123507D01*
X833445Y1122047D01*
X831985Y1120587D01*
Y1084137D01*
X836273Y1079849D01*
X806457Y1050033D01*
Y987369D01*
X816300Y977526D01*
Y895669D01*
X790571D01*
X766257Y919984D01*
X729806D01*
X718504Y908682D01*
X707202Y919984D01*
X670751D01*
X649606Y898839D01*
X628461Y919984D01*
X592011D01*
X567696Y895669D01*
X472441D01*
Y1279528D01*
X853130D01*
X831985Y1258383D01*
G37*
%LNEVAL-ADBMS6830MSW_REVD_GERBER - CADCAM Top Copper_3*%
%LPC*%
G36*
X685362Y1001863D02*
G01Y1005176D01*
X687706Y1007520D01*
X691019D01*
X693362Y1005176D01*
Y1001863D01*
X691019Y999520D01*
X687706D01*
X685362Y1001863D01*
G37*
G36*
X744417D02*
G01Y1005176D01*
X746761Y1007520D01*
X750074D01*
X752417Y1005176D01*
Y1001863D01*
X750074Y999520D01*
X746761D01*
X744417Y1001863D01*
G37*
G36*
X710449Y1146792D02*
G01Y1154248D01*
X715721Y1159520D01*
X723177D01*
X728449Y1154248D01*
Y1146792D01*
X723177Y1141520D01*
X715721D01*
X710449Y1146792D01*
G37*
G36*
Y1206792D02*
G01Y1214248D01*
X715721Y1219520D01*
X723177D01*
X728449Y1214248D01*
Y1206792D01*
X723177Y1201520D01*
X715721D01*
X710449Y1206792D01*
G37*
G36*
X522449Y1057792D02*
G01Y1065248D01*
X527721Y1070520D01*
X535177D01*
X540449Y1065248D01*
Y1057792D01*
X535177Y1052520D01*
X527721D01*
X522449Y1057792D01*
G37*
G36*
X709449Y969792D02*
G01Y977248D01*
X714721Y982520D01*
X722177D01*
X727449Y977248D01*
Y969792D01*
X722177Y964520D01*
X714721D01*
X709449Y969792D01*
G37*
G36*
X767449Y1147792D02*
G01Y1155248D01*
X772721Y1160520D01*
X780177D01*
X785449Y1155248D01*
Y1147792D01*
X780177Y1142520D01*
X772721D01*
X767449Y1147792D01*
G37*
G36*
Y1206792D02*
G01Y1214248D01*
X772721Y1219520D01*
X780177D01*
X785449Y1214248D01*
Y1206792D01*
X780177Y1201520D01*
X772721D01*
X767449Y1206792D01*
G37*
G36*
X739449Y959792D02*
G01Y967248D01*
X744721Y972520D01*
X752177D01*
X757449Y967248D01*
Y959792D01*
X752177Y954520D01*
X744721D01*
X739449Y959792D01*
G37*
G36*
X767449Y969792D02*
G01Y977248D01*
X772721Y982520D01*
X780177D01*
X785449Y977248D01*
Y969792D01*
X780177Y964520D01*
X772721D01*
X767449Y969792D01*
G37*
G36*
X590449D02*
G01Y977248D01*
X595721Y982520D01*
X603177D01*
X608449Y977248D01*
Y969792D01*
X603177Y964520D01*
X595721D01*
X590449Y969792D01*
G37*
G36*
X620449Y959792D02*
G01Y967248D01*
X625721Y972520D01*
X633177D01*
X638449Y967248D01*
Y959792D01*
X633177Y954520D01*
X625721D01*
X620449Y959792D01*
G37*
G36*
X534449Y1088792D02*
G01Y1096248D01*
X539721Y1101520D01*
X547177D01*
X552449Y1096248D01*
Y1088792D01*
X547177Y1083520D01*
X539721D01*
X534449Y1088792D01*
G37*
G36*
X522449Y1118792D02*
G01Y1126248D01*
X527721Y1131520D01*
X535177D01*
X540449Y1126248D01*
Y1118792D01*
X535177Y1113520D01*
X527721D01*
X522449Y1118792D01*
G37*
G36*
X534449Y1146792D02*
G01Y1154248D01*
X539721Y1159520D01*
X547177D01*
X552449Y1154248D01*
Y1146792D01*
X547177Y1141520D01*
X539721D01*
X534449Y1146792D01*
G37*
G36*
X710449Y1027792D02*
G01Y1035248D01*
X715721Y1040520D01*
X723177D01*
X728449Y1035248D01*
Y1027792D01*
X723177Y1022520D01*
X715721D01*
X710449Y1027792D01*
G37*
G36*
X767449D02*
G01Y1035248D01*
X772721Y1040520D01*
X780177D01*
X785449Y1035248D01*
Y1027792D01*
X780177Y1022520D01*
X772721D01*
X767449Y1027792D01*
G37*
G36*
X744417Y1060918D02*
G01Y1064232D01*
X746761Y1066575D01*
X750074D01*
X752417Y1064232D01*
Y1060918D01*
X750074Y1058575D01*
X746761D01*
X744417Y1060918D01*
G37*
G36*
X767449Y1088792D02*
G01Y1096248D01*
X772721Y1101520D01*
X780177D01*
X785449Y1096248D01*
Y1088792D01*
X780177Y1083520D01*
X772721D01*
X767449Y1088792D01*
G37*
G36*
X680449Y1216792D02*
G01Y1224248D01*
X685721Y1229520D01*
X693177D01*
X698449Y1224248D01*
Y1216792D01*
X693177Y1211520D01*
X685721D01*
X680449Y1216792D01*
G37*
G36*
X650449Y1027792D02*
G01Y1035248D01*
X655721Y1040520D01*
X663177D01*
X668449Y1035248D01*
Y1027792D01*
X663177Y1022520D01*
X655721D01*
X650449Y1027792D01*
G37*
G36*
X649449Y969792D02*
G01Y977248D01*
X654721Y982520D01*
X662177D01*
X667449Y977248D01*
Y969792D01*
X662177Y964520D01*
X654721D01*
X649449Y969792D01*
G37*
G36*
X668449Y1096248D02*
G01Y1088792D01*
X663177Y1083520D01*
X655721D01*
X650449Y1088792D01*
Y1096248D01*
X655721Y1101520D01*
X663177D01*
X668449Y1096248D01*
G37*
G36*
X650449Y1146792D02*
G01Y1154248D01*
X655721Y1159520D01*
X663177D01*
X668449Y1154248D01*
Y1146792D01*
X663177Y1141520D01*
X655721D01*
X650449Y1146792D01*
G37*
G36*
Y1206792D02*
G01Y1214248D01*
X655721Y1219520D01*
X663177D01*
X668449Y1214248D01*
Y1206792D01*
X663177Y1201520D01*
X655721D01*
X650449Y1206792D01*
G37*
G36*
X626307Y1179028D02*
G01Y1182342D01*
X628650Y1184685D01*
X631964D01*
X634307Y1182342D01*
Y1179028D01*
X631964Y1176685D01*
X628650D01*
X626307Y1179028D01*
G37*
G36*
X621449Y1216792D02*
G01Y1224248D01*
X626721Y1229520D01*
X634177D01*
X639449Y1224248D01*
Y1216792D01*
X634177Y1211520D01*
X626721D01*
X621449Y1216792D01*
G37*
G36*
X626307Y1060918D02*
G01Y1064232D01*
X628650Y1066575D01*
X631964D01*
X634307Y1064232D01*
Y1060918D01*
X631964Y1058575D01*
X628650D01*
X626307Y1060918D01*
G37*
G36*
Y1119973D02*
G01Y1123287D01*
X628650Y1125630D01*
X631964D01*
X634307Y1123287D01*
Y1119973D01*
X631964Y1117630D01*
X628650D01*
X626307Y1119973D01*
G37*
G36*
X744417D02*
G01Y1123287D01*
X746761Y1125630D01*
X750074D01*
X752417Y1123287D01*
Y1119973D01*
X750074Y1117630D01*
X746761D01*
X744417Y1119973D01*
G37*
G36*
Y1179028D02*
G01Y1182342D01*
X746761Y1184685D01*
X750074D01*
X752417Y1182342D01*
Y1179028D01*
X750074Y1176685D01*
X746761D01*
X744417Y1179028D01*
G37*
G36*
X739449Y1216792D02*
G01Y1224248D01*
X744721Y1229520D01*
X752177D01*
X757449Y1224248D01*
Y1216792D01*
X752177Y1211520D01*
X744721D01*
X739449Y1216792D01*
G37*
G36*
X685362Y1060918D02*
G01Y1064232D01*
X687706Y1066575D01*
X691019D01*
X693362Y1064232D01*
Y1060918D01*
X691019Y1058575D01*
X687706D01*
X685362Y1060918D01*
G37*
G36*
X710449Y1087792D02*
G01Y1095248D01*
X715721Y1100520D01*
X723177D01*
X728449Y1095248D01*
Y1087792D01*
X723177Y1082520D01*
X715721D01*
X710449Y1087792D01*
G37*
G36*
X779449Y1176792D02*
G01Y1184248D01*
X784721Y1189520D01*
X792177D01*
X797449Y1184248D01*
Y1176792D01*
X792177Y1171520D01*
X784721D01*
X779449Y1176792D01*
G37*
G36*
X522449Y999792D02*
G01Y1007248D01*
X527721Y1012520D01*
X535177D01*
X540449Y1007248D01*
Y999792D01*
X535177Y994520D01*
X527721D01*
X522449Y999792D01*
G37*
G36*
X567252Y1001863D02*
G01Y1005176D01*
X569595Y1007520D01*
X572909D01*
X575252Y1005176D01*
Y1001863D01*
X572909Y999520D01*
X569595D01*
X567252Y1001863D01*
G37*
G36*
X626307D02*
G01Y1005176D01*
X628650Y1007520D01*
X631964D01*
X634307Y1005176D01*
Y1001863D01*
X631964Y999520D01*
X628650D01*
X626307Y1001863D01*
G37*
G36*
X567252Y1179028D02*
G01Y1182342D01*
X569595Y1184685D01*
X572909D01*
X575252Y1182342D01*
Y1179028D01*
X572909Y1176685D01*
X569595D01*
X567252Y1179028D01*
G37*
G36*
X522449Y1176792D02*
G01Y1184248D01*
X527721Y1189520D01*
X535177D01*
X540449Y1184248D01*
Y1176792D01*
X535177Y1171520D01*
X527721D01*
X522449Y1176792D01*
G37*
G36*
X534449Y1206792D02*
G01Y1214248D01*
X539721Y1219520D01*
X547177D01*
X552449Y1214248D01*
Y1206792D01*
X547177Y1201520D01*
X539721D01*
X534449Y1206792D01*
G37*
G36*
Y1027792D02*
G01Y1035248D01*
X539721Y1040520D01*
X547177D01*
X552449Y1035248D01*
Y1027792D01*
X547177Y1022520D01*
X539721D01*
X534449Y1027792D01*
G37*
G36*
X590449D02*
G01Y1035248D01*
X595721Y1040520D01*
X603177D01*
X608449Y1035248D01*
Y1027792D01*
X603177Y1022520D01*
X595721D01*
X590449Y1027792D01*
G37*
G36*
X589449Y1088792D02*
G01Y1096248D01*
X594721Y1101520D01*
X602177D01*
X607449Y1096248D01*
Y1088792D01*
X602177Y1083520D01*
X594721D01*
X589449Y1088792D01*
G37*
G36*
X591449Y1146792D02*
G01Y1154248D01*
X596721Y1159520D01*
X604177D01*
X609449Y1154248D01*
Y1146792D01*
X604177Y1141520D01*
X596721D01*
X591449Y1146792D01*
G37*
G36*
Y1206792D02*
G01Y1214248D01*
X596721Y1219520D01*
X604177D01*
X609449Y1214248D01*
Y1206792D01*
X604177Y1201520D01*
X596721D01*
X591449Y1206792D01*
G37*
G36*
X680449Y959792D02*
G01Y967248D01*
X685721Y972520D01*
X693177D01*
X698449Y967248D01*
Y959792D01*
X693177Y954520D01*
X685721D01*
X680449Y959792D01*
G37*
G36*
X779449Y999792D02*
G01Y1007248D01*
X784721Y1012520D01*
X792177D01*
X797449Y1007248D01*
Y999792D01*
X792177Y994520D01*
X784721D01*
X779449Y999792D01*
G37*
G36*
Y1057792D02*
G01Y1065248D01*
X784721Y1070520D01*
X792177D01*
X797449Y1065248D01*
Y1057792D01*
X792177Y1052520D01*
X784721D01*
X779449Y1057792D01*
G37*
G36*
Y1117792D02*
G01Y1125248D01*
X784721Y1130520D01*
X792177D01*
X797449Y1125248D01*
Y1117792D01*
X792177Y1112520D01*
X784721D01*
X779449Y1117792D01*
G37*
G36*
X562449Y1216792D02*
G01Y1224248D01*
X567721Y1229520D01*
X575177D01*
X580449Y1224248D01*
Y1216792D01*
X575177Y1211520D01*
X567721D01*
X562449Y1216792D01*
G37*
G36*
X534449Y969792D02*
G01Y977248D01*
X539721Y982520D01*
X547177D01*
X552449Y977248D01*
Y969792D01*
X547177Y964520D01*
X539721D01*
X534449Y969792D01*
G37*
G36*
X561449Y959792D02*
G01Y967248D01*
X566721Y972520D01*
X574177D01*
X579449Y967248D01*
Y959792D01*
X574177Y954520D01*
X566721D01*
X561449Y959792D01*
G37*
G36*
X567252Y1060918D02*
G01Y1064232D01*
X569595Y1066575D01*
X572909D01*
X575252Y1064232D01*
Y1060918D01*
X572909Y1058575D01*
X569595D01*
X567252Y1060918D01*
G37*
G36*
Y1119973D02*
G01Y1123287D01*
X569595Y1125630D01*
X572909D01*
X575252Y1123287D01*
Y1119973D01*
X572909Y1117630D01*
X569595D01*
X567252Y1119973D01*
G37*
G36*
X685362D02*
G01Y1123287D01*
X687706Y1125630D01*
X691019D01*
X693362Y1123287D01*
Y1119973D01*
X691019Y1117630D01*
X687706D01*
X685362Y1119973D01*
G37*
G36*
Y1179028D02*
G01Y1182342D01*
X687706Y1184685D01*
X691019D01*
X693362Y1182342D01*
Y1179028D01*
X691019Y1176685D01*
X687706D01*
X685362Y1179028D01*
G37*
%LNEVAL-ADBMS6830MSW_REVD_GERBER - CADCAM Top Copper_4*%
%LPD*%
G54D12*
X-1131890Y-403543D02*
G01X-974409Y-561024D01*
X777559D02*
G01X1112205Y-226378D01*
G54D21*
X-1515748Y-413386D03*
X1929134D03*
G54D46*
X2372047Y-572126D02*
G01Y-512126D01*
D02*
G01X2397047D01*
D02*
G01X2402047Y-522126D01*
G54D47*
X-1751969Y-649606D02*
G01X2755906D01*
G54D12*
X-974409Y-561024D02*
G01X777559D01*
G54D46*
X2402047Y-522126D02*
G01Y-532126D01*
X2397047Y-542126D02*
G01X2372047D01*
X2397047D02*
G01X2402047Y-552126D01*
D02*
G01Y-572126D01*
X2412047Y-552126D02*
G01X2442047D01*
D02*
G01Y-542126D01*
X2417047Y-572126D02*
G01X2437047D01*
X2412047Y-562126D02*
G01X2417047Y-572126D01*
X2412047Y-542126D02*
G01Y-562126D01*
X2417047Y-532126D02*
G01X2412047Y-542126D01*
X2437047Y-532126D02*
G01X2417047D01*
X2442047Y-542126D02*
G01X2437047Y-532126D01*
X2402047D02*
G01X2397047Y-542126D01*
X2467047Y-572126D02*
G01X2482047Y-532126D01*
X2452047D02*
G01X2467047Y-572126D01*
G54D13*
X1200787Y1377953D02*
G01X1161417D01*
X1131890Y1348425D02*
G01X1161417Y1377953D01*
X1112205Y1319506D02*
G01Y1387795D01*
G54D14*
X1347898Y1408693D02*
G01X1393898Y1362693D01*
X1263780Y1348425D02*
G01Y1377953D01*
D02*
G01Y1407480D01*
X1381890Y1318898D02*
G01X1393898Y1362693D01*
G54D13*
X1476378Y1348425D02*
G01Y1486221D01*
G54D18*
X1161417Y1377953D03*
G54D28*
X1200787D03*
X1263780D03*
G54D43*
X1318898Y1362693D03*
X1393898D03*
G54D11*
X631260Y2209782D02*
G01X473780D01*
G54D13*
X462598Y1801181D02*
G01X541339D01*
G54D15*
Y1850394D02*
G01X462598D01*
X590551Y1860236D02*
G01X521654Y1929134D01*
D02*
G01X473780Y1969625D01*
G54D18*
X521654Y1929134D03*
G54D26*
X473780Y2209782D03*
Y1969625D03*
G54D13*
X-246063Y1574803D02*
G01X-98425D01*
X-246063Y1525591D02*
G01X78740D01*
G54D15*
X20855Y1416153D02*
G01X-329385D01*
X78740Y1653543D02*
G01X-277740D01*
X-29528Y1314961D02*
G01X-141732D01*
D02*
G01X-265543Y1191150D01*
X-147638Y1062992D02*
G01X15748D01*
X-88583Y895669D02*
G01X-147638Y836614D01*
G54D13*
X-255906Y846457D02*
G01X-88583Y1013780D01*
G54D15*
Y964567D02*
G01X-177165Y875984D01*
Y1102362D02*
G01X0D01*
X-29528Y1377953D02*
G01X-137795D01*
D02*
G01X-236220D01*
X23622Y1486221D02*
G01X-177165D01*
X-157480Y1692913D02*
G01X98425D01*
G54D18*
X-137795Y1377953D03*
G54D13*
X531496Y580709D02*
G01X501969Y551181D01*
G54D11*
X482815Y87974D02*
G01Y-38839D01*
D02*
G01X482283Y-39370D01*
G54D13*
X554020Y619470D02*
G01X506437D01*
G54D15*
X564961Y141732D02*
G01X511735Y88506D01*
D02*
G01X482283D01*
X501969Y551181D02*
G01X511811Y541339D01*
D02*
G01Y531496D01*
D02*
G01X531496Y511811D01*
Y265748D02*
G01X354254Y88506D01*
G54D26*
X482815Y-152183D03*
Y87974D03*
G54D28*
X501969Y551181D03*
G54D13*
X531496Y748563D02*
G01X442913Y659980D01*
X472441Y797244D02*
G01X452756Y777559D01*
D02*
G01Y738189D01*
X433071Y708661D02*
G01X462599D01*
X433071Y1407480D02*
G01X452756D01*
D02*
G01X472441Y1387795D01*
X462598Y1545276D02*
G01X452756Y1574803D01*
D02*
G01X446850D01*
X492126Y1397638D02*
G01X433071Y1456693D01*
G54D15*
X391039Y1633858D02*
G01X446850Y1578047D01*
D02*
G01Y1574803D01*
G54D18*
X452756Y738189D03*
X442913Y1377953D03*
G54D28*
X446850Y1574803D03*
G54D14*
X1131890Y1102362D02*
G01Y1043307D01*
D02*
G01Y984252D01*
G54D10*
X1738205Y375984D02*
G01X1687024Y324803D01*
D02*
G01X1683106D01*
G54D14*
X1687024Y413386D02*
G01X1657496D01*
G54D10*
X1649626Y505886D02*
G01X1683071Y472441D01*
D02*
G01X1724425D01*
X1669524Y324803D02*
G01X1687024Y320886D01*
G54D33*
Y413386D03*
Y320886D03*
G54D10*
X1368110Y826772D02*
G01X1407480D01*
D02*
G01X1446850Y820866D01*
X1368110Y748032D02*
G01X1682441D01*
X1500000Y862205D02*
G01X1368110D01*
G54D13*
X1298315Y905512D02*
G01X1407480D01*
D02*
G01X1437008Y935039D01*
G54D34*
X1446850Y820866D03*
Y935039D03*
G54D13*
X2220473Y2598425D02*
G01Y2503937D01*
X1053150Y2480315D02*
G01Y2588583D01*
G54D12*
X767717Y2618110D02*
G01X895669Y2490158D01*
G54D13*
X2251969Y2549213D02*
G01X2283465Y2598425D01*
X-1033465Y2696850D02*
G01X-1161417Y2568898D01*
D02*
G01Y2509843D01*
G54D21*
X-1515748Y2578740D03*
X1929134D03*
G54D32*
X2381890Y2598425D03*
X2481890D03*
G54D13*
X2283465D02*
G01X2387296D01*
D02*
G01X2389216Y2600345D01*
D02*
G01X2381890Y2598425D01*
X1053150Y2588583D02*
G01X974409Y2667323D01*
G54D12*
X-748032Y2618110D02*
G01X767717D01*
G54D13*
X974409Y2667323D02*
G01X826772D01*
D02*
G01X797244Y2696850D01*
D02*
G01X-1033465D01*
G54D28*
X2283465Y2598425D03*
X2220473D03*
G54D47*
X2755906Y2814961D02*
G01X-1751969D01*
G54D37*
X974409Y2667323D03*
X1446850D03*
G54D14*
X1356898Y1456693D02*
G01Y1417693D01*
D02*
G01X1347898Y1408693D01*
G54D13*
X1348425Y1514591D02*
G01X1390346Y1472669D01*
X1470472Y1555118D02*
G01X1348425D01*
X1466535Y1614173D02*
G01X1318898D01*
G54D43*
X1356898Y1456693D03*
G54D13*
X1390346Y1472669D02*
G01X1393898Y1456693D01*
X1476378Y1486221D02*
G01X1525591D01*
X1476378Y1549213D02*
G01X1470472Y1555118D01*
X1525591Y1549213D02*
G01Y1555118D01*
D02*
G01X1466535Y1614173D01*
G54D18*
X1712598Y1555118D03*
G54D43*
X1393898Y1456693D03*
G54D29*
X1476378Y1549213D03*
Y1486221D03*
X1525591Y1549213D03*
Y1486221D03*
G54D13*
X2220473Y2500000D02*
G01Y2410963D01*
G54D12*
X334646Y2421260D02*
G01X-669291D01*
X895669Y2490158D02*
G01X939961Y2445866D01*
G54D13*
X2126969Y2451772D02*
G01X2125984Y2450787D01*
G54D18*
D03*
G54D28*
X2188976Y2451772D03*
X2251969D03*
G54D13*
X2220473Y1988189D02*
G01Y1889764D01*
X1712598Y1874016D02*
G01Y1958661D01*
G54D15*
X787402Y1889764D02*
G01Y1929134D01*
X1053150Y1860236D02*
G01X1102362Y1909449D01*
D02*
G01Y1929134D01*
G54D18*
X885827Y1909449D03*
G54D13*
X2089985Y1924065D02*
G01X2111073Y1902977D01*
X1836599Y1914578D02*
G01X1768598D01*
X1811024D02*
G01Y1870079D01*
G54D44*
X1892598Y1958661D03*
X1712598D03*
G54D32*
X2481890Y1898425D03*
X2381890D03*
G54D13*
X-25591Y1200787D02*
G01X-5906Y1181102D01*
X-88583Y1200787D02*
G01Y1142949D01*
X295276Y1181102D02*
G01X246063Y1230315D01*
G54D28*
X-25591Y1200787D03*
X-88583D03*
G54D13*
X1112736Y-152183D02*
G01X1127345D01*
G54D14*
X1112736D02*
G01X1127345Y-152182D01*
D02*
G01X1136434D01*
G54D11*
X1112736Y87974D02*
G01Y-38839D01*
D02*
G01X1112205Y-39370D01*
G54D14*
X1112736Y-152183D02*
G01X1097817D01*
G54D13*
X1200787Y137795D02*
G01X1033465Y305118D01*
G54D15*
X1088659Y88506D02*
G01X1112205D01*
D02*
G01X1112736Y87974D01*
G54D13*
X1112205Y590551D02*
G01Y472441D01*
D02*
G01X1181102Y403543D01*
G54D26*
X1112736Y-152183D03*
Y87974D03*
G54D15*
X290354Y497047D02*
G01X-118187Y88506D01*
G54D12*
X-1200787Y157480D02*
G01X-1299213Y255906D01*
D02*
G01X-1377953D01*
X-1112205Y206693D02*
G01X-1131890Y226378D01*
D02*
G01X-1200787Y295276D01*
X-1033465Y354331D02*
G01X-835445Y156311D01*
X-1023622Y206693D02*
G01X-1112205D01*
G54D15*
X314961D02*
G01Y403543D01*
G54D13*
X330709Y157480D02*
G01X429134Y255906D01*
G54D15*
X275591Y324803D02*
G01X39370Y88583D01*
X-255906Y127953D02*
G01X-19685Y364173D01*
G54D25*
X-1377953Y255906D03*
G54D40*
X-1141732Y216535D03*
G54D13*
X305118Y964567D02*
G01X216535Y875984D01*
X324803Y944882D02*
G01X246063Y866142D01*
X344488Y925197D02*
G01X255906Y836614D01*
X128484Y930494D02*
G01X54289Y856299D01*
G54D15*
X-59055Y905512D02*
G01X-88583Y895669D01*
G54D13*
X78740Y935039D02*
G01Y915354D01*
D02*
G01X59055Y895669D01*
G54D29*
X-59055Y905512D03*
X128484Y930494D03*
G54D15*
X147638Y1732283D02*
G01X-68898D01*
G54D13*
X78740Y1525591D02*
G01X137795Y1466535D01*
X98425Y1564961D02*
G01X147638Y1515748D01*
G54D15*
X137795Y1309055D02*
G01X118110Y1328740D01*
D02*
G01X108268D01*
D02*
G01X20855Y1416153D01*
X226378Y1505906D02*
G01X78740Y1653543D01*
G54D13*
X128484Y1229707D02*
G01X42602D01*
G54D15*
X137795Y1372047D02*
G01X23622Y1486221D01*
X98425Y1692913D02*
G01X236220Y1555118D01*
G54D29*
X128484Y1229707D03*
G54D13*
X708661Y1486221D02*
G01X767717Y1545276D01*
X748032Y1679134D02*
G01X738189Y1669291D01*
D02*
G01Y1617502D01*
D02*
G01X728346Y1603722D01*
D02*
G01X722972D01*
X797244Y1545276D02*
G01X728346Y1476378D01*
X738189Y1742126D02*
G01X747500Y1742734D01*
G54D28*
X722972Y1603722D03*
G54D29*
X748032Y1679134D03*
Y1742126D03*
G54D13*
X856299Y994094D02*
G01X846457Y1003937D01*
D02*
G01Y1033465D01*
G54D18*
X974409Y1013780D03*
G54D70*
X806457Y1050033D02*
G01Y987369D01*
X797449Y1007248D02*
G01Y999792D01*
G54D73*
X925197Y1003937D03*
G54D13*
X1090728Y1200787D02*
G01X1073770Y1183830D01*
G54D18*
X875984Y1200787D03*
G54D70*
X831985Y1219013D02*
G01Y1182562D01*
G54D13*
X128484Y931102D02*
G01X242126D01*
X216535Y1151575D02*
G01X143624D01*
X393701Y1043307D02*
G01X134390D01*
X216535Y1122047D02*
G01X128484D01*
X570866Y1358268D02*
G01Y1456693D01*
X551181Y1358268D02*
G01Y1450946D01*
X472441Y1387795D02*
G01Y1358268D01*
X511811D02*
G01Y1407480D01*
X531496Y1358268D02*
G01Y1427165D01*
X610236Y1486221D02*
G01Y1358268D01*
X590551D02*
G01Y1466535D01*
X492126Y1358268D02*
G01Y1397638D01*
G54D72*
X472441Y1358268D03*
X492126D03*
X511811D03*
X531496D03*
X551181D03*
X570866D03*
X590551D03*
X610236D03*
G54D13*
X629921D02*
G01Y1525591D01*
G54D72*
Y1358268D03*
G54D13*
X255906Y1328740D02*
G01X344489Y1240158D01*
X265748Y1250000D02*
G01X305118D01*
X256302Y1387398D02*
G01X295461D01*
G54D15*
X364173Y1594488D02*
G01X285433D01*
D02*
G01X147638Y1732283D01*
X301181Y1505906D02*
G01X226378D01*
X236220Y1555118D02*
G01X314961D01*
G54D28*
X506437Y619470D03*
G54D11*
X-569543Y1416153D02*
G01Y1258673D01*
X-329385D02*
G01X-451586D01*
D02*
G01X-452756Y1259843D01*
G54D12*
X-1190945Y1210630D02*
G01X-1318898Y1082677D01*
X-569543Y1258673D02*
G01X-590397Y1279528D01*
D02*
G01X-1122047D01*
D02*
G01X-1190945Y1210630D01*
Y1348425D02*
G01X-1318898Y1220472D01*
D02*
G01X-1377953D01*
G54D15*
X-329385Y1289370D02*
G01Y1258673D01*
G54D25*
X-1377953Y1220472D03*
G54D27*
X-569543Y1258673D03*
X-329385D03*
G54D11*
Y471271D02*
G01X-451586D01*
X-329385Y313791D02*
G01X-451586D01*
G54D27*
X-329385Y471271D03*
Y313791D03*
G54D11*
Y156311D02*
G01X-451586D01*
D02*
G01X-452756Y157480D01*
X-329385Y-1170D02*
G01X-451586D01*
D02*
G01X-452756Y0D01*
G54D13*
X610236Y157480D02*
G01Y429134D01*
X797244Y157480D02*
G01Y429134D01*
G54D15*
X564961Y551181D02*
G01Y141732D01*
X895669Y281496D02*
G01X1088659Y88506D01*
X748032Y537402D02*
G01Y118110D01*
X846457Y364173D02*
G01Y167323D01*
X708661Y364173D02*
G01Y127953D01*
G54D11*
X-329385Y2046074D02*
G01X-451586D01*
D02*
G01X-452756Y2047244D01*
X-329385Y1888594D02*
G01X-451586D01*
D02*
G01X-452756Y1889764D01*
G54D12*
X-156142Y2209782D02*
G01X-605178D01*
G54D10*
X2080724Y789951D02*
G01X2159911Y808089D01*
X2401575Y809636D02*
G01X2285458D01*
D02*
G01X2283911Y808089D01*
G54D16*
X1903559Y789951D02*
G01X2080724D01*
X1903559D02*
G01X1886424Y807087D01*
D02*
G01X1831421D01*
G54D20*
X2159911Y808089D03*
X2283911D03*
G54D71*
X1831421Y807087D03*
G54D24*
X2622047Y707274D03*
G54D23*
X2401575Y809636D03*
G54D22*
X2080724Y789951D03*
X1903559D03*
G54D10*
X2080724Y472441D02*
G01X2159465Y452756D01*
X2401575D02*
G01X2283465D01*
X1724425Y472441D02*
G01X1750016Y446850D01*
G54D16*
X1903559Y472441D02*
G01X2080724D01*
X1903559D02*
G01X1877969Y446850D01*
D02*
G01X1834016D01*
G54D71*
X1750016D03*
X1834016D03*
G54D20*
X2159465Y452756D03*
X2283465D03*
G54D24*
X2622047Y555118D03*
G54D23*
X2401575Y452756D03*
G54D22*
X2080724Y472441D03*
X1903559D03*
G54D70*
X685362Y1001863D02*
G01Y1005176D01*
X693362D02*
G01Y1001863D01*
D02*
G01X691019Y999520D01*
D02*
G01X687706D01*
D02*
G01X685362Y1001863D01*
X744417D02*
G01Y1005176D01*
X752417D02*
G01Y1001863D01*
D02*
G01X750074Y999520D01*
D02*
G01X746761D01*
D02*
G01X744417Y1001863D01*
G54D38*
X748417Y1003520D03*
X689362D03*
G54D70*
X784721Y994520D02*
G01X779449Y999792D01*
D02*
G01Y1007248D01*
G54D13*
X787402Y826772D02*
G01Y738189D01*
D02*
G01X856299Y669291D01*
G54D70*
X816300Y895669D02*
G01X790571D01*
G54D28*
X797244Y669291D03*
G54D72*
X787402Y826772D03*
G54D70*
X790571Y895669D02*
G01X766257Y919984D01*
G54D38*
X689362Y1121630D03*
X748417D03*
G54D70*
X784721Y1112520D02*
G01X779449Y1117792D01*
G54D19*
X719449Y1150520D03*
Y1210520D03*
G54D70*
X715721Y1159520D02*
G01X723177D01*
D02*
G01X728449Y1154248D01*
D02*
G01Y1146792D01*
D02*
G01X723177Y1141520D01*
D02*
G01X715721D01*
Y1219520D02*
G01X723177D01*
D02*
G01X728449Y1214248D01*
D02*
G01Y1206792D01*
D02*
G01X723177Y1201520D01*
D02*
G01X715721D01*
G54D38*
X748417Y1180685D03*
G54D70*
X535177Y1070520D02*
G01X540449Y1065248D01*
X527721Y1070520D02*
G01X535177D01*
X522449Y1065248D02*
G01X527721Y1070520D01*
X649606Y898839D02*
G01X628461Y919984D01*
X592011D02*
G01X567696Y895669D01*
D02*
G01X472441D01*
X574177Y972520D02*
G01X579449Y967248D01*
D02*
G01Y959792D01*
D02*
G01X574177Y954520D01*
G54D19*
X718449Y973520D03*
G54D70*
X729806Y919984D02*
G01X718504Y908682D01*
D02*
G01X707202Y919984D01*
X709449Y977248D02*
G01X714721Y982520D01*
D02*
G01X722177D01*
D02*
G01X727449Y977248D01*
Y969792D02*
G01X722177Y964520D01*
D02*
G01X714721D01*
D02*
G01X709449Y969792D01*
G54D19*
X776449Y1151520D03*
G54D70*
X767449Y1147792D02*
G01Y1155248D01*
D02*
G01X772721Y1160520D01*
D02*
G01X780177D01*
D02*
G01X785449Y1155248D01*
X779449Y1117792D02*
G01Y1125248D01*
D02*
G01X784721Y1130520D01*
X772721Y1142520D02*
G01X767449Y1147792D01*
X780177Y1142520D02*
G01X772721D01*
X785449Y1147792D02*
G01X780177Y1142520D01*
X785449Y1155248D02*
G01Y1147792D01*
X784721Y1171520D02*
G01X779449Y1176792D01*
G54D19*
X776449Y1210520D03*
G54D70*
X785449Y1214248D02*
G01Y1206792D01*
D02*
G01X780177Y1201520D01*
D02*
G01X772721D01*
D02*
G01X767449Y1206792D01*
X779449Y1176792D02*
G01Y1184248D01*
D02*
G01X784721Y1189520D01*
X780177Y1219520D02*
G01X785449Y1214248D01*
X772721Y1219520D02*
G01X780177D01*
X767449Y1214248D02*
G01X772721Y1219520D01*
X767449Y1206792D02*
G01Y1214248D01*
X779449Y1057792D02*
G01Y1065248D01*
X784721Y1052520D02*
G01X779449Y1057792D01*
G54D38*
X748417Y1062575D03*
X689362D03*
G54D13*
X748032Y826772D02*
G01Y875984D01*
X767717Y826772D02*
G01Y708661D01*
D02*
G01X757874Y698819D01*
D02*
G01Y659449D01*
G54D18*
X748032Y875984D03*
X757874Y659449D03*
G54D72*
X767717Y826772D03*
X748032D03*
X728346D03*
G54D19*
X748449Y963520D03*
G54D70*
X739449Y959792D02*
G01Y967248D01*
D02*
G01X744721Y972520D01*
D02*
G01X752177D01*
X744721Y954520D02*
G01X739449Y959792D01*
X752177Y954520D02*
G01X744721D01*
X727449Y977248D02*
G01Y969792D01*
X766257Y919984D02*
G01X729806D01*
X752177Y972520D02*
G01X757449Y967248D01*
D02*
G01Y959792D01*
D02*
G01X752177Y954520D01*
G54D19*
X776449Y973520D03*
G54D70*
X772721Y982520D02*
G01X780177D01*
D02*
G01X785449Y977248D01*
D02*
G01Y969792D01*
D02*
G01X780177Y964520D01*
D02*
G01X772721D01*
D02*
G01X767449Y969792D01*
Y977248D02*
G01X772721Y982520D01*
X767449Y969792D02*
G01Y977248D01*
G54D19*
X599449Y973520D03*
G54D70*
X590449Y969792D02*
G01Y977248D01*
D02*
G01X595721Y982520D01*
Y964520D02*
G01X590449Y969792D01*
X603177Y964520D02*
G01X595721D01*
X608449Y969792D02*
G01X603177Y964520D01*
X608449Y977248D02*
G01Y969792D01*
X603177Y982520D02*
G01X608449Y977248D01*
X595721Y982520D02*
G01X603177D01*
G54D19*
X629449Y963520D03*
G54D70*
X628461Y919984D02*
G01X592011D01*
X620449Y959792D02*
G01Y967248D01*
D02*
G01X625721Y972520D01*
D02*
G01X633177D01*
Y954520D02*
G01X625721D01*
D02*
G01X620449Y959792D01*
X633177Y972520D02*
G01X638449Y967248D01*
D02*
G01Y959792D01*
D02*
G01X633177Y954520D01*
X654721Y964520D02*
G01X649449Y969792D01*
Y977248D02*
G01X654721Y982520D01*
X649449Y969792D02*
G01Y977248D01*
G54D19*
X543449Y1092520D03*
G54D70*
X534449Y1088792D02*
G01Y1096248D01*
D02*
G01X539721Y1101520D01*
D02*
G01X547177D01*
D02*
G01X552449Y1096248D01*
D02*
G01Y1088792D01*
D02*
G01X547177Y1083520D01*
D02*
G01X539721D01*
X535177Y1113520D02*
G01X527721D01*
X539721Y1083520D02*
G01X534449Y1088792D01*
G54D19*
X531449Y1122520D03*
G54D70*
X522449Y1118792D02*
G01Y1126248D01*
X540449D02*
G01Y1118792D01*
D02*
G01X535177Y1113520D01*
X527721D02*
G01X522449Y1118792D01*
G54D19*
X543449Y1150520D03*
G54D70*
X522449Y1126248D02*
G01X527721Y1131520D01*
D02*
G01X535177D01*
D02*
G01X540449Y1126248D01*
X539721Y1141520D02*
G01X534449Y1146792D01*
X547177Y1141520D02*
G01X539721D01*
X552449Y1146792D02*
G01X547177Y1141520D01*
X552449Y1154248D02*
G01Y1146792D01*
X547177Y1159520D02*
G01X552449Y1154248D01*
X539721Y1159520D02*
G01X547177D01*
X534449Y1154248D02*
G01X539721Y1159520D01*
X534449Y1146792D02*
G01Y1154248D01*
G54D38*
X630307Y1121630D03*
G54D70*
X569595Y1125630D02*
G01X572909D01*
D02*
G01X575252Y1123287D01*
D02*
G01Y1119973D01*
G54D19*
X719449Y1031520D03*
G54D70*
X685362Y1005176D02*
G01X687706Y1007520D01*
D02*
G01X691019D01*
D02*
G01X693362Y1005176D01*
X710449Y1027792D02*
G01Y1035248D01*
X668449D02*
G01Y1027792D01*
X715721Y1022520D02*
G01X710449Y1027792D01*
Y1035248D02*
G01X715721Y1040520D01*
X723177Y1022520D02*
G01X715721D01*
X728449Y1027792D02*
G01X723177Y1022520D01*
X728449Y1035248D02*
G01Y1027792D01*
X723177Y1040520D02*
G01X728449Y1035248D01*
X715721Y1040520D02*
G01X723177D01*
G54D19*
X776449Y1031520D03*
G54D70*
X744417Y1005176D02*
G01X746761Y1007520D01*
D02*
G01X750074D01*
D02*
G01X752417Y1005176D01*
X785449Y1027792D02*
G01X780177Y1022520D01*
D02*
G01X772721D01*
D02*
G01X767449Y1027792D01*
X779449Y1007248D02*
G01X784721Y1012520D01*
X785449Y1035248D02*
G01Y1027792D01*
X780177Y1040520D02*
G01X785449Y1035248D01*
X772721Y1040520D02*
G01X780177D01*
X767449Y1035248D02*
G01X772721Y1040520D01*
X767449Y1027792D02*
G01Y1035248D01*
X744417Y1060918D02*
G01Y1064232D01*
D02*
G01X746761Y1066575D01*
D02*
G01X750074D01*
D02*
G01X752417Y1064232D01*
Y1060918D02*
G01X750074Y1058575D01*
D02*
G01X746761D01*
D02*
G01X744417Y1060918D01*
G54D19*
X776449Y1092520D03*
G54D70*
X752417Y1064232D02*
G01Y1060918D01*
X767449Y1088792D02*
G01Y1096248D01*
D02*
G01X772721Y1101520D01*
D02*
G01X780177D01*
D02*
G01X785449Y1096248D01*
D02*
G01Y1088792D01*
D02*
G01X780177Y1083520D01*
D02*
G01X772721D01*
D02*
G01X767449Y1088792D01*
X779449Y1065248D02*
G01X784721Y1070520D01*
X685362Y1179028D02*
G01Y1182342D01*
D02*
G01X687706Y1184685D01*
D02*
G01X691019D01*
D02*
G01X693362Y1182342D01*
D02*
G01Y1179028D01*
G54D38*
X689362Y1180685D03*
G54D19*
X689449Y1220520D03*
G54D70*
X693177Y1211520D02*
G01X685721D01*
D02*
G01X680449Y1216792D01*
X698449D02*
G01X693177Y1211520D01*
X698449Y1224248D02*
G01Y1216792D01*
X693177Y1229520D02*
G01X698449Y1224248D01*
X685721Y1229520D02*
G01X693177D01*
X680449Y1224248D02*
G01X685721Y1229520D01*
X680449Y1216792D02*
G01Y1224248D01*
X715721Y1201520D02*
G01X710449Y1206792D01*
Y1214248D02*
G01X715721Y1219520D01*
X710449Y1206792D02*
G01Y1214248D01*
X668449D02*
G01Y1206792D01*
G54D19*
X659449Y1031520D03*
X658449Y973520D03*
G54D70*
X670751Y919984D02*
G01X649606Y898839D01*
X663177Y1083520D02*
G01X655721D01*
X662177Y964520D02*
G01X654721D01*
X667449Y969792D02*
G01X662177Y964520D01*
Y982520D02*
G01X667449Y977248D01*
X654721Y982520D02*
G01X662177D01*
X663177Y1022520D02*
G01X655721D01*
X668449Y1027792D02*
G01X663177Y1022520D01*
Y1040520D02*
G01X668449Y1035248D01*
X655721Y1040520D02*
G01X663177D01*
G54D13*
X659449Y1092520D02*
G01X630307Y1121630D01*
G54D19*
X659449Y1092520D03*
G54D70*
X668449Y1088792D02*
G01X663177Y1083520D01*
G54D30*
X659449Y1092520D03*
G54D19*
Y1150520D03*
Y1210520D03*
G54D70*
X655721Y1101520D02*
G01X663177D01*
D02*
G01X668449Y1096248D01*
X663177Y1201520D02*
G01X655721D01*
X668449Y1206792D02*
G01X663177Y1201520D01*
Y1219520D02*
G01X668449Y1214248D01*
X655721Y1219520D02*
G01X663177D01*
Y1141520D02*
G01X655721D01*
X668449Y1146792D02*
G01X663177Y1141520D01*
Y1159520D02*
G01X668449Y1154248D01*
X655721Y1159520D02*
G01X663177D01*
X634307Y1179028D02*
G01X631964Y1176685D01*
D02*
G01X628650D01*
D02*
G01X626307Y1179028D01*
X609449Y1154248D02*
G01Y1146792D01*
X655721Y1141520D02*
G01X650449Y1146792D01*
Y1154248D02*
G01X655721Y1159520D01*
X650449Y1146792D02*
G01Y1154248D01*
X626307Y1179028D02*
G01Y1182342D01*
D02*
G01X628650Y1184685D01*
D02*
G01X631964D01*
D02*
G01X634307Y1182342D01*
D02*
G01Y1179028D01*
G54D38*
X630307Y1180685D03*
G54D19*
X630449Y1220520D03*
G54D70*
X650449Y1206792D02*
G01Y1214248D01*
D02*
G01X655721Y1219520D01*
Y1201520D02*
G01X650449Y1206792D01*
X609449Y1214248D02*
G01Y1206792D01*
X626721Y1211520D02*
G01X621449Y1216792D01*
X634177Y1211520D02*
G01X626721D01*
X639449Y1216792D02*
G01X634177Y1211520D01*
X639449Y1224248D02*
G01Y1216792D01*
X634177Y1229520D02*
G01X639449Y1224248D01*
X626721Y1229520D02*
G01X634177D01*
X621449Y1224248D02*
G01X626721Y1229520D01*
X621449Y1216792D02*
G01Y1224248D01*
X608449Y1035248D02*
G01Y1027792D01*
X655721Y1022520D02*
G01X650449Y1027792D01*
Y1035248D02*
G01X655721Y1040520D01*
X650449Y1027792D02*
G01Y1035248D01*
X631964Y1007520D02*
G01X634307Y1005176D01*
X628650Y1007520D02*
G01X631964D01*
X626307Y1005176D02*
G01X628650Y1007520D01*
G54D38*
X630307Y1062575D03*
G54D70*
X626307Y1060918D02*
G01Y1064232D01*
D02*
G01X628650Y1066575D01*
D02*
G01X631964D01*
D02*
G01X634307Y1064232D01*
D02*
G01Y1060918D01*
D02*
G01X631964Y1058575D01*
D02*
G01X628650D01*
D02*
G01X626307Y1060918D01*
X655721Y1083520D02*
G01X650449Y1088792D01*
D02*
G01Y1096248D01*
X607449D02*
G01Y1088792D01*
X650449Y1096248D02*
G01X655721Y1101520D01*
X628650Y1117630D02*
G01X626307Y1119973D01*
X631964Y1117630D02*
G01X628650D01*
X634307Y1119973D02*
G01X631964Y1117630D01*
X634307Y1123287D02*
G01Y1119973D01*
X631964Y1125630D02*
G01X634307Y1123287D01*
X628650Y1125630D02*
G01X631964D01*
X626307Y1123287D02*
G01X628650Y1125630D01*
X626307Y1119973D02*
G01Y1123287D01*
X746761Y1117630D02*
G01X744417Y1119973D01*
X750074Y1117630D02*
G01X746761D01*
X752417Y1119973D02*
G01X750074Y1117630D01*
X752417Y1123287D02*
G01Y1119973D01*
X750074Y1125630D02*
G01X752417Y1123287D01*
X746761Y1125630D02*
G01X750074D01*
X744417Y1123287D02*
G01X746761Y1125630D01*
X744417Y1119973D02*
G01Y1123287D01*
X752417Y1179028D02*
G01X750074Y1176685D01*
D02*
G01X746761D01*
D02*
G01X744417Y1179028D01*
G54D19*
X748449Y1220520D03*
G54D70*
X744417Y1179028D02*
G01Y1182342D01*
D02*
G01X746761Y1184685D01*
D02*
G01X750074D01*
D02*
G01X752417Y1182342D01*
D02*
G01Y1179028D01*
X744721Y1211520D02*
G01X739449Y1216792D01*
X752177Y1211520D02*
G01X744721D01*
X757449Y1216792D02*
G01X752177Y1211520D01*
X757449Y1224248D02*
G01Y1216792D01*
X752177Y1229520D02*
G01X757449Y1224248D01*
X744721Y1229520D02*
G01X752177D01*
X739449Y1224248D02*
G01X744721Y1229520D01*
X739449Y1216792D02*
G01Y1224248D01*
X687706Y1058575D02*
G01X685362Y1060918D01*
X691019Y1058575D02*
G01X687706D01*
X693362Y1060918D02*
G01X691019Y1058575D01*
X693362Y1064232D02*
G01Y1060918D01*
X691019Y1066575D02*
G01X693362Y1064232D01*
X687706Y1066575D02*
G01X691019D01*
X685362Y1064232D02*
G01X687706Y1066575D01*
X685362Y1060918D02*
G01Y1064232D01*
X668449Y1096248D02*
G01Y1088792D01*
G54D19*
X719449Y1091520D03*
G54D70*
X710449Y1087792D02*
G01Y1095248D01*
D02*
G01X715721Y1100520D01*
D02*
G01X723177D01*
D02*
G01X728449Y1095248D01*
D02*
G01Y1087792D01*
D02*
G01X723177Y1082520D01*
D02*
G01X715721D01*
D02*
G01X710449Y1087792D01*
G54D19*
X788449Y1180520D03*
G54D70*
X792177Y1189520D02*
G01X797449Y1184248D01*
Y1176792D02*
G01X792177Y1171520D01*
D02*
G01X784721D01*
Y1189520D02*
G01X792177D01*
X472441Y1279528D02*
G01X853130D01*
G54D19*
X531449Y1003520D03*
G54D70*
X527721Y994520D02*
G01X522449Y999792D01*
X540449D02*
G01X535177Y994520D01*
X540449Y1007248D02*
G01Y999792D01*
X522449D02*
G01Y1007248D01*
X472441Y895669D02*
G01Y1279528D01*
G54D38*
X571252Y1003520D03*
X630307D03*
G54D70*
X628650Y999520D02*
G01X626307Y1001863D01*
X631964Y999520D02*
G01X628650D01*
X634307Y1001863D02*
G01X631964Y999520D01*
X634307Y1005176D02*
G01Y1001863D01*
X626307D02*
G01Y1005176D01*
X569595Y999520D02*
G01X567252Y1001863D01*
X572909Y999520D02*
G01X569595D01*
X575252Y1001863D02*
G01X572909Y999520D01*
X575252Y1005176D02*
G01Y1001863D01*
X567252D02*
G01Y1005176D01*
G54D13*
X826772Y826772D02*
G01Y787402D01*
X807087Y826772D02*
G01Y777559D01*
X994094Y905512D02*
G01X1082677Y816929D01*
X954724Y875984D02*
G01X1013780Y816929D01*
X846457Y797244D02*
G01Y826772D01*
X895669Y816929D02*
G01Y836614D01*
G54D18*
Y816929D03*
G54D36*
X944882D03*
X1013780D03*
G54D72*
X846457Y826772D03*
X826772D03*
X807087D03*
G54D13*
X963959Y1082677D02*
G01X1043307Y1162026D01*
X1024807Y1088790D02*
G01X1043307Y1102362D01*
X875984D02*
G01X885578Y1102722D01*
D02*
G01X885046D01*
D02*
G01X885295Y1102971D01*
D02*
G01X885904Y1102362D01*
D02*
G01X925197D01*
X1073770Y1132825D02*
G01X1043307Y1102362D01*
G54D18*
X875984D03*
G54D70*
X831985Y1120587D02*
G01Y1084137D01*
G54D73*
X925197Y1102362D03*
G54D28*
X1043307D03*
G54D13*
X1409952Y2296205D02*
G01X1543952D01*
X1808598Y2233147D02*
G01Y2228176D01*
D02*
G01X1805084Y2224661D01*
D02*
G01X1800113D01*
D02*
G01X1796598Y2228176D01*
X1805084Y2236661D02*
G01X1808598Y2233147D01*
X1800113Y2236661D02*
G01X1805084D01*
X1796598Y2233147D02*
G01X1800113Y2236661D01*
X1796598Y2228176D02*
G01Y2233147D01*
X1543952Y2428204D02*
G01X1348425D01*
G54D32*
X1477953Y2362205D03*
X1377953D03*
G54D13*
X1477953Y2428204D02*
G01Y2362205D01*
X1543952D02*
G01X1477953D01*
X1863226Y2431102D02*
G01X1866588Y2427741D01*
X1348425Y2431102D02*
G01X1863226D01*
X1348425Y2428204D02*
G01Y2431102D01*
X1866588Y2427741D02*
G01X1991680D01*
X2188976Y1840551D02*
G01X2125984D01*
G54D15*
X659449Y1814528D02*
G01X659458Y1814537D01*
G54D13*
X974343Y1830708D02*
G01X974409Y1824803D01*
G54D18*
X659458Y1814537D03*
G54D29*
X1712598Y1811024D03*
X925197Y1824803D03*
X1811024Y1807087D03*
X974409Y1824803D03*
G54D13*
X2283465Y1889764D02*
G01X2251969Y1840551D01*
X679134Y1899606D02*
G01X738189Y1840551D01*
G54D17*
X925197Y1824803D02*
G01X885827Y1840551D01*
G54D15*
X875984Y1801181D02*
G01X787402Y1889764D01*
X698819Y1830709D02*
G01X669291Y1860236D01*
D02*
G01X590551D01*
G54D13*
X895669Y1909449D02*
G01X974343Y1830708D01*
G54D18*
X2125984Y1840551D03*
X885827D03*
G54D28*
X2251969D03*
X2188976D03*
G54D13*
X629921Y1899606D02*
G01X679134D01*
X885827Y1909449D02*
G01X895669D01*
G54D18*
X629921Y1899606D03*
G54D13*
X1656599Y1882662D02*
G01X1667099D01*
D02*
G01Y1879921D01*
D02*
G01X1348425D01*
G54D29*
X1712598Y1874016D03*
X1811024Y1870079D03*
G54D13*
X2283465Y1889764D02*
G01X2373228D01*
D02*
G01X2381890Y1898425D01*
X2111073Y1902977D02*
G01X2140896D01*
X2144477Y1886051D02*
G01Y1879921D01*
D02*
G01X1931606D01*
D02*
G01Y1882662D01*
D02*
G01X1948598D01*
G54D28*
X2283465Y1889764D03*
X2220473D03*
G54D13*
X2155512Y1886051D02*
G01X2144477D01*
X2155512Y1892493D02*
G01Y1886051D01*
X2144477Y1892493D02*
G01X2155512D01*
X2144477Y1905993D02*
G01Y1892493D01*
X2143911Y1905993D02*
G01X2144477D01*
X2140896Y1902977D02*
G01X2143911Y1905993D01*
G54D15*
X1013780Y1941518D02*
G01X986937Y1968360D01*
D02*
G01X946220Y1969625D01*
X658771Y1969182D02*
G01X643979D01*
D02*
G01X631260Y1969625D01*
X787402Y1929134D02*
G01Y1969448D01*
D02*
G01X788740Y1969625D01*
X1102362Y1929134D02*
G01X1103701Y1969625D01*
G54D18*
X787402Y1929134D03*
X1102362D03*
G54D26*
X631260Y1969625D03*
X788740D03*
X946220D03*
X1103701D03*
G54D13*
X2283465Y1988189D02*
G01X2387117D01*
D02*
G01X2395633Y1996705D01*
D02*
G01X2381890Y1998425D01*
G54D32*
X2481890D03*
X2381890D03*
G54D13*
X2283465Y2106299D02*
G01X2374016D01*
X2283465Y2204724D02*
G01X2375591D01*
X2283465Y2303150D02*
G01X2377165D01*
X2374016Y2106299D02*
G01X2381890Y2098425D01*
X2375591Y2204724D02*
G01X2381890Y2198425D01*
X2377165Y2303150D02*
G01X2381890Y2298425D01*
G54D32*
Y2198425D03*
Y2098425D03*
X2481890D03*
Y2198425D03*
G54D13*
X2188976Y2253937D02*
G01X2125984D01*
X2188976Y2155512D02*
G01X2125984D01*
X2188976Y2047244D02*
G01X2125984D01*
G54D28*
X2188976Y2253937D03*
Y2155512D03*
G54D13*
X2220473Y2303150D02*
G01Y2204724D01*
D02*
G01Y2106299D01*
X2283465Y2303150D02*
G01X2251969Y2253937D01*
X2283465Y2204724D02*
G01X2251969Y2155512D01*
X2283465Y2106299D02*
G01X2251969Y2047244D01*
G54D28*
Y2253937D03*
Y2155512D03*
X2220473Y2106299D03*
X2283465D03*
X2220473Y2204724D03*
X2283465D03*
G54D13*
X2140896Y2119512D02*
G01X2144477Y2123093D01*
D02*
G01Y2110012D01*
D02*
G01X2155512D01*
D02*
G01Y2092744D01*
X2111073Y2083244D02*
G01X2089985Y2062156D01*
X2140896Y2083244D02*
G01X2111073D01*
X2144477Y2079663D02*
G01X2140896Y2083244D01*
X2144477Y2092744D02*
G01Y2079663D01*
X2155512Y2092744D02*
G01X2144477D01*
X2111073Y2119512D02*
G01X2140896D01*
X2089985Y2140600D02*
G01X2111073Y2119512D01*
Y2191511D02*
G01X2089985Y2170423D01*
D02*
G01Y2140600D01*
Y2239026D02*
G01X2111073Y2217937D01*
X2089985Y2268848D02*
G01Y2239026D01*
X2111073Y2289937D02*
G01X2089985Y2268848D01*
G54D18*
X2125984Y2253937D03*
Y2155512D03*
G54D13*
X2140896Y2191511D02*
G01X2111073D01*
Y2217937D02*
G01X2140896D01*
Y2289937D02*
G01X2111073D01*
X2155512Y2299437D02*
G01X2144477D01*
X2155512Y2201011D02*
G01X2144477D01*
D02*
G01Y2187930D01*
D02*
G01X2140896Y2191511D01*
X2155512Y2208437D02*
G01Y2201011D01*
X2144477Y2208437D02*
G01X2155512D01*
X2144477Y2221519D02*
G01Y2208437D01*
X2140896Y2217937D02*
G01X2144477Y2221519D01*
Y2286356D02*
G01X2140896Y2289937D01*
X2144477Y2299437D02*
G01Y2286356D01*
X2283465Y2401575D02*
G01X2251969Y2352362D01*
G54D28*
D03*
G54D13*
X2283465Y2401575D02*
G01X2379700D01*
D02*
G01X2383111Y2404986D01*
D02*
G01X2381890Y2398425D01*
G54D32*
D03*
X2481890D03*
G54D28*
X2283465Y2401575D03*
G54D12*
X-569543Y1573633D02*
G01X-963397D01*
G54D13*
X875984Y1456693D02*
G01X905512D01*
D02*
G01X935039Y1486221D01*
X909449Y1673228D02*
G01X885827Y1643701D01*
X841083Y1603722D02*
G01X925197D01*
X856299Y1407480D02*
G01X974409D01*
G54D14*
Y1761811D02*
G01X925197D01*
G54D15*
X909449Y1673228D02*
G01X875984Y1722441D01*
G54D29*
X925197Y1761811D03*
G54D28*
X909449Y1673228D03*
G54D13*
X742657Y619470D02*
G01X797244Y620079D01*
G54D29*
Y429134D03*
Y492126D03*
G54D13*
X216535Y875984D02*
G01X133030D01*
X305118Y807087D02*
G01X129844D01*
X206693Y777559D02*
G01X187008Y748032D01*
G54D15*
X177165Y688976D02*
G01X196852Y688978D01*
D02*
G01X250000Y742126D01*
X177165Y748032D02*
G01X187008D01*
G54D18*
X206693Y777559D03*
G54D28*
X187008Y748032D03*
G54D12*
X-1138846Y807087D02*
G01X-590397D01*
X-1136273Y944882D02*
G01X-578799D01*
G54D13*
X-15748Y1151575D02*
G01X-25591Y1141732D01*
X-118110Y1141772D02*
G01X-88583Y1141732D01*
Y1142949D02*
G01X-89191Y1142341D01*
D02*
G01X-88583Y1141732D01*
X-52493Y964567D02*
G01X-59055Y968504D01*
X-25591Y1013780D02*
G01X-16842Y1003937D01*
G54D15*
X-59055Y968504D02*
G01X-68898Y964567D01*
D02*
G01X-88583D01*
G54D18*
X-118110Y1141772D03*
G54D28*
X-88583Y1141732D03*
X-25591D03*
Y1013780D03*
X-88583D03*
G54D29*
X-59055Y968504D03*
G54D18*
X-9843Y935039D03*
G54D13*
X78740Y1151575D02*
G01X-15748D01*
X-5906Y1181102D02*
G01X110635D01*
G54D15*
X15748Y1062992D02*
G01X29528Y1049213D01*
G54D13*
X59055Y964567D02*
G01X-52493D01*
X-16842Y1003937D02*
G01X21544D01*
D02*
G01X28543Y996063D01*
X26575Y935039D02*
G01X-9843D01*
G54D15*
X0Y1102362D02*
G01X29528Y1112205D01*
G54D29*
X28543Y933071D03*
Y996063D03*
X29528Y1049213D03*
Y1112205D03*
G54D13*
X1131890Y1555118D02*
G01Y1643701D01*
X1112205Y1564961D02*
G01Y1683071D01*
G54D14*
X1263780Y1614173D02*
G01Y1584646D01*
D02*
G01Y1555118D01*
G54D13*
X1318898Y1614173D02*
G01Y1456693D01*
X2126969Y1937992D02*
G01X2125984Y1938976D01*
X1892598Y1958661D02*
G01X1899606Y1946402D01*
X2111073Y2011245D02*
G01X2140896D01*
D02*
G01X2144477Y2014826D01*
D02*
G01Y2001745D01*
D02*
G01X2155512D01*
X2089985Y1953888D02*
G01Y1924065D01*
X2111073Y1974976D02*
G01X2089985Y1953888D01*
X2140896Y1974976D02*
G01X2111073D01*
X2144477Y1971395D02*
G01X2140896Y1974976D01*
X2144477Y1983492D02*
G01Y1971395D01*
X2155512Y1983492D02*
G01X2144477D01*
X2155512Y2001745D02*
G01Y1983492D01*
X2089985Y2032333D02*
G01X2111073Y2011245D01*
G54D18*
X2125984Y1938976D03*
G54D13*
X2188976Y1937992D02*
G01X2126969D01*
G54D28*
X2188976D03*
G54D13*
X2283465Y1988189D02*
G01X2252953Y1937992D01*
D02*
G01X2251969D01*
G54D28*
X2283465Y1988189D03*
X2220473D03*
X2251969Y1937992D03*
G54D13*
X2089985Y2367274D02*
G01Y2337451D01*
X1995042Y2431102D02*
G01X2094758D01*
X1991680Y2427741D02*
G01X1995042Y2431102D01*
X2140896Y2388362D02*
G01X2111073D01*
D02*
G01X2089985Y2367274D01*
X2094758Y2431102D02*
G01X2111073Y2414788D01*
D02*
G01X2140896D01*
X2220473Y2410963D02*
G01X2225718Y2405717D01*
D02*
G01X2220473Y2401575D01*
X2188976Y2352362D02*
G01X2125984D01*
X2144477Y2406272D02*
G01X2155512D01*
D02*
G01Y2397862D01*
D02*
G01X2144477D01*
D02*
G01Y2384781D01*
D02*
G01X2140896Y2388362D01*
G54D28*
X2188976Y2352362D03*
X2220473Y2401575D03*
G54D13*
X2144477Y2418369D02*
G01Y2406272D01*
X2140896Y2414788D02*
G01X2144477Y2418369D01*
G54D18*
X2125984Y2352362D03*
G54D13*
X1200787Y1200787D02*
G01X1131890Y1259843D01*
G54D14*
X1263780Y1289370D02*
G01Y1259843D01*
D02*
G01Y1230315D01*
G54D13*
X1338583Y1269685D02*
G01Y1181102D01*
G54D28*
X1263780Y1259843D03*
X1200787D03*
G54D70*
X575177Y1211520D02*
G01X567721D01*
Y1229520D02*
G01X575177D01*
X572909Y1176685D02*
G01X569595D01*
X575252Y1179028D02*
G01X572909Y1176685D01*
X575252Y1182342D02*
G01Y1179028D01*
X572909Y1184685D02*
G01X575252Y1182342D01*
X569595Y1184685D02*
G01X572909D01*
G54D19*
X571449Y1220520D03*
G54D70*
X580449Y1216792D02*
G01X575177Y1211520D01*
X580449Y1224248D02*
G01Y1216792D01*
X575177Y1229520D02*
G01X580449Y1224248D01*
X591449Y1146792D02*
G01Y1154248D01*
D02*
G01X596721Y1159520D01*
Y1141520D02*
G01X591449Y1146792D01*
Y1206792D02*
G01Y1214248D01*
D02*
G01X596721Y1219520D01*
Y1201520D02*
G01X591449Y1206792D01*
G54D19*
X531449Y1180520D03*
G54D70*
X522449Y1176792D02*
G01Y1184248D01*
D02*
G01X527721Y1189520D01*
D02*
G01X535177D01*
D02*
G01X540449Y1184248D01*
D02*
G01Y1176792D01*
D02*
G01X535177Y1171520D01*
D02*
G01X527721D01*
D02*
G01X522449Y1176792D01*
X534449Y1206792D02*
G01Y1214248D01*
D02*
G01X539721Y1219520D01*
Y1201520D02*
G01X534449Y1206792D01*
X547177Y1201520D02*
G01X539721D01*
X552449Y1206792D02*
G01X547177Y1201520D01*
X552449Y1214248D02*
G01Y1206792D01*
X547177Y1219520D02*
G01X552449Y1214248D01*
X539721Y1219520D02*
G01X547177D01*
G54D19*
X543449Y1210520D03*
G54D70*
X535177Y1012520D02*
G01X540449Y1007248D01*
X527721Y1012520D02*
G01X535177D01*
X522449Y1007248D02*
G01X527721Y1012520D01*
X539721Y1022520D02*
G01X534449Y1027792D01*
X547177Y1022520D02*
G01X539721D01*
X552449Y1027792D02*
G01X547177Y1022520D01*
G54D19*
X543449Y1031520D03*
G54D70*
X552449Y1035248D02*
G01Y1027792D01*
X547177Y1040520D02*
G01X552449Y1035248D01*
X534449D02*
G01X539721Y1040520D01*
X534449Y1027792D02*
G01Y1035248D01*
X522449Y1057792D02*
G01Y1065248D01*
X540449D02*
G01Y1057792D01*
D02*
G01X535177Y1052520D01*
D02*
G01X527721D01*
D02*
G01X522449Y1057792D01*
X539721Y1040520D02*
G01X547177D01*
G54D19*
X531449Y1061520D03*
X599449Y1031520D03*
X598449Y1092520D03*
G54D70*
X602177Y1083520D02*
G01X594721D01*
X607449Y1088792D02*
G01X602177Y1083520D01*
Y1101520D02*
G01X607449Y1096248D01*
X594721Y1101520D02*
G01X602177D01*
X603177Y1022520D02*
G01X595721D01*
X608449Y1027792D02*
G01X603177Y1022520D01*
Y1040520D02*
G01X608449Y1035248D01*
X595721Y1040520D02*
G01X603177D01*
G54D13*
X630307Y1121630D02*
G01X600449Y1150520D01*
D02*
G01Y1210520D01*
G54D19*
Y1150520D03*
G54D70*
X604177Y1201520D02*
G01X596721D01*
X609449Y1206792D02*
G01X604177Y1201520D01*
Y1219520D02*
G01X609449Y1214248D01*
X596721Y1219520D02*
G01X604177D01*
Y1141520D02*
G01X596721D01*
X609449Y1146792D02*
G01X604177Y1141520D01*
Y1159520D02*
G01X609449Y1154248D01*
X596721Y1159520D02*
G01X604177D01*
G54D19*
X600449Y1210520D03*
G54D13*
X492126Y1505906D02*
G01Y1669215D01*
X580709Y1633858D02*
G01X604862Y1603722D01*
X541339Y1679134D02*
G01Y1603722D01*
X662397Y1606139D02*
G01Y1719493D01*
X433071Y1456693D02*
G01Y1498219D01*
X383858Y1437008D02*
G01X403543Y1456693D01*
D02*
G01X433071D01*
G54D29*
X314961Y1440945D03*
G54D13*
X429134Y255906D02*
G01Y403543D01*
G54D15*
X275591Y423228D02*
G01Y364173D01*
D02*
G01Y324803D01*
X-329385Y313791D02*
G01X-257075D01*
D02*
G01X-206693Y364173D01*
D02*
G01X-177165Y393701D01*
X-19685Y364173D02*
G01X78740D01*
G54D28*
X492126Y403543D03*
X429134D03*
G54D18*
X78740Y364173D03*
X-177165Y393701D03*
X275591Y364173D03*
X-255906Y413386D03*
X-147638Y295276D03*
G54D13*
D02*
G01X167323Y610236D01*
G54D15*
X314961Y403543D02*
G01X433071Y521654D01*
G54D13*
X492126Y403543D02*
G01Y452756D01*
G54D15*
X393701Y541339D02*
G01X275591Y423228D01*
X78740Y364173D02*
G01X265748Y551181D01*
G54D28*
X492126Y452756D03*
X429134D03*
G54D13*
X708661Y669291D02*
G01X698819Y659449D01*
G54D18*
D03*
G54D13*
X708661Y826772D02*
G01Y669291D01*
G54D72*
Y826772D03*
X688976D03*
X669291D03*
G54D13*
X688976D02*
G01Y875984D01*
G54D70*
X680449Y959792D02*
G01Y967248D01*
D02*
G01X685721Y972520D01*
D02*
G01X693177D01*
D02*
G01X698449Y967248D01*
D02*
G01Y959792D01*
D02*
G01X693177Y954520D01*
D02*
G01X685721D01*
D02*
G01X680449Y959792D01*
X709449Y969792D02*
G01Y977248D01*
X667449D02*
G01Y969792D01*
X707202Y919984D02*
G01X670751D01*
G54D19*
X689449Y963520D03*
G54D18*
X688976Y875984D03*
G54D10*
X1368110Y511811D02*
G01X1622043D01*
X1500000Y397638D02*
G01X1368110D01*
Y433071D02*
G01X1440945D01*
G54D13*
X1338700Y340025D02*
G01X1427094D01*
G54D34*
X1446850Y438976D03*
Y324803D03*
G54D10*
X2080724Y888376D02*
G01X2159465D01*
X2283465D02*
G01X2401575D01*
G54D16*
X1903559D02*
G01X2080724D01*
G54D22*
D03*
G54D23*
X2401575D03*
G54D71*
X1831421Y885827D03*
G54D22*
X1903559Y888376D03*
G54D20*
X2283465D03*
X2159465D03*
G54D16*
X1901009Y885827D02*
G01X1831421D01*
X1903559Y888376D02*
G01X1901009Y885827D01*
G54D24*
X2622047Y990739D03*
G54D47*
X2221000Y1005835D02*
G01X2229658Y1004137D01*
X2200697Y992493D02*
G01X2199000Y983835D01*
X2205360Y999475D02*
G01X2200697Y992493D01*
X2212342Y1004137D02*
G01X2205360Y999475D01*
X2221000Y1005835D02*
G01X2212342Y1004137D01*
X2241303Y992493D02*
G01X2243000Y983835D01*
X2236641Y999475D02*
G01X2241303Y992493D01*
X2229658Y1004137D02*
G01X2236641Y999475D01*
G54D24*
X2622047Y271654D03*
G54D47*
X2221000Y256835D02*
G01X2212342Y258532D01*
D02*
G01X2205360Y263194D01*
D02*
G01X2200697Y270176D01*
D02*
G01X2199000Y278835D01*
X2221000Y256835D02*
G01X2229658Y258532D01*
D02*
G01X2236641Y263194D01*
D02*
G01X2241303Y270176D01*
D02*
G01X2243000Y278835D01*
G54D10*
X2080724Y374016D02*
G01X2159465D01*
X1750016Y375984D02*
G01X1738205D01*
X2401575Y374016D02*
G01X2283465D01*
G54D16*
X1903559D02*
G01X2080724D01*
X1903559D02*
G01X1835984D01*
G54D20*
X2283465D03*
G54D22*
X1903559D03*
X2080724D03*
G54D23*
X2401575D03*
G54D20*
X2159465D03*
G54D71*
X1834016Y375984D03*
X1750016D03*
G54D16*
X1835984Y374016D02*
G01X1834016Y375984D01*
G54D10*
X1368110Y862205D02*
G01Y826772D01*
G54D13*
X1298315Y846457D02*
G01X1338583Y807087D01*
D02*
G01Y767717D01*
D02*
G01X1368110Y748032D01*
G54D31*
X1298315Y846457D03*
Y905512D03*
G54D34*
X1368110Y748032D03*
Y862205D03*
G54D13*
X1013780Y1043307D02*
G01X1042699D01*
D02*
G01X1043307Y1043915D01*
D02*
G01Y1043307D01*
X925197D02*
G01X1013780D01*
X925197Y1023622D02*
G01X964567D01*
D02*
G01X974409Y1013780D01*
G54D73*
X925197Y1023622D03*
Y1043307D03*
G54D18*
X875984Y1023622D03*
G54D13*
X925197D02*
G01X875984D01*
G54D70*
X836273Y1079849D02*
G01X806457Y1050033D01*
G54D28*
X1043307Y1043307D03*
G54D18*
X1013780D03*
G54D13*
X846457Y1033465D02*
G01X875984Y1062992D01*
X925197Y1082677D02*
G01X963959D01*
X994094Y1072835D02*
G01X984252Y1062992D01*
D02*
G01X925197D01*
X994094Y1072835D02*
G01X1010050Y1088790D01*
D02*
G01X1024807D01*
X885827Y1062992D02*
G01X897028D01*
D02*
G01X897137Y1062883D01*
G54D70*
X831985Y1084137D02*
G01X836273Y1079849D01*
X797449Y1065248D02*
G01Y1057792D01*
G54D73*
X925197Y1082677D03*
Y1062992D03*
G54D13*
X875984D02*
G01X885827D01*
X925087Y1062883D02*
G01X925197Y1062992D01*
X897137Y1062883D02*
G01X925087D01*
X891614D02*
G01X897137D01*
X885827Y1062992D02*
G01X891614Y1062883D01*
G54D26*
X10374Y-152183D03*
Y87974D03*
G54D12*
X-137795Y2209782D02*
G01X-156142D01*
G54D15*
X-265748Y1929134D02*
G01Y1958606D01*
D02*
G01X-304885Y1997743D01*
D02*
G01X-329385Y2046074D01*
G54D13*
X0Y2165354D02*
G01X1339Y2166693D01*
D02*
G01Y2209782D01*
G54D11*
X-156142Y1969625D02*
G01Y2095118D01*
D02*
G01X-157480Y2096457D01*
G54D15*
X-329385Y1888594D02*
G01Y1864818D01*
G54D26*
X-156142Y2209782D03*
Y1969625D03*
G54D27*
X-329385Y2046074D03*
Y1888594D03*
G54D18*
X-108268Y1929134D03*
X0Y2165354D03*
G54D15*
X-156142Y1969625D02*
G01X-108268Y1929134D01*
G54D11*
X1339Y2209782D02*
G01X-137795D01*
G54D15*
X31256Y1966775D02*
G01X7028D01*
D02*
G01X1339Y1969625D01*
G54D11*
D02*
G01Y2095118D01*
D02*
G01X0Y2096457D01*
G54D26*
X1339Y2209782D03*
Y1969625D03*
G54D11*
X-329385Y786232D02*
G01X-451586D01*
D02*
G01X-452756Y787402D01*
G54D12*
X-590397Y807087D02*
G01X-569543Y786232D01*
G54D15*
X-329385D02*
G01Y812347D01*
X-147638Y836614D02*
G01Y679134D01*
G54D13*
X-569543Y786232D02*
G01X-532666D01*
D02*
G01X-531496Y787402D01*
X-255906Y816929D02*
G01Y846457D01*
G54D18*
X-531496Y787402D03*
X-255906Y816929D03*
X-177165Y875984D03*
G54D27*
X-329385Y786232D03*
X-569543D03*
G54D15*
X-196850Y787402D02*
G01X-326081Y658171D01*
X-196850Y856299D02*
G01Y787402D01*
X-177165Y875984D02*
G01X-196850Y856299D01*
G54D12*
X-569543Y954138D02*
G01Y943712D01*
G54D11*
Y1101193D02*
G01Y954138D01*
X-329385Y943712D02*
G01X-451586D01*
D02*
G01X-452756Y944882D01*
G54D12*
X-578799D02*
G01X-569543Y954138D01*
G54D15*
X-329385Y812347D02*
G01X-206693Y935039D01*
G54D27*
X-329385Y943712D03*
X-569543D03*
G54D13*
Y1101193D02*
G01X-532666D01*
D02*
G01X-531496Y1102362D01*
G54D11*
X-329385Y1101193D02*
G01X-451586D01*
D02*
G01X-452756Y1102362D01*
G54D15*
X-265543Y1191150D02*
G01X-329385Y1131890D01*
D02*
G01Y1101193D01*
X-206693Y935039D02*
G01Y1003937D01*
D02*
G01X-147638Y1062992D01*
G54D18*
X-177165Y1102362D03*
G54D27*
X-569543Y1101193D03*
X-329385D03*
G54D18*
X-531496Y1102362D03*
G54D15*
X-196850D02*
G01X-177165D01*
X-329385Y969828D02*
G01X-196850Y1102362D01*
X-329385Y943712D02*
G01Y969828D01*
G54D13*
X610236Y429134D02*
G01X669291D01*
X541339Y1801181D02*
G01X570866Y1771654D01*
G54D15*
X620079D02*
G01X541339Y1850394D01*
G54D13*
X797776Y-152183D02*
G01Y-118642D01*
D02*
G01X797244Y-118110D01*
G54D26*
X797776Y-152183D03*
X640295D03*
X955256D03*
G54D18*
X797244Y-118110D03*
G54D11*
X640295Y87974D02*
G01Y-38839D01*
D02*
G01X639764Y-39370D01*
X797776Y87974D02*
G01Y-38839D01*
D02*
G01X797244Y-39370D01*
X955256Y87974D02*
G01Y-38839D01*
D02*
G01X954724Y-39370D01*
G54D15*
X748032Y118110D02*
G01X777534Y88608D01*
G54D26*
X797776Y87974D03*
X640295D03*
X955256D03*
G54D18*
X797244Y157480D03*
X610236D03*
G54D15*
X639764Y88506D02*
G01X640295Y87974D01*
X669215Y88506D02*
G01X639764D01*
X708661Y127953D02*
G01X669215Y88506D01*
X954724D02*
G01X955256Y87974D01*
X925274Y88506D02*
G01X954724D01*
X846457Y167323D02*
G01X925274Y88506D01*
X797244D02*
G01X797776Y87974D01*
X777534Y88608D02*
G01X797244Y88506D01*
G54D13*
X1033465Y305118D02*
G01Y433071D01*
Y531496D02*
G01Y496063D01*
G54D29*
D03*
Y433071D03*
G54D13*
X797244Y620079D02*
G01Y495532D01*
D02*
G01X800650Y492126D01*
D02*
G01X797244D01*
X826772Y580709D02*
G01X832677D01*
D02*
G01Y551181D01*
G54D15*
D02*
G01X846457Y537402D01*
D02*
G01Y452756D01*
D02*
G01Y364173D01*
G54D18*
X826772Y580709D03*
G54D28*
X832677Y551181D03*
G54D18*
X846457Y364173D03*
G54D13*
X860236Y620079D02*
G01X905512D01*
X895669Y580709D02*
G01X901575D01*
D02*
G01Y554709D01*
D02*
G01X895138Y551713D01*
D02*
G01X895669Y551181D01*
G54D18*
Y580709D03*
G54D28*
Y551181D03*
G54D18*
X905512Y620079D03*
G54D15*
X895669Y551181D02*
G01Y281496D01*
X984252Y708661D02*
G01X964567D01*
G54D13*
X875984Y738189D02*
G01X969488D01*
G54D15*
X944882Y708661D02*
G01X964567D01*
G54D35*
X944882D03*
Y673228D03*
G54D13*
D02*
G01X1029528D01*
X969488Y738189D02*
G01X984252Y744095D01*
G54D15*
Y708661D02*
G01X1003937D01*
G54D13*
X1013780Y816929D02*
G01X1053150Y777559D01*
X1082677Y816929D02*
G01Y807087D01*
D02*
G01X1053150Y777559D01*
G54D35*
X984252Y708661D03*
Y744095D03*
G54D18*
X1053150Y777559D03*
X1003937Y708661D03*
X964567D03*
G54D13*
X990157Y738189D02*
G01X984252Y744095D01*
X1013780Y738189D02*
G01X990157D01*
X1033465Y718504D02*
G01X1013780Y738189D01*
X1033465Y698819D02*
G01Y718504D01*
G54D15*
X300197Y497047D02*
G01X290354D01*
X-319400Y507371D02*
G01Y472441D01*
D02*
G01X-321322Y470520D01*
D02*
G01X-329385Y471271D01*
G54D13*
X492126Y452756D02*
G01Y492126D01*
G54D18*
X-255906Y472441D03*
X492126Y492126D03*
X452756Y482283D03*
G54D13*
Y476378D02*
G01Y482283D01*
X429134Y452756D02*
G01X452756Y476378D01*
G54D15*
X338583Y551181D02*
G01Y535433D01*
D02*
G01X300197Y497047D01*
X433071Y521654D02*
G01Y527559D01*
D02*
G01X456693Y551181D01*
G54D28*
X275591D03*
X338583D03*
X393701D03*
X456693D03*
G54D15*
X393701D02*
G01Y541339D01*
G54D13*
X255906Y682463D02*
G01X307695Y734252D01*
D02*
G01X314961D01*
D02*
G01X407480D01*
D02*
G01X433071Y708661D01*
X255906Y777559D02*
G01Y753937D01*
D02*
G01X250000Y748032D01*
G54D15*
Y742126D02*
G01Y748032D01*
G54D18*
X413386Y777559D03*
G54D28*
X250000Y748032D03*
G54D29*
X314961Y734252D03*
X255906Y682463D03*
G54D18*
Y777559D03*
G54D13*
X409449Y773622D02*
G01X413386Y777559D01*
X364173Y773622D02*
G01X409449D01*
G54D29*
X314961Y797244D03*
X364173Y773622D03*
G54D13*
X314961Y797244D02*
G01X305118Y807087D01*
X255906Y836614D02*
G01X216535D01*
X393701Y905512D02*
G01X364173D01*
G54D73*
X393701D03*
G54D29*
X364173Y836614D03*
G54D18*
X216535D03*
X246063Y866142D03*
G54D13*
X354331Y836614D02*
G01X314961Y797244D01*
X354331Y836614D02*
G01X364173D01*
X354331Y895669D02*
G01Y836614D01*
X364173Y905512D02*
G01X354331Y895669D01*
X134390Y1043307D02*
G01X128484Y1049213D01*
D02*
G01Y1048604D01*
X29528Y1049213D02*
G01X39370Y1043307D01*
G54D29*
X128484Y1048604D03*
G54D13*
X143624Y1151575D02*
G01X128484Y1166715D01*
Y1111596D02*
G01Y1112205D01*
D02*
G01X78740Y1151575D01*
X110635Y1181102D02*
G01X128484Y1166715D01*
Y1122047D02*
G01Y1112205D01*
X78740Y1092520D02*
G01X59055D01*
G54D29*
X128484Y1111596D03*
Y1166715D03*
G54D18*
X78740Y1092520D03*
G54D13*
X59055D02*
G01X29528Y1112205D01*
X-98425Y1574803D02*
G01X-88583Y1564961D01*
X-25591D02*
G01X98425D01*
G54D15*
X-23622Y1614173D02*
G01Y1566929D01*
D02*
G01X-25591Y1564961D01*
X39370Y1614173D02*
G01X68898D01*
G54D28*
X-88583Y1564961D03*
X-25591D03*
X-23622Y1614173D03*
X39370D03*
G54D18*
X68898D03*
G54D13*
X-118110Y1259843D02*
G01X-88583D01*
X42602Y1229707D02*
G01X40952Y1228057D01*
G54D18*
X-118110Y1259843D03*
G54D29*
X39370Y1220472D03*
G54D28*
X-25591Y1259843D03*
X-88583D03*
G54D13*
X19870Y1233595D02*
G01X39370Y1220472D01*
X657Y1233595D02*
G01X19870D01*
X-25591Y1259843D02*
G01X657Y1233595D01*
X40952Y1228057D02*
G01X39370Y1220472D01*
Y1283465D02*
G01X64961Y1309055D01*
G54D18*
X68898D03*
G54D29*
X-29528Y1314961D03*
X39370Y1283465D03*
G54D13*
X19685Y1318898D02*
G01X-29528D01*
D02*
G01Y1314961D01*
X64961Y1309055D02*
G01X68898D01*
G54D18*
X19685Y1318898D03*
X9843Y1377953D03*
G54D29*
X-29528D03*
G54D13*
X9843D02*
G01X-29528D01*
X206693Y1092520D02*
G01X216535Y1082677D01*
D02*
G01X393701D01*
Y1102362D02*
G01X236220D01*
G54D18*
X177165Y1072835D03*
G54D73*
X393701Y1102362D03*
Y1082677D03*
Y1062992D03*
G54D18*
X206693Y1092520D03*
G54D13*
X187008Y1062992D02*
G01X177165Y1072835D01*
X393701Y1062992D02*
G01X187008D01*
X393701Y1122047D02*
G01X246063D01*
D02*
G01X216535Y1151575D01*
X236220Y1102362D02*
G01X216535Y1122047D01*
G54D73*
X393701D03*
G54D13*
Y1181102D02*
G01X295276D01*
G54D73*
X393701D03*
Y1161417D03*
Y1141732D03*
G54D18*
X216535Y1181102D03*
X255906D03*
G54D13*
Y1141732D02*
G01X216535Y1181102D01*
X393701Y1141732D02*
G01X255906D01*
X275591Y1161417D02*
G01X255906Y1181102D01*
X393701Y1161417D02*
G01X275591D01*
G54D11*
X-569543Y1573633D02*
G01Y1731114D01*
G54D13*
Y1416153D02*
G01X-532666D01*
D02*
G01X-531496Y1417323D01*
X-569543Y1731114D02*
G01X-532666D01*
D02*
G01X-531496Y1732283D01*
G54D11*
X-451586Y1731114D02*
G01X-452756Y1732283D01*
X-451586Y1573633D02*
G01X-452756Y1574803D01*
X-451586Y1416153D02*
G01X-452756Y1417323D01*
G54D27*
X-569543Y1573633D03*
Y1416153D03*
G54D18*
X-531496Y1732283D03*
Y1417323D03*
G54D11*
X-329385Y1731114D02*
G01X-451586D01*
X-329385Y1573633D02*
G01X-451586D01*
X-329385Y1416153D02*
G01X-451586D01*
G54D18*
X-177165Y1486221D03*
Y1712598D03*
G54D27*
X-329385Y1573633D03*
Y1416153D03*
G54D18*
X-246063Y1525591D03*
Y1574803D03*
G54D15*
X-177165Y1712598D02*
G01X-157480Y1692913D01*
X-329385Y1549857D02*
G01Y1573633D01*
X-265748Y1486221D02*
G01X-329385Y1549857D01*
X-177165Y1486221D02*
G01X-265748D01*
X-236220Y1377953D02*
G01X-329385Y1289370D01*
X-304885Y1680689D02*
G01X-329385Y1731114D01*
X-277740Y1653543D02*
G01X-304885Y1680689D01*
G54D13*
X935039Y1492126D02*
G01Y1486221D01*
D02*
G01X974411Y1486218D01*
D02*
G01X984252Y1492126D01*
X925197Y1554510D02*
G01X935039Y1555118D01*
X974409Y1407480D02*
G01X1043307Y1476378D01*
D02*
G01Y1564961D01*
X1013780Y1555118D02*
G01X983720Y1555650D01*
D02*
G01X984252Y1555118D01*
X1053150Y1427165D02*
G01X1092520Y1466535D01*
D02*
G01Y1545276D01*
G54D29*
X935039Y1492126D03*
Y1555118D03*
X974409Y1407480D03*
X984252Y1492126D03*
Y1555118D03*
G54D18*
X1013780D03*
G54D13*
X925197Y1603722D02*
G01Y1554510D01*
X1043307Y1564961D02*
G01X1082677Y1604331D01*
G54D18*
X1003937Y1594488D03*
X954724D03*
G54D13*
D02*
G01X980315Y1633858D01*
X1003937Y1594488D02*
G01X1043307Y1633858D01*
G54D28*
D03*
X980315D03*
G54D29*
X974409Y1761811D03*
G54D15*
X1043307Y1633858D02*
G01X1053150Y1644362D01*
G54D13*
X944882Y1742126D02*
G01X974409Y1761811D01*
X944882Y1624016D02*
G01Y1742126D01*
X925197Y1603722D02*
G01X944882Y1624016D01*
G54D15*
X980315Y1649607D02*
G01X1013780Y1683071D01*
X980315Y1633858D02*
G01Y1649607D01*
G54D13*
X1200787Y1437008D02*
G01X1161417D01*
X1112205Y1387795D02*
G01X1161417Y1437008D01*
G54D14*
X1263780Y1466535D02*
G01Y1437008D01*
Y1407480D02*
G01Y1408693D01*
D02*
G01X1347898D01*
G54D28*
X1263780Y1437008D03*
X1200787D03*
G54D43*
X1318898Y1456693D03*
G54D18*
X1263780Y1466535D03*
Y1407480D03*
X1161417Y1437008D03*
G54D14*
X1263780D02*
G01Y1408693D01*
G54D13*
X1200787Y1496063D02*
G01X1161417D01*
X1112205Y1456693D02*
G01Y1535433D01*
X1131890Y1525591D02*
G01Y1446850D01*
G54D14*
X1263780Y1525591D02*
G01Y1496063D01*
D02*
G01Y1466535D01*
G54D28*
X1200787Y1496063D03*
X1263780D03*
G54D18*
X1161417D03*
G54D13*
X1200787Y1555118D02*
G01X1161417D01*
X1112205Y1535433D02*
G01X1131890Y1555118D01*
X1161417D02*
G01X1131890Y1525591D01*
G54D14*
X1263780Y1555118D02*
G01Y1525591D01*
G54D18*
X1348425Y1555118D03*
G54D28*
X1200787D03*
X1263780D03*
G54D18*
Y1525591D03*
Y1584646D03*
X1161417Y1555118D03*
G54D13*
X1348425D02*
G01Y1514591D01*
G54D14*
X1131890Y1161417D02*
G01Y1102362D01*
G54D31*
X1181102Y1151575D03*
G54D28*
X1200787Y1200787D03*
G54D18*
X1131890Y1043307D03*
Y1102362D03*
Y1161417D03*
G54D13*
X1216139Y1116539D02*
G01X1181102Y1151575D01*
X1181103Y1161417D02*
G01X1141732Y1200787D01*
X1181102Y1151575D02*
G01X1181103Y1161417D01*
G54D31*
X1249102Y1151575D03*
G54D13*
X1274019Y1116539D02*
G01X1216139D01*
G54D14*
X1263780Y1230315D02*
G01Y1200787D01*
G54D18*
Y1230315D03*
X1309055D03*
G54D28*
X1263780Y1200787D03*
G54D13*
X1269644Y1151575D02*
G01X1249102D01*
X1309055Y1190986D02*
G01X1269644Y1151575D01*
X1309055Y1230315D02*
G01Y1190986D01*
X1338583Y1181102D02*
G01X1274019Y1116539D01*
X1200787Y1614173D02*
G01X1161417D01*
X1200787Y1732283D02*
G01X1161417D01*
X1200787Y1673228D02*
G01X1161417D01*
X1131890Y1643701D02*
G01X1161417Y1673228D01*
X1112205Y1683071D02*
G01X1161417Y1732283D01*
G54D28*
X1200787D03*
Y1673228D03*
Y1614173D03*
G54D18*
X1161417D03*
Y1673228D03*
Y1732283D03*
G54D14*
X1263780Y1643701D02*
G01Y1614173D01*
Y1702756D02*
G01Y1673228D01*
G54D18*
Y1761811D03*
Y1702756D03*
X1318898Y1614173D03*
G54D28*
X1263780Y1732283D03*
Y1673228D03*
Y1614173D03*
G54D18*
Y1643701D03*
G54D13*
Y1732283D02*
G01Y1702756D01*
G54D14*
Y1761811D02*
G01Y1702756D01*
G54D13*
Y1732283D02*
G01Y1761811D01*
G54D14*
Y1673228D02*
G01Y1643701D01*
G54D13*
X1200787Y1318898D02*
G01X1161417D01*
X1131890Y1309663D02*
G01Y1348425D01*
X1200787Y1259843D02*
G01X1161417Y1289370D01*
G54D18*
X1131890Y1259843D03*
X1161417Y1318898D03*
Y1289370D03*
X1263780Y1348425D03*
Y1289370D03*
G54D28*
X1200787Y1318898D03*
X1263780D03*
G54D14*
D02*
G01Y1289370D01*
Y1348425D02*
G01Y1318898D01*
G54D28*
X1318898D03*
X1381890D03*
G54D13*
X1338583Y1279528D02*
G01Y1269685D01*
Y1299213D02*
G01Y1279528D01*
X1318898Y1318898D02*
G01X1338583Y1299213D01*
X1407480Y1279528D02*
G01X1476378Y1348425D01*
X1338583Y1279528D02*
G01X1407480D01*
X1318898Y1362693D02*
G01Y1318898D01*
G54D18*
X1899606Y1624016D03*
X1811024Y1771654D03*
X2125984Y1742126D03*
Y1633858D03*
G54D13*
X2188976Y1742126D02*
G01X2125984D01*
X2188976Y1633858D02*
G01X2125984D01*
X2283465Y1692913D02*
G01X2376378D01*
D02*
G01X2381890Y1698425D01*
X2283465Y1692913D02*
G01X2251969Y1633858D01*
G54D32*
X2481890Y1698425D03*
G54D28*
X2283465Y1692913D03*
X2220473D03*
X2188976Y1742126D03*
X2251969D03*
X2188976Y1633858D03*
X2251969D03*
G54D32*
X2381890Y1698425D03*
G54D18*
X2205354Y1597953D03*
G54D13*
X2220473Y1604331D02*
G01Y1692913D01*
X2205354Y1597953D02*
G01X2220473Y1604331D01*
X1082677D02*
G01Y1781496D01*
D02*
G01X1259843Y1958661D01*
X738189Y1840551D02*
G01Y1742126D01*
G54D15*
X875984Y1722441D02*
G01Y1801181D01*
X1053150Y1644362D02*
G01Y1860236D01*
X698819Y1685039D02*
G01Y1830709D01*
G54D29*
X659449Y1785433D03*
G54D15*
D02*
G01Y1814528D01*
X836614Y1791339D02*
G01X658771Y1969182D01*
X836614Y1683071D02*
G01Y1791339D01*
X1013780Y1683071D02*
G01Y1941518D01*
G54D13*
X2283465Y1791339D02*
G01X2374803D01*
D02*
G01X2381890Y1798425D01*
X2220473Y1889764D02*
G01Y1791339D01*
D02*
G01Y1692913D01*
G54D32*
X2381890Y1798425D03*
X2481890D03*
G54D28*
X2283465Y1791339D03*
X2220473D03*
G54D13*
X1899606Y1946402D02*
G01Y1624016D01*
X1712598Y1555118D02*
G01Y1811024D01*
G54D14*
X1811024Y1807087D02*
G01Y1771654D01*
G54D13*
X2283465Y1791339D02*
G01X2251969Y1742126D01*
G54D12*
X473780Y2209782D02*
G01Y2282126D01*
D02*
G01X334646Y2421260D01*
X-669291D02*
G01X-1122047Y1968504D01*
X-708661Y2519685D02*
G01X-1122047Y2106299D01*
X158819Y2209782D02*
G01Y2282126D01*
D02*
G01X118110Y2322835D01*
D02*
G01X-629921D01*
D02*
G01X-1122047Y1830709D01*
G54D25*
X-1377953Y2322835D03*
G54D12*
X-1190945Y2175197D02*
G01X-748032Y2618110D01*
X788740Y2282126D02*
G01X551181Y2519685D01*
G54D29*
X1259843Y2129921D03*
Y2066929D03*
G54D13*
X1367334Y2161225D02*
G01X1490350D01*
X1367334Y2159225D02*
G01Y2161225D01*
X1348425Y2159225D02*
G01X1367334D01*
X1259843Y2129921D02*
G01Y2204724D01*
X1446850Y2161225D02*
G01Y2204724D01*
X1490350Y2161225D02*
G01Y2248224D01*
G54D28*
X1322835Y2204724D03*
G54D31*
X1446850D03*
X1377953D03*
G54D28*
X1259843D03*
G54D13*
X1446850Y2248224D02*
G01Y2204724D01*
X1490350D02*
G01X1446850D01*
X1409952Y2248224D02*
G01Y2296205D01*
X1490350Y2248224D02*
G01X1409952D01*
X1322835Y2204724D02*
G01X1377953D01*
X1259843Y2273622D02*
G01Y2204724D01*
G54D12*
X788740Y2209782D02*
G01Y2282126D01*
X1103701D02*
G01Y2209782D01*
G54D13*
X1377953Y2204724D02*
G01Y2362205D01*
X1543952Y2296205D02*
G01Y2428204D01*
X1477953Y2296205D02*
G01Y2362205D01*
G54D12*
X939961Y2445866D02*
G01X1103701Y2282126D01*
G54D13*
X1053150Y2480315D02*
G01X1259843Y2273622D01*
G54D45*
X1802598Y2230661D03*
G54D13*
X2220473Y2401575D02*
G01Y2303150D01*
X2089985Y2337451D02*
G01X2111073Y2316363D01*
D02*
G01X2140896D01*
D02*
G01X2144477Y2319944D01*
D02*
G01Y2306863D01*
D02*
G01X2155512D01*
D02*
G01Y2299437D01*
G54D32*
X2381890Y2298425D03*
X2481890D03*
G54D28*
X2283465Y2303150D03*
X2220473D03*
G54D11*
X-569543Y1888594D02*
G01Y2046074D01*
G54D13*
D02*
G01X-532666D01*
D02*
G01X-531496Y2047244D01*
G54D27*
X-569543Y2046074D03*
Y1888594D03*
G54D18*
X-531496Y2047244D03*
G54D12*
X-786232Y1888594D02*
G01X-787402Y1889764D01*
X-569543Y1888594D02*
G01X-786232D01*
X-1318898Y1909449D02*
G01X-1377953D01*
G54D25*
D03*
Y2047244D03*
Y2185039D03*
G54D12*
Y2047244D02*
G01X-1318898D01*
X-1190945Y2037402D02*
G01X-1318898Y1909449D01*
Y2047244D02*
G01X-1190945Y2175197D01*
G54D13*
X-1181102Y2027559D02*
G01X-1190945Y2037402D01*
X-1136560Y2120812D02*
G01X-1122047Y2106299D01*
X-1181102Y1889764D02*
G01X-1190945Y1899606D01*
G54D12*
X-1122047Y1968504D02*
G01X-1190945Y1899606D01*
G54D13*
X-1136560Y1845222D02*
G01X-1122047Y1830709D01*
G54D39*
X-1181102Y1889764D03*
X-1136560Y1845222D03*
X-1181102Y2027559D03*
X-1136560Y1983017D03*
Y2120812D03*
X-1181102Y2165354D03*
G54D13*
X-1136560Y1983017D02*
G01X-1122047Y1968504D01*
X-1181102Y2165354D02*
G01X-1190945Y2175197D01*
G54D12*
X-1122047Y2106299D02*
G01X-1190945Y2037402D01*
G54D32*
X-1061417Y2509843D03*
X-1161417D03*
G54D12*
X551181Y2519685D02*
G01X-708661D01*
X-1318898Y1358268D02*
G01X-1377953D01*
X-1318898Y1496063D02*
G01X-1377953D01*
G54D25*
Y1358268D03*
Y1496063D03*
Y1633858D03*
G54D12*
X-1318898D02*
G01X-1377953D01*
X-1190945Y1486221D02*
G01X-1318898Y1358268D01*
X-1190945Y1624016D02*
G01X-1318898Y1496063D01*
G54D13*
X-1136560Y1294041D02*
G01X-1122047Y1279528D01*
X-1181102Y1338583D02*
G01X-1190945Y1348425D01*
X-1136560Y1431836D02*
G01X-1122047Y1417323D01*
G54D39*
X-1181102Y1338583D03*
X-1136560Y1431836D03*
X-1181102Y1476378D03*
X-1136560Y1294041D03*
G54D13*
X-1181102Y1476378D02*
G01X-1190945Y1486221D01*
G54D12*
X-1122047Y1417323D02*
G01X-1190945Y1348425D01*
X-1122047Y1555118D02*
G01X-1190945Y1486221D01*
X-964567Y1574803D02*
G01X-1122047Y1417323D01*
X-963397Y1573633D02*
G01X-964567Y1574803D01*
G54D13*
X-1136560Y1707426D02*
G01X-1122047Y1692913D01*
G54D12*
D02*
G01X-1190945Y1624016D01*
G54D13*
X-1181102Y1751969D02*
G01X-1190945Y1761811D01*
X-1136560Y1569631D02*
G01X-1122047Y1555118D01*
G54D39*
X-1136560Y1707426D03*
X-1181102Y1751969D03*
X-1136560Y1569631D03*
X-1181102Y1614173D03*
G54D13*
D02*
G01X-1190945Y1624016D01*
G54D12*
X-1141732Y807087D02*
G01X-1138846D01*
X-1377953D02*
G01X-1181102D01*
G54D25*
X-1377953D03*
G54D29*
X-1141732Y846457D03*
Y909449D03*
G54D12*
Y944882D02*
G01X-1136273D01*
X-1141732D02*
G01X-1181102D01*
G54D13*
X-1141732Y909449D02*
G01Y944882D01*
G54D12*
Y807087D02*
G01X-1181102D01*
G54D13*
X-1141732Y846457D02*
G01Y807087D01*
G54D14*
X-1136560Y945169D02*
G01X-1136273Y944882D01*
G54D12*
X-1377953D02*
G01X-1181102D01*
G54D25*
X-1377953D03*
G54D14*
X-1136560Y1156245D02*
G01Y945169D01*
G54D25*
X-1377953Y1082677D03*
G54D39*
X-1136560Y1156245D03*
X-1181102Y1200787D03*
G54D12*
X-1318898Y1082677D02*
G01X-1377953D01*
G54D13*
X-1181102Y1200787D02*
G01X-1190945Y1210630D01*
G54D12*
X-1102362Y472441D02*
G01X-572112D01*
G54D11*
X-569543Y313791D02*
G01Y471271D01*
G54D13*
D02*
G01X-532666D01*
D02*
G01X-531496Y472441D01*
G54D11*
X-451586Y471271D02*
G01X-452756Y472441D01*
X-451586Y313791D02*
G01X-452756Y314961D01*
G54D27*
X-569543Y313791D03*
Y471271D03*
G54D18*
X-531496Y472441D03*
G54D12*
X-563651Y480902D02*
G01X-569543Y471271D01*
X-572112Y472441D02*
G01X-563651Y480902D01*
X-1299213Y393701D02*
G01X-1377953D01*
G54D25*
D03*
Y531496D03*
G54D12*
D02*
G01X-1299213D01*
X-1200787Y295276D02*
G01X-1299213Y393701D01*
X-1200787Y570866D02*
G01X-1131890Y501969D01*
X-1200787Y433071D02*
G01X-1131890Y364173D01*
X-1299213Y531496D02*
G01X-1200787Y433071D01*
G54D13*
X-1186274Y309789D02*
G01X-1200787Y295276D01*
X-1141732Y354331D02*
G01X-1131890Y364173D01*
X-1186274Y585379D02*
G01X-1200787Y570866D01*
G54D12*
X-1131890Y364173D02*
G01X-1122047Y354331D01*
D02*
G01X-1033465D01*
G54D40*
X-1186274Y585379D03*
Y447584D03*
X-1141732Y492126D03*
X-1186274Y309789D03*
X-1141732Y354331D03*
G54D12*
X-1131890Y501969D02*
G01X-1102362Y472441D01*
G54D13*
X-1141732Y492126D02*
G01X-1131890Y501969D01*
X-1186274Y447584D02*
G01X-1200787Y433071D01*
G54D12*
X-1008858Y54134D02*
G01X-1043307Y88583D01*
G54D11*
X-569543Y-1170D02*
G01Y156311D01*
G54D13*
D02*
G01X-532666D01*
D02*
G01X-531496Y157480D01*
G54D27*
X-569543Y-1170D03*
Y156311D03*
G54D18*
X-531496Y157480D03*
G54D12*
X-835445Y156311D02*
G01X-569543D01*
X-1299213Y-19685D02*
G01X-1377953D01*
G54D25*
D03*
Y118110D03*
G54D12*
X-1299213D02*
G01X-1377953D01*
X-1200787Y-118110D02*
G01X-1299213Y-19685D01*
X-1131890Y-49213D02*
G01X-1200787Y19685D01*
D02*
G01X-1299213Y118110D01*
X-1131890Y88583D02*
G01X-1200787Y157480D01*
G54D40*
X-1141732Y-196850D03*
G54D25*
X-1377953Y-157480D03*
G54D12*
D02*
G01X-1131890Y-403543D01*
X-649607Y-167323D02*
G01X-1023622Y206693D01*
X-688976Y-265748D02*
G01X-1008858Y54134D01*
X-816929Y-364173D02*
G01X-1131890Y-49213D01*
Y-187008D02*
G01X-1200787Y-118110D01*
X-1053150Y-265748D02*
G01X-1131890Y-187008D01*
G54D13*
X-1141732Y-196850D02*
G01X-1131890Y-187008D01*
G54D11*
X10374Y-152183D02*
G01X-147106D01*
G54D12*
X-162246Y-167323D02*
G01X-649607D01*
X-147106Y-152183D02*
G01X-162246Y-167323D01*
G54D11*
X955256Y-152183D02*
G01X797776D01*
X640295D02*
G01X482815D01*
X1097817D02*
G01X1090441D01*
D02*
G01X1089115Y-150856D01*
X1136433Y-152182D02*
G01X1136434D01*
X325335Y-152183D02*
G01X167854D01*
X1127345D02*
G01X1136433Y-152182D01*
G54D12*
X797776Y-152183D02*
G01Y-206161D01*
D02*
G01X541339Y-462598D01*
X1112205Y-152715D02*
G01X1112736Y-152183D01*
X1112205Y-226378D02*
G01Y-152715D01*
X167854Y-206161D02*
G01X108268Y-265748D01*
X167854Y-152183D02*
G01Y-206161D01*
X482815D02*
G01X324803Y-364173D01*
X482815Y-152183D02*
G01Y-206161D01*
G54D46*
X2402047Y-374331D02*
G01Y-434331D01*
X2372047Y-374331D02*
G01X2432047D01*
G54D13*
X-1098985Y-439536D02*
G01X-1131890Y-406632D01*
D02*
G01Y-403543D01*
G54D42*
X-1098985Y-439536D03*
G54D12*
X541339Y-462598D02*
G01X-856299D01*
G54D14*
X-1107534Y-320133D02*
G01X-1083179Y-344488D01*
D02*
G01X-1082677D01*
G54D12*
X-856299Y-462598D02*
G01X-1053150Y-265748D01*
X324803Y-364173D02*
G01X-816929D01*
G54D14*
X-1082677Y-344488D02*
G01X-1043307Y-383858D01*
G54D42*
D03*
G54D14*
X-1107534Y-320133D02*
G01X-1131890Y-295777D01*
D02*
G01Y-295276D01*
X-1186274Y-241393D02*
G01X-1161919Y-265748D01*
D02*
G01X-1161417D01*
X-1186274Y-241393D02*
G01Y-240891D01*
D02*
G01X-1210630Y-216535D01*
G54D12*
X108268Y-265748D02*
G01X-688976D01*
G54D18*
X-1131890Y-295276D03*
X-1161417Y-265748D03*
X-1210630Y-216535D03*
X-1082677Y-344488D03*
G54D40*
X-1186274Y-241393D03*
X-1062992Y-275591D03*
X-1107534Y-320133D03*
G54D13*
X-1062992Y-275591D02*
G01X-1053150Y-265748D01*
X-1112205Y206693D02*
G01X-1114862D01*
D02*
G01X-1141732Y216535D01*
Y78740D02*
G01X-1131890Y88583D01*
X-1186274Y171993D02*
G01X-1200787Y157480D01*
G54D40*
X-1186274Y171993D03*
Y34198D03*
X-1141732Y78740D03*
X-1186274Y-103597D03*
X-1141732Y-59055D03*
G54D13*
Y216535D02*
G01X-1131890Y226378D01*
X-1186274Y34198D02*
G01X-1200787Y19685D01*
X-1141732Y-59055D02*
G01X-1131890Y-49213D01*
X-1186274Y-103597D02*
G01X-1200787Y-118110D01*
G54D14*
X-1068164Y-5172D02*
G01X-1092520Y19183D01*
G54D12*
X-1043307Y88583D02*
G01X-1131890D01*
G54D14*
X-1092520Y19183D02*
G01Y19685D01*
X-1068164Y-5172D02*
G01X-1043809Y-29528D01*
D02*
G01X-1043307D01*
G54D13*
X-1023622Y39370D02*
G01X-1008858Y54134D01*
G54D40*
X-1023622Y39370D03*
X-1068164Y-5172D03*
G54D18*
X-1092520Y19685D03*
X-1043307Y-29528D03*
G54D15*
X974409Y1344488D02*
G01X948819Y1318898D01*
X974409Y1344488D02*
G01X988189Y1358268D01*
G54D13*
X925197Y1259843D02*
G01X993486D01*
G54D29*
X974409Y1344488D03*
G54D13*
X925197Y1279528D02*
G01X983644D01*
Y1220472D02*
G01X925197D01*
G54D15*
X988189Y1358268D02*
G01X1003937D01*
G54D13*
X993486Y1259843D02*
G01X1072835Y1339191D01*
G54D18*
X1003937Y1358268D03*
G54D13*
X983644Y1279528D02*
G01X1053150Y1349033D01*
X1092520Y1329348D02*
G01X983644Y1220472D01*
G54D14*
X1580098Y875984D02*
G01X1629311D01*
Y816929D02*
G01X1580098D01*
G54D10*
X1446850Y935039D02*
G01X1624496D01*
G54D14*
X1579638Y846457D02*
G01X1628413D01*
G54D13*
X492126Y1669215D02*
G01X482815Y1678526D01*
X580709Y1679134D02*
G01Y1633858D01*
X531496Y1679134D02*
G01X541339D01*
X570866Y1771654D02*
G01Y1751969D01*
D02*
G01X580709Y1742126D01*
X531496D02*
G01X486698D01*
D02*
G01X484757Y1744068D01*
D02*
G01Y1743459D01*
G54D29*
X482815Y1678526D03*
Y1741518D03*
X531496Y1679134D03*
Y1742126D03*
G54D13*
X484757Y1743459D02*
G01X482815Y1741518D01*
G54D29*
X580709Y1679134D03*
Y1742126D03*
G54D13*
X639764Y1643701D02*
G01Y1673228D01*
D02*
G01X629921D01*
X688976Y1643701D02*
G01Y1673228D01*
D02*
G01X691857Y1672172D01*
D02*
G01X692913Y1673228D01*
G54D18*
X688976Y1643701D03*
X639764D03*
G54D28*
X692913Y1673228D03*
X629921D03*
G54D29*
X659449Y1722441D03*
G54D15*
X692913Y1679134D02*
G01X698819Y1685039D01*
X692913Y1673228D02*
G01Y1679134D01*
G54D13*
X662397Y1719493D02*
G01X659449Y1722441D01*
G54D15*
X620079Y1683071D02*
G01Y1771654D01*
X629921Y1673228D02*
G01X620079Y1683071D01*
X206693Y1850394D02*
G01X147638D01*
D02*
G01X31256Y1966775D01*
G54D13*
X344488Y1879845D02*
G01X334646Y1889764D01*
G54D18*
D03*
X374016D03*
X226378Y1929134D03*
G54D26*
X158819Y1969625D03*
X316299D03*
G54D15*
X185887D02*
G01X158819D01*
X226378Y1929134D02*
G01X185887Y1969625D01*
X333020Y1970991D02*
G01X316299Y1969625D01*
X342002Y1970991D02*
G01X333020D01*
X462598Y1850394D02*
G01X342002Y1970991D01*
G54D13*
X374016Y1889764D02*
G01X462598Y1801181D01*
G54D11*
X158819Y1969625D02*
G01Y2095118D01*
X473780Y1969625D02*
G01Y2095118D01*
X316299Y1969625D02*
G01X314961Y2096457D01*
X316299Y2209782D02*
G01X158819D01*
G54D12*
D02*
G01X161030Y2211994D01*
G54D11*
X158819Y2095118D02*
G01X157480Y2096457D01*
X473780Y2095118D02*
G01X472441Y2096457D01*
G54D13*
X316299Y2209782D02*
G01X324803Y2204724D01*
G54D18*
Y2165354D03*
G54D26*
X316299Y2209782D03*
X158819D03*
G54D11*
X314961Y2096457D02*
G01Y2086614D01*
G54D13*
X324803Y2204724D02*
G01Y2165354D01*
X482815Y-152183D02*
G01Y-108799D01*
D02*
G01X482283Y-108268D01*
G54D11*
X167854Y-38839D02*
G01X167323Y-39370D01*
G54D18*
X482283Y-108268D03*
X167323D03*
G54D26*
X325335Y-152183D03*
X167854D03*
G54D13*
Y-108799D02*
G01X167323Y-108268D01*
X167854Y-152183D02*
G01Y-108799D01*
G54D11*
X325335Y-38839D02*
G01X324803Y-39370D01*
X167854Y87974D02*
G01Y-38839D01*
X325335Y87974D02*
G01Y-38839D01*
G54D18*
X334646Y157480D03*
G54D26*
X325335Y87974D03*
X167854D03*
G54D15*
X324803Y88506D02*
G01X325335Y87974D01*
X354254Y88506D02*
G01X324803D01*
G54D13*
X334646Y157480D02*
G01X330709D01*
G54D15*
X196242Y87974D02*
G01X314961Y206693D01*
X167854Y87974D02*
G01X196242D01*
X482283Y88506D02*
G01X482815Y87974D01*
G54D40*
X-1141732Y629921D03*
G54D47*
X-1751969Y2814961D02*
G01Y-649606D01*
G54D25*
X-1377953Y669291D03*
G54D14*
X-1141732Y629921D02*
G01Y807087D01*
G54D12*
X-1299213Y669291D02*
G01X-1200787Y570866D01*
X-1377953Y669291D02*
G01X-1299213D01*
G54D13*
X177165Y1338583D02*
G01X143902Y1373217D01*
D02*
G01X143164Y1372479D01*
D02*
G01X137795Y1372047D01*
X216535Y1368110D02*
G01X187008Y1397638D01*
G54D29*
X137795Y1372047D03*
G54D13*
X246063Y1397638D02*
G01X256302Y1387398D01*
X187008Y1460630D02*
G01X246063D01*
X137795Y1466535D02*
G01X187008D01*
D02*
G01Y1460630D01*
G54D29*
D03*
Y1397638D03*
X246063D03*
Y1460630D03*
G54D18*
X147638Y1515748D03*
G54D13*
X354331Y1486221D02*
G01X315744Y1486326D01*
D02*
G01X314961Y1492126D01*
X433071Y1498219D02*
G01X429134Y1502156D01*
D02*
G01Y1505906D01*
X393701Y1545276D02*
G01Y1574803D01*
D02*
G01X383858D01*
G54D15*
D02*
G01X364173Y1594488D01*
G54D18*
X354331Y1525591D03*
G54D28*
X383858Y1574803D03*
G54D29*
X314961Y1555118D03*
G54D28*
X429134Y1505906D03*
G54D29*
X314961Y1492126D03*
G54D18*
X393701Y1545276D03*
X354331Y1486221D03*
G54D13*
Y1525591D02*
G01X314961Y1555118D01*
G54D15*
Y1492126D02*
G01X301181Y1505906D01*
G54D13*
X364173Y1692913D02*
G01X393701Y1663386D01*
G54D18*
D03*
X433071D03*
G54D28*
X427165Y1692913D03*
X364173D03*
G54D15*
X324803Y1633858D02*
G01X391039D01*
X427165Y1692913D02*
G01Y1728346D01*
G54D13*
X433071Y1692913D02*
G01X427165D01*
X433071Y1663386D02*
G01Y1692913D01*
X541870Y1485689D02*
G01Y1603722D01*
X551181Y1450946D02*
G01X496221Y1505906D01*
D02*
G01X492126D01*
X511811Y1407480D02*
G01X492126Y1427165D01*
D02*
G01Y1466535D01*
X531496Y1427165D02*
G01X521654Y1437008D01*
X541339Y1603722D02*
G01X541870D01*
G54D28*
D03*
X492126Y1505906D03*
G54D18*
X521654Y1437008D03*
X462598Y1545276D03*
X492126Y1466535D03*
G54D13*
X570866Y1456693D02*
G01X541870Y1485689D01*
G54D18*
X570866Y1525591D03*
G54D13*
Y1486221D02*
G01Y1525591D01*
X590551Y1466535D02*
G01X570866Y1486221D01*
X659980Y1603722D02*
G01X604862D01*
X688976Y1496063D02*
G01X722972Y1530059D01*
D02*
G01Y1603722D01*
X669291Y1515748D02*
G01X679134Y1525591D01*
X600394Y1496063D02*
G01X610236Y1486221D01*
G54D18*
X669291Y1555118D03*
G54D28*
X659980Y1603722D03*
X604862D03*
G54D18*
X600394Y1496063D03*
X679134Y1525591D03*
G54D13*
X659980Y1603722D02*
G01X662397Y1606139D01*
X604862Y1550650D02*
G01Y1603722D01*
X629921Y1525591D02*
G01X604862Y1550650D01*
X649606Y1535433D02*
G01X669291Y1555118D01*
G54D26*
X788740Y2209782D03*
X631260D03*
G54D18*
X629921Y2165354D03*
G54D13*
X631260Y2166693D02*
G01X629921Y2165354D01*
X631260Y2209782D02*
G01Y2166693D01*
G54D11*
X788740Y2095118D02*
G01X787402Y2096457D01*
X631260Y2095118D02*
G01X629921Y2096457D01*
X946220Y2209782D02*
G01X788740D01*
G54D26*
X1103701D03*
X946220D03*
G54D18*
X944882Y2175197D03*
X1102362D03*
G54D13*
X946220Y2176536D02*
G01X944882Y2175197D01*
X946220Y2209782D02*
G01Y2176536D01*
G54D11*
X1103701Y2095118D02*
G01X1102362Y2096457D01*
X946220Y2095118D02*
G01X944882Y2096457D01*
G54D13*
X1103701Y2176536D02*
G01X1102362Y2175197D01*
X1103701Y2209782D02*
G01Y2176536D01*
X-9843Y856299D02*
G01X-10374D01*
D02*
G01X-10982Y855691D01*
X-9843Y797244D02*
G01Y856299D01*
Y659449D02*
G01Y738189D01*
G54D28*
Y856299D03*
Y797244D03*
Y738189D03*
G54D13*
X-49213Y895669D02*
G01X-59055Y905512D01*
X-10374Y856831D02*
G01Y866673D01*
Y856299D02*
G01Y856831D01*
D02*
G01X-9843Y856299D01*
X-10451Y856907D02*
G01X-10374Y856831D01*
X-19685Y797244D02*
G01X-9843D01*
X-78740Y738189D02*
G01X-19685Y797244D01*
X-78740Y649606D02*
G01Y738189D01*
X59055Y895669D02*
G01X-49213D01*
X133030Y875984D02*
G01X128484Y871439D01*
X129844Y807087D02*
G01X128484Y808447D01*
Y871439D02*
G01X54290Y797244D01*
D02*
G01X53150D01*
X128484Y808447D02*
G01X58226Y738189D01*
D02*
G01X53150D01*
X54289Y856299D02*
G01X53150D01*
G54D28*
Y797244D03*
Y856299D03*
Y738189D03*
G54D29*
X128484Y871439D03*
Y808447D03*
G54D13*
X531496Y826772D02*
G01Y748563D01*
X472441Y826772D02*
G01Y797244D01*
X482283Y767717D02*
G01X492126Y777559D01*
D02*
G01Y826772D01*
X462599Y708661D02*
G01X511811Y757874D01*
D02*
G01Y826772D01*
X531496Y679134D02*
G01Y718504D01*
D02*
G01X551181Y738189D01*
D02*
G01Y826772D01*
G54D72*
X472441D03*
X551181D03*
X531496D03*
X511811D03*
X492126D03*
G54D18*
X531496Y679134D03*
X482283Y767717D03*
G54D13*
X570866Y728346D02*
G01X561024Y708661D01*
G54D18*
D03*
G54D13*
X590551Y826772D02*
G01Y649606D01*
X570866Y826772D02*
G01Y728346D01*
X649606Y826772D02*
G01Y649606D01*
X629921Y826772D02*
G01Y787402D01*
G54D72*
X649606Y826772D03*
X629921D03*
X610236D03*
X590551D03*
X570866D03*
G54D18*
X610236Y875984D03*
X620079Y777559D03*
G54D13*
X610236Y826772D02*
G01Y875984D01*
X629921Y787402D02*
G01X620079Y777559D01*
G54D47*
X2755906Y-649606D02*
G01Y2814961D01*
X2243000Y983835D02*
G01Y278835D01*
X2199000Y277835D02*
G01Y983835D01*
G54D13*
X1127345Y-152182D02*
G01X1136433D01*
X1181102Y403543D02*
G01X1230315D01*
G54D31*
D03*
Y452756D03*
G54D36*
X1181102Y403543D03*
Y462598D03*
G54D13*
X1131890Y482283D02*
G01Y600394D01*
X1151575Y462598D02*
G01X1131890Y482283D01*
X1181102Y462598D02*
G01X1151575D01*
X1200787Y-88583D02*
G01Y137795D01*
X1137188Y-152182D02*
G01X1200787Y-88583D01*
X1136433Y-152182D02*
G01X1137188D01*
X1220472Y452756D02*
G01X1230315D01*
X1181102Y462598D02*
G01X1220472Y452756D01*
X1298315D02*
G01X1357370Y511811D01*
D02*
G01X1368110D01*
G54D10*
Y397638D02*
G01Y433071D01*
G54D13*
X1298315Y403543D02*
G01X1309055Y392803D01*
D02*
G01Y369670D01*
G54D34*
X1368110Y397638D03*
Y511811D03*
G54D31*
X1298315Y403543D03*
Y452756D03*
G54D13*
X1309055Y369670D02*
G01X1338700Y340025D01*
G54D73*
X925197Y905512D03*
G54D13*
X895669Y836614D02*
G01X856299Y875984D01*
X885827D02*
G01X954724D01*
X875984Y885827D02*
G01X885827Y875984D01*
X925197Y905512D02*
G01X994094D01*
G54D70*
X816300Y977526D02*
G01Y895669D01*
G54D13*
X856299Y875984D02*
G01Y994094D01*
X875984Y954724D02*
G01Y885827D01*
X925197Y984252D02*
G01X1013780D01*
D02*
G01X1042699D01*
D02*
G01X1043307Y984860D01*
D02*
G01Y984252D01*
X925197Y925197D02*
G01X1053150D01*
G54D73*
X925197D03*
Y944882D03*
Y964567D03*
Y984252D03*
G54D28*
X1043307D03*
G54D70*
X806457Y987369D02*
G01X816300Y977526D01*
G54D18*
X1013780Y984252D03*
G54D13*
X885827Y964567D02*
G01X875984Y954724D01*
X925197Y964567D02*
G01X885827D01*
X767717Y1437008D02*
G01X826772Y1496063D01*
X807087Y1417323D02*
G01X885827Y1496063D01*
X787402Y1427165D02*
G01X856299Y1496063D01*
X826772D02*
G01Y1589411D01*
D02*
G01X841083Y1603722D01*
X826772Y1407480D02*
G01X875984Y1456693D01*
X885827Y1496063D02*
G01Y1535433D01*
X856299Y1496063D02*
G01Y1505906D01*
G54D18*
X836614Y1643701D03*
G54D28*
X846457Y1673228D03*
X841083Y1603722D03*
G54D18*
X856299Y1505906D03*
X885827Y1535433D03*
Y1643701D03*
G54D15*
X846457Y1673228D02*
G01X836614Y1683071D01*
G54D13*
X846457Y1397638D02*
G01X856299Y1407480D01*
X836614Y1673228D02*
G01X846457D01*
X836614Y1643701D02*
G01Y1673228D01*
X1053150Y1349033D02*
G01Y1427165D01*
X1092520Y1407480D02*
G01Y1329348D01*
X1072835Y1339191D02*
G01Y1417323D01*
X688976Y1358268D02*
G01Y1496063D01*
X708661Y1358268D02*
G01Y1486221D01*
X669291Y1358268D02*
G01Y1515748D01*
X649606Y1358268D02*
G01Y1535433D01*
G54D72*
Y1358268D03*
X669291D03*
X688976D03*
X708661D03*
X728346D03*
G54D13*
Y1476378D02*
G01Y1358268D01*
X748032D02*
G01Y1456693D01*
G54D72*
Y1358268D03*
G54D13*
X767717D02*
G01Y1437008D01*
X826772Y1358268D02*
G01Y1407480D01*
X846457Y1358268D02*
G01Y1397638D01*
G54D72*
Y1358268D03*
X826772D03*
X807087D03*
X767717D03*
X787402D03*
G54D13*
D02*
G01Y1427165D01*
X807087Y1358268D02*
G01Y1417323D01*
G54D25*
X-1377953Y1771654D03*
G54D27*
X-569543Y1731114D03*
G54D12*
X-787402Y1889764D02*
G01X-1122047Y1555118D01*
Y1830709D02*
G01X-1190945Y1761811D01*
X-1318898Y1771654D02*
G01X-1377953D01*
X-1190945Y1899606D02*
G01X-1318898Y1771654D01*
X-1190945Y1761811D02*
G01X-1318898Y1633858D01*
X-605178Y2209782D02*
G01X-1122047Y1692913D01*
G54D15*
X-329385Y1864818D02*
G01X-177165Y1712598D01*
X427165Y1728346D02*
G01X226378Y1929134D01*
X-108268D02*
G01X29528Y1791339D01*
D02*
G01X167323D01*
D02*
G01X324803Y1633858D01*
G54D27*
X-329385Y1731114D03*
G54D13*
X482815Y1741518D02*
G01X344488Y1879845D01*
G54D15*
X-68898Y1732283D02*
G01X-265748Y1929134D01*
X364173Y1692913D02*
G01X206693Y1850394D01*
G54D18*
X-147638Y-108268D03*
G54D26*
X-147106Y-152183D03*
G54D11*
X10374Y-38839D02*
G01X9843Y-39370D01*
X-147106Y-38839D02*
G01X-147638Y-39370D01*
G54D13*
X-147106Y-108799D02*
G01X-147638Y-108268D01*
X-147106Y-152183D02*
G01Y-108799D01*
G54D15*
X-329385Y-1170D02*
G01Y24298D01*
D02*
G01X-255906Y97778D01*
G54D27*
X-329385Y-1170D03*
G54D11*
X10374Y87974D02*
G01Y-38839D01*
X-147106Y87974D02*
G01Y-38839D01*
G54D15*
X-329385Y156311D02*
G01Y182426D01*
X-255906Y97778D02*
G01Y127953D01*
G54D27*
X-329385Y156311D03*
G54D26*
X-147106Y87974D03*
G54D15*
X39370Y88583D02*
G01X10374Y87974D01*
X-147638Y88506D02*
G01X-147106Y87974D01*
X-118187Y88506D02*
G01X-147638D01*
G54D13*
X344489Y1240158D02*
G01X393701D01*
X305118Y1250000D02*
G01X334646Y1220472D01*
D02*
G01X393701D01*
Y1200787D02*
G01X314961D01*
D02*
G01X295276Y1220472D01*
X393701Y1259843D02*
G01X354331D01*
D02*
G01X314961Y1299213D01*
G54D73*
X393701Y1200787D03*
Y1220472D03*
Y1240158D03*
Y1259843D03*
Y1279528D03*
G54D18*
X295276Y1220472D03*
G54D13*
X393701Y1279528D02*
G01X383858D01*
Y1318898D02*
G01X442913Y1377953D01*
X383858Y1279528D02*
G01Y1318898D01*
X314961Y1299213D02*
G01Y1377953D01*
X295461Y1387398D02*
G01X314961Y1377953D01*
G54D18*
X354331Y1437008D03*
G54D29*
X314961Y1377953D03*
G54D18*
X413386Y1427165D03*
G54D13*
X354331Y1437008D02*
G01X383858D01*
X318898D02*
G01X314961Y1440945D01*
X354331Y1437008D02*
G01X318898D01*
X413386Y1427165D02*
G01X433071Y1407480D01*
X128484Y1230315D02*
G01Y1229707D01*
X167323Y1230315D02*
G01X128484D01*
G54D18*
X177165Y1289370D03*
Y1338583D03*
G54D29*
X137795Y1309055D03*
G54D13*
X177165Y1289370D02*
G01X137795Y1309055D01*
X216535Y1279528D02*
G01X167323Y1230315D01*
X236220Y1259843D02*
G01Y1240158D01*
D02*
G01X246063Y1230315D01*
X216535Y1342520D02*
G01Y1344488D01*
G54D18*
X265748Y1250000D03*
G54D29*
X216535Y1342520D03*
Y1279528D03*
G54D13*
D02*
G01X236220Y1259843D01*
X246063Y1230315D02*
G01X255906Y1220472D01*
X216535Y1344488D02*
G01Y1368110D01*
X232283Y1328740D02*
G01X255906D01*
X216535Y1344488D02*
G01X232283Y1328740D01*
X275591Y551181D02*
G01X285433Y561024D01*
D02*
G01Y580709D01*
G54D15*
X265748Y551181D02*
G01X275591D01*
G54D18*
X285433Y580709D03*
G54D13*
X255906Y610236D02*
G01Y619470D01*
X167323Y610236D02*
G01X255906D01*
Y619470D02*
G01X305650D01*
G54D18*
X344488Y580709D03*
G54D13*
X337333Y552431D02*
G01X344488Y558167D01*
X338583Y551181D02*
G01X337333Y552431D01*
X344488Y557087D02*
G01X338583Y551181D01*
X443445Y619470D02*
G01X442913D01*
D02*
G01X377670D01*
D02*
G01X377218Y619018D01*
D02*
G01X368642Y619470D01*
X397106Y554587D02*
G01X393701Y551181D01*
X344488Y580709D02*
G01Y558167D01*
D02*
G01Y557087D01*
X501969Y615002D02*
G01X506437Y619470D01*
G54D18*
X452756Y580709D03*
X413386D03*
X501969Y590551D03*
G54D13*
D02*
G01Y615002D01*
X413386Y580709D02*
G01X393701Y551181D01*
X452756Y555118D02*
G01Y580709D01*
X456693Y551181D02*
G01X452756Y555118D01*
G54D18*
X698819Y580709D03*
G54D29*
X669291Y492126D03*
Y429134D03*
G54D13*
X659449Y492126D02*
G01X669291D01*
X659449Y590551D02*
G01Y492126D01*
X679134Y619470D02*
G01X659449Y590551D01*
X698819Y580709D02*
G01Y551181D01*
X679665Y619470D02*
G01X679134D01*
G54D15*
X698819Y551181D02*
G01X708661Y541339D01*
D02*
G01Y364173D01*
G54D28*
X698819Y551181D03*
G54D18*
X708661Y364173D03*
X767717Y580709D03*
G54D28*
X761811Y551181D03*
G54D15*
D02*
G01X748032Y537402D01*
G54D13*
X767717Y557087D02*
G01X761811Y551181D01*
X767717Y580709D02*
G01Y557087D01*
X554020Y619470D02*
G01X561024D01*
D02*
G01X561555D01*
X554020D02*
G01X554473Y619018D01*
D02*
G01X561555Y619470D01*
G54D15*
X531496Y511811D02*
G01Y364173D01*
D02*
G01Y265748D01*
G54D18*
Y580709D03*
Y364173D03*
G54D13*
X570866Y557087D02*
G01X564961Y551181D01*
X570866Y580709D02*
G01Y557087D01*
X560492Y620002D02*
G01X561024Y619470D01*
X560947Y620002D02*
G01X560492D01*
G54D18*
X570866Y580709D03*
G54D28*
X564961Y551181D03*
G54D29*
X610236Y429134D03*
Y492126D03*
G54D13*
X629921Y624845D02*
G01X624547Y619470D01*
X616256Y494320D02*
G01X610236Y492126D01*
X614173Y496402D02*
G01X616256Y494320D01*
X614173Y619470D02*
G01Y496402D01*
X624547Y619470D02*
G01X614173D01*
X649606Y649606D02*
G01X629921Y629921D01*
D02*
G01Y624845D01*
X797244Y620079D02*
G01Y669291D01*
X728346Y826772D02*
G01Y633782D01*
D02*
G01X742657Y619470D01*
G54D28*
X797244Y620079D03*
X561555Y619470D03*
X624547D03*
X679665D03*
X742657D03*
G54D13*
X669291Y629313D02*
G01X679134Y619470D01*
X669291Y826772D02*
G01Y629313D01*
X590551Y649606D02*
G01X560947Y620002D01*
X905512Y659449D02*
G01X1033465Y531496D01*
X1131890Y600394D02*
G01X1033465Y698819D01*
X1029528Y673228D02*
G01X1112205Y590551D01*
G54D28*
X860236Y620079D03*
X1515748Y413386D03*
G54D13*
X1429118Y338001D02*
G01X1446850Y324803D01*
X1427094Y340025D02*
G01X1429118Y338001D01*
G54D10*
X1440945Y433071D02*
G01X1446850Y438976D01*
X1515748Y413386D02*
G01X1500000Y397638D01*
X1490158Y438976D02*
G01X1515748Y413386D01*
X1446850Y438976D02*
G01X1490158D01*
X1446850Y324803D02*
G01X1669524D01*
G54D14*
X1578756Y442913D02*
G01X1627969D01*
D02*
G01X1657496Y413386D01*
X1578740Y442913D02*
G01X1578756D01*
G54D18*
D03*
X1627969D03*
G54D14*
X1578740Y413386D02*
G01Y442913D01*
G54D10*
X1627969Y505886D02*
G01X1649626D01*
G54D33*
X1627969D03*
G54D10*
X1622043Y511811D02*
G01X1627969Y505886D01*
G54D13*
X1437008Y935039D02*
G01X1446850D01*
G54D10*
X1456693Y820866D02*
G01X1486221Y826772D01*
X1446850Y820866D02*
G01X1456693D01*
X1515748Y846457D02*
G01X1500000Y862205D01*
G54D28*
X1515748Y846457D03*
G54D10*
X1486221Y826772D02*
G01X1515748Y846457D01*
G54D13*
X1573732D02*
G01X1578740D01*
D02*
G01X1579638D01*
G54D14*
Y816929D02*
G01Y846457D01*
X1580098Y816929D02*
G01X1579638D01*
Y846457D02*
G01Y875984D01*
G54D18*
X1580098Y816929D03*
Y875984D03*
G54D28*
X1578740Y846457D03*
G54D13*
X1579638Y875984D02*
G01X1569795D01*
X1578740Y875087D02*
G01X1579638Y875984D01*
X1578740Y846457D02*
G01Y875087D01*
G54D14*
Y846457D02*
G01X1579638D01*
G54D13*
Y816929D02*
G01X1569795D01*
X1578740Y817827D02*
G01X1579638Y816929D01*
X1578740Y846457D02*
G01Y817827D01*
G54D14*
X1579638Y875984D02*
G01X1580098D01*
G54D70*
X853130Y1279528D02*
G01X831985Y1258383D01*
G54D73*
X925197Y1259843D03*
G54D18*
X944882Y1318898D03*
G54D73*
X925197Y1279528D03*
G54D15*
X948819Y1318898D02*
G01X944882D01*
G54D73*
X925197Y1220472D03*
Y1200787D03*
G54D70*
X833445Y1220472D02*
G01X831985Y1219013D01*
Y1221932D02*
G01X833445Y1220472D01*
G54D13*
X885578Y1201147D02*
G01X875984Y1200787D01*
X885046Y1201147D02*
G01X885578D01*
X885295Y1201396D02*
G01X885046Y1201147D01*
X885904Y1200787D02*
G01X885295Y1201396D01*
X925197Y1200787D02*
G01X885904D01*
G54D70*
X831985Y1258383D02*
G01Y1221932D01*
G54D13*
X925197Y1240158D02*
G01X885904D01*
D02*
G01X885295Y1240766D01*
D02*
G01X885046Y1240517D01*
D02*
G01X885578D01*
D02*
G01X875984Y1240158D01*
G54D73*
X925197D03*
G54D18*
X875984D03*
G54D13*
X925197Y1141732D02*
G01X875984D01*
X925197Y1122047D02*
G01X963959D01*
G54D70*
X797449Y1125248D02*
G01Y1117792D01*
G54D73*
X925197Y1141732D03*
Y1122047D03*
G54D70*
X833445D02*
G01X831985Y1120587D01*
Y1123507D02*
G01X833445Y1122047D01*
G54D18*
X875984Y1141732D03*
X974409Y1131890D03*
G54D13*
X972191Y1130279D02*
G01X974409Y1131890D01*
X963959Y1122047D02*
G01X972191Y1130279D01*
G54D28*
X1043307Y1161417D03*
G54D70*
X831985Y1159958D02*
G01Y1123507D01*
G54D13*
X1073770Y1183830D02*
G01Y1132825D01*
X1043307Y1162026D02*
G01Y1161417D01*
X925197D02*
G01X983644D01*
X925197Y1181102D02*
G01X973801D01*
G54D70*
X797449Y1184248D02*
G01Y1176792D01*
G54D73*
X925197Y1181102D03*
Y1161417D03*
G54D70*
X843287Y1171260D02*
G01X831985Y1159958D01*
Y1182562D02*
G01X843287Y1171260D01*
G54D13*
X1167323Y944882D02*
G01X1171260Y940945D01*
X1131890Y905512D02*
G01X1122047Y915354D01*
D02*
G01X1112205D01*
X1131890Y905512D02*
G01X1122047D01*
D02*
G01X1112205Y895669D01*
D02*
G01Y897967D01*
G54D18*
X1131890Y984252D03*
X1151575Y905512D03*
G54D35*
X1131890D03*
Y870079D03*
X1171260Y905512D03*
Y940945D03*
G54D15*
X1151575Y905512D02*
G01X1131890D01*
G54D13*
X1181102D02*
G01X1190945Y895669D01*
X1171260Y905512D02*
G01X1181102D01*
D02*
G01X1190945Y915354D01*
X1131890Y870079D02*
G01X1206693D01*
G54D18*
X1191210Y915089D03*
X1190945Y895669D03*
G54D13*
X1171260Y940945D02*
G01X1197439D01*
G54D15*
X1171260Y905512D02*
G01X1151575D01*
G54D13*
X1190945Y915354D02*
G01X1191210Y915089D01*
X1230315Y908069D02*
G01Y905512D01*
X1206693Y870079D02*
G01X1230315Y846457D01*
G54D31*
Y905512D03*
Y846457D03*
G54D13*
X1197439Y940945D02*
G01X1230315Y908069D01*
X767717Y1545276D02*
G01Y1593348D01*
G54D18*
X797244Y1545276D03*
Y1505906D03*
G54D13*
X748032Y1456693D02*
G01X797244Y1505906D01*
G54D28*
X778091Y1603722D03*
G54D13*
X787402D02*
G01X778091D01*
X787402Y1679134D02*
G01Y1603722D01*
X767717Y1593348D02*
G01X778091Y1603722D01*
X797244Y1742126D02*
G01Y1742734D01*
D02*
G01X748032D01*
G54D29*
X797244Y1742126D03*
Y1679134D03*
G54D13*
D02*
G01X787402D01*
X747500Y1742734D02*
G01X748032Y1742126D01*
Y1742734D02*
G01X747500D01*
X748032D02*
G01Y1742126D01*
X747500Y1742658D02*
G01X748032Y1742126D01*
X747500Y1742734D02*
G01Y1742658D01*
X242126Y931102D02*
G01X295504Y984481D01*
G54D18*
X246063Y1013780D03*
X216535Y984252D03*
G54D13*
X265748D02*
G01X216535D01*
X285433Y1003937D02*
G01X265748Y984252D01*
X255906Y1023622D02*
G01X246063Y1013780D01*
X393701Y964567D02*
G01X305118D01*
X295504Y984481D02*
G01X393505D01*
X393701Y1003937D02*
G01X285433D01*
X393701Y1023622D02*
G01X255906D01*
X393505Y984481D02*
G01X393717Y984269D01*
G54D73*
X393701Y925197D03*
Y944882D03*
Y964567D03*
Y984252D03*
Y1003937D03*
Y1023622D03*
Y1043307D03*
G54D13*
Y925197D02*
G01X344488D01*
X393701Y944882D02*
G01X324803D01*
X393717Y984269D02*
G01X393701Y984252D01*
X78740Y935039D03*
X28543Y933071D02*
G01X26575Y935039D01*
G54D18*
X78740D03*
G54D13*
X128484Y930494D02*
G01Y931102D01*
X78740Y984252D02*
G01X59055Y964567D01*
X118110Y996063D02*
G01Y993486D01*
D02*
G01X128484D01*
G54D29*
D03*
G54D18*
X78740Y984252D03*
G54D13*
X118110Y1013780D02*
G01X128484Y993486D01*
X28543Y996063D02*
G01X49213Y1013780D01*
D02*
G01X118110D01*
D02*
G01Y996063D01*
G54D18*
X78740Y1043307D03*
G54D13*
X39370D02*
G01X78740D01*
X118110Y1048604D02*
G01Y1013780D01*
X128484Y1048604D02*
G01X118110D01*
G54D14*
X1578740Y383858D02*
G01Y413386D01*
G54D10*
X1577843D02*
G01X1578740D01*
G54D13*
Y383858D02*
G01X1577843Y413386D01*
D02*
G01Y442016D01*
D02*
G01X1578740Y442913D01*
G54D28*
Y413386D03*
G54D18*
X1578756Y383858D03*
G54D14*
D02*
G01X1578740D01*
G54D13*
X1577843Y384756D02*
G01X1578740Y383858D01*
X1577843Y413386D02*
G01Y384756D01*
G54D10*
X1578740Y413386D02*
G01X1627969D01*
G54D33*
D03*
G54D14*
Y383858D02*
G01X1578756D01*
X1657496Y413386D02*
G01X1627969Y383858D01*
Y413386D02*
G01X1657496D01*
G54D13*
X1683106Y324803D02*
G01X1687024Y320886D01*
X1627969Y413386D02*
G01Y442913D01*
Y413386D02*
G01Y383858D01*
G54D18*
D03*
X1657496Y413386D03*
G54D13*
X1684448Y757874D02*
G01X1688366Y753957D01*
X1628413Y817827D02*
G01X1629311Y816929D01*
G54D10*
X1684448Y757874D02*
G01Y763799D01*
D02*
G01X1727736Y807087D01*
G54D18*
X1629311Y816929D03*
G54D71*
X1747421Y807087D03*
G54D33*
X1688366Y753957D03*
G54D10*
X1682441Y748032D02*
G01X1688366Y753957D01*
X1727736Y807087D02*
G01X1747421D01*
G54D13*
X1628413Y846457D02*
G01Y875087D01*
Y846457D02*
G01Y817827D01*
G54D14*
X1658838Y846457D02*
G01X1629311Y875984D01*
X1658838Y846457D02*
G01X1629311Y816929D01*
X1628413Y846457D02*
G01X1658838D01*
X1688366D02*
G01X1658838D01*
G54D18*
D03*
G54D33*
X1688366D03*
X1628413D03*
G54D13*
Y875087D02*
G01X1629311Y875984D01*
G54D10*
X1687459Y895669D02*
G01X1737578D01*
D02*
G01X1747421Y885827D01*
G54D18*
X1629311Y875984D03*
G54D71*
X1747421Y885827D03*
G54D33*
X1628413Y938957D03*
G54D10*
X1648993Y934135D02*
G01X1687459Y895669D01*
X1633234Y934135D02*
G01X1648993D01*
X1628413Y938957D02*
G01X1633234Y934135D01*
X1624496Y935039D02*
G01X1628413Y938957D01*
G54D13*
X944882Y708661D02*
G01X935039D01*
D02*
G01X925197Y698819D01*
D02*
G01Y701116D01*
X870079Y659449D02*
G01X905512D01*
G54D18*
X925197Y716207D03*
Y701116D03*
G54D28*
X860236Y669291D03*
G54D13*
D02*
G01X870079Y659449D01*
X856299Y669291D02*
G01X860236D01*
X935039Y679134D02*
G01X944882Y673228D01*
X905512Y679134D02*
G01X935039D01*
X925197Y718504D02*
G01Y716207D01*
X935039Y708661D02*
G01X925197Y718504D01*
X807087Y777559D02*
G01X905512Y679134D01*
X826772Y787402D02*
G01X875984Y738189D01*
X944882Y816929D02*
G01X895669D01*
X875984Y767717D02*
G01X846457Y797244D01*
X905512Y767717D02*
G01X875984D01*
X944882Y807087D02*
G01X905512Y767717D01*
X944882Y816929D02*
G01Y807087D01*
X983644Y1161417D02*
G01X1131890Y1309663D01*
X973801Y1181102D02*
G01X1112205Y1319506D01*
X1141732Y1200787D02*
G01X1090728D01*
X1092520Y1545276D02*
G01X1112205Y1564961D01*
X1131890Y1446850D02*
G01X1092520Y1407480D01*
X1072835Y1417323D02*
G01X1112205Y1456693D01*
X925197Y944882D02*
G01X1167323D01*
X1053150Y925197D02*
G01X1108268Y870079D01*
D02*
G01X1131890D01*
G54D18*
X1112205Y915354D03*
Y897967D03*
G54D36*
X1082677Y816929D03*
G54D14*
X1131890Y984252D02*
G01X1106299D01*
D02*
G01Y1013780D01*
G54D28*
Y984252D03*
G54D13*
Y1013780D02*
G01X1112205D01*
G54D28*
X1106299Y1043307D03*
G54D18*
X1112205Y1072835D03*
Y1013780D03*
G54D14*
X1106299Y1043307D02*
G01Y1072835D01*
Y1013780D02*
G01Y1043307D01*
G54D13*
D02*
G01X1131890D01*
X1106299Y1072835D02*
G01X1112205D01*
G54D14*
X1106299Y1102362D02*
G01Y1125984D01*
G54D28*
Y1102362D03*
G54D14*
Y1072835D02*
G01Y1102362D01*
G54D13*
Y1161417D02*
G01X1131890D01*
G54D14*
X1106299Y1125984D02*
G01Y1137795D01*
D02*
G01Y1161417D01*
G54D13*
Y1137795D02*
G01X1112205Y1131890D01*
G54D28*
X1106299Y1161417D03*
G54D18*
X1112205Y1131890D03*
G54D13*
X1106299Y1125984D02*
G01X1112205Y1131890D01*
X1106299Y1102362D02*
G01X1131890D01*
X1348425Y1879921D02*
G01Y2159225D01*
G54D11*
X1103701Y1969625D02*
G01Y2095118D01*
X946220Y1969625D02*
G01Y2095118D01*
X788740Y1969625D02*
G01Y2095118D01*
X631260Y1969625D02*
G01Y2095118D01*
G54D13*
X1259843Y1958661D02*
G01Y2066929D01*
G54D28*
X2188976Y2047244D03*
X2251969D03*
G54D13*
X1656599Y2034661D02*
G01Y1882662D01*
X1768598Y2034661D02*
G01X1656599D01*
X1768598Y1914578D02*
G01Y2034661D01*
X1836599D02*
G01Y1914578D01*
X1948598Y2034661D02*
G01X1836599D01*
X1948598Y1882662D02*
G01Y2034661D01*
X2089985Y2062156D02*
G01Y2032333D01*
G54D18*
X2125984Y2047244D03*
G54D13*
X2220473Y2106299D02*
G01Y1988189D01*
G54D10*
X974409Y2480315D02*
G01X964567Y2490158D01*
D02*
G01X895669D01*
G54D41*
X974409Y2480315D03*
X1053150D03*
G54D13*
X2283465Y2500000D02*
G01X2380315D01*
X2283465D02*
G01X2251969Y2451772D01*
X2188976Y2549213D02*
G01X2125984D01*
X2188976Y2451772D02*
G01X2126969D01*
G54D18*
X2125984Y2549213D03*
G54D32*
X2381890Y2498425D03*
G54D28*
X2188976Y2549213D03*
X2251969D03*
X2220473Y2500000D03*
X2283465D03*
G54D32*
X2481890Y2498425D03*
G54D13*
X2224410Y2500000D02*
G01X2220473D01*
Y2503937D02*
G01X2224410Y2500000D01*
X2380315D02*
G01X2381890Y2498425D01*
G54D11*
X-451586Y628752D02*
G01X-452756Y629921D01*
G54D15*
X-147638Y679134D02*
G01X-319400Y507371D01*
X-326081Y658171D02*
G01Y629921D01*
D02*
G01X-329385Y628752D01*
G54D27*
X-569543D03*
X-329385D03*
G54D11*
D02*
G01X-451586D01*
X-569543Y786232D02*
G01Y628752D01*
G54D15*
X-177165Y393701D02*
G01X177165Y748032D01*
G54D13*
X-255906Y472441D02*
G01X-78740Y649606D01*
X-255906Y413386D02*
G01X-9843Y659449D01*
G54D15*
X-329385Y182426D02*
G01X177165Y688976D01*
G54D29*
X255906Y619470D03*
G54D28*
X368642D03*
X305650D03*
X443445D03*
G54D13*
X442913Y659980D02*
G01Y619470D01*
G54D70*
X792177Y994520D02*
G01X784721D01*
X797449Y999792D02*
G01X792177Y994520D01*
Y1012520D02*
G01X797449Y1007248D01*
X784721Y1012520D02*
G01X792177D01*
Y1052520D02*
G01X784721D01*
X797449Y1057792D02*
G01X792177Y1052520D01*
G54D19*
X788449Y1003520D03*
G54D70*
X792177Y1070520D02*
G01X797449Y1065248D01*
G54D19*
X788449Y1061520D03*
G54D70*
X784721Y1070520D02*
G01X792177D01*
Y1112520D02*
G01X784721D01*
X797449Y1117792D02*
G01X792177Y1112520D01*
Y1130520D02*
G01X797449Y1125248D01*
X784721Y1130520D02*
G01X792177D01*
G54D19*
X788449Y1121520D03*
G54D38*
X571252Y1062575D03*
G54D70*
X567252Y1005176D02*
G01X569595Y1007520D01*
Y1058575D02*
G01X567252Y1060918D01*
Y1064232D02*
G01X569595Y1066575D01*
X567252Y1060918D02*
G01Y1064232D01*
G54D38*
X571252Y1121630D03*
G54D70*
X569595Y1117630D02*
G01X567252Y1119973D01*
D02*
G01Y1123287D01*
X562449Y1216792D02*
G01Y1224248D01*
D02*
G01X567721Y1229520D01*
G54D38*
X571252Y1180685D03*
G54D70*
X567721Y1211520D02*
G01X562449Y1216792D01*
X567252Y1123287D02*
G01X569595Y1125630D01*
Y1176685D02*
G01X567252Y1179028D01*
Y1182342D02*
G01X569595Y1184685D01*
X567252Y1179028D02*
G01Y1182342D01*
X535177Y994520D02*
G01X527721D01*
X539721Y964520D02*
G01X534449Y969792D01*
X547177Y964520D02*
G01X539721D01*
Y982520D02*
G01X547177D01*
X534449Y977248D02*
G01X539721Y982520D01*
X534449Y969792D02*
G01Y977248D01*
G54D19*
X543449Y973520D03*
G54D70*
X552449Y969792D02*
G01X547177Y964520D01*
X552449Y977248D02*
G01Y969792D01*
X547177Y982520D02*
G01X552449Y977248D01*
X561449Y959792D02*
G01Y967248D01*
D02*
G01X566721Y972520D01*
Y954520D02*
G01X561449Y959792D01*
X574177Y954520D02*
G01X566721D01*
Y972520D02*
G01X574177D01*
G54D19*
X570449Y963520D03*
G54D70*
X572909Y1007520D02*
G01X575252Y1005176D01*
X569595Y1007520D02*
G01X572909D01*
Y1058575D02*
G01X569595D01*
X575252Y1060918D02*
G01X572909Y1058575D01*
X575252Y1064232D02*
G01Y1060918D01*
X572909Y1066575D02*
G01X575252Y1064232D01*
X569595Y1066575D02*
G01X572909D01*
Y1117630D02*
G01X569595D01*
X575252Y1119973D02*
G01X572909Y1117630D01*
X590449Y1027792D02*
G01Y1035248D01*
D02*
G01X595721Y1040520D01*
Y1022520D02*
G01X590449Y1027792D01*
X589449Y1088792D02*
G01Y1096248D01*
D02*
G01X594721Y1101520D01*
Y1083520D02*
G01X589449Y1088792D01*
X687706Y1117630D02*
G01X685362Y1119973D01*
X691019Y1117630D02*
G01X687706D01*
X693362Y1119973D02*
G01X691019Y1117630D01*
X693362Y1123287D02*
G01Y1119973D01*
X691019Y1125630D02*
G01X693362Y1123287D01*
X687706Y1125630D02*
G01X691019D01*
X685362Y1123287D02*
G01X687706Y1125630D01*
X685362Y1119973D02*
G01Y1123287D01*
X668449Y1154248D02*
G01Y1146792D01*
X710449D02*
G01Y1154248D01*
X715721Y1141520D02*
G01X710449Y1146792D01*
Y1154248D02*
G01X715721Y1159520D01*
X687706Y1176685D02*
G01X685362Y1179028D01*
X691019Y1176685D02*
G01X687706D01*
X693362Y1179028D02*
G01X691019Y1176685D01*
M02*