G04 PROTEUS GERBER X2 FILE*
%TF.GenerationSoftware,Labcenter,Proteus,8.11-SP1-Build30228*%
%TF.CreationDate,2022-02-22T19:14:10+00:00*%
%TF.FileFunction,Paste,Bot*%
%TF.FilePolarity,Positive*%
%TF.Part,Single*%
%TF.SameCoordinates,{6c2897ae-c00c-46c9-bae6-367ef81e3b77}*%
%FSLAX45Y45*%
%MOMM*%
G01*
%TA.AperFunction,Material*%
%ADD121R,0.889000X1.016000*%
%ADD122R,1.016000X0.889000*%
%TA.AperFunction,Material*%
%ADD123R,2.108200X2.108200*%
%ADD105R,0.939800X0.990600*%
%ADD106R,0.990600X0.939800*%
%TA.AperFunction,Profile*%
%ADD47C,0.203200*%
%TD.AperFunction*%
D121*
X+2175000Y+4275000D03*
X+2268980Y+4084500D03*
X+2081020Y+4084500D03*
X+2500000Y+4325000D03*
X+2593980Y+4134500D03*
X+2406020Y+4134500D03*
X+1675000Y+4275000D03*
X+1768980Y+4084500D03*
X+1581020Y+4084500D03*
X+1050000Y+4500000D03*
X+1143980Y+4309500D03*
X+956020Y+4309500D03*
X+1100000Y+4025000D03*
X+1193980Y+3834500D03*
X+1006020Y+3834500D03*
D122*
X+625000Y+3825000D03*
X+815500Y+3918980D03*
X+815500Y+3731020D03*
X+150000Y+3175000D03*
X+340500Y+3268980D03*
X+340500Y+3081020D03*
X-250000Y+3425000D03*
X-59500Y+3518980D03*
X-59500Y+3331020D03*
X-75000Y+2700000D03*
X+115500Y+2793980D03*
X+115500Y+2606020D03*
D123*
X+150000Y+4425000D03*
X+600000Y+4425000D03*
D105*
X+2485000Y+4950000D03*
X+2325000Y+4950000D03*
X+1675000Y+4950000D03*
X+1515000Y+4950000D03*
X+875000Y+4950000D03*
X+715000Y+4950000D03*
X+75000Y+4950000D03*
X-85000Y+4950000D03*
D106*
X-450000Y+4700000D03*
X-450000Y+4540000D03*
X-450000Y+4150000D03*
X-450000Y+3990000D03*
X-450000Y+3650000D03*
X-450000Y+3490000D03*
X-450000Y+3175000D03*
X-450000Y+3015000D03*
X-450000Y+2625000D03*
X-450000Y+2465000D03*
X-450000Y+1800000D03*
X-450000Y+1640000D03*
D105*
X-125000Y+925000D03*
X+35000Y+925000D03*
X+390000Y+925000D03*
X+550000Y+925000D03*
X+1000000Y+925000D03*
X+1160000Y+925000D03*
X+1525000Y+925000D03*
X+1685000Y+925000D03*
X+1900000Y+925000D03*
X+2060000Y+925000D03*
X+2275000Y+925000D03*
X+2435000Y+925000D03*
D47*
X-4450000Y-1650000D02*
X+7000000Y-1650000D01*
X+7000000Y+7150000D01*
X-4450000Y+7150000D01*
X-4450000Y-1650000D01*
X+5641340Y+2554820D02*
X+5663332Y+2550509D01*
X+5681067Y+2538667D01*
X+5692909Y+2520932D01*
X+5697220Y+2498940D01*
X+5641340Y+2554820D02*
X+5619348Y+2550509D01*
X+5601613Y+2538667D01*
X+5589771Y+2520932D01*
X+5585460Y+2498940D01*
X+5641340Y+652360D02*
X+5619348Y+656671D01*
X+5601613Y+668513D01*
X+5589771Y+686248D01*
X+5585460Y+708240D01*
X+5641340Y+652360D02*
X+5663332Y+656671D01*
X+5681067Y+668513D01*
X+5692909Y+686248D01*
X+5697220Y+708240D01*
X+5585460Y+705700D02*
X+5585460Y+2498940D01*
X+5697220Y+2498940D02*
X+5697220Y+708240D01*
M02*
