G04 PROTEUS GERBER X2 FILE*
%TF.GenerationSoftware,Labcenter,Proteus,8.11-SP1-Build30228*%
%TF.CreationDate,2022-02-22T19:14:10+00:00*%
%TF.FileFunction,Legend,Bot*%
%TF.FilePolarity,Positive*%
%TF.Part,Single*%
%TF.SameCoordinates,{6c2897ae-c00c-46c9-bae6-367ef81e3b77}*%
%FSLAX45Y45*%
%MOMM*%
G01*
%TA.AperFunction,Profile*%
%ADD47C,0.203200*%
%TA.AperFunction,Material*%
%ADD51C,0.203200*%
%ADD56C,0.250000*%
%ADD53C,0.200000*%
%TD.AperFunction*%
D47*
X-4450000Y-1650000D02*
X+7000000Y-1650000D01*
X+7000000Y+7150000D01*
X-4450000Y+7150000D01*
X-4450000Y-1650000D01*
X+5641340Y+2554820D02*
X+5663332Y+2550509D01*
X+5681067Y+2538667D01*
X+5692909Y+2520932D01*
X+5697220Y+2498940D01*
X+5641340Y+2554820D02*
X+5619348Y+2550509D01*
X+5601613Y+2538667D01*
X+5589771Y+2520932D01*
X+5585460Y+2498940D01*
X+5641340Y+652360D02*
X+5619348Y+656671D01*
X+5601613Y+668513D01*
X+5589771Y+686248D01*
X+5585460Y+708240D01*
X+5641340Y+652360D02*
X+5663332Y+656671D01*
X+5681067Y+668513D01*
X+5692909Y+686248D01*
X+5697220Y+708240D01*
X+5585460Y+705700D02*
X+5585460Y+2498940D01*
X+5697220Y+2498940D02*
X+5697220Y+708240D01*
D51*
X+2030220Y+4239440D02*
X+2119120Y+4239440D01*
X+2136900Y+4127680D02*
X+2208020Y+4127680D01*
X+2030220Y+4239440D02*
X+2030220Y+4148000D01*
X+2319780Y+4145460D02*
X+2319780Y+4239440D01*
X+2233420Y+4239440D01*
X+2226860Y+4581750D02*
X+2135420Y+4581750D01*
X+2135420Y+4518250D01*
X+2165900Y+4486500D01*
X+2196380Y+4486500D01*
X+2226860Y+4518250D01*
X+2226860Y+4581750D01*
X+2181140Y+4423000D02*
X+2165900Y+4438875D01*
X+2150660Y+4438875D01*
X+2135420Y+4423000D01*
X+2135420Y+4375375D01*
X+2150660Y+4359500D01*
X+2165900Y+4359500D01*
X+2181140Y+4375375D01*
X+2181140Y+4423000D01*
X+2196380Y+4438875D01*
X+2211620Y+4438875D01*
X+2226860Y+4423000D01*
X+2226860Y+4375375D01*
X+2211620Y+4359500D01*
X+2196380Y+4359500D01*
X+2181140Y+4375375D01*
X+2355220Y+4289440D02*
X+2444120Y+4289440D01*
X+2461900Y+4177680D02*
X+2533020Y+4177680D01*
X+2355220Y+4289440D02*
X+2355220Y+4198000D01*
X+2644780Y+4195460D02*
X+2644780Y+4289440D01*
X+2558420Y+4289440D01*
X+2676860Y+4556750D02*
X+2585420Y+4556750D01*
X+2585420Y+4493250D01*
X+2615900Y+4461500D01*
X+2646380Y+4461500D01*
X+2676860Y+4493250D01*
X+2676860Y+4556750D01*
X+2585420Y+4413875D02*
X+2585420Y+4334500D01*
X+2600660Y+4334500D01*
X+2676860Y+4413875D01*
X+1530220Y+4239440D02*
X+1619120Y+4239440D01*
X+1636900Y+4127680D02*
X+1708020Y+4127680D01*
X+1530220Y+4239440D02*
X+1530220Y+4148000D01*
X+1819780Y+4145460D02*
X+1819780Y+4239440D01*
X+1733420Y+4239440D01*
X+1851860Y+4506750D02*
X+1760420Y+4506750D01*
X+1760420Y+4443250D01*
X+1790900Y+4411500D01*
X+1821380Y+4411500D01*
X+1851860Y+4443250D01*
X+1851860Y+4506750D01*
X+1790900Y+4284500D02*
X+1806140Y+4300375D01*
X+1806140Y+4348000D01*
X+1790900Y+4363875D01*
X+1775660Y+4363875D01*
X+1760420Y+4348000D01*
X+1760420Y+4300375D01*
X+1775660Y+4284500D01*
X+1836620Y+4284500D01*
X+1851860Y+4300375D01*
X+1851860Y+4348000D01*
X+905220Y+4464440D02*
X+994120Y+4464440D01*
X+1011900Y+4352680D02*
X+1083020Y+4352680D01*
X+905220Y+4464440D02*
X+905220Y+4373000D01*
X+1194780Y+4370460D02*
X+1194780Y+4464440D01*
X+1108420Y+4464440D01*
X+1226860Y+4845250D02*
X+1135420Y+4845250D01*
X+1135420Y+4781750D01*
X+1165900Y+4750000D01*
X+1196380Y+4750000D01*
X+1226860Y+4781750D01*
X+1226860Y+4845250D01*
X+1165900Y+4686500D02*
X+1135420Y+4654750D01*
X+1226860Y+4654750D01*
X+1211620Y+4591250D02*
X+1150660Y+4591250D01*
X+1135420Y+4575375D01*
X+1135420Y+4511875D01*
X+1150660Y+4496000D01*
X+1211620Y+4496000D01*
X+1226860Y+4511875D01*
X+1226860Y+4575375D01*
X+1211620Y+4591250D01*
X+1226860Y+4591250D02*
X+1135420Y+4496000D01*
X+955220Y+3989440D02*
X+1044120Y+3989440D01*
X+1061900Y+3877680D02*
X+1133020Y+3877680D01*
X+955220Y+3989440D02*
X+955220Y+3898000D01*
X+1244780Y+3895460D02*
X+1244780Y+3989440D01*
X+1158420Y+3989440D01*
X+1376860Y+4120250D02*
X+1285420Y+4120250D01*
X+1285420Y+4056750D01*
X+1315900Y+4025000D01*
X+1346380Y+4025000D01*
X+1376860Y+4056750D01*
X+1376860Y+4120250D01*
X+1315900Y+3961500D02*
X+1285420Y+3929750D01*
X+1376860Y+3929750D01*
X+1315900Y+3834500D02*
X+1285420Y+3802750D01*
X+1376860Y+3802750D01*
X+660560Y+3680220D02*
X+660560Y+3769120D01*
X+772320Y+3786900D02*
X+772320Y+3858020D01*
X+660560Y+3680220D02*
X+752000Y+3680220D01*
X+754540Y+3969780D02*
X+660560Y+3969780D01*
X+660560Y+3883420D01*
X+910750Y+4010420D02*
X+910750Y+4101860D01*
X+847250Y+4101860D01*
X+815500Y+4071380D01*
X+815500Y+4040900D01*
X+847250Y+4010420D01*
X+910750Y+4010420D01*
X+752000Y+4071380D02*
X+720250Y+4101860D01*
X+720250Y+4010420D01*
X+640875Y+4086620D02*
X+625000Y+4101860D01*
X+577375Y+4101860D01*
X+561500Y+4086620D01*
X+561500Y+4071380D01*
X+577375Y+4056140D01*
X+625000Y+4056140D01*
X+640875Y+4040900D01*
X+640875Y+4010420D01*
X+561500Y+4010420D01*
X+185560Y+3030220D02*
X+185560Y+3119120D01*
X+297320Y+3136900D02*
X+297320Y+3208020D01*
X+185560Y+3030220D02*
X+277000Y+3030220D01*
X+279540Y+3319780D02*
X+185560Y+3319780D01*
X+185560Y+3233420D01*
X+435750Y+3360420D02*
X+435750Y+3451860D01*
X+372250Y+3451860D01*
X+340500Y+3421380D01*
X+340500Y+3390900D01*
X+372250Y+3360420D01*
X+435750Y+3360420D01*
X+277000Y+3421380D02*
X+245250Y+3451860D01*
X+245250Y+3360420D01*
X+165875Y+3436620D02*
X+150000Y+3451860D01*
X+102375Y+3451860D01*
X+86500Y+3436620D01*
X+86500Y+3421380D01*
X+102375Y+3406140D01*
X+86500Y+3390900D01*
X+86500Y+3375660D01*
X+102375Y+3360420D01*
X+150000Y+3360420D01*
X+165875Y+3375660D01*
X+134125Y+3406140D02*
X+102375Y+3406140D01*
X-214440Y+3280220D02*
X-214440Y+3369120D01*
X-102680Y+3386900D02*
X-102680Y+3458020D01*
X-214440Y+3280220D02*
X-123000Y+3280220D01*
X-120460Y+3569780D02*
X-214440Y+3569780D01*
X-214440Y+3483420D01*
X+35750Y+3610420D02*
X+35750Y+3701860D01*
X-27750Y+3701860D01*
X-59500Y+3671380D01*
X-59500Y+3640900D01*
X-27750Y+3610420D01*
X+35750Y+3610420D01*
X-123000Y+3671380D02*
X-154750Y+3701860D01*
X-154750Y+3610420D01*
X-313500Y+3640900D02*
X-218250Y+3640900D01*
X-281750Y+3701860D01*
X-281750Y+3610420D01*
X-39440Y+2555220D02*
X-39440Y+2644120D01*
X+72320Y+2661900D02*
X+72320Y+2733020D01*
X-39440Y+2555220D02*
X+52000Y+2555220D01*
X+54540Y+2844780D02*
X-39440Y+2844780D01*
X-39440Y+2758420D01*
X+210750Y+2885420D02*
X+210750Y+2976860D01*
X+147250Y+2976860D01*
X+115500Y+2946380D01*
X+115500Y+2915900D01*
X+147250Y+2885420D01*
X+210750Y+2885420D01*
X+52000Y+2946380D02*
X+20250Y+2976860D01*
X+20250Y+2885420D01*
X-138500Y+2976860D02*
X-59125Y+2976860D01*
X-59125Y+2946380D01*
X-122625Y+2946380D01*
X-138500Y+2931140D01*
X-138500Y+2900660D01*
X-122625Y+2885420D01*
X-75000Y+2885420D01*
X-59125Y+2900660D01*
D56*
X+732500Y+4585000D02*
X+732457Y+4586039D01*
X+732105Y+4588118D01*
X+731368Y+4590197D01*
X+730164Y+4592276D01*
X+728323Y+4594326D01*
X+726244Y+4595829D01*
X+724165Y+4596786D01*
X+722086Y+4597325D01*
X+720007Y+4597500D01*
X+720000Y+4597500D01*
X+707500Y+4585000D02*
X+707543Y+4586039D01*
X+707895Y+4588118D01*
X+708632Y+4590197D01*
X+709836Y+4592276D01*
X+711677Y+4594326D01*
X+713756Y+4595829D01*
X+715835Y+4596786D01*
X+717914Y+4597325D01*
X+719993Y+4597500D01*
X+720000Y+4597500D01*
X+707500Y+4585000D02*
X+707543Y+4583961D01*
X+707895Y+4581882D01*
X+708632Y+4579803D01*
X+709836Y+4577724D01*
X+711677Y+4575674D01*
X+713756Y+4574171D01*
X+715835Y+4573214D01*
X+717914Y+4572675D01*
X+719993Y+4572500D01*
X+720000Y+4572500D01*
X+732500Y+4585000D02*
X+732457Y+4583961D01*
X+732105Y+4581882D01*
X+731368Y+4579803D01*
X+730164Y+4577724D01*
X+728323Y+4575674D01*
X+726244Y+4574171D01*
X+724165Y+4573214D01*
X+722086Y+4572675D01*
X+720007Y+4572500D01*
X+720000Y+4572500D01*
D53*
X+655000Y+4570000D02*
X+655000Y+4615000D01*
X+95000Y+4615000D01*
X+95000Y+4570000D01*
X+655000Y+4280000D02*
X+655000Y+4235000D01*
X+95000Y+4235000D01*
X+95000Y+4280000D01*
D51*
X+571750Y+4655480D02*
X+571750Y+4746920D01*
X+508250Y+4746920D01*
X+476500Y+4716440D01*
X+476500Y+4685960D01*
X+508250Y+4655480D01*
X+571750Y+4655480D01*
X+413000Y+4716440D02*
X+381250Y+4746920D01*
X+381250Y+4655480D01*
X+222500Y+4731680D02*
X+238375Y+4746920D01*
X+286000Y+4746920D01*
X+301875Y+4731680D01*
X+301875Y+4670720D01*
X+286000Y+4655480D01*
X+238375Y+4655480D01*
X+222500Y+4670720D01*
X+222500Y+4685960D01*
X+238375Y+4701200D01*
X+301875Y+4701200D01*
D53*
X+2405000Y+4990000D02*
X+2405000Y+4910000D01*
D51*
X+2500250Y+5045720D02*
X+2516125Y+5030480D01*
X+2563750Y+5030480D01*
X+2595500Y+5060960D01*
X+2595500Y+5091440D01*
X+2563750Y+5121920D01*
X+2516125Y+5121920D01*
X+2500250Y+5106680D01*
X+2436750Y+5076200D02*
X+2452625Y+5091440D01*
X+2452625Y+5106680D01*
X+2436750Y+5121920D01*
X+2389125Y+5121920D01*
X+2373250Y+5106680D01*
X+2373250Y+5091440D01*
X+2389125Y+5076200D01*
X+2436750Y+5076200D01*
X+2452625Y+5060960D01*
X+2452625Y+5045720D01*
X+2436750Y+5030480D01*
X+2389125Y+5030480D01*
X+2373250Y+5045720D01*
X+2373250Y+5060960D01*
X+2389125Y+5076200D01*
X+2246250Y+5106680D02*
X+2262125Y+5121920D01*
X+2309750Y+5121920D01*
X+2325625Y+5106680D01*
X+2325625Y+5045720D01*
X+2309750Y+5030480D01*
X+2262125Y+5030480D01*
X+2246250Y+5045720D01*
X+2246250Y+5060960D01*
X+2262125Y+5076200D01*
X+2325625Y+5076200D01*
D53*
X+1595000Y+4990000D02*
X+1595000Y+4910000D01*
D51*
X+1690250Y+5045720D02*
X+1706125Y+5030480D01*
X+1753750Y+5030480D01*
X+1785500Y+5060960D01*
X+1785500Y+5091440D01*
X+1753750Y+5121920D01*
X+1706125Y+5121920D01*
X+1690250Y+5106680D01*
X+1626750Y+5076200D02*
X+1642625Y+5091440D01*
X+1642625Y+5106680D01*
X+1626750Y+5121920D01*
X+1579125Y+5121920D01*
X+1563250Y+5106680D01*
X+1563250Y+5091440D01*
X+1579125Y+5076200D01*
X+1626750Y+5076200D01*
X+1642625Y+5060960D01*
X+1642625Y+5045720D01*
X+1626750Y+5030480D01*
X+1579125Y+5030480D01*
X+1563250Y+5045720D01*
X+1563250Y+5060960D01*
X+1579125Y+5076200D01*
X+1515625Y+5121920D02*
X+1436250Y+5121920D01*
X+1436250Y+5106680D01*
X+1515625Y+5030480D01*
D53*
X+795000Y+4990000D02*
X+795000Y+4910000D01*
D51*
X+890250Y+5045720D02*
X+906125Y+5030480D01*
X+953750Y+5030480D01*
X+985500Y+5060960D01*
X+985500Y+5091440D01*
X+953750Y+5121920D01*
X+906125Y+5121920D01*
X+890250Y+5106680D01*
X+826750Y+5076200D02*
X+842625Y+5091440D01*
X+842625Y+5106680D01*
X+826750Y+5121920D01*
X+779125Y+5121920D01*
X+763250Y+5106680D01*
X+763250Y+5091440D01*
X+779125Y+5076200D01*
X+826750Y+5076200D01*
X+842625Y+5060960D01*
X+842625Y+5045720D01*
X+826750Y+5030480D01*
X+779125Y+5030480D01*
X+763250Y+5045720D01*
X+763250Y+5060960D01*
X+779125Y+5076200D01*
X+699750Y+5076200D02*
X+715625Y+5091440D01*
X+715625Y+5106680D01*
X+699750Y+5121920D01*
X+652125Y+5121920D01*
X+636250Y+5106680D01*
X+636250Y+5091440D01*
X+652125Y+5076200D01*
X+699750Y+5076200D01*
X+715625Y+5060960D01*
X+715625Y+5045720D01*
X+699750Y+5030480D01*
X+652125Y+5030480D01*
X+636250Y+5045720D01*
X+636250Y+5060960D01*
X+652125Y+5076200D01*
D53*
X-5000Y+4990000D02*
X-5000Y+4910000D01*
D51*
X+90250Y+5045720D02*
X+106125Y+5030480D01*
X+153750Y+5030480D01*
X+185500Y+5060960D01*
X+185500Y+5091440D01*
X+153750Y+5121920D01*
X+106125Y+5121920D01*
X+90250Y+5106680D01*
X+26750Y+5076200D02*
X+42625Y+5091440D01*
X+42625Y+5106680D01*
X+26750Y+5121920D01*
X-20875Y+5121920D01*
X-36750Y+5106680D01*
X-36750Y+5091440D01*
X-20875Y+5076200D01*
X+26750Y+5076200D01*
X+42625Y+5060960D01*
X+42625Y+5045720D01*
X+26750Y+5030480D01*
X-20875Y+5030480D01*
X-36750Y+5045720D01*
X-36750Y+5060960D01*
X-20875Y+5076200D01*
X-163750Y+5091440D02*
X-147875Y+5076200D01*
X-100250Y+5076200D01*
X-84375Y+5091440D01*
X-84375Y+5106680D01*
X-100250Y+5121920D01*
X-147875Y+5121920D01*
X-163750Y+5106680D01*
X-163750Y+5045720D01*
X-147875Y+5030480D01*
X-100250Y+5030480D01*
D53*
X-490000Y+4620000D02*
X-410000Y+4620000D01*
D51*
X-545720Y+4715250D02*
X-530480Y+4731125D01*
X-530480Y+4778750D01*
X-560960Y+4810500D01*
X-591440Y+4810500D01*
X-621920Y+4778750D01*
X-621920Y+4731125D01*
X-606680Y+4715250D01*
X-591440Y+4588250D02*
X-576200Y+4604125D01*
X-576200Y+4651750D01*
X-591440Y+4667625D01*
X-606680Y+4667625D01*
X-621920Y+4651750D01*
X-621920Y+4604125D01*
X-606680Y+4588250D01*
X-545720Y+4588250D01*
X-530480Y+4604125D01*
X-530480Y+4651750D01*
X-545720Y+4556500D02*
X-606680Y+4556500D01*
X-621920Y+4540625D01*
X-621920Y+4477125D01*
X-606680Y+4461250D01*
X-545720Y+4461250D01*
X-530480Y+4477125D01*
X-530480Y+4540625D01*
X-545720Y+4556500D01*
X-530480Y+4556500D02*
X-621920Y+4461250D01*
D53*
X-490000Y+4070000D02*
X-410000Y+4070000D01*
D51*
X-545720Y+4165250D02*
X-530480Y+4181125D01*
X-530480Y+4228750D01*
X-560960Y+4260500D01*
X-591440Y+4260500D01*
X-621920Y+4228750D01*
X-621920Y+4181125D01*
X-606680Y+4165250D01*
X-591440Y+4038250D02*
X-576200Y+4054125D01*
X-576200Y+4101750D01*
X-591440Y+4117625D01*
X-606680Y+4117625D01*
X-621920Y+4101750D01*
X-621920Y+4054125D01*
X-606680Y+4038250D01*
X-545720Y+4038250D01*
X-530480Y+4054125D01*
X-530480Y+4101750D01*
X-591440Y+3974750D02*
X-621920Y+3943000D01*
X-530480Y+3943000D01*
D53*
X-490000Y+3570000D02*
X-410000Y+3570000D01*
D51*
X-545720Y+3665250D02*
X-530480Y+3681125D01*
X-530480Y+3728750D01*
X-560960Y+3760500D01*
X-591440Y+3760500D01*
X-621920Y+3728750D01*
X-621920Y+3681125D01*
X-606680Y+3665250D01*
X-591440Y+3538250D02*
X-576200Y+3554125D01*
X-576200Y+3601750D01*
X-591440Y+3617625D01*
X-606680Y+3617625D01*
X-621920Y+3601750D01*
X-621920Y+3554125D01*
X-606680Y+3538250D01*
X-545720Y+3538250D01*
X-530480Y+3554125D01*
X-530480Y+3601750D01*
X-606680Y+3490625D02*
X-621920Y+3474750D01*
X-621920Y+3427125D01*
X-606680Y+3411250D01*
X-591440Y+3411250D01*
X-576200Y+3427125D01*
X-576200Y+3474750D01*
X-560960Y+3490625D01*
X-530480Y+3490625D01*
X-530480Y+3411250D01*
D53*
X-490000Y+3095000D02*
X-410000Y+3095000D01*
D51*
X-545720Y+3190250D02*
X-530480Y+3206125D01*
X-530480Y+3253750D01*
X-560960Y+3285500D01*
X-591440Y+3285500D01*
X-621920Y+3253750D01*
X-621920Y+3206125D01*
X-606680Y+3190250D01*
X-591440Y+3063250D02*
X-576200Y+3079125D01*
X-576200Y+3126750D01*
X-591440Y+3142625D01*
X-606680Y+3142625D01*
X-621920Y+3126750D01*
X-621920Y+3079125D01*
X-606680Y+3063250D01*
X-545720Y+3063250D01*
X-530480Y+3079125D01*
X-530480Y+3126750D01*
X-606680Y+3015625D02*
X-621920Y+2999750D01*
X-621920Y+2952125D01*
X-606680Y+2936250D01*
X-591440Y+2936250D01*
X-576200Y+2952125D01*
X-560960Y+2936250D01*
X-545720Y+2936250D01*
X-530480Y+2952125D01*
X-530480Y+2999750D01*
X-545720Y+3015625D01*
X-576200Y+2983875D02*
X-576200Y+2952125D01*
D53*
X-490000Y+2545000D02*
X-410000Y+2545000D01*
D51*
X-545720Y+2640250D02*
X-530480Y+2656125D01*
X-530480Y+2703750D01*
X-560960Y+2735500D01*
X-591440Y+2735500D01*
X-621920Y+2703750D01*
X-621920Y+2656125D01*
X-606680Y+2640250D01*
X-591440Y+2513250D02*
X-576200Y+2529125D01*
X-576200Y+2576750D01*
X-591440Y+2592625D01*
X-606680Y+2592625D01*
X-621920Y+2576750D01*
X-621920Y+2529125D01*
X-606680Y+2513250D01*
X-545720Y+2513250D01*
X-530480Y+2529125D01*
X-530480Y+2576750D01*
X-560960Y+2386250D02*
X-560960Y+2481500D01*
X-621920Y+2418000D01*
X-530480Y+2418000D01*
D53*
X-490000Y+1720000D02*
X-410000Y+1720000D01*
D51*
X-545720Y+1815250D02*
X-530480Y+1831125D01*
X-530480Y+1878750D01*
X-560960Y+1910500D01*
X-591440Y+1910500D01*
X-621920Y+1878750D01*
X-621920Y+1831125D01*
X-606680Y+1815250D01*
X-591440Y+1688250D02*
X-576200Y+1704125D01*
X-576200Y+1751750D01*
X-591440Y+1767625D01*
X-606680Y+1767625D01*
X-621920Y+1751750D01*
X-621920Y+1704125D01*
X-606680Y+1688250D01*
X-545720Y+1688250D01*
X-530480Y+1704125D01*
X-530480Y+1751750D01*
X-621920Y+1561250D02*
X-621920Y+1640625D01*
X-591440Y+1640625D01*
X-591440Y+1577125D01*
X-576200Y+1561250D01*
X-545720Y+1561250D01*
X-530480Y+1577125D01*
X-530480Y+1624750D01*
X-545720Y+1640625D01*
D53*
X-45000Y+885000D02*
X-45000Y+965000D01*
D51*
X+50250Y+768320D02*
X+66125Y+753080D01*
X+113750Y+753080D01*
X+145500Y+783560D01*
X+145500Y+814040D01*
X+113750Y+844520D01*
X+66125Y+844520D01*
X+50250Y+829280D01*
X-76750Y+814040D02*
X-60875Y+798800D01*
X-13250Y+798800D01*
X+2625Y+814040D01*
X+2625Y+829280D01*
X-13250Y+844520D01*
X-60875Y+844520D01*
X-76750Y+829280D01*
X-76750Y+768320D01*
X-60875Y+753080D01*
X-13250Y+753080D01*
X-203750Y+829280D02*
X-187875Y+844520D01*
X-140250Y+844520D01*
X-124375Y+829280D01*
X-124375Y+768320D01*
X-140250Y+753080D01*
X-187875Y+753080D01*
X-203750Y+768320D01*
X-203750Y+783560D01*
X-187875Y+798800D01*
X-124375Y+798800D01*
D53*
X+470000Y+885000D02*
X+470000Y+965000D01*
D51*
X+565250Y+768320D02*
X+581125Y+753080D01*
X+628750Y+753080D01*
X+660500Y+783560D01*
X+660500Y+814040D01*
X+628750Y+844520D01*
X+581125Y+844520D01*
X+565250Y+829280D01*
X+438250Y+814040D02*
X+454125Y+798800D01*
X+501750Y+798800D01*
X+517625Y+814040D01*
X+517625Y+829280D01*
X+501750Y+844520D01*
X+454125Y+844520D01*
X+438250Y+829280D01*
X+438250Y+768320D01*
X+454125Y+753080D01*
X+501750Y+753080D01*
X+390625Y+844520D02*
X+311250Y+844520D01*
X+311250Y+829280D01*
X+390625Y+753080D01*
D53*
X+1080000Y+885000D02*
X+1080000Y+965000D01*
D51*
X+1175250Y+768320D02*
X+1191125Y+753080D01*
X+1238750Y+753080D01*
X+1270500Y+783560D01*
X+1270500Y+814040D01*
X+1238750Y+844520D01*
X+1191125Y+844520D01*
X+1175250Y+829280D01*
X+1048250Y+814040D02*
X+1064125Y+798800D01*
X+1111750Y+798800D01*
X+1127625Y+814040D01*
X+1127625Y+829280D01*
X+1111750Y+844520D01*
X+1064125Y+844520D01*
X+1048250Y+829280D01*
X+1048250Y+768320D01*
X+1064125Y+753080D01*
X+1111750Y+753080D01*
X+984750Y+798800D02*
X+1000625Y+814040D01*
X+1000625Y+829280D01*
X+984750Y+844520D01*
X+937125Y+844520D01*
X+921250Y+829280D01*
X+921250Y+814040D01*
X+937125Y+798800D01*
X+984750Y+798800D01*
X+1000625Y+783560D01*
X+1000625Y+768320D01*
X+984750Y+753080D01*
X+937125Y+753080D01*
X+921250Y+768320D01*
X+921250Y+783560D01*
X+937125Y+798800D01*
D53*
X+1605000Y+885000D02*
X+1605000Y+965000D01*
D51*
X+1631200Y+768320D02*
X+1643900Y+753080D01*
X+1682000Y+753080D01*
X+1707400Y+783560D01*
X+1707400Y+814040D01*
X+1682000Y+844520D01*
X+1643900Y+844520D01*
X+1631200Y+829280D01*
X+1529600Y+814040D02*
X+1542300Y+798800D01*
X+1580400Y+798800D01*
X+1593100Y+814040D01*
X+1593100Y+829280D01*
X+1580400Y+844520D01*
X+1542300Y+844520D01*
X+1529600Y+829280D01*
X+1529600Y+768320D01*
X+1542300Y+753080D01*
X+1580400Y+753080D01*
X+1428000Y+814040D02*
X+1440700Y+798800D01*
X+1478800Y+798800D01*
X+1491500Y+814040D01*
X+1491500Y+829280D01*
X+1478800Y+844520D01*
X+1440700Y+844520D01*
X+1428000Y+829280D01*
X+1428000Y+768320D01*
X+1440700Y+753080D01*
X+1478800Y+753080D01*
D53*
X+1980000Y+885000D02*
X+1980000Y+965000D01*
D51*
X+2107000Y+768320D02*
X+2119700Y+753080D01*
X+2157800Y+753080D01*
X+2183200Y+783560D01*
X+2183200Y+814040D01*
X+2157800Y+844520D01*
X+2119700Y+844520D01*
X+2107000Y+829280D01*
X+2056200Y+814040D02*
X+2030800Y+844520D01*
X+2030800Y+753080D01*
X+1980000Y+768320D02*
X+1980000Y+829280D01*
X+1967300Y+844520D01*
X+1916500Y+844520D01*
X+1903800Y+829280D01*
X+1903800Y+768320D01*
X+1916500Y+753080D01*
X+1967300Y+753080D01*
X+1980000Y+768320D01*
X+1980000Y+753080D02*
X+1903800Y+844520D01*
X+1878400Y+768320D02*
X+1878400Y+829280D01*
X+1865700Y+844520D01*
X+1814900Y+844520D01*
X+1802200Y+829280D01*
X+1802200Y+768320D01*
X+1814900Y+753080D01*
X+1865700Y+753080D01*
X+1878400Y+768320D01*
X+1878400Y+753080D02*
X+1802200Y+844520D01*
D53*
X+2355000Y+885000D02*
X+2355000Y+965000D01*
D51*
X+2532000Y+768320D02*
X+2544700Y+753080D01*
X+2582800Y+753080D01*
X+2608200Y+783560D01*
X+2608200Y+814040D01*
X+2582800Y+844520D01*
X+2544700Y+844520D01*
X+2532000Y+829280D01*
X+2481200Y+814040D02*
X+2455800Y+844520D01*
X+2455800Y+753080D01*
X+2405000Y+768320D02*
X+2405000Y+829280D01*
X+2392300Y+844520D01*
X+2341500Y+844520D01*
X+2328800Y+829280D01*
X+2328800Y+768320D01*
X+2341500Y+753080D01*
X+2392300Y+753080D01*
X+2405000Y+768320D01*
X+2405000Y+753080D02*
X+2328800Y+844520D01*
X+2278000Y+814040D02*
X+2252600Y+844520D01*
X+2252600Y+753080D01*
M02*
